  0
SECTION
  2
HEADER
  9
$ACADVER
  1
AC1009
  9
$FILLMODE
 70
0
  9
$EXTMIN
 10
-0.412500
 20
-0.012500
 30
0.000000
  9
$EXTMAX
 10
1.452500
 20
1.152500
 30
0.000000
  0
ENDSEC
  0
SECTION
  2
TABLES
  0
TABLE
  2
LTYPE
 70
1
  0
LTYPE
  2
CONTINUOUS
 70
64
  3
Solid line
 72
65
 73
0
 40
0
  0
ENDTAB
  0
TABLE
  2
LAYER
 70
255
  0
LAYER
  2
20
 70
64
 62
7
  6
CONTINUOUS
  0
LAYER
  2
31
 70
64
 62
253
  6
CONTINUOUS
  0
ENDTAB
  0
ENDSEC
  0
SECTION
  2
BLOCKS
  0
BLOCK
  8
0
  2
RECT
 70
64
 10
0.000000
 20
0.000000
 30
0.000000
  3
RECT
  0
SOLID
  8
0
 10
-0.500000
 20
-0.500000
 30
0.000000
 11
0.500000
 21
-0.500000
 31
0.000000
 12
-0.500000
 22
0.500000
 32
0.000000
 13
0.500000
 23
0.500000
 33
0.000000
  0
ENDBLK
  8
0
  0
BLOCK
  8
0
  2
PIE
 70
64
 10
0.000000
 20
0.000000
 30
0.000000
  3
PIE
  0
CIRCLE
  8
0
 10
0.000000
 20
0.000000
 30
0.000000
 40
0.500000
  0
ENDBLK
  8
0
  0
BLOCK
  8
0
  2
OCTAGONP
 70
64
 10
0.000000
 20
0.000000
 30
0.000000
  3
OCTAGONP
  0
POLYLINE
  8
0
 66
1
 10
0.000000
 20
0.000000
 30
0.000000
 40
0.000000
 41
0.000000
 70
1
  0
VERTEX
  8
0
 10
-0.500000
 20
-0.207107
 30
0.000000
  0
VERTEX
  8
0
 10
-0.500000
 20
0.207107
 30
0.000000
  0
VERTEX
  8
0
 10
-0.207107
 20
0.500000
 30
0.000000
  0
VERTEX
  8
0
 10
0.207107
 20
0.500000
 30
0.000000
  0
VERTEX
  8
0
 10
0.500000
 20
0.207107
 30
0.000000
  0
VERTEX
  8
0
 10
0.500000
 20
-0.207107
 30
0.000000
  0
VERTEX
  8
0
 10
0.207107
 20
-0.500000
 30
0.000000
  0
VERTEX
  8
0
 10
-0.207107
 20
-0.500000
 30
0.000000
  0
SEQEND
  8
0
  0
ENDBLK
  8
0
  0
BLOCK
  8
0
  2
SQUAREP
 70
64
 10
0.000000
 20
0.000000
 30
0.000000
  3
SQUAREP
  0
SOLID
  8
0
 10
-0.500000
 20
-0.500000
 30
0.000000
 11
0.500000
 21
-0.500000
 31
0.000000
 12
-0.500000
 22
0.500000
 32
0.000000
 13
0.500000
 23
0.500000
 33
0.000000
  0
ENDBLK
  8
0
  0
BLOCK
  8
0
  2
ROUNDP
 70
64
 10
0.000000
 20
0.000000
 30
0.000000
  3
ROUNDP
  0
CIRCLE
  8
0
 10
0.000000
 20
0.000000
 30
0.000000
 40
0.500000
  0
ENDBLK
  8
0
  0
BLOCK
  8
0
  2
ANNULUSP
 70
64
 10
0.000000
 20
0.000000
 30
0.000000
  3
ANNULUSP
  0
CIRCLE
  8
0
 10
0.000000
 20
0.000000
 30
0.000000
 40
0.500000
  0
ENDBLK
  8
0
  0
BLOCK
  8
0
  2
THERMALP
 70
64
 10
0.000000
 20
0.000000
 30
0.000000
  3
THERMALP
  0
LINE
  8
0
 10
-0.237868
 20
0.450000
 30
0.000000
 11
0.237868
 21
0.450000
 31
0.000000
  0
LINE
  8
0
 10
0.450000
 20
0.237868
 30
0.000000
 11
0.450000
 21
-0.237868
 31
0.000000
  0
LINE
  8
0
 10
0.237868
 20
-0.450000
 30
0.000000
 11
-0.237868
 21
-0.450000
 31
0.000000
  0
LINE
  8
0
 10
-0.450000
 20
-0.237868
 30
0.000000
 11
-0.450000
 21
0.237868
 31
0.000000
  0
ENDBLK
  8
0
  0
BLOCK
  8
0
  2
OCTAGONV
 70
64
 10
0.000000
 20
0.000000
 30
0.000000
  3
OCTAGONV
  0
POLYLINE
  8
0
 66
1
 10
0.000000
 20
0.000000
 30
0.000000
 40
0.000000
 41
0.000000
 70
1
  0
VERTEX
  8
0
 10
-0.500000
 20
-0.207107
 30
0.000000
  0
VERTEX
  8
0
 10
-0.500000
 20
0.207107
 30
0.000000
  0
VERTEX
  8
0
 10
-0.207107
 20
0.500000
 30
0.000000
  0
VERTEX
  8
0
 10
0.207107
 20
0.500000
 30
0.000000
  0
VERTEX
  8
0
 10
0.500000
 20
0.207107
 30
0.000000
  0
VERTEX
  8
0
 10
0.500000
 20
-0.207107
 30
0.000000
  0
VERTEX
  8
0
 10
0.207107
 20
-0.500000
 30
0.000000
  0
VERTEX
  8
0
 10
-0.207107
 20
-0.500000
 30
0.000000
  0
SEQEND
  8
0
  0
ENDBLK
  8
0
  0
BLOCK
  8
0
  2
SQUAREV
 70
64
 10
0.000000
 20
0.000000
 30
0.000000
  3
SQUAREV
  0
SOLID
  8
0
 10
-0.500000
 20
-0.500000
 30
0.000000
 11
0.500000
 21
-0.500000
 31
0.000000
 12
-0.500000
 22
0.500000
 32
0.000000
 13
0.500000
 23
0.500000
 33
0.000000
  0
ENDBLK
  8
0
  0
BLOCK
  8
0
  2
ROUNDV
 70
64
 10
0.000000
 20
0.000000
 30
0.000000
  3
ROUNDV
  0
CIRCLE
  8
0
 10
0.000000
 20
0.000000
 30
0.000000
 40
0.500000
  0
ENDBLK
  8
0
  0
BLOCK
  8
0
  2
ANNULUSV
 70
64
 10
0.000000
 20
0.000000
 30
0.000000
  3
ANNULUSV
  0
CIRCLE
  8
0
 10
0.000000
 20
0.000000
 30
0.000000
 40
0.500000
  0
ENDBLK
  8
0
  0
BLOCK
  8
0
  2
THERMALV
 70
64
 10
0.000000
 20
0.000000
 30
0.000000
  3
THERMALV
  0
LINE
  8
0
 10
-0.237868
 20
0.450000
 30
0.000000
 11
0.237868
 21
0.450000
 31
0.000000
  0
LINE
  8
0
 10
0.450000
 20
0.237868
 30
0.000000
 11
0.450000
 21
-0.237868
 31
0.000000
  0
LINE
  8
0
 10
0.237868
 20
-0.450000
 30
0.000000
 11
-0.237868
 21
-0.450000
 31
0.000000
  0
LINE
  8
0
 10
-0.450000
 20
-0.237868
 30
0.000000
 11
-0.450000
 21
0.237868
 31
0.000000
  0
ENDBLK
  8
0
  0
ENDSEC
  0
SECTION
  2
ENTITIES
  0
LINE
  8
20
 10
0.000000
 20
0.000000
 30
0.000000
 11
1.300000
 21
0.000000
 31
0.000000
  0
LINE
  8
20
 10
1.300000
 20
0.000000
 30
0.000000
 11
1.300000
 21
1.100000
 31
0.000000
  0
LINE
  8
20
 10
1.300000
 20
1.100000
 30
0.000000
 11
0.000000
 21
1.100000
 31
0.000000
  0
LINE
  8
20
 10
0.000000
 20
1.100000
 30
0.000000
 11
0.000000
 21
0.000000
 31
0.000000
  0
CIRCLE
  8
20
 10
1.150000
 20
0.850000
 30
0.000000
 40
0.046875
  0
CIRCLE
  8
20
 10
1.150000
 20
1.000000
 30
0.000000
 40
0.046875
  0
INSERT
  8
31
  2
RECT
 10
0.532535
 20
0.887000
 30
0.000000
 41
0.033307
 42
0.029370
 43
1.000000
 50
0.000000
  0
INSERT
  8
31
  2
RECT
 10
0.599465
 20
0.887000
 30
0.000000
 41
0.033307
 42
0.029370
 43
1.000000
 50
0.000000
  0
INSERT
  8
31
  2
RECT
 10
0.116535
 20
0.289500
 30
0.000000
 41
0.033307
 42
0.029370
 43
1.000000
 50
0.000000
  0
INSERT
  8
31
  2
RECT
 10
0.183465
 20
0.289500
 30
0.000000
 41
0.033307
 42
0.029370
 43
1.000000
 50
0.000000
  0
INSERT
  8
31
  2
RECT
 10
0.316535
 20
0.289500
 30
0.000000
 41
0.033307
 42
0.029370
 43
1.000000
 50
0.000000
  0
INSERT
  8
31
  2
RECT
 10
0.383465
 20
0.289500
 30
0.000000
 41
0.033307
 42
0.029370
 43
1.000000
 50
0.000000
  0
INSERT
  8
31
  2
RECT
 10
0.583465
 20
0.289500
 30
0.000000
 41
0.033307
 42
0.029370
 43
1.000000
 50
180.000000
  0
INSERT
  8
31
  2
RECT
 10
0.516535
 20
0.289500
 30
0.000000
 41
0.033307
 42
0.029370
 43
1.000000
 50
180.000000
  0
INSERT
  8
31
  2
RECT
 10
0.716535
 20
0.289500
 30
0.000000
 41
0.033307
 42
0.029370
 43
1.000000
 50
0.000000
  0
INSERT
  8
31
  2
RECT
 10
0.783465
 20
0.289500
 30
0.000000
 41
0.033307
 42
0.029370
 43
1.000000
 50
0.000000
  0
INSERT
  8
31
  2
RECT
 10
0.655918
 20
0.987800
 30
0.000000
 41
0.052992
 42
0.060866
 43
1.000000
 50
180.000000
  0
INSERT
  8
31
  2
RECT
 10
0.545682
 20
0.987800
 30
0.000000
 41
0.052992
 42
0.060866
 43
1.000000
 50
180.000000
  0
INSERT
  8
31
  2
RECT
 10
0.390518
 20
0.987800
 30
0.000000
 41
0.052992
 42
0.060866
 43
1.000000
 50
180.000000
  0
INSERT
  8
31
  2
RECT
 10
0.280282
 20
0.987800
 30
0.000000
 41
0.052992
 42
0.060866
 43
1.000000
 50
180.000000
  0
CIRCLE
  8
20
 10
1.150000
 20
0.100000
 30
0.000000
 40
0.046875
  0
CIRCLE
  8
20
 10
1.150000
 20
0.700000
 30
0.000000
 40
0.046875
  0
CIRCLE
  8
20
 10
1.150000
 20
0.550000
 30
0.000000
 40
0.046875
  0
CIRCLE
  8
20
 10
1.150000
 20
0.400000
 30
0.000000
 40
0.046875
  0
CIRCLE
  8
20
 10
1.150000
 20
0.250000
 30
0.000000
 40
0.046875
  0
INSERT
  8
31
  2
RECT
 10
0.136200
 20
0.985200
 30
0.000000
 41
0.037000
 42
0.039000
 43
1.000000
 50
180.000000
  0
INSERT
  8
31
  2
RECT
 10
0.054200
 20
0.985200
 30
0.000000
 41
0.037000
 42
0.039000
 43
1.000000
 50
180.000000
  0
INSERT
  8
31
  2
RECT
 10
0.325535
 20
0.896600
 30
0.000000
 41
0.029370
 42
0.033307
 43
1.000000
 50
0.000000
  0
INSERT
  8
31
  2
RECT
 10
0.392465
 20
0.896600
 30
0.000000
 41
0.029370
 42
0.033307
 43
1.000000
 50
0.000000
  0
INSERT
  8
31
  2
RECT
 10
0.183465
 20
0.151500
 30
0.000000
 41
0.029370
 42
0.033307
 43
1.000000
 50
180.000000
  0
INSERT
  8
31
  2
RECT
 10
0.116535
 20
0.151500
 30
0.000000
 41
0.029370
 42
0.033307
 43
1.000000
 50
180.000000
  0
INSERT
  8
31
  2
RECT
 10
0.383465
 20
0.151500
 30
0.000000
 41
0.029370
 42
0.033307
 43
1.000000
 50
180.000000
  0
INSERT
  8
31
  2
RECT
 10
0.316535
 20
0.151500
 30
0.000000
 41
0.029370
 42
0.033307
 43
1.000000
 50
180.000000
  0
INSERT
  8
31
  2
RECT
 10
0.583465
 20
0.151500
 30
0.000000
 41
0.029370
 42
0.033307
 43
1.000000
 50
180.000000
  0
INSERT
  8
31
  2
RECT
 10
0.516535
 20
0.151500
 30
0.000000
 41
0.029370
 42
0.033307
 43
1.000000
 50
180.000000
  0
INSERT
  8
31
  2
RECT
 10
0.783465
 20
0.151500
 30
0.000000
 41
0.029370
 42
0.033307
 43
1.000000
 50
180.000000
  0
INSERT
  8
31
  2
RECT
 10
0.716535
 20
0.151500
 30
0.000000
 41
0.029370
 42
0.033307
 43
1.000000
 50
180.000000
  0
INSERT
  8
31
  2
RECT
 10
0.136535
 20
0.881200
 30
0.000000
 41
0.029370
 42
0.033307
 43
1.000000
 50
0.000000
  0
INSERT
  8
31
  2
RECT
 10
0.203465
 20
0.881200
 30
0.000000
 41
0.029370
 42
0.033307
 43
1.000000
 50
0.000000
  0
INSERT
  8
31
  2
RECT
 10
0.116535
 20
0.089000
 30
0.000000
 41
0.029370
 42
0.033307
 43
1.000000
 50
0.000000
  0
INSERT
  8
31
  2
RECT
 10
0.183465
 20
0.089000
 30
0.000000
 41
0.029370
 42
0.033307
 43
1.000000
 50
0.000000
  0
INSERT
  8
31
  2
RECT
 10
0.316135
 20
0.089000
 30
0.000000
 41
0.029370
 42
0.033307
 43
1.000000
 50
0.000000
  0
INSERT
  8
31
  2
RECT
 10
0.383065
 20
0.089000
 30
0.000000
 41
0.029370
 42
0.033307
 43
1.000000
 50
0.000000
  0
INSERT
  8
31
  2
RECT
 10
0.516535
 20
0.089200
 30
0.000000
 41
0.029370
 42
0.033307
 43
1.000000
 50
0.000000
  0
INSERT
  8
31
  2
RECT
 10
0.583465
 20
0.089200
 30
0.000000
 41
0.029370
 42
0.033307
 43
1.000000
 50
0.000000
  0
INSERT
  8
31
  2
RECT
 10
0.716335
 20
0.088600
 30
0.000000
 41
0.029370
 42
0.033307
 43
1.000000
 50
0.000000
  0
INSERT
  8
31
  2
RECT
 10
0.783265
 20
0.088600
 30
0.000000
 41
0.029370
 42
0.033307
 43
1.000000
 50
0.000000
  0
INSERT
  8
31
  2
RECT
 10
0.075000
 20
0.387000
 30
0.000000
 41
0.140000
 42
0.070000
 43
1.000000
 50
180.000000
  0
INSERT
  8
31
  2
RECT
 10
0.075000
 20
0.487000
 30
0.000000
 41
0.140000
 42
0.070000
 43
1.000000
 50
180.000000
  0
INSERT
  8
31
  2
RECT
 10
0.075000
 20
0.587000
 30
0.000000
 41
0.140000
 42
0.070000
 43
1.000000
 50
180.000000
  0
INSERT
  8
31
  2
RECT
 10
0.075000
 20
0.687000
 30
0.000000
 41
0.140000
 42
0.070000
 43
1.000000
 50
180.000000
  0
INSERT
  8
31
  2
RECT
 10
0.075000
 20
0.787000
 30
0.000000
 41
0.140000
 42
0.070000
 43
1.000000
 50
180.000000
  0
INSERT
  8
31
  2
RECT
 10
0.846850
 20
0.362000
 30
0.000000
 41
0.013622
 42
0.049055
 43
1.000000
 50
90.000000
  0
INSERT
  8
31
  2
RECT
 10
0.846850
 20
0.412000
 30
0.000000
 41
0.013622
 42
0.049055
 43
1.000000
 50
90.000000
  0
INSERT
  8
31
  2
RECT
 10
0.846850
 20
0.462000
 30
0.000000
 41
0.013622
 42
0.049055
 43
1.000000
 50
90.000000
  0
INSERT
  8
31
  2
RECT
 10
0.846850
 20
0.512000
 30
0.000000
 41
0.013622
 42
0.049055
 43
1.000000
 50
90.000000
  0
INSERT
  8
31
  2
RECT
 10
0.846850
 20
0.562000
 30
0.000000
 41
0.013622
 42
0.049055
 43
1.000000
 50
90.000000
  0
INSERT
  8
31
  2
RECT
 10
0.846850
 20
0.612000
 30
0.000000
 41
0.013622
 42
0.049055
 43
1.000000
 50
90.000000
  0
INSERT
  8
31
  2
RECT
 10
0.846850
 20
0.662000
 30
0.000000
 41
0.013622
 42
0.049055
 43
1.000000
 50
90.000000
  0
INSERT
  8
31
  2
RECT
 10
0.846850
 20
0.712000
 30
0.000000
 41
0.013622
 42
0.049055
 43
1.000000
 50
90.000000
  0
INSERT
  8
31
  2
RECT
 10
0.846850
 20
0.762000
 30
0.000000
 41
0.013622
 42
0.049055
 43
1.000000
 50
90.000000
  0
INSERT
  8
31
  2
RECT
 10
0.846850
 20
0.812000
 30
0.000000
 41
0.013622
 42
0.049055
 43
1.000000
 50
90.000000
  0
INSERT
  8
31
  2
RECT
 10
0.453150
 20
0.812000
 30
0.000000
 41
0.013622
 42
0.049055
 43
1.000000
 50
90.000000
  0
INSERT
  8
31
  2
RECT
 10
0.453150
 20
0.762000
 30
0.000000
 41
0.013622
 42
0.049055
 43
1.000000
 50
90.000000
  0
INSERT
  8
31
  2
RECT
 10
0.453150
 20
0.712000
 30
0.000000
 41
0.013622
 42
0.049055
 43
1.000000
 50
90.000000
  0
INSERT
  8
31
  2
RECT
 10
0.453150
 20
0.662000
 30
0.000000
 41
0.013622
 42
0.049055
 43
1.000000
 50
90.000000
  0
INSERT
  8
31
  2
RECT
 10
0.453150
 20
0.612000
 30
0.000000
 41
0.013622
 42
0.049055
 43
1.000000
 50
90.000000
  0
INSERT
  8
31
  2
RECT
 10
0.453150
 20
0.562000
 30
0.000000
 41
0.013622
 42
0.049055
 43
1.000000
 50
90.000000
  0
INSERT
  8
31
  2
RECT
 10
0.453150
 20
0.512000
 30
0.000000
 41
0.013622
 42
0.049055
 43
1.000000
 50
90.000000
  0
INSERT
  8
31
  2
RECT
 10
0.453150
 20
0.462000
 30
0.000000
 41
0.013622
 42
0.049055
 43
1.000000
 50
90.000000
  0
INSERT
  8
31
  2
RECT
 10
0.453150
 20
0.412000
 30
0.000000
 41
0.013622
 42
0.049055
 43
1.000000
 50
90.000000
  0
INSERT
  8
31
  2
RECT
 10
0.453150
 20
0.362000
 30
0.000000
 41
0.013622
 42
0.049055
 43
1.000000
 50
90.000000
  0
ENDSEC
  0
EOF
