  0
SECTION
  2
HEADER
  9
$ACADVER
  1
AC1009
  9
$FILLMODE
 70
0
  9
$EXTMIN
 10
-0.972500
 20
-0.040000
 30
0.000000
  9
$EXTMAX
 10
2.952500
 20
2.158000
 30
0.000000
  0
ENDSEC
  0
SECTION
  2
TABLES
  0
TABLE
  2
LTYPE
 70
1
  0
LTYPE
  2
CONTINUOUS
 70
64
  3
Solid line
 72
65
 73
0
 40
0
  0
ENDTAB
  0
TABLE
  2
LAYER
 70
255
  0
LAYER
  2
20
 70
64
 62
178
  6
CONTINUOUS
  0
LAYER
  2
31
 70
64
 62
251
  6
CONTINUOUS
  0
LAYER
  2
32
 70
64
 62
251
  6
CONTINUOUS
  0
ENDTAB
  0
ENDSEC
  0
SECTION
  2
BLOCKS
  0
BLOCK
  8
0
  2
RECT
 70
64
 10
0.000000
 20
0.000000
 30
0.000000
  3
RECT
  0
SOLID
  8
0
 10
-0.500000
 20
-0.500000
 30
0.000000
 11
0.500000
 21
-0.500000
 31
0.000000
 12
-0.500000
 22
0.500000
 32
0.000000
 13
0.500000
 23
0.500000
 33
0.000000
  0
ENDBLK
  8
0
  0
BLOCK
  8
0
  2
PIE
 70
64
 10
0.000000
 20
0.000000
 30
0.000000
  3
PIE
  0
CIRCLE
  8
0
 10
0.000000
 20
0.000000
 30
0.000000
 40
0.500000
  0
ENDBLK
  8
0
  0
BLOCK
  8
0
  2
OCTAGONP
 70
64
 10
0.000000
 20
0.000000
 30
0.000000
  3
OCTAGONP
  0
POLYLINE
  8
0
 66
1
 10
0.000000
 20
0.000000
 30
0.000000
 40
0.000000
 41
0.000000
 70
1
  0
VERTEX
  8
0
 10
-0.500000
 20
-0.207107
 30
0.000000
  0
VERTEX
  8
0
 10
-0.500000
 20
0.207107
 30
0.000000
  0
VERTEX
  8
0
 10
-0.207107
 20
0.500000
 30
0.000000
  0
VERTEX
  8
0
 10
0.207107
 20
0.500000
 30
0.000000
  0
VERTEX
  8
0
 10
0.500000
 20
0.207107
 30
0.000000
  0
VERTEX
  8
0
 10
0.500000
 20
-0.207107
 30
0.000000
  0
VERTEX
  8
0
 10
0.207107
 20
-0.500000
 30
0.000000
  0
VERTEX
  8
0
 10
-0.207107
 20
-0.500000
 30
0.000000
  0
SEQEND
  8
0
  0
ENDBLK
  8
0
  0
BLOCK
  8
0
  2
SQUAREP
 70
64
 10
0.000000
 20
0.000000
 30
0.000000
  3
SQUAREP
  0
SOLID
  8
0
 10
-0.500000
 20
-0.500000
 30
0.000000
 11
0.500000
 21
-0.500000
 31
0.000000
 12
-0.500000
 22
0.500000
 32
0.000000
 13
0.500000
 23
0.500000
 33
0.000000
  0
ENDBLK
  8
0
  0
BLOCK
  8
0
  2
ROUNDP
 70
64
 10
0.000000
 20
0.000000
 30
0.000000
  3
ROUNDP
  0
CIRCLE
  8
0
 10
0.000000
 20
0.000000
 30
0.000000
 40
0.500000
  0
ENDBLK
  8
0
  0
BLOCK
  8
0
  2
ANNULUSP
 70
64
 10
0.000000
 20
0.000000
 30
0.000000
  3
ANNULUSP
  0
CIRCLE
  8
0
 10
0.000000
 20
0.000000
 30
0.000000
 40
0.500000
  0
ENDBLK
  8
0
  0
BLOCK
  8
0
  2
THERMALP
 70
64
 10
0.000000
 20
0.000000
 30
0.000000
  3
THERMALP
  0
LINE
  8
0
 10
-0.237868
 20
0.450000
 30
0.000000
 11
0.237868
 21
0.450000
 31
0.000000
  0
LINE
  8
0
 10
0.450000
 20
0.237868
 30
0.000000
 11
0.450000
 21
-0.237868
 31
0.000000
  0
LINE
  8
0
 10
0.237868
 20
-0.450000
 30
0.000000
 11
-0.237868
 21
-0.450000
 31
0.000000
  0
LINE
  8
0
 10
-0.450000
 20
-0.237868
 30
0.000000
 11
-0.450000
 21
0.237868
 31
0.000000
  0
ENDBLK
  8
0
  0
BLOCK
  8
0
  2
OCTAGONV
 70
64
 10
0.000000
 20
0.000000
 30
0.000000
  3
OCTAGONV
  0
POLYLINE
  8
0
 66
1
 10
0.000000
 20
0.000000
 30
0.000000
 40
0.000000
 41
0.000000
 70
1
  0
VERTEX
  8
0
 10
-0.500000
 20
-0.207107
 30
0.000000
  0
VERTEX
  8
0
 10
-0.500000
 20
0.207107
 30
0.000000
  0
VERTEX
  8
0
 10
-0.207107
 20
0.500000
 30
0.000000
  0
VERTEX
  8
0
 10
0.207107
 20
0.500000
 30
0.000000
  0
VERTEX
  8
0
 10
0.500000
 20
0.207107
 30
0.000000
  0
VERTEX
  8
0
 10
0.500000
 20
-0.207107
 30
0.000000
  0
VERTEX
  8
0
 10
0.207107
 20
-0.500000
 30
0.000000
  0
VERTEX
  8
0
 10
-0.207107
 20
-0.500000
 30
0.000000
  0
SEQEND
  8
0
  0
ENDBLK
  8
0
  0
BLOCK
  8
0
  2
SQUAREV
 70
64
 10
0.000000
 20
0.000000
 30
0.000000
  3
SQUAREV
  0
SOLID
  8
0
 10
-0.500000
 20
-0.500000
 30
0.000000
 11
0.500000
 21
-0.500000
 31
0.000000
 12
-0.500000
 22
0.500000
 32
0.000000
 13
0.500000
 23
0.500000
 33
0.000000
  0
ENDBLK
  8
0
  0
BLOCK
  8
0
  2
ROUNDV
 70
64
 10
0.000000
 20
0.000000
 30
0.000000
  3
ROUNDV
  0
CIRCLE
  8
0
 10
0.000000
 20
0.000000
 30
0.000000
 40
0.500000
  0
ENDBLK
  8
0
  0
BLOCK
  8
0
  2
ANNULUSV
 70
64
 10
0.000000
 20
0.000000
 30
0.000000
  3
ANNULUSV
  0
CIRCLE
  8
0
 10
0.000000
 20
0.000000
 30
0.000000
 40
0.500000
  0
ENDBLK
  8
0
  0
BLOCK
  8
0
  2
THERMALV
 70
64
 10
0.000000
 20
0.000000
 30
0.000000
  3
THERMALV
  0
LINE
  8
0
 10
-0.237868
 20
0.450000
 30
0.000000
 11
0.237868
 21
0.450000
 31
0.000000
  0
LINE
  8
0
 10
0.450000
 20
0.237868
 30
0.000000
 11
0.450000
 21
-0.237868
 31
0.000000
  0
LINE
  8
0
 10
0.237868
 20
-0.450000
 30
0.000000
 11
-0.237868
 21
-0.450000
 31
0.000000
  0
LINE
  8
0
 10
-0.450000
 20
-0.237868
 30
0.000000
 11
-0.450000
 21
0.237868
 31
0.000000
  0
ENDBLK
  8
0
  0
BLOCK
  8
0
  2
LONGP100
 70
64
 10
0.000000
 20
0.000000
 30
0.000000
  3
LONGP100
  0
POLYLINE
  8
0
 66
1
 10
0.000000
 20
0.000000
 30
0.000000
 40
0.000000
 41
0.000000
 70
1
  0
VERTEX
  8
0
 10
-0.500000
 20
-0.500000
 30
0.000000
  0
VERTEX
  8
0
 10
0.500000
 20
-0.500000
 30
0.000000
 42
1.000000
  0
VERTEX
  8
0
 10
0.500000
 20
0.500000
 30
0.000000
  0
VERTEX
  8
0
 10
-0.500000
 20
0.500000
 30
0.000000
 42
1.000000
  0
SEQEND
  8
0
  0
ENDBLK
  8
0
  0
ENDSEC
  0
SECTION
  2
ENTITIES
  0
LINE
  8
20
 10
0.000000
 20
0.000000
 30
0.000000
 11
2.837008
 21
0.000000
 31
0.000000
  0
LINE
  8
20
 10
2.837008
 20
0.000000
 30
0.000000
 11
2.837008
 21
2.149606
 31
0.000000
  0
LINE
  8
20
 10
2.837008
 20
2.149606
 30
0.000000
 11
0.000000
 21
2.149606
 31
0.000000
  0
LINE
  8
20
 10
0.000000
 20
2.149606
 30
0.000000
 11
0.000000
 21
0.000000
 31
0.000000
  0
CIRCLE
  8
20
 10
0.350000
 20
1.550000
 30
0.000000
 40
0.062500
  0
CIRCLE
  8
20
 10
0.210000
 20
1.550000
 30
0.000000
 40
0.062500
  0
CIRCLE
  8
20
 10
0.350000
 20
1.400000
 30
0.000000
 40
0.062500
  0
CIRCLE
  8
20
 10
0.350000
 20
1.250000
 30
0.000000
 40
0.062500
  0
CIRCLE
  8
20
 10
0.350000
 20
1.100000
 30
0.000000
 40
0.062500
  0
CIRCLE
  8
20
 10
0.210000
 20
0.800000
 30
0.000000
 40
0.062500
  0
CIRCLE
  8
20
 10
0.070000
 20
0.800000
 30
0.000000
 40
0.062500
  0
CIRCLE
  8
20
 10
0.070000
 20
1.550000
 30
0.000000
 40
0.062500
  0
CIRCLE
  8
20
 10
0.350000
 20
0.950000
 30
0.000000
 40
0.062500
  0
CIRCLE
  8
20
 10
0.350000
 20
0.800000
 30
0.000000
 40
0.062500
  0
INSERT
  8
31
  2
RECT
 10
0.180000
 20
0.655000
 30
0.000000
 41
0.340000
 42
0.040000
 43
1.000000
 50
0.000000
  0
INSERT
  8
31
  2
RECT
 10
0.180000
 20
0.345000
 30
0.000000
 41
0.340000
 42
0.040000
 43
1.000000
 50
0.000000
  0
INSERT
  8
31
  2
RECT
 10
0.850118
 20
0.350000
 30
0.000000
 41
0.052992
 42
0.060866
 43
1.000000
 50
180.000000
  0
INSERT
  8
31
  2
RECT
 10
0.739882
 20
0.350000
 30
0.000000
 41
0.052992
 42
0.060866
 43
1.000000
 50
180.000000
  0
INSERT
  8
31
  2
RECT
 10
0.739882
 20
0.500000
 30
0.000000
 41
0.052992
 42
0.060866
 43
1.000000
 50
0.000000
  0
INSERT
  8
31
  2
RECT
 10
0.850118
 20
0.500000
 30
0.000000
 41
0.052992
 42
0.060866
 43
1.000000
 50
0.000000
  0
CIRCLE
  8
20
 10
0.125000
 20
0.125000
 30
0.000000
 40
0.062500
  0
CIRCLE
  8
20
 10
2.725000
 20
0.250000
 30
0.000000
 40
0.062500
  0
CIRCLE
  8
20
 10
2.725000
 20
1.900000
 30
0.000000
 40
0.062500
  0
CIRCLE
  8
20
 10
0.125000
 20
2.025000
 30
0.000000
 40
0.062500
  0
CIRCLE
  8
20
 10
2.650000
 20
1.100000
 30
0.000000
 40
0.087500
  0
CIRCLE
  8
20
 10
2.650000
 20
1.350000
 30
0.000000
 40
0.087500
  0
INSERT
  8
31
  2
RECT
 10
0.241000
 20
1.800000
 30
0.000000
 41
0.037000
 42
0.039000
 43
1.000000
 50
180.000000
  0
INSERT
  8
31
  2
RECT
 10
0.159000
 20
1.800000
 30
0.000000
 41
0.037000
 42
0.039000
 43
1.000000
 50
180.000000
  0
INSERT
  8
31
  2
RECT
 10
0.366535
 20
1.800000
 30
0.000000
 41
0.029370
 42
0.033307
 43
1.000000
 50
0.000000
  0
INSERT
  8
31
  2
RECT
 10
0.433465
 20
1.800000
 30
0.000000
 41
0.029370
 42
0.033307
 43
1.000000
 50
0.000000
  0
INSERT
  8
31
  2
RECT
 10
0.755000
 20
1.250000
 30
0.000000
 41
0.490000
 42
0.315000
 43
1.000000
 50
0.000000
  0
ENDSEC
  0
EOF
