  0
SECTION
  2
HEADER
  9
$ACADVER
  1
AC1009
  9
$FILLMODE
 70
0
  9
$EXTMIN
 10
-0.005500
 20
-0.005500
 30
0.000000
  9
$EXTMAX
 10
3.057706
 20
1.812500
 30
0.000000
  0
ENDSEC
  0
SECTION
  2
TABLES
  0
TABLE
  2
LTYPE
 70
1
  0
LTYPE
  2
CONTINUOUS
 70
64
  3
Solid line
 72
65
 73
0
 40
0
  0
ENDTAB
  0
TABLE
  2
LAYER
 70
255
  0
LAYER
  2
20
 70
64
 62
178
  6
CONTINUOUS
  0
LAYER
  2
31
 70
64
 62
251
  6
CONTINUOUS
  0
LAYER
  2
32
 70
64
 62
251
  6
CONTINUOUS
  0
ENDTAB
  0
ENDSEC
  0
SECTION
  2
BLOCKS
  0
BLOCK
  8
0
  2
RECT
 70
64
 10
0.000000
 20
0.000000
 30
0.000000
  3
RECT
  0
SOLID
  8
0
 10
-0.500000
 20
-0.500000
 30
0.000000
 11
0.500000
 21
-0.500000
 31
0.000000
 12
-0.500000
 22
0.500000
 32
0.000000
 13
0.500000
 23
0.500000
 33
0.000000
  0
ENDBLK
  8
0
  0
BLOCK
  8
0
  2
PIE
 70
64
 10
0.000000
 20
0.000000
 30
0.000000
  3
PIE
  0
CIRCLE
  8
0
 10
0.000000
 20
0.000000
 30
0.000000
 40
0.500000
  0
ENDBLK
  8
0
  0
BLOCK
  8
0
  2
OCTAGONP
 70
64
 10
0.000000
 20
0.000000
 30
0.000000
  3
OCTAGONP
  0
POLYLINE
  8
0
 66
1
 10
0.000000
 20
0.000000
 30
0.000000
 40
0.000000
 41
0.000000
 70
1
  0
VERTEX
  8
0
 10
-0.500000
 20
-0.207107
 30
0.000000
  0
VERTEX
  8
0
 10
-0.500000
 20
0.207107
 30
0.000000
  0
VERTEX
  8
0
 10
-0.207107
 20
0.500000
 30
0.000000
  0
VERTEX
  8
0
 10
0.207107
 20
0.500000
 30
0.000000
  0
VERTEX
  8
0
 10
0.500000
 20
0.207107
 30
0.000000
  0
VERTEX
  8
0
 10
0.500000
 20
-0.207107
 30
0.000000
  0
VERTEX
  8
0
 10
0.207107
 20
-0.500000
 30
0.000000
  0
VERTEX
  8
0
 10
-0.207107
 20
-0.500000
 30
0.000000
  0
SEQEND
  8
0
  0
ENDBLK
  8
0
  0
BLOCK
  8
0
  2
SQUAREP
 70
64
 10
0.000000
 20
0.000000
 30
0.000000
  3
SQUAREP
  0
SOLID
  8
0
 10
-0.500000
 20
-0.500000
 30
0.000000
 11
0.500000
 21
-0.500000
 31
0.000000
 12
-0.500000
 22
0.500000
 32
0.000000
 13
0.500000
 23
0.500000
 33
0.000000
  0
ENDBLK
  8
0
  0
BLOCK
  8
0
  2
ROUNDP
 70
64
 10
0.000000
 20
0.000000
 30
0.000000
  3
ROUNDP
  0
CIRCLE
  8
0
 10
0.000000
 20
0.000000
 30
0.000000
 40
0.500000
  0
ENDBLK
  8
0
  0
BLOCK
  8
0
  2
ANNULUSP
 70
64
 10
0.000000
 20
0.000000
 30
0.000000
  3
ANNULUSP
  0
CIRCLE
  8
0
 10
0.000000
 20
0.000000
 30
0.000000
 40
0.500000
  0
ENDBLK
  8
0
  0
BLOCK
  8
0
  2
THERMALP
 70
64
 10
0.000000
 20
0.000000
 30
0.000000
  3
THERMALP
  0
LINE
  8
0
 10
-0.237868
 20
0.450000
 30
0.000000
 11
0.237868
 21
0.450000
 31
0.000000
  0
LINE
  8
0
 10
0.450000
 20
0.237868
 30
0.000000
 11
0.450000
 21
-0.237868
 31
0.000000
  0
LINE
  8
0
 10
0.237868
 20
-0.450000
 30
0.000000
 11
-0.237868
 21
-0.450000
 31
0.000000
  0
LINE
  8
0
 10
-0.450000
 20
-0.237868
 30
0.000000
 11
-0.450000
 21
0.237868
 31
0.000000
  0
ENDBLK
  8
0
  0
BLOCK
  8
0
  2
OCTAGONV
 70
64
 10
0.000000
 20
0.000000
 30
0.000000
  3
OCTAGONV
  0
POLYLINE
  8
0
 66
1
 10
0.000000
 20
0.000000
 30
0.000000
 40
0.000000
 41
0.000000
 70
1
  0
VERTEX
  8
0
 10
-0.500000
 20
-0.207107
 30
0.000000
  0
VERTEX
  8
0
 10
-0.500000
 20
0.207107
 30
0.000000
  0
VERTEX
  8
0
 10
-0.207107
 20
0.500000
 30
0.000000
  0
VERTEX
  8
0
 10
0.207107
 20
0.500000
 30
0.000000
  0
VERTEX
  8
0
 10
0.500000
 20
0.207107
 30
0.000000
  0
VERTEX
  8
0
 10
0.500000
 20
-0.207107
 30
0.000000
  0
VERTEX
  8
0
 10
0.207107
 20
-0.500000
 30
0.000000
  0
VERTEX
  8
0
 10
-0.207107
 20
-0.500000
 30
0.000000
  0
SEQEND
  8
0
  0
ENDBLK
  8
0
  0
BLOCK
  8
0
  2
SQUAREV
 70
64
 10
0.000000
 20
0.000000
 30
0.000000
  3
SQUAREV
  0
SOLID
  8
0
 10
-0.500000
 20
-0.500000
 30
0.000000
 11
0.500000
 21
-0.500000
 31
0.000000
 12
-0.500000
 22
0.500000
 32
0.000000
 13
0.500000
 23
0.500000
 33
0.000000
  0
ENDBLK
  8
0
  0
BLOCK
  8
0
  2
ROUNDV
 70
64
 10
0.000000
 20
0.000000
 30
0.000000
  3
ROUNDV
  0
CIRCLE
  8
0
 10
0.000000
 20
0.000000
 30
0.000000
 40
0.500000
  0
ENDBLK
  8
0
  0
BLOCK
  8
0
  2
ANNULUSV
 70
64
 10
0.000000
 20
0.000000
 30
0.000000
  3
ANNULUSV
  0
CIRCLE
  8
0
 10
0.000000
 20
0.000000
 30
0.000000
 40
0.500000
  0
ENDBLK
  8
0
  0
BLOCK
  8
0
  2
THERMALV
 70
64
 10
0.000000
 20
0.000000
 30
0.000000
  3
THERMALV
  0
LINE
  8
0
 10
-0.237868
 20
0.450000
 30
0.000000
 11
0.237868
 21
0.450000
 31
0.000000
  0
LINE
  8
0
 10
0.450000
 20
0.237868
 30
0.000000
 11
0.450000
 21
-0.237868
 31
0.000000
  0
LINE
  8
0
 10
0.237868
 20
-0.450000
 30
0.000000
 11
-0.237868
 21
-0.450000
 31
0.000000
  0
LINE
  8
0
 10
-0.450000
 20
-0.237868
 30
0.000000
 11
-0.450000
 21
0.237868
 31
0.000000
  0
ENDBLK
  8
0
  0
ENDSEC
  0
SECTION
  2
ENTITIES
  0
LINE
  8
20
 10
0.000000
 20
0.000000
 30
0.000000
 11
3.000000
 21
0.000000
 31
0.000000
  0
LINE
  8
20
 10
3.000000
 20
0.000000
 30
0.000000
 11
3.000000
 21
1.625000
 31
0.000000
  0
LINE
  8
20
 10
3.000000
 20
1.625000
 30
0.000000
 11
0.000000
 21
1.625000
 31
0.000000
  0
LINE
  8
20
 10
0.000000
 20
1.625000
 30
0.000000
 11
0.000000
 21
0.000000
 31
0.000000
  0
INSERT
  8
31
  2
RECT
 10
0.573000
 20
0.288465
 30
0.000000
 41
0.033307
 42
0.029370
 43
1.000000
 50
270.000000
  0
INSERT
  8
31
  2
RECT
 10
0.573000
 20
0.221535
 30
0.000000
 41
0.033307
 42
0.029370
 43
1.000000
 50
270.000000
  0
INSERT
  8
31
  2
RECT
 10
0.369756
 20
1.364890
 30
0.000000
 41
0.033307
 42
0.029370
 43
1.000000
 50
0.000000
  0
INSERT
  8
31
  2
RECT
 10
0.436685
 20
1.364890
 30
0.000000
 41
0.033307
 42
0.029370
 43
1.000000
 50
0.000000
  0
INSERT
  8
31
  2
RECT
 10
0.819646
 20
1.492126
 30
0.000000
 41
0.033307
 42
0.029370
 43
1.000000
 50
0.000000
  0
INSERT
  8
31
  2
RECT
 10
0.886575
 20
1.492126
 30
0.000000
 41
0.033307
 42
0.029370
 43
1.000000
 50
0.000000
  0
INSERT
  8
31
  2
RECT
 10
0.693000
 20
1.305118
 30
0.000000
 41
0.052992
 42
0.060866
 43
1.000000
 50
270.000000
  0
INSERT
  8
31
  2
RECT
 10
0.693000
 20
1.194882
 30
0.000000
 41
0.052992
 42
0.060866
 43
1.000000
 50
270.000000
  0
INSERT
  8
31
  2
RECT
 10
1.480535
 20
0.879000
 30
0.000000
 41
0.033307
 42
0.029370
 43
1.000000
 50
0.000000
  0
INSERT
  8
31
  2
RECT
 10
1.547465
 20
0.879000
 30
0.000000
 41
0.033307
 42
0.029370
 43
1.000000
 50
0.000000
  0
INSERT
  8
31
  2
RECT
 10
1.559465
 20
0.828000
 30
0.000000
 41
0.033307
 42
0.029370
 43
1.000000
 50
180.000000
  0
INSERT
  8
31
  2
RECT
 10
1.492535
 20
0.828000
 30
0.000000
 41
0.033307
 42
0.029370
 43
1.000000
 50
180.000000
  0
INSERT
  8
31
  2
RECT
 10
1.559465
 20
0.771000
 30
0.000000
 41
0.033307
 42
0.029370
 43
1.000000
 50
180.000000
  0
INSERT
  8
31
  2
RECT
 10
1.492535
 20
0.771000
 30
0.000000
 41
0.033307
 42
0.029370
 43
1.000000
 50
180.000000
  0
INSERT
  8
31
  2
RECT
 10
1.859606
 20
0.669173
 30
0.000000
 41
0.033307
 42
0.029370
 43
1.000000
 50
0.000000
  0
INSERT
  8
31
  2
RECT
 10
1.926535
 20
0.669173
 30
0.000000
 41
0.033307
 42
0.029370
 43
1.000000
 50
0.000000
  0
INSERT
  8
31
  2
RECT
 10
1.580197
 20
0.463386
 30
0.000000
 41
0.033307
 42
0.029370
 43
1.000000
 50
0.000000
  0
INSERT
  8
31
  2
RECT
 10
1.647126
 20
0.463386
 30
0.000000
 41
0.033307
 42
0.029370
 43
1.000000
 50
0.000000
  0
INSERT
  8
31
  2
RECT
 10
1.506417
 20
0.256614
 30
0.000000
 41
0.033307
 42
0.029370
 43
1.000000
 50
0.000000
  0
INSERT
  8
31
  2
RECT
 10
1.573346
 20
0.256614
 30
0.000000
 41
0.033307
 42
0.029370
 43
1.000000
 50
0.000000
  0
INSERT
  8
31
  2
RECT
 10
2.243465
 20
0.394764
 30
0.000000
 41
0.033307
 42
0.029370
 43
1.000000
 50
0.000000
  0
INSERT
  8
31
  2
RECT
 10
2.310394
 20
0.394764
 30
0.000000
 41
0.033307
 42
0.029370
 43
1.000000
 50
0.000000
  0
INSERT
  8
31
  2
RECT
 10
2.746535
 20
0.425000
 30
0.000000
 41
0.033307
 42
0.029370
 43
1.000000
 50
0.000000
  0
INSERT
  8
31
  2
RECT
 10
2.813465
 20
0.425000
 30
0.000000
 41
0.033307
 42
0.029370
 43
1.000000
 50
0.000000
  0
INSERT
  8
31
  2
RECT
 10
2.940000
 20
0.668465
 30
0.000000
 41
0.033307
 42
0.029370
 43
1.000000
 50
270.000000
  0
INSERT
  8
31
  2
RECT
 10
2.940000
 20
0.601535
 30
0.000000
 41
0.033307
 42
0.029370
 43
1.000000
 50
270.000000
  0
INSERT
  8
31
  2
RECT
 10
2.623465
 20
1.020000
 30
0.000000
 41
0.033307
 42
0.029370
 43
1.000000
 50
180.000000
  0
INSERT
  8
31
  2
RECT
 10
2.556535
 20
1.020000
 30
0.000000
 41
0.033307
 42
0.029370
 43
1.000000
 50
180.000000
  0
INSERT
  8
31
  2
RECT
 10
2.426535
 20
1.020000
 30
0.000000
 41
0.033307
 42
0.029370
 43
1.000000
 50
0.000000
  0
INSERT
  8
31
  2
RECT
 10
2.493465
 20
1.020000
 30
0.000000
 41
0.033307
 42
0.029370
 43
1.000000
 50
0.000000
  0
INSERT
  8
31
  2
RECT
 10
2.183465
 20
0.939331
 30
0.000000
 41
0.033307
 42
0.029370
 43
1.000000
 50
0.000000
  0
INSERT
  8
31
  2
RECT
 10
2.250394
 20
0.939331
 30
0.000000
 41
0.033307
 42
0.029370
 43
1.000000
 50
0.000000
  0
INSERT
  8
31
  2
RECT
 10
1.592000
 20
1.168465
 30
0.000000
 41
0.033307
 42
0.029370
 43
1.000000
 50
270.000000
  0
INSERT
  8
31
  2
RECT
 10
1.592000
 20
1.101535
 30
0.000000
 41
0.033307
 42
0.029370
 43
1.000000
 50
270.000000
  0
INSERT
  8
31
  2
RECT
 10
0.954000
 20
1.053740
 30
0.000000
 41
0.151417
 42
0.052992
 43
1.000000
 50
270.000000
  0
INSERT
  8
31
  2
RECT
 10
0.954000
 20
1.396260
 30
0.000000
 41
0.151417
 42
0.052992
 43
1.000000
 50
270.000000
  0
INSERT
  8
31
  2
RECT
 10
1.861000
 20
0.575000
 30
0.000000
 41
0.037000
 42
0.039000
 43
1.000000
 50
180.000000
  0
INSERT
  8
31
  2
RECT
 10
1.779000
 20
0.575000
 30
0.000000
 41
0.037000
 42
0.039000
 43
1.000000
 50
180.000000
  0
INSERT
  8
31
  2
RECT
 10
1.861000
 20
0.500000
 30
0.000000
 41
0.037000
 42
0.039000
 43
1.000000
 50
180.000000
  0
INSERT
  8
31
  2
RECT
 10
1.779000
 20
0.500000
 30
0.000000
 41
0.037000
 42
0.039000
 43
1.000000
 50
180.000000
  0
INSERT
  8
31
  2
RECT
 10
1.861000
 20
0.425000
 30
0.000000
 41
0.037000
 42
0.039000
 43
1.000000
 50
180.000000
  0
INSERT
  8
31
  2
RECT
 10
1.779000
 20
0.425000
 30
0.000000
 41
0.037000
 42
0.039000
 43
1.000000
 50
180.000000
  0
INSERT
  8
31
  2
RECT
 10
0.809567
 20
0.895709
 30
0.000000
 41
0.190472
 42
0.049291
 43
1.000000
 50
0.000000
  0
INSERT
  8
31
  2
RECT
 10
0.809331
 20
0.811024
 30
0.000000
 41
0.150000
 42
0.122047
 43
1.000000
 50
0.000000
  0
INSERT
  8
31
  2
RECT
 10
0.734331
 20
0.686024
 30
0.000000
 41
0.017559
 42
0.045118
 43
1.000000
 50
0.000000
  0
INSERT
  8
31
  2
RECT
 10
0.784331
 20
0.686024
 30
0.000000
 41
0.017559
 42
0.045118
 43
1.000000
 50
0.000000
  0
INSERT
  8
31
  2
RECT
 10
0.834331
 20
0.686024
 30
0.000000
 41
0.017559
 42
0.045118
 43
1.000000
 50
0.000000
  0
INSERT
  8
31
  2
RECT
 10
0.884331
 20
0.686024
 30
0.000000
 41
0.017559
 42
0.045118
 43
1.000000
 50
0.000000
  0
INSERT
  8
31
  2
RECT
 10
1.090472
 20
0.895709
 30
0.000000
 41
0.190472
 42
0.049291
 43
1.000000
 50
0.000000
  0
INSERT
  8
31
  2
RECT
 10
1.090236
 20
0.811024
 30
0.000000
 41
0.150000
 42
0.122047
 43
1.000000
 50
0.000000
  0
INSERT
  8
31
  2
RECT
 10
1.015236
 20
0.686024
 30
0.000000
 41
0.017559
 42
0.045118
 43
1.000000
 50
0.000000
  0
INSERT
  8
31
  2
RECT
 10
1.065236
 20
0.686024
 30
0.000000
 41
0.017559
 42
0.045118
 43
1.000000
 50
0.000000
  0
INSERT
  8
31
  2
RECT
 10
1.115236
 20
0.686024
 30
0.000000
 41
0.017559
 42
0.045118
 43
1.000000
 50
0.000000
  0
INSERT
  8
31
  2
RECT
 10
1.165236
 20
0.686024
 30
0.000000
 41
0.017559
 42
0.045118
 43
1.000000
 50
0.000000
  0
INSERT
  8
31
  2
RECT
 10
0.809567
 20
0.500827
 30
0.000000
 41
0.190472
 42
0.049291
 43
1.000000
 50
0.000000
  0
INSERT
  8
31
  2
RECT
 10
0.809331
 20
0.416142
 30
0.000000
 41
0.150000
 42
0.122047
 43
1.000000
 50
0.000000
  0
INSERT
  8
31
  2
RECT
 10
0.734331
 20
0.291142
 30
0.000000
 41
0.017559
 42
0.045118
 43
1.000000
 50
0.000000
  0
INSERT
  8
31
  2
RECT
 10
0.784331
 20
0.291142
 30
0.000000
 41
0.017559
 42
0.045118
 43
1.000000
 50
0.000000
  0
INSERT
  8
31
  2
RECT
 10
0.834331
 20
0.291142
 30
0.000000
 41
0.017559
 42
0.045118
 43
1.000000
 50
0.000000
  0
INSERT
  8
31
  2
RECT
 10
0.884331
 20
0.291142
 30
0.000000
 41
0.017559
 42
0.045118
 43
1.000000
 50
0.000000
  0
INSERT
  8
31
  2
RECT
 10
1.090472
 20
0.500827
 30
0.000000
 41
0.190472
 42
0.049291
 43
1.000000
 50
0.000000
  0
INSERT
  8
31
  2
RECT
 10
1.090236
 20
0.416142
 30
0.000000
 41
0.150000
 42
0.122047
 43
1.000000
 50
0.000000
  0
INSERT
  8
31
  2
RECT
 10
1.015236
 20
0.291142
 30
0.000000
 41
0.017559
 42
0.045118
 43
1.000000
 50
0.000000
  0
INSERT
  8
31
  2
RECT
 10
1.065236
 20
0.291142
 30
0.000000
 41
0.017559
 42
0.045118
 43
1.000000
 50
0.000000
  0
INSERT
  8
31
  2
RECT
 10
1.115236
 20
0.291142
 30
0.000000
 41
0.017559
 42
0.045118
 43
1.000000
 50
0.000000
  0
INSERT
  8
31
  2
RECT
 10
1.165236
 20
0.291142
 30
0.000000
 41
0.017559
 42
0.045118
 43
1.000000
 50
0.000000
  0
INSERT
  8
31
  2
RECT
 10
0.601614
 20
1.189646
 30
0.000000
 41
0.029370
 42
0.052992
 43
1.000000
 50
180.000000
  0
INSERT
  8
31
  2
RECT
 10
0.422087
 20
1.189646
 30
0.000000
 41
0.029370
 42
0.052992
 43
1.000000
 50
180.000000
  0
INSERT
  8
31
  2
RECT
 10
0.511850
 20
0.902244
 30
0.000000
 41
0.202598
 42
0.234094
 43
1.000000
 50
180.000000
  0
INSERT
  8
31
  2
RECT
 10
0.498669
 20
1.285354
 30
0.000000
 41
0.029370
 42
0.033307
 43
1.000000
 50
270.000000
  0
INSERT
  8
31
  2
RECT
 10
0.498669
 20
1.218425
 30
0.000000
 41
0.029370
 42
0.033307
 43
1.000000
 50
270.000000
  0
INSERT
  8
31
  2
RECT
 10
1.649000
 20
1.091535
 30
0.000000
 41
0.029370
 42
0.033307
 43
1.000000
 50
90.000000
  0
INSERT
  8
31
  2
RECT
 10
1.649000
 20
1.158465
 30
0.000000
 41
0.029370
 42
0.033307
 43
1.000000
 50
90.000000
  0
INSERT
  8
31
  2
RECT
 10
1.630465
 20
0.954000
 30
0.000000
 41
0.029370
 42
0.033307
 43
1.000000
 50
180.000000
  0
INSERT
  8
31
  2
RECT
 10
1.563535
 20
0.954000
 30
0.000000
 41
0.029370
 42
0.033307
 43
1.000000
 50
180.000000
  0
INSERT
  8
31
  2
RECT
 10
1.553465
 20
0.715000
 30
0.000000
 41
0.029370
 42
0.033307
 43
1.000000
 50
180.000000
  0
INSERT
  8
31
  2
RECT
 10
1.486535
 20
0.715000
 30
0.000000
 41
0.029370
 42
0.033307
 43
1.000000
 50
180.000000
  0
INSERT
  8
31
  2
RECT
 10
1.553465
 20
0.630000
 30
0.000000
 41
0.029370
 42
0.033307
 43
1.000000
 50
180.000000
  0
INSERT
  8
31
  2
RECT
 10
1.486535
 20
0.630000
 30
0.000000
 41
0.029370
 42
0.033307
 43
1.000000
 50
180.000000
  0
INSERT
  8
31
  2
RECT
 10
1.947441
 20
0.574606
 30
0.000000
 41
0.029370
 42
0.033307
 43
1.000000
 50
0.000000
  0
INSERT
  8
31
  2
RECT
 10
2.014370
 20
0.574606
 30
0.000000
 41
0.029370
 42
0.033307
 43
1.000000
 50
0.000000
  0
INSERT
  8
31
  2
RECT
 10
2.014370
 20
0.502244
 30
0.000000
 41
0.029370
 42
0.033307
 43
1.000000
 50
180.000000
  0
INSERT
  8
31
  2
RECT
 10
1.947441
 20
0.502244
 30
0.000000
 41
0.029370
 42
0.033307
 43
1.000000
 50
180.000000
  0
INSERT
  8
31
  2
RECT
 10
2.014370
 20
0.429882
 30
0.000000
 41
0.029370
 42
0.033307
 43
1.000000
 50
180.000000
  0
INSERT
  8
31
  2
RECT
 10
1.947441
 20
0.429882
 30
0.000000
 41
0.029370
 42
0.033307
 43
1.000000
 50
180.000000
  0
INSERT
  8
31
  2
RECT
 10
1.998465
 20
0.315000
 30
0.000000
 41
0.029370
 42
0.033307
 43
1.000000
 50
180.000000
  0
INSERT
  8
31
  2
RECT
 10
1.931535
 20
0.315000
 30
0.000000
 41
0.029370
 42
0.033307
 43
1.000000
 50
180.000000
  0
INSERT
  8
31
  2
RECT
 10
1.998465
 20
0.250000
 30
0.000000
 41
0.029370
 42
0.033307
 43
1.000000
 50
180.000000
  0
INSERT
  8
31
  2
RECT
 10
1.931535
 20
0.250000
 30
0.000000
 41
0.029370
 42
0.033307
 43
1.000000
 50
180.000000
  0
INSERT
  8
31
  2
RECT
 10
2.121535
 20
0.315000
 30
0.000000
 41
0.029370
 42
0.033307
 43
1.000000
 50
0.000000
  0
INSERT
  8
31
  2
RECT
 10
2.188465
 20
0.315000
 30
0.000000
 41
0.029370
 42
0.033307
 43
1.000000
 50
0.000000
  0
INSERT
  8
31
  2
RECT
 10
2.121535
 20
0.250000
 30
0.000000
 41
0.029370
 42
0.033307
 43
1.000000
 50
0.000000
  0
INSERT
  8
31
  2
RECT
 10
2.188465
 20
0.250000
 30
0.000000
 41
0.029370
 42
0.033307
 43
1.000000
 50
0.000000
  0
INSERT
  8
31
  2
RECT
 10
2.746535
 20
0.255000
 30
0.000000
 41
0.029370
 42
0.033307
 43
1.000000
 50
0.000000
  0
INSERT
  8
31
  2
RECT
 10
2.813465
 20
0.255000
 30
0.000000
 41
0.029370
 42
0.033307
 43
1.000000
 50
0.000000
  0
INSERT
  8
31
  2
RECT
 10
2.746535
 20
0.340000
 30
0.000000
 41
0.029370
 42
0.033307
 43
1.000000
 50
0.000000
  0
INSERT
  8
31
  2
RECT
 10
2.813465
 20
0.340000
 30
0.000000
 41
0.029370
 42
0.033307
 43
1.000000
 50
0.000000
  0
INSERT
  8
31
  2
RECT
 10
2.686535
 20
1.448000
 30
0.000000
 41
0.029370
 42
0.033307
 43
1.000000
 50
0.000000
  0
INSERT
  8
31
  2
RECT
 10
2.753465
 20
1.448000
 30
0.000000
 41
0.029370
 42
0.033307
 43
1.000000
 50
0.000000
  0
INSERT
  8
31
  2
RECT
 10
2.101535
 20
1.030000
 30
0.000000
 41
0.029370
 42
0.033307
 43
1.000000
 50
0.000000
  0
INSERT
  8
31
  2
RECT
 10
2.168465
 20
1.030000
 30
0.000000
 41
0.029370
 42
0.033307
 43
1.000000
 50
0.000000
  0
INSERT
  8
31
  2
RECT
 10
1.916535
 20
1.100000
 30
0.000000
 41
0.029370
 42
0.033307
 43
1.000000
 50
0.000000
  0
INSERT
  8
31
  2
RECT
 10
1.983465
 20
1.100000
 30
0.000000
 41
0.029370
 42
0.033307
 43
1.000000
 50
0.000000
  0
INSERT
  8
31
  2
RECT
 10
1.735000
 20
1.155465
 30
0.000000
 41
0.029370
 42
0.033307
 43
1.000000
 50
270.000000
  0
INSERT
  8
31
  2
RECT
 10
1.735000
 20
1.088535
 30
0.000000
 41
0.029370
 42
0.033307
 43
1.000000
 50
270.000000
  0
CIRCLE
  8
20
 10
0.120000
 20
1.500000
 30
0.000000
 40
0.065000
  0
CIRCLE
  8
20
 10
2.890000
 20
0.110000
 30
0.000000
 40
0.065000
  0
CIRCLE
  8
20
 10
2.890000
 20
1.500000
 30
0.000000
 40
0.065000
  0
INSERT
  8
31
  2
RECT
 10
2.401500
 20
0.300000
 30
0.000000
 41
0.025000
 42
0.090000
 43
1.000000
 50
0.000000
  0
INSERT
  8
31
  2
RECT
 10
2.433500
 20
0.300000
 30
0.000000
 41
0.025000
 42
0.090000
 43
1.000000
 50
0.000000
  0
INSERT
  8
31
  2
RECT
 10
2.464500
 20
0.300000
 30
0.000000
 41
0.025000
 42
0.090000
 43
1.000000
 50
0.000000
  0
INSERT
  8
31
  2
RECT
 10
2.496500
 20
0.300000
 30
0.000000
 41
0.025000
 42
0.090000
 43
1.000000
 50
0.000000
  0
INSERT
  8
31
  2
RECT
 10
2.527500
 20
0.300000
 30
0.000000
 41
0.025000
 42
0.090000
 43
1.000000
 50
0.000000
  0
CIRCLE
  8
20
 10
2.551614
 20
0.197638
 30
0.000000
 40
0.017717
  0
CIRCLE
  8
20
 10
2.378386
 20
0.197638
 30
0.000000
 40
0.017717
  0
INSERT
  8
31
  2
RECT
 10
2.640197
 20
0.296063
 30
0.000000
 41
0.068740
 42
0.088425
 43
1.000000
 50
0.000000
  0
INSERT
  8
31
  2
RECT
 10
2.640197
 20
0.079528
 30
0.000000
 41
0.068740
 42
0.088425
 43
1.000000
 50
0.000000
  0
INSERT
  8
31
  2
RECT
 10
2.289803
 20
0.296063
 30
0.000000
 41
0.068740
 42
0.088425
 43
1.000000
 50
0.000000
  0
INSERT
  8
31
  2
RECT
 10
2.289803
 20
0.079528
 30
0.000000
 41
0.068740
 42
0.088425
 43
1.000000
 50
0.000000
  0
INSERT
  8
31
  2
RECT
 10
1.891339
 20
0.881693
 30
0.000000
 41
0.100000
 42
0.152000
 43
1.000000
 50
0.000000
  0
INSERT
  8
31
  2
RECT
 10
1.771260
 20
1.022441
 30
0.000000
 41
0.054961
 42
0.008858
 43
1.000000
 50
0.000000
  0
INSERT
  8
31
  2
RECT
 10
1.771260
 20
0.996850
 30
0.000000
 41
0.054961
 42
0.008858
 43
1.000000
 50
0.000000
  0
INSERT
  8
31
  2
RECT
 10
1.771260
 20
0.971260
 30
0.000000
 41
0.054961
 42
0.008858
 43
1.000000
 50
0.000000
  0
INSERT
  8
31
  2
RECT
 10
1.771260
 20
0.945669
 30
0.000000
 41
0.054961
 42
0.008858
 43
1.000000
 50
0.000000
  0
INSERT
  8
31
  2
RECT
 10
1.771260
 20
0.920079
 30
0.000000
 41
0.054961
 42
0.008858
 43
1.000000
 50
0.000000
  0
INSERT
  8
31
  2
RECT
 10
1.771260
 20
0.894488
 30
0.000000
 41
0.054961
 42
0.008858
 43
1.000000
 50
0.000000
  0
INSERT
  8
31
  2
RECT
 10
1.771260
 20
0.868898
 30
0.000000
 41
0.054961
 42
0.008858
 43
1.000000
 50
0.000000
  0
INSERT
  8
31
  2
RECT
 10
1.771260
 20
0.843307
 30
0.000000
 41
0.054961
 42
0.008858
 43
1.000000
 50
0.000000
  0
INSERT
  8
31
  2
RECT
 10
1.771260
 20
0.817717
 30
0.000000
 41
0.054961
 42
0.008858
 43
1.000000
 50
0.000000
  0
INSERT
  8
31
  2
RECT
 10
1.771260
 20
0.792126
 30
0.000000
 41
0.054961
 42
0.008858
 43
1.000000
 50
0.000000
  0
INSERT
  8
31
  2
RECT
 10
1.771260
 20
0.766535
 30
0.000000
 41
0.054961
 42
0.008858
 43
1.000000
 50
0.000000
  0
INSERT
  8
31
  2
RECT
 10
1.771260
 20
0.740945
 30
0.000000
 41
0.054961
 42
0.008858
 43
1.000000
 50
0.000000
  0
INSERT
  8
31
  2
RECT
 10
2.011417
 20
0.740945
 30
0.000000
 41
0.054961
 42
0.008858
 43
1.000000
 50
0.000000
  0
INSERT
  8
31
  2
RECT
 10
2.011417
 20
0.766535
 30
0.000000
 41
0.054961
 42
0.008858
 43
1.000000
 50
0.000000
  0
INSERT
  8
31
  2
RECT
 10
2.011417
 20
0.792126
 30
0.000000
 41
0.054961
 42
0.008858
 43
1.000000
 50
0.000000
  0
INSERT
  8
31
  2
RECT
 10
2.011417
 20
0.817717
 30
0.000000
 41
0.054961
 42
0.008858
 43
1.000000
 50
0.000000
  0
INSERT
  8
31
  2
RECT
 10
2.011417
 20
0.843307
 30
0.000000
 41
0.054961
 42
0.008858
 43
1.000000
 50
0.000000
  0
INSERT
  8
31
  2
RECT
 10
2.011417
 20
0.868898
 30
0.000000
 41
0.054961
 42
0.008858
 43
1.000000
 50
0.000000
  0
INSERT
  8
31
  2
RECT
 10
2.011417
 20
0.894488
 30
0.000000
 41
0.054961
 42
0.008858
 43
1.000000
 50
0.000000
  0
INSERT
  8
31
  2
RECT
 10
2.011417
 20
0.920079
 30
0.000000
 41
0.054961
 42
0.008858
 43
1.000000
 50
0.000000
  0
INSERT
  8
31
  2
RECT
 10
2.011417
 20
0.945669
 30
0.000000
 41
0.054961
 42
0.008858
 43
1.000000
 50
0.000000
  0
INSERT
  8
31
  2
RECT
 10
2.011417
 20
0.971260
 30
0.000000
 41
0.054961
 42
0.008858
 43
1.000000
 50
0.000000
  0
INSERT
  8
31
  2
RECT
 10
2.011417
 20
0.996850
 30
0.000000
 41
0.054961
 42
0.008858
 43
1.000000
 50
0.000000
  0
INSERT
  8
31
  2
RECT
 10
2.011417
 20
1.022441
 30
0.000000
 41
0.054961
 42
0.008858
 43
1.000000
 50
0.000000
  0
INSERT
  8
31
  2
RECT
 10
2.764882
 20
0.553150
 30
0.000000
 41
0.049055
 42
0.009843
 43
1.000000
 50
180.000000
  0
INSERT
  8
31
  2
RECT
 10
2.764882
 20
0.584646
 30
0.000000
 41
0.049055
 42
0.009843
 43
1.000000
 50
180.000000
  0
INSERT
  8
31
  2
RECT
 10
2.764882
 20
0.616142
 30
0.000000
 41
0.049055
 42
0.009843
 43
1.000000
 50
180.000000
  0
INSERT
  8
31
  2
RECT
 10
2.764882
 20
0.647638
 30
0.000000
 41
0.049055
 42
0.009843
 43
1.000000
 50
180.000000
  0
INSERT
  8
31
  2
RECT
 10
2.764882
 20
0.679134
 30
0.000000
 41
0.049055
 42
0.009843
 43
1.000000
 50
180.000000
  0
INSERT
  8
31
  2
RECT
 10
2.764882
 20
0.710630
 30
0.000000
 41
0.049055
 42
0.009843
 43
1.000000
 50
180.000000
  0
INSERT
  8
31
  2
RECT
 10
2.764882
 20
0.742126
 30
0.000000
 41
0.049055
 42
0.009843
 43
1.000000
 50
180.000000
  0
INSERT
  8
31
  2
RECT
 10
2.764882
 20
0.773622
 30
0.000000
 41
0.049055
 42
0.009843
 43
1.000000
 50
180.000000
  0
INSERT
  8
31
  2
RECT
 10
2.764882
 20
0.805118
 30
0.000000
 41
0.049055
 42
0.009843
 43
1.000000
 50
180.000000
  0
INSERT
  8
31
  2
RECT
 10
2.764882
 20
0.836614
 30
0.000000
 41
0.049055
 42
0.009843
 43
1.000000
 50
180.000000
  0
INSERT
  8
31
  2
RECT
 10
2.764882
 20
0.868110
 30
0.000000
 41
0.049055
 42
0.009843
 43
1.000000
 50
180.000000
  0
INSERT
  8
31
  2
RECT
 10
2.694016
 20
0.938976
 30
0.000000
 41
0.009843
 42
0.049055
 43
1.000000
 50
180.000000
  0
INSERT
  8
31
  2
RECT
 10
2.662520
 20
0.938976
 30
0.000000
 41
0.009843
 42
0.049055
 43
1.000000
 50
180.000000
  0
INSERT
  8
31
  2
RECT
 10
2.631024
 20
0.938976
 30
0.000000
 41
0.009843
 42
0.049055
 43
1.000000
 50
180.000000
  0
INSERT
  8
31
  2
RECT
 10
2.599528
 20
0.938976
 30
0.000000
 41
0.009843
 42
0.049055
 43
1.000000
 50
180.000000
  0
INSERT
  8
31
  2
RECT
 10
2.568032
 20
0.938976
 30
0.000000
 41
0.009843
 42
0.049055
 43
1.000000
 50
180.000000
  0
INSERT
  8
31
  2
RECT
 10
2.536536
 20
0.938976
 30
0.000000
 41
0.009843
 42
0.049055
 43
1.000000
 50
180.000000
  0
INSERT
  8
31
  2
RECT
 10
2.505040
 20
0.938976
 30
0.000000
 41
0.009843
 42
0.049055
 43
1.000000
 50
180.000000
  0
INSERT
  8
31
  2
RECT
 10
2.473544
 20
0.938976
 30
0.000000
 41
0.009843
 42
0.049055
 43
1.000000
 50
180.000000
  0
INSERT
  8
31
  2
RECT
 10
2.442047
 20
0.938976
 30
0.000000
 41
0.009843
 42
0.049055
 43
1.000000
 50
180.000000
  0
INSERT
  8
31
  2
RECT
 10
2.410551
 20
0.938976
 30
0.000000
 41
0.009843
 42
0.049055
 43
1.000000
 50
180.000000
  0
INSERT
  8
31
  2
RECT
 10
2.379055
 20
0.938976
 30
0.000000
 41
0.009843
 42
0.049055
 43
1.000000
 50
180.000000
  0
INSERT
  8
31
  2
RECT
 10
2.308189
 20
0.868110
 30
0.000000
 41
0.049055
 42
0.009843
 43
1.000000
 50
180.000000
  0
INSERT
  8
31
  2
RECT
 10
2.308189
 20
0.836614
 30
0.000000
 41
0.049055
 42
0.009843
 43
1.000000
 50
180.000000
  0
INSERT
  8
31
  2
RECT
 10
2.308189
 20
0.805118
 30
0.000000
 41
0.049055
 42
0.009843
 43
1.000000
 50
180.000000
  0
INSERT
  8
31
  2
RECT
 10
2.308189
 20
0.773622
 30
0.000000
 41
0.049055
 42
0.009843
 43
1.000000
 50
180.000000
  0
INSERT
  8
31
  2
RECT
 10
2.308189
 20
0.742126
 30
0.000000
 41
0.049055
 42
0.009843
 43
1.000000
 50
180.000000
  0
INSERT
  8
31
  2
RECT
 10
2.308189
 20
0.710630
 30
0.000000
 41
0.049055
 42
0.009843
 43
1.000000
 50
180.000000
  0
INSERT
  8
31
  2
RECT
 10
2.308189
 20
0.679134
 30
0.000000
 41
0.049055
 42
0.009843
 43
1.000000
 50
180.000000
  0
INSERT
  8
31
  2
RECT
 10
2.308189
 20
0.647638
 30
0.000000
 41
0.049055
 42
0.009843
 43
1.000000
 50
180.000000
  0
INSERT
  8
31
  2
RECT
 10
2.308189
 20
0.616142
 30
0.000000
 41
0.049055
 42
0.009843
 43
1.000000
 50
180.000000
  0
INSERT
  8
31
  2
RECT
 10
2.308189
 20
0.584646
 30
0.000000
 41
0.049055
 42
0.009843
 43
1.000000
 50
180.000000
  0
INSERT
  8
31
  2
RECT
 10
2.308189
 20
0.553150
 30
0.000000
 41
0.049055
 42
0.009843
 43
1.000000
 50
180.000000
  0
INSERT
  8
31
  2
RECT
 10
2.379055
 20
0.482283
 30
0.000000
 41
0.009843
 42
0.049055
 43
1.000000
 50
180.000000
  0
INSERT
  8
31
  2
RECT
 10
2.410551
 20
0.482283
 30
0.000000
 41
0.009843
 42
0.049055
 43
1.000000
 50
180.000000
  0
INSERT
  8
31
  2
RECT
 10
2.442047
 20
0.482283
 30
0.000000
 41
0.009843
 42
0.049055
 43
1.000000
 50
180.000000
  0
INSERT
  8
31
  2
RECT
 10
2.473544
 20
0.482283
 30
0.000000
 41
0.009843
 42
0.049055
 43
1.000000
 50
180.000000
  0
INSERT
  8
31
  2
RECT
 10
2.505040
 20
0.482283
 30
0.000000
 41
0.009843
 42
0.049055
 43
1.000000
 50
180.000000
  0
INSERT
  8
31
  2
RECT
 10
2.536536
 20
0.482283
 30
0.000000
 41
0.009843
 42
0.049055
 43
1.000000
 50
180.000000
  0
INSERT
  8
31
  2
RECT
 10
2.568032
 20
0.482283
 30
0.000000
 41
0.009843
 42
0.049055
 43
1.000000
 50
180.000000
  0
INSERT
  8
31
  2
RECT
 10
2.599528
 20
0.482283
 30
0.000000
 41
0.009843
 42
0.049055
 43
1.000000
 50
180.000000
  0
INSERT
  8
31
  2
RECT
 10
2.631024
 20
0.482283
 30
0.000000
 41
0.009843
 42
0.049055
 43
1.000000
 50
180.000000
  0
INSERT
  8
31
  2
RECT
 10
2.662520
 20
0.482283
 30
0.000000
 41
0.009843
 42
0.049055
 43
1.000000
 50
180.000000
  0
INSERT
  8
31
  2
RECT
 10
2.694016
 20
0.482283
 30
0.000000
 41
0.009843
 42
0.049055
 43
1.000000
 50
180.000000
  0
INSERT
  8
31
  2
RECT
 10
1.268701
 20
0.483268
 30
0.000000
 41
0.058898
 42
0.015591
 43
1.000000
 50
0.000000
  0
INSERT
  8
31
  2
RECT
 10
1.268701
 20
0.433268
 30
0.000000
 41
0.058898
 42
0.015591
 43
1.000000
 50
0.000000
  0
INSERT
  8
31
  2
RECT
 10
1.268701
 20
0.383268
 30
0.000000
 41
0.058898
 42
0.015591
 43
1.000000
 50
0.000000
  0
INSERT
  8
31
  2
RECT
 10
1.268701
 20
0.333268
 30
0.000000
 41
0.058898
 42
0.015591
 43
1.000000
 50
0.000000
  0
INSERT
  8
31
  2
RECT
 10
1.489173
 20
0.333268
 30
0.000000
 41
0.058898
 42
0.015591
 43
1.000000
 50
0.000000
  0
INSERT
  8
31
  2
RECT
 10
1.489173
 20
0.383268
 30
0.000000
 41
0.058898
 42
0.015591
 43
1.000000
 50
0.000000
  0
INSERT
  8
31
  2
RECT
 10
1.489173
 20
0.433268
 30
0.000000
 41
0.058898
 42
0.015591
 43
1.000000
 50
0.000000
  0
INSERT
  8
31
  2
RECT
 10
1.489173
 20
0.483268
 30
0.000000
 41
0.058898
 42
0.015591
 43
1.000000
 50
0.000000
  0
LINE
  8
31
 10
0.622563
 20
1.479937
 30
0.000000
 11
0.648563
 21
1.453937
 31
0.000000
  0
LINE
  8
31
 10
0.648563
 20
1.453937
 30
0.000000
 11
0.648563
 21
1.367937
 31
0.000000
  0
LINE
  8
31
 10
0.648563
 20
1.367937
 30
0.000000
 11
0.617563
 21
1.336937
 31
0.000000
  0
LINE
  8
31
 10
0.617563
 20
1.336937
 30
0.000000
 11
0.600563
 21
1.336937
 31
0.000000
  0
LINE
  8
31
 10
0.600563
 20
1.336937
 30
0.000000
 11
0.568563
 21
1.368937
 31
0.000000
  0
LINE
  8
31
 10
0.568563
 20
1.368937
 30
0.000000
 11
0.568563
 21
1.452937
 31
0.000000
  0
LINE
  8
31
 10
0.568563
 20
1.452937
 30
0.000000
 11
0.595563
 21
1.479937
 31
0.000000
  0
LINE
  8
31
 10
0.595563
 20
1.479937
 30
0.000000
 11
0.622563
 21
1.479937
 31
0.000000
  0
LINE
  8
31
 10
0.623563
 20
1.478937
 30
0.000000
 11
0.594563
 21
1.478937
 31
0.000000
  0
LINE
  8
31
 10
0.628563
 20
1.473937
 30
0.000000
 11
0.589563
 21
1.473937
 31
0.000000
  0
LINE
  8
31
 10
0.633563
 20
1.468937
 30
0.000000
 11
0.584563
 21
1.468937
 31
0.000000
  0
LINE
  8
31
 10
0.638563
 20
1.463937
 30
0.000000
 11
0.579563
 21
1.463937
 31
0.000000
  0
LINE
  8
31
 10
0.643563
 20
1.458937
 30
0.000000
 11
0.574563
 21
1.458937
 31
0.000000
  0
LINE
  8
31
 10
0.648563
 20
1.453937
 30
0.000000
 11
0.569563
 21
1.453937
 31
0.000000
  0
LINE
  8
31
 10
0.648563
 20
1.448937
 30
0.000000
 11
0.568563
 21
1.448937
 31
0.000000
  0
LINE
  8
31
 10
0.648563
 20
1.443937
 30
0.000000
 11
0.568563
 21
1.443937
 31
0.000000
  0
LINE
  8
31
 10
0.648563
 20
1.438937
 30
0.000000
 11
0.568563
 21
1.438937
 31
0.000000
  0
LINE
  8
31
 10
0.648563
 20
1.433937
 30
0.000000
 11
0.568563
 21
1.433937
 31
0.000000
  0
LINE
  8
31
 10
0.648563
 20
1.428937
 30
0.000000
 11
0.568563
 21
1.428937
 31
0.000000
  0
LINE
  8
31
 10
0.648563
 20
1.423937
 30
0.000000
 11
0.568563
 21
1.423937
 31
0.000000
  0
LINE
  8
31
 10
0.648563
 20
1.418937
 30
0.000000
 11
0.568563
 21
1.418937
 31
0.000000
  0
LINE
  8
31
 10
0.648563
 20
1.413937
 30
0.000000
 11
0.568563
 21
1.413937
 31
0.000000
  0
LINE
  8
31
 10
0.648563
 20
1.408937
 30
0.000000
 11
0.568563
 21
1.408937
 31
0.000000
  0
LINE
  8
31
 10
0.648563
 20
1.403937
 30
0.000000
 11
0.568563
 21
1.403937
 31
0.000000
  0
LINE
  8
31
 10
0.648563
 20
1.398937
 30
0.000000
 11
0.568563
 21
1.398937
 31
0.000000
  0
LINE
  8
31
 10
0.648563
 20
1.393937
 30
0.000000
 11
0.568563
 21
1.393937
 31
0.000000
  0
LINE
  8
31
 10
0.648563
 20
1.388937
 30
0.000000
 11
0.568563
 21
1.388937
 31
0.000000
  0
LINE
  8
31
 10
0.648563
 20
1.383937
 30
0.000000
 11
0.568563
 21
1.383937
 31
0.000000
  0
LINE
  8
31
 10
0.648563
 20
1.378937
 30
0.000000
 11
0.568563
 21
1.378937
 31
0.000000
  0
LINE
  8
31
 10
0.648563
 20
1.373937
 30
0.000000
 11
0.568563
 21
1.373937
 31
0.000000
  0
LINE
  8
31
 10
0.648563
 20
1.368937
 30
0.000000
 11
0.568563
 21
1.368937
 31
0.000000
  0
LINE
  8
31
 10
0.644563
 20
1.363937
 30
0.000000
 11
0.573563
 21
1.363937
 31
0.000000
  0
LINE
  8
31
 10
0.639563
 20
1.358937
 30
0.000000
 11
0.578563
 21
1.358937
 31
0.000000
  0
LINE
  8
31
 10
0.634563
 20
1.353937
 30
0.000000
 11
0.583563
 21
1.353937
 31
0.000000
  0
LINE
  8
31
 10
0.629563
 20
1.348937
 30
0.000000
 11
0.588563
 21
1.348937
 31
0.000000
  0
LINE
  8
31
 10
0.624563
 20
1.343937
 30
0.000000
 11
0.593563
 21
1.343937
 31
0.000000
  0
LINE
  8
31
 10
0.619563
 20
1.338937
 30
0.000000
 11
0.598563
 21
1.338937
 31
0.000000
  0
INSERT
  8
31
  2
RECT
 10
0.608563
 20
1.522480
 30
0.000000
 41
0.049055
 42
0.029370
 43
1.000000
 50
270.000000
  0
INSERT
  8
31
  2
RECT
 10
0.549508
 20
1.522480
 30
0.000000
 41
0.049055
 42
0.029370
 43
1.000000
 50
270.000000
  0
INSERT
  8
31
  2
RECT
 10
0.667618
 20
1.522480
 30
0.000000
 41
0.049055
 42
0.029370
 43
1.000000
 50
270.000000
  0
INSERT
  8
31
  2
RECT
 10
1.825236
 20
1.245000
 30
0.000000
 41
0.058898
 42
0.015591
 43
1.000000
 50
180.000000
  0
INSERT
  8
31
  2
RECT
 10
1.825236
 20
1.295000
 30
0.000000
 41
0.058898
 42
0.015591
 43
1.000000
 50
180.000000
  0
INSERT
  8
31
  2
RECT
 10
1.825236
 20
1.345000
 30
0.000000
 41
0.058898
 42
0.015591
 43
1.000000
 50
180.000000
  0
INSERT
  8
31
  2
RECT
 10
1.825236
 20
1.395000
 30
0.000000
 41
0.058898
 42
0.015591
 43
1.000000
 50
180.000000
  0
INSERT
  8
31
  2
RECT
 10
1.825236
 20
1.445000
 30
0.000000
 41
0.058898
 42
0.015591
 43
1.000000
 50
180.000000
  0
INSERT
  8
31
  2
RECT
 10
1.825236
 20
1.495000
 30
0.000000
 41
0.058898
 42
0.015591
 43
1.000000
 50
180.000000
  0
INSERT
  8
31
  2
RECT
 10
1.825236
 20
1.545000
 30
0.000000
 41
0.058898
 42
0.015591
 43
1.000000
 50
180.000000
  0
INSERT
  8
31
  2
RECT
 10
1.604764
 20
1.545000
 30
0.000000
 41
0.058898
 42
0.015591
 43
1.000000
 50
180.000000
  0
INSERT
  8
31
  2
RECT
 10
1.604764
 20
1.495000
 30
0.000000
 41
0.058898
 42
0.015591
 43
1.000000
 50
180.000000
  0
INSERT
  8
31
  2
RECT
 10
1.604764
 20
1.445000
 30
0.000000
 41
0.058898
 42
0.015591
 43
1.000000
 50
180.000000
  0
INSERT
  8
31
  2
RECT
 10
1.604764
 20
1.395000
 30
0.000000
 41
0.058898
 42
0.015591
 43
1.000000
 50
180.000000
  0
INSERT
  8
31
  2
RECT
 10
1.604764
 20
1.345000
 30
0.000000
 41
0.058898
 42
0.015591
 43
1.000000
 50
180.000000
  0
INSERT
  8
31
  2
RECT
 10
1.604764
 20
1.295000
 30
0.000000
 41
0.058898
 42
0.015591
 43
1.000000
 50
180.000000
  0
INSERT
  8
31
  2
RECT
 10
1.604764
 20
1.245000
 30
0.000000
 41
0.058898
 42
0.015591
 43
1.000000
 50
180.000000
  0
INSERT
  8
31
  2
RECT
 10
2.541000
 20
1.187000
 30
0.000000
 41
0.200000
 42
0.066000
 43
1.000000
 50
180.000000
  0
INSERT
  8
31
  2
RECT
 10
2.161000
 20
1.187000
 30
0.000000
 41
0.200000
 42
0.066000
 43
1.000000
 50
180.000000
  0
ENDSEC
  0
EOF
