  0
SECTION
  2
HEADER
  9
$ACADVER
  1
AC1027
  9
$ACADMAINTVER
 70
   105
  9
$DWGCODEPAGE
  3
ANSI_1252
  9
$LASTSAVEDBY
  1
Winfly
  9
$REQUIREDVERSIONS
160
                 0
  9
$INSBASE
 10
0.0
 20
0.0
 30
0.0
  9
$EXTMIN
 10
-10.75920717616262
 20
-1.402909649293077
 30
0.0
  9
$EXTMAX
 10
9.339944860388394
 20
5.30864549466206
 30
0.0
  9
$LIMMIN
 10
0.0
 20
0.0
  9
$LIMMAX
 10
12.0
 20
9.0
  9
$ORTHOMODE
 70
     0
  9
$REGENMODE
 70
     1
  9
$FILLMODE
 70
     0
  9
$QTEXTMODE
 70
     0
  9
$MIRRTEXT
 70
     0
  9
$LTSCALE
 40
1.0
  9
$ATTMODE
 70
     1
  9
$TEXTSIZE
 40
0.2
  9
$TRACEWID
 40
0.05
  9
$TEXTSTYLE
  7
Standard
  9
$CLAYER
  8
0
  9
$CELTYPE
  6
CONTINUOUS
  9
$CECOLOR
 62
   256
  9
$CELTSCALE
 40
1.0
  9
$DISPSILH
 70
     0
  9
$DIMSCALE
 40
1.0
  9
$DIMASZ
 40
0.18
  9
$DIMEXO
 40
0.0625
  9
$DIMDLI
 40
0.38
  9
$DIMRND
 40
0.0
  9
$DIMDLE
 40
0.0
  9
$DIMEXE
 40
0.18
  9
$DIMTP
 40
0.0
  9
$DIMTM
 40
0.0
  9
$DIMTXT
 40
0.18
  9
$DIMCEN
 40
0.09
  9
$DIMTSZ
 40
0.0
  9
$DIMTOL
 70
     0
  9
$DIMLIM
 70
     0
  9
$DIMTIH
 70
     1
  9
$DIMTOH
 70
     1
  9
$DIMSE1
 70
     0
  9
$DIMSE2
 70
     0
  9
$DIMTAD
 70
     0
  9
$DIMZIN
 70
     0
  9
$DIMBLK
  1

  9
$DIMASO
 70
     1
  9
$DIMSHO
 70
     1
  9
$DIMPOST
  1

  9
$DIMAPOST
  1

  9
$DIMALT
 70
     0
  9
$DIMALTD
 70
     2
  9
$DIMALTF
 40
25.4
  9
$DIMLFAC
 40
1.0
  9
$DIMTOFL
 70
     0
  9
$DIMTVP
 40
0.0
  9
$DIMTIX
 70
     0
  9
$DIMSOXD
 70
     0
  9
$DIMSAH
 70
     0
  9
$DIMBLK1
  1

  9
$DIMBLK2
  1

  9
$DIMSTYLE
  2
Standard
  9
$DIMCLRD
 70
     0
  9
$DIMCLRE
 70
     0
  9
$DIMCLRT
 70
     0
  9
$DIMTFAC
 40
1.0
  9
$DIMGAP
 40
0.09
  9
$DIMJUST
 70
     0
  9
$DIMSD1
 70
     0
  9
$DIMSD2
 70
     0
  9
$DIMTOLJ
 70
     1
  9
$DIMTZIN
 70
     0
  9
$DIMALTZ
 70
     0
  9
$DIMALTTZ
 70
     0
  9
$DIMUPT
 70
     0
  9
$DIMDEC
 70
     4
  9
$DIMTDEC
 70
     4
  9
$DIMALTU
 70
     2
  9
$DIMALTTD
 70
     2
  9
$DIMTXSTY
  7
Standard
  9
$DIMAUNIT
 70
     0
  9
$DIMADEC
 70
     0
  9
$DIMALTRND
 40
0.0
  9
$DIMAZIN
 70
     0
  9
$DIMDSEP
 70
    46
  9
$DIMATFIT
 70
     3
  9
$DIMFRAC
 70
     0
  9
$DIMLDRBLK
  1

  9
$DIMLUNIT
 70
     2
  9
$DIMLWD
 70
    -2
  9
$DIMLWE
 70
    -2
  9
$DIMTMOVE
 70
     0
  9
$DIMFXL
 40
1.0
  9
$DIMFXLON
 70
     0
  9
$DIMJOGANG
 40
0.7853981633974483
  9
$DIMTFILL
 70
     0
  9
$DIMTFILLCLR
 70
     0
  9
$DIMARCSYM
 70
     0
  9
$DIMLTYPE
  6

  9
$DIMLTEX1
  6

  9
$DIMLTEX2
  6

  9
$DIMTXTDIRECTION
 70
     0
  9
$LUNITS
 70
     2
  9
$LUPREC
 70
     4
  9
$SKETCHINC
 40
0.1
  9
$FILLETRAD
 40
0.0
  9
$AUNITS
 70
     0
  9
$AUPREC
 70
     0
  9
$MENU
  1
.
  9
$ELEVATION
 40
0.0
  9
$PELEVATION
 40
0.0
  9
$THICKNESS
 40
0.0
  9
$LIMCHECK
 70
     0
  9
$CHAMFERA
 40
0.0
  9
$CHAMFERB
 40
0.0
  9
$CHAMFERC
 40
0.0
  9
$CHAMFERD
 40
0.0
  9
$SKPOLY
 70
     0
  9
$TDCREATE
 40
2457381.048958345
  9
$TDUCREATE
 40
2457381.382291679
  9
$TDUPDATE
 40
2457381.071576158
  9
$TDUUPDATE
 40
2457381.404909491
  9
$TDINDWG
 40
0.0226180093
  9
$TDUSRTIMER
 40
0.0226180093
  9
$USRTIMER
 70
     1
  9
$ANGBASE
 50
0.0
  9
$ANGDIR
 70
     0
  9
$PDMODE
 70
     0
  9
$PDSIZE
 40
0.0
  9
$PLINEWID
 40
0.0
  9
$SPLFRAME
 70
     0
  9
$SPLINETYPE
 70
     6
  9
$SPLINESEGS
 70
     8
  9
$HANDSEED
  5
6D4
  9
$SURFTAB1
 70
     6
  9
$SURFTAB2
 70
     6
  9
$SURFTYPE
 70
     6
  9
$SURFU
 70
     6
  9
$SURFV
 70
     6
  9
$UCSBASE
  2

  9
$UCSNAME
  2

  9
$UCSORG
 10
0.0
 20
0.0
 30
0.0
  9
$UCSXDIR
 10
1.0
 20
0.0
 30
0.0
  9
$UCSYDIR
 10
0.0
 20
1.0
 30
0.0
  9
$UCSORTHOREF
  2

  9
$UCSORTHOVIEW
 70
     0
  9
$UCSORGTOP
 10
0.0
 20
0.0
 30
0.0
  9
$UCSORGBOTTOM
 10
0.0
 20
0.0
 30
0.0
  9
$UCSORGLEFT
 10
0.0
 20
0.0
 30
0.0
  9
$UCSORGRIGHT
 10
0.0
 20
0.0
 30
0.0
  9
$UCSORGFRONT
 10
0.0
 20
0.0
 30
0.0
  9
$UCSORGBACK
 10
0.0
 20
0.0
 30
0.0
  9
$PUCSBASE
  2

  9
$PUCSNAME
  2

  9
$PUCSORG
 10
0.0
 20
0.0
 30
0.0
  9
$PUCSXDIR
 10
1.0
 20
0.0
 30
0.0
  9
$PUCSYDIR
 10
0.0
 20
1.0
 30
0.0
  9
$PUCSORTHOREF
  2

  9
$PUCSORTHOVIEW
 70
     0
  9
$PUCSORGTOP
 10
0.0
 20
0.0
 30
0.0
  9
$PUCSORGBOTTOM
 10
0.0
 20
0.0
 30
0.0
  9
$PUCSORGLEFT
 10
0.0
 20
0.0
 30
0.0
  9
$PUCSORGRIGHT
 10
0.0
 20
0.0
 30
0.0
  9
$PUCSORGFRONT
 10
0.0
 20
0.0
 30
0.0
  9
$PUCSORGBACK
 10
0.0
 20
0.0
 30
0.0
  9
$USERI1
 70
     0
  9
$USERI2
 70
     0
  9
$USERI3
 70
     0
  9
$USERI4
 70
     0
  9
$USERI5
 70
     0
  9
$USERR1
 40
0.0
  9
$USERR2
 40
0.0
  9
$USERR3
 40
0.0
  9
$USERR4
 40
0.0
  9
$USERR5
 40
0.0
  9
$WORLDVIEW
 70
     1
  9
$SHADEDGE
 70
     3
  9
$SHADEDIF
 70
    70
  9
$TILEMODE
 70
     1
  9
$MAXACTVP
 70
    64
  9
$PINSBASE
 10
0.0
 20
0.0
 30
0.0
  9
$PLIMCHECK
 70
     0
  9
$PEXTMIN
 10
1.000000000000000E+20
 20
1.000000000000000E+20
 30
1.000000000000000E+20
  9
$PEXTMAX
 10
-1.000000000000000E+20
 20
-1.000000000000000E+20
 30
-1.000000000000000E+20
  9
$PLIMMIN
 10
0.0
 20
0.0
  9
$PLIMMAX
 10
12.0
 20
9.0
  9
$UNITMODE
 70
     0
  9
$VISRETAIN
 70
     1
  9
$PLINEGEN
 70
     0
  9
$PSLTSCALE
 70
     1
  9
$TREEDEPTH
 70
  3020
  9
$CMLSTYLE
  2
Standard
  9
$CMLJUST
 70
     0
  9
$CMLSCALE
 40
1.0
  9
$PROXYGRAPHICS
 70
     1
  9
$MEASUREMENT
 70
     0
  9
$CELWEIGHT
370
    -1
  9
$ENDCAPS
280
     0
  9
$JOINSTYLE
280
     0
  9
$LWDISPLAY
290
     0
  9
$INSUNITS
 70
     0
  9
$HYPERLINKBASE
  1

  9
$STYLESHEET
  1

  9
$XEDIT
290
     1
  9
$CEPSNTYPE
380
     0
  9
$PSTYLEMODE
290
     1
  9
$FINGERPRINTGUID
  2
{6972B7EE-4231-4AED-A6A6-2D1912B167B2}
  9
$VERSIONGUID
  2
{F6081257-E536-4A72-97D0-ECE57927DAD2}
  9
$EXTNAMES
290
     1
  9
$PSVPSCALE
 40
0.0
  9
$OLESTARTUP
290
     0
  9
$SORTENTS
280
   127
  9
$INDEXCTL
280
     0
  9
$HIDETEXT
280
     0
  9
$XCLIPFRAME
280
     2
  9
$HALOGAP
280
     0
  9
$OBSCOLOR
 70
   257
  9
$OBSLTYPE
280
     0
  9
$INTERSECTIONDISPLAY
280
     0
  9
$INTERSECTIONCOLOR
 70
   257
  9
$DIMASSOC
280
     1
  9
$PROJECTNAME
  1

  9
$CAMERADISPLAY
290
     0
  9
$LENSLENGTH
 40
50.0
  9
$CAMERAHEIGHT
 40
0.0
  9
$STEPSPERSEC
 40
2.0
  9
$STEPSIZE
 40
6.0
  9
$3DDWFPREC
 40
2.0
  9
$PSOLWIDTH
 40
0.25
  9
$PSOLHEIGHT
 40
4.0
  9
$LOFTANG1
 40
1.570796326794896
  9
$LOFTANG2
 40
1.570796326794896
  9
$LOFTMAG1
 40
0.0
  9
$LOFTMAG2
 40
0.0
  9
$LOFTPARAM
 70
     7
  9
$LOFTNORMALS
280
     1
  9
$LATITUDE
 40
37.795
  9
$LONGITUDE
 40
-122.394
  9
$NORTHDIRECTION
 40
0.0
  9
$TIMEZONE
 70
 -8000
  9
$LIGHTGLYPHDISPLAY
280
     1
  9
$TILEMODELIGHTSYNCH
280
     1
  9
$CMATERIAL
347
11
  9
$SOLIDHIST
280
     0
  9
$SHOWHIST
280
     1
  9
$DWFFRAME
280
     2
  9
$DGNFRAME
280
     0
  9
$REALWORLDSCALE
290
     1
  9
$INTERFERECOLOR
 62
     1
  9
$INTERFEREOBJVS
345
33
  9
$INTERFEREVPVS
346
30
  9
$CSHADOW
280
     0
  9
$SHADOWPLANELOCATION
 40
0.0
  0
ENDSEC
  0
SECTION
  2
CLASSES
  0
CLASS
  1
ACDBDICTIONARYWDFLT
  2
AcDbDictionaryWithDefault
  3
ObjectDBX Classes
 90
        0
 91
        1
280
     0
281
     0
  0
CLASS
  1
MATERIAL
  2
AcDbMaterial
  3
ObjectDBX Classes
 90
     1153
 91
        3
280
     0
281
     0
  0
CLASS
  1
VISUALSTYLE
  2
AcDbVisualStyle
  3
ObjectDBX Classes
 90
     4095
 91
       24
280
     0
281
     0
  0
CLASS
  1
SCALE
  2
AcDbScale
  3
ObjectDBX Classes
 90
     1153
 91
       17
280
     0
281
     0
  0
CLASS
  1
TABLESTYLE
  2
AcDbTableStyle
  3
ObjectDBX Classes
 90
     4095
 91
        1
280
     0
281
     0
  0
CLASS
  1
MLEADERSTYLE
  2
AcDbMLeaderStyle
  3
ACDB_MLEADERSTYLE_CLASS
 90
     4095
 91
        1
280
     0
281
     0
  0
CLASS
  1
ACDBSECTIONVIEWSTYLE
  2
AcDbSectionViewStyle
  3
ObjectDBX Classes
 90
     1025
 91
        2
280
     0
281
     0
  0
CLASS
  1
ACDBDETAILVIEWSTYLE
  2
AcDbDetailViewStyle
  3
ObjectDBX Classes
 90
     1025
 91
        2
280
     0
281
     0
  0
CLASS
  1
AMGSETTINGSOBJ
  2
AmgSettingsObj
  3
"AcadM|Product Description: AutoCAD Mechanical|Company: Autodesk, Inc."
 90
     1024
 91
        2
280
     0
281
     0
  0
CLASS
  1
ACME_DOCUMENT
  2
AcMeDbDoc
  3
AcMeServices
 90
     1024
 91
        1
280
     0
281
     0
  0
CLASS
  1
ACMESCOPE
  2
AcMeScope
  3
AcMeServices
 90
     1024
 91
        1
280
     0
281
     0
  0
CLASS
  1
ACMECOMMANDHISTORY
  2
AcMeCommandHistory
  3
AcMeServices
 90
     1024
 91
        1
280
     0
281
     0
  0
CLASS
  1
ACIMSYSVARMAN
  2
AcImSysVarManager
  3
AcMeServices
 90
     1024
 91
        3
280
     0
281
     0
  0
CLASS
  1
ACIMINTSYSVAR
  2
AcImIntSysVar
  3
AcMeServices
 90
     1024
 91
        2
280
     0
281
     0
  0
CLASS
  1
ACMESTATEMGR
  2
AcMeStateMgr
  3
AcMeServices
 90
     1024
 91
        1
280
     0
281
     0
  0
CLASS
  1
ACDBENTITYCACHE
  2
AcMeEntityCache
  3
AcMeServices
 90
     1024
 91
        1
280
     0
281
     0
  0
CLASS
  1
ACGREFMASTER
  2
AcGrefMaster
  3
AcAttribServices
 90
     1024
 91
        1
280
     0
281
     0
  0
CLASS
  1
ACME_DATABASE
  2
AcMeDbDatabase
  3
AcMeServices
 90
     1024
 91
        3
280
     0
281
     0
  0
CLASS
  1
ACRFINSADJUSTERMGR
  2
AcRfInsAdjusterMgr
  3
AcMeServices
 90
     1024
 91
        1
280
     0
281
     0
  0
CLASS
  1
ACGREFACADMASTER
  2
AcGrefacadMaster
  3
AcGrefServices
 90
     1024
 91
        1
280
     0
281
     0
  0
CLASS
  1
AMDTMENUSTATEMGR
  2
AmdtMenuStateMgr
  3
McadcomServices
 90
     1024
 91
        1
280
     0
281
     0
  0
CLASS
  1
AMDTMCOMMENUSTATE
  2
AmdtMcomMenuState
  3
McadcomServices
 90
     1024
 91
        1
280
     0
281
     0
  0
CLASS
  1
AMIMASTER
  2
AmiMaster
  3
AmiServices
 90
     1024
 91
        1
280
     0
281
     0
  0
CLASS
  1
MAPIAMMOUDLE
  2
MApiAmModule
  3
MApiAmServices
 90
     1024
 91
        1
280
     0
281
     0
  0
CLASS
  1
ACIMSTRSYSVAR
  2
AcImStrSysVar
  3
AcMeServices
 90
     1024
 91
        5
280
     0
281
     0
  0
CLASS
  1
AMDTAMMENUSTATE
  2
AmdtAmMenuState
  3
DesignerAssemblies
 90
     1024
 91
        1
280
     0
281
     0
  0
CLASS
  1
ACAMPROJECT
  2
AcAmProject
  3
DesignerAssemblies
 90
     1024
 91
        1
280
     0
281
     0
  0
CLASS
  1
ACAMGRCOMPDEF
  2
AcAmGrCompDef
  3
DesignerAssemblies
 90
     1024
 91
        1
280
     0
281
     0
  0
CLASS
  1
ACAMCOMPDEF
  2
AcAmCompDef
  3
DesignerAssemblies
 90
     1024
 91
        1
280
     0
281
     0
  0
CLASS
  1
ACAMCOMPDEFMGR
  2
AcAmCompDefMgr
  3
DesignerAssemblies
 90
     1024
 91
        1
280
     0
281
     0
  0
CLASS
  1
AMCONTEXTMGR
  2
AcAmContextMgr
  3
DesignerAssemblies
 90
     1024
 91
        1
280
     0
281
     0
  0
CLASS
  1
ACAMCONTEXTMODELER
  2
AcAmContextModeler
  3
DesignerAssemblies
 90
     1024
 91
        1
280
     0
281
     0
  0
CLASS
  1
ACMDATADICTIONARY
  2
AcmDataDictionary
  3
"AcmSymBB|Product Description: AutoCAD Mechanical|Company: Autodesk, Inc."
 90
     1024
 91
        1
280
     0
281
     0
  0
CLASS
  1
ACAMGRCOMPDEFSET
  2
AcAmGrCompDefSet
  3
DesignerAssemblies
 90
     1024
 91
        1
280
     0
281
     0
  0
CLASS
  1
AMDTBROWSERDBTAB
  2
AmdtBrowserDbTab
  3
McadcomServices
 90
     1024
 91
        1
280
     0
281
     0
  0
CLASS
  1
CBROWSERAPPOBJECT
  2
CBrowserAppObject
  3
McadcomServices
 90
     1024
 91
        2
280
     0
281
     0
  0
CLASS
  1
DM_PLACEHOLDER
  2
AcDmSelsetPlaceholder
  3
McadcomServices
 90
     1024
 91
        1
280
     0
281
     0
  0
CLASS
  1
ACMSTANDARDANSI
  2
AcmStandardANSI
  3
"Amdt_StdImp|Product Description: AutoCAD Mechanical|Company: Autodesk, Inc."
 90
     1024
 91
        1
280
     0
281
     0
  0
CLASS
  1
ACMSURFSTANDARDANSI
  2
AcmSurfTextStdANSI
  3
"Amdt_StdImp|Product Description: AutoCAD Mechanical|Company: Autodesk, Inc."
 90
     1024
 91
        1
280
     0
281
     0
  0
CLASS
  1
ACMFCFSTANDARDANSI
  2
AcmFCFStdANSI
  3
"Amdt_StdImp|Product Description: AutoCAD Mechanical|Company: Autodesk, Inc."
 90
     1024
 91
        1
280
     0
281
     0
  0
CLASS
  1
ACMWELDSTANDARDANSI
  2
AcmWeldingStdANSI
  3
"Amdt_StdImp|Product Description: AutoCAD Mechanical|Company: Autodesk, Inc."
 90
     1024
 91
        1
280
     0
281
     0
  0
CLASS
  1
ACMIDSTANDARDANSI
  2
AcmIdStdANSI
  3
"Amdt_StdImp|Product Description: AutoCAD Mechanical|Company: Autodesk, Inc."
 90
     1024
 91
        1
280
     0
281
     0
  0
CLASS
  1
ACMDATUMSTANDARDANSI
  2
AcmDatumStdANSI
  3
"Amdt_StdImp|Product Description: AutoCAD Mechanical|Company: Autodesk, Inc."
 90
     1024
 91
        1
280
     0
281
     0
  0
CLASS
  1
ACMBOMSTANDARDANSI
  2
AcmBOMStdANSI
  3
"Amdt_StdImp|Product Description: AutoCAD Mechanical|Company: Autodesk, Inc."
 90
     1024
 91
        1
280
     0
281
     0
  0
CLASS
  1
ACMDETAILSTANDARDANSI
  2
AmdtDetailSymStdANSI
  3
"Amdt_StdImp|Product Description: AutoCAD Mechanical|Company: Autodesk, Inc."
 90
     1024
 91
        1
280
     0
281
     0
  0
CLASS
  1
ACMSECTIONSTANDARDANSI
  2
AmdtSectionSymStdANSI
  3
"Amdt_StdImp|Product Description: AutoCAD Mechanical|Company: Autodesk, Inc."
 90
     1024
 91
        1
280
     0
281
     0
  0
CLASS
  1
ACMCENTERLINESTANDARDANSI
  2
AmdtCenterLineStdANSI
  3
"Amdt_StdImp|Product Description: AutoCAD Mechanical|Company: Autodesk, Inc."
 90
     1024
 91
        1
280
     0
281
     0
  0
CLASS
  1
ACMTHREADLINESTANDARDANSI
  2
AmdtThreadLineStdANSI
  3
"Amdt_StdImp|Product Description: AutoCAD Mechanical|Company: Autodesk, Inc."
 90
     1024
 91
        1
280
     0
281
     0
  0
CLASS
  1
ACMNOTESTANDARDANSI
  2
AmdtNoteStdANSI
  3
"Amdt_StdImp|Product Description: AutoCAD Mechanical|Company: Autodesk, Inc."
 90
     1024
 91
        1
280
     0
281
     0
  0
CLASS
  1
ACMTAPERSTANDARDANSI
  2
AcmTaperStdANSI
  3
"Amdt_StdImp|Product Description: AutoCAD Mechanical|Company: Autodesk, Inc."
 90
     1024
 91
        1
280
     0
281
     0
  0
CLASS
  1
ACMANOOTATIONVIEWSTANDARDANSI
  2
AmdtAnViewStdANSI
  3
"Amdt_StdImp|Product Description: AutoCAD Mechanical|Company: Autodesk, Inc."
 90
     1024
 91
        1
280
     0
281
     0
  0
CLASS
  1
ACAMGLAYSTD
  2
AcAmgLayStd
  3
"AmgLay|Product Description: AutoCAD Mechanical|Company: Autodesk, Inc."
 90
     1024
 91
        1
280
     0
281
     0
  0
CLASS
  1
ACAMGDIMSTD
  2
AcAmgDimStd
  3
"AmgDim|Product Description: AutoCAD Mechanical|Company: Autodesk, Inc."
 90
     1024
 91
        1
280
     0
281
     0
  0
CLASS
  1
AMGOBJPROPCFG
  2
AmgObjPropCfg
  3
"AmgLay|Product Description: AutoCAD Mechanical|Company: Autodesk, Inc."
 90
     1024
 91
        1
280
     0
281
     0
  0
CLASS
  1
ACAMGHOLECHARTSTDANSI
  2
AcAmgHoleChartStdANSI
  3
AmgDim|Product Description: AutoCAD Mechanical|Company: Autodesk, Inc.
 90
     1024
 91
        1
280
     0
281
     0
  0
CLASS
  1
ACAMGTITLESTD
  2
AcAmgTitleStd
  3
"AmgTitle|Product Description: AutoCAD Mechanical|Company: Autodesk, Inc."
 90
     1024
 91
        1
280
     0
281
     0
  0
CLASS
  1
ACMSECTIONSTANDARDCUSTOM
  2
AmdtSectionSymStdCustom
  3
"Amdt_StdImp|Product Description: AutoCAD Mechanical|Company: Autodesk, Inc."
 90
     1024
 91
        1
280
     0
281
     0
  0
CLASS
  1
ACMDETAILTANDARDCUSTOM
  2
AmdtDetailSymStdCustom
  3
"Amdt_StdImp|Product Description: AutoCAD Mechanical|Company: Autodesk, Inc."
 90
     1024
 91
        1
280
     0
281
     0
  0
CLASS
  1
FIELD
  2
AcDbField
  3
ObjectDBX Classes
 90
     1152
 91
        4
280
     0
281
     0
  0
CLASS
  1
FIELDLIST
  2
AcDbFieldList
  3
ObjectDBX Classes
 90
     1152
 91
        1
280
     0
281
     0
  0
CLASS
  1
AMDTNOTETEMPLATEDB
  2
AmdtNoteTemplateDB
  3
AcmSymBB|Product Description: AutoCAD Mechanical|Company: Autodesk, Inc.
 90
     1024
 91
        7
280
     0
281
     0
  0
CLASS
  1
ACAMGFILTERDAT
  2
AcAmgFilterDat
  3
"AcadM|Product Description: AutoCAD Mechanical|Company: Autodesk, Inc."
 90
     1024
 91
        6
280
     0
281
     0
  0
CLASS
  1
ACDBASSOCNETWORK
  2
AcDbAssocNetwork
  3
ObjectDBX Classes
 90
     1025
 91
        2
280
     0
281
     0
  0
CLASS
  1
ACDBASSOCVARIABLE
  2
AcDbAssocVariable
  3
ObjectDBX Classes
 90
     1025
 91
        1
280
     0
281
     0
  0
CLASS
  1
ACDBASSOCVALUEDEPENDENCY
  2
AcDbAssocValueDependency
  3
ObjectDBX Classes
 90
     1025
 91
        1
280
     0
281
     0
  0
CLASS
  1
ACDBASSOCDEPENDENCY
  2
AcDbAssocDependency
  3
ObjectDBX Classes
 90
     1025
 91
        1
280
     0
281
     0
  0
CLASS
  1
ASSOCDIMDEPENDENCYBODY
  2
AcDbAssocDimDependencyBody
  3
ObjectDBX Classes
 90
     1025
 91
        1
280
     0
281
     0
  0
CLASS
  1
ACDBASSOC2DCONSTRAINTGROUP
  2
AcDbAssoc2dConstraintGroup
  3
ObjectDBX Classes
 90
     1025
 91
        1
280
     0
281
     0
  0
CLASS
  1
ACDBASSOCGEOMDEPENDENCY
  2
AcDbAssocGeomDependency
  3
ObjectDBX Classes
 90
     1025
 91
        2
280
     0
281
     0
  0
CLASS
  1
CAMSSTRUCTBTNSTATE
  2
StructBtnState
  3
DesignerAssemblies
 90
     1024
 91
        1
280
     0
281
     0
  0
CLASS
  1
DICTIONARYVAR
  2
AcDbDictionaryVar
  3
ObjectDBX Classes
 90
        0
 91
       27
280
     0
281
     0
  0
CLASS
  1
CELLSTYLEMAP
  2
AcDbCellStyleMap
  3
ObjectDBX Classes
 90
     1152
 91
        2
280
     0
281
     0
  0
ENDSEC
  0
SECTION
  2
TABLES
  0
TABLE
  2
VPORT
  5
8
330
0
100
AcDbSymbolTable
 70
     1
  0
VPORT
  5
77
330
8
100
AcDbSymbolTableRecord
100
AcDbViewportTableRecord
  2
*Active
 70
     0
 10
0.0
 20
0.0
 11
1.0
 21
1.0
 12
6.021276809989096
 22
2.337414866758976
 13
0.0
 23
0.0
 14
1.0
 24
1.0
 15
0.0
 25
0.0
 16
0.0
 26
0.0
 36
1.0
 17
0.0
 27
0.0
 37
0.0
 40
9.779145404764022
 41
2.484210526315789
 42
50.0
 43
0.0
 44
0.0
 50
0.0
 51
0.0
 71
     0
 72
   100
 73
     1
 74
     1
 75
     0
 76
     0
 77
     0
 78
     0
281
     0
 65
     0
110
0.0
120
0.0
130
0.0
111
1.0
121
0.0
131
0.0
112
0.0
122
1.0
132
0.0
 79
     0
146
0.0
348
2F
 60
     3
 61
     5
292
     1
282
     1
141
0.0
142
0.0
 63
   250
421
  3355443
1001
ACAD_NAV_VCDISPLAY
1070
     3
  0
ENDTAB
  0
TABLE
  2
LTYPE
  5
5
330
0
100
AcDbSymbolTable
 70
    18
  0
LTYPE
  5
5A
330
5
100
AcDbSymbolTableRecord
100
AcDbLinetypeTableRecord
  2
ByBlock
 70
     0
  3

 72
    65
 73
     0
 40
0.0
  0
LTYPE
  5
5B
330
5
100
AcDbSymbolTableRecord
100
AcDbLinetypeTableRecord
  2
ByLayer
 70
     0
  3

 72
    65
 73
     0
 40
0.0
  0
LTYPE
  5
5C
330
5
100
AcDbSymbolTableRecord
100
AcDbLinetypeTableRecord
  2
CONTINUOUS
 70
     0
  3
Solid line
 72
    65
 73
     0
 40
0.0
  0
LTYPE
  5
1CE
330
5
100
AcDbSymbolTableRecord
100
AcDbLinetypeTableRecord
  2
HIDDEN
 70
     0
  3
Hidden __ __ __ __ __ __ __ __ __ __ __ __ __ _
 72
    65
 73
     2
 40
0.375
 49
0.25
 74
     0
 49
-0.125
 74
     0
  0
LTYPE
  5
1CF
330
5
100
AcDbSymbolTableRecord
100
AcDbLinetypeTableRecord
  2
PHANTOM2
 70
     0
  3
Phantom (.5x) ___ _ _ ___ _ _ ___ _ _ ___ _ _
 72
    65
 73
     6
 40
1.25
 49
0.625
 74
     0
 49
-0.125
 74
     0
 49
0.125
 74
     0
 49
-0.125
 74
     0
 49
0.125
 74
     0
 49
-0.125
 74
     0
  0
LTYPE
  5
1D0
330
5
100
AcDbSymbolTableRecord
100
AcDbLinetypeTableRecord
  2
CENTER
 70
     0
  3
Center ____ _ ____ _ ____ _ ____ _ ____ _ ____
 72
    65
 73
     4
 40
2.0
 49
1.25
 74
     0
 49
-0.25
 74
     0
 49
0.25
 74
     0
 49
-0.25
 74
     0
  0
LTYPE
  5
20A
330
5
100
AcDbSymbolTableRecord
100
AcDbLinetypeTableRecord
  2
AM_ISO02W050
 70
     0
  3
__ __ __ __ __ __ __ __ __ __ __ __ __ __ __
 72
    65
 73
     2
 40
7.5
 49
6.0
 74
     0
 49
-1.5
 74
     0
  0
LTYPE
  5
20B
330
5
100
AcDbSymbolTableRecord
100
AcDbLinetypeTableRecord
  2
AM_ISO08W050
 70
     0
  3
____ . ____ . ____ . ____ . ____ . ____ . ____
 72
    65
 73
     4
 40
18.0
 49
12.0
 74
     0
 49
-1.5
 74
     0
 49
3.0
 74
     0
 49
-1.5
 74
     0
  0
LTYPE
  5
20C
330
5
100
AcDbSymbolTableRecord
100
AcDbLinetypeTableRecord
  2
AM_ISO09W050
 70
     0
  3
_____ . . _____ . . _____ . . ____ .. ____
 72
    65
 73
     6
 40
22.5
 49
12.0
 74
     0
 49
-1.5
 74
     0
 49
3.0
 74
     0
 49
-1.5
 74
     0
 49
3.0
 74
     0
 49
-1.5
 74
     0
  0
LTYPE
  5
20D
330
5
100
AcDbSymbolTableRecord
100
AcDbLinetypeTableRecord
  2
Amconstr
 70
     0
  3
_______________________
 72
    65
 73
     2
 40
9999.0
 49
9999.0
 74
     0
 49
0.0
 74
     0
  0
LTYPE
  5
20E
330
5
100
AcDbSymbolTableRecord
100
AcDbLinetypeTableRecord
  2
AM_ISO08W050x2
 70
     0
  3
__ . __ . __ . __ . __ . __
 72
    65
 73
     4
 40
9.0
 49
6.0
 74
     0
 49
-0.75
 74
     0
 49
1.5
 74
     0
 49
-0.75
 74
     0
  0
LTYPE
  5
20F
330
5
100
AcDbSymbolTableRecord
100
AcDbLinetypeTableRecord
  2
AM_ISO02W050x2
 70
     0
  3
 _ _ _ _ _ _ _ _ _ _ _ _
 72
    65
 73
     2
 40
3.75
 49
3.0
 74
     0
 49
-0.75
 74
     0
  0
LTYPE
  5
212
330
5
100
AcDbSymbolTableRecord
100
AcDbLinetypeTableRecord
  2
Amzigzag
 70
     0
  3
/\/-/\/-/\/-/\/-/\/-/\/
 72
    65
 73
     2
 40
11.0001
 49
0.0001
 74
     4
 75
   136
340
211
 46
0.04
 50
0.0
 44
0.0
 45
0.0
 49
-11.0
 74
     0
  0
LTYPE
  5
213
330
5
100
AcDbSymbolTableRecord
100
AcDbLinetypeTableRecord
  2
CENTER2
 70
     0
  3
Center (.5x) ___ _ ___ _ ___ _ ___ _ ___ _ ___
 72
    65
 73
     4
 40
1.125
 49
0.75
 74
     0
 49
-0.125
 74
     0
 49
0.125
 74
     0
 49
-0.125
 74
     0
  0
LTYPE
  5
214
330
5
100
AcDbSymbolTableRecord
100
AcDbLinetypeTableRecord
  2
HIDDEN2
 70
     0
  3
Hidden (.5x) _ _ _ _ _ _ _ _ _ _ _ _ _ _ _ _ _
 72
    65
 73
     2
 40
0.1875
 49
0.125
 74
     0
 49
-0.0625
 74
     0
  0
LTYPE
  5
215
330
5
100
AcDbSymbolTableRecord
100
AcDbLinetypeTableRecord
  2
Amzigzag2
 70
     0
  3
/\/-/\/-/\/-/\/-/\/-/\/
 72
    65
 73
     2
 40
0.4401
 49
0.0001
 74
     4
 75
   136
340
211
 46
0.0016
 50
0.0
 44
0.0
 45
0.0
 49
-0.4400000000000001
 74
     0
  0
LTYPE
  5
225
330
5
100
AcDbSymbolTableRecord
100
AcDbLinetypeTableRecord
  2
ACANSTGB
 70
     0
  3
__ . . __ . .
 72
    65
 73
     6
 40
0.35433070866
 49
0.15748031496
 74
     0
 49
-0.03937007874
 74
     0
 49
0.03937007874
 74
     0
 49
-0.03937007874
 74
     0
 49
0.03937007874
 74
     0
 49
-0.03937007874
 74
     0
  0
LTYPE
  5
226
330
5
100
AcDbSymbolTableRecord
100
AcDbLinetypeTableRecord
  2
ACANSTGL
 70
     0
  3
_ _ _ _ _
 72
    65
 73
     2
 40
0.11811023622
 49
0.07874015748
 74
     0
 49
-0.03937007874
 74
     0
  0
ENDTAB
  0
TABLE
  2
LAYER
  5
2
102
{ACAD_XDICTIONARY
360
242
102
}
330
0
100
AcDbSymbolTable
 70
     5
  0
LAYER
  5
54
102
{ACAD_XDICTIONARY
360
6B4
102
}
330
2
100
AcDbSymbolTableRecord
100
AcDbLayerTableRecord
  2
0
 70
     0
 62
     7
  6
CONTINUOUS
370
    -3
390
F
347
21
348
0
  0
LAYER
  5
73
102
{ACAD_XDICTIONARY
360
6B6
102
}
330
2
100
AcDbSymbolTableRecord
100
AcDbLayerTableRecord
  2
20
 70
     0
 62
   178
  6
CONTINUOUS
370
    -3
390
F
347
21
348
0
  0
LAYER
  5
74
102
{ACAD_XDICTIONARY
360
6B8
102
}
330
2
100
AcDbSymbolTableRecord
100
AcDbLayerTableRecord
  2
31
 70
     0
 62
   251
  6
CONTINUOUS
370
    -3
390
F
347
21
348
0
  0
LAYER
  5
75
102
{ACAD_XDICTIONARY
360
6BA
102
}
330
2
100
AcDbSymbolTableRecord
100
AcDbLayerTableRecord
  2
32
 70
     0
 62
   251
  6
CONTINUOUS
370
    -3
390
F
347
21
348
0
  0
LAYER
  5
268
330
2
100
AcDbSymbolTableRecord
100
AcDbLayerTableRecord
  2
*ADSK_CONSTRAINTS
 70
     0
 62
     7
  6
CONTINUOUS
370
    -3
390
F
347
21
348
0
  0
ENDTAB
  0
TABLE
  2
STYLE
  5
3
330
0
100
AcDbSymbolTable
 70
     6
  0
STYLE
  5
55
330
3
100
AcDbSymbolTableRecord
100
AcDbTextStyleTableRecord
  2
Standard
 70
     0
 40
0.0
 41
1.0
 50
0.0
 71
     0
 42
0.2
  3
txt
  4

  0
STYLE
  5
59
330
3
100
AcDbSymbolTableRecord
100
AcDbTextStyleTableRecord
  2
Annotative
 70
     0
 40
0.0
 41
1.0
 50
0.0
 71
     0
 42
0.2
  3
txt
  4

1001
AcadAnnotative
1000
AnnotativeData
1002
{
1070
     1
1070
     1
1002
}
  0
STYLE
  5
211
330
3
100
AcDbSymbolTableRecord
100
AcDbTextStyleTableRecord
  2

 70
     1
 40
0.0
 41
1.0
 50
0.0
 71
     0
 42
0.2
  3
genltshp.shx
  4

  0
STYLE
  5
223
330
3
100
AcDbSymbolTableRecord
100
AcDbTextStyleTableRecord
  2
ACANSTS
 70
     0
 40
0.0
 41
1.0
 50
0.0
 71
     0
 42
0.2
  3
romans.shx
  4

  0
STYLE
  5
224
330
3
100
AcDbSymbolTableRecord
100
AcDbTextStyleTableRecord
  2
ACANSGDT
 70
     0
 40
0.0
 41
1.0
 50
0.0
 71
     0
 42
0.2
  3
amgdt.shx
  4

  0
ENDTAB
  0
TABLE
  2
VIEW
  5
6
330
0
100
AcDbSymbolTable
 70
     1
  0
ENDTAB
  0
TABLE
  2
UCS
  5
7
330
0
100
AcDbSymbolTable
 70
     0
  0
ENDTAB
  0
TABLE
  2
APPID
  5
9
330
0
100
AcDbSymbolTable
 70
    17
  0
APPID
  5
56
330
9
100
AcDbSymbolTableRecord
100
AcDbRegAppTableRecord
  2
ACAD
 70
     0
  0
APPID
  5
5D
330
9
100
AcDbSymbolTableRecord
100
AcDbRegAppTableRecord
  2
AcadAnnotative
 70
     0
  0
APPID
  5
1C7
330
9
100
AcDbSymbolTableRecord
100
AcDbRegAppTableRecord
  2
MCAD_NO_VIS
 70
     0
  0
APPID
  5
1C8
330
9
100
AcDbSymbolTableRecord
100
AcDbRegAppTableRecord
  2
ACAD_TEMP_GRAPHIC
 70
     0
  0
APPID
  5
1D5
330
9
100
AcDbSymbolTableRecord
100
AcDbRegAppTableRecord
  2
ACATTRIBSERVICES
 70
     0
  0
APPID
  5
1ED
330
9
100
AcDbSymbolTableRecord
100
AcDbRegAppTableRecord
  2
DESIGNERASSEMBLIES
 70
     0
  0
APPID
  5
207
330
9
100
AcDbSymbolTableRecord
100
AcDbRegAppTableRecord
  2
ACAD_DSTYLE_DIMJAG
 70
     0
  0
APPID
  5
208
330
9
100
AcDbSymbolTableRecord
100
AcDbRegAppTableRecord
  2
ACAD_DSTYLE_DIMBREAK
 70
     0
  0
APPID
  5
23C
330
9
100
AcDbSymbolTableRecord
100
AcDbRegAppTableRecord
  2
ACAD_NAV_VCDISPLAY
 70
     0
  0
APPID
  5
23E
330
9
100
AcDbSymbolTableRecord
100
AcDbRegAppTableRecord
  2
ACAD_DSTYLE_DIMTALN
 70
     0
  0
APPID
  5
23F
330
9
100
AcDbSymbolTableRecord
100
AcDbRegAppTableRecord
  2
GENIUS_GENREC_14
 70
     0
  0
APPID
  5
240
330
9
100
AcDbSymbolTableRecord
100
AcDbRegAppTableRecord
  2
GENIUS_GENODEF_13
 70
     0
  0
APPID
  5
241
330
9
100
AcDbSymbolTableRecord
100
AcDbRegAppTableRecord
  2
GENIUS_GENOBJ-N-REC_13
 70
     0
  0
APPID
  5
260
330
9
100
AcDbSymbolTableRecord
100
AcDbRegAppTableRecord
  2
ACAD_EXEMPT_FROM_CAD_STANDARDS
 70
     0
  0
APPID
  5
271
330
9
100
AcDbSymbolTableRecord
100
AcDbRegAppTableRecord
  2
ACAD_DSTYLE_DIMINSPECT
 70
     0
  0
APPID
  5
272
330
9
100
AcDbSymbolTableRecord
100
AcDbRegAppTableRecord
  2
ACAD_DSTYLE_DIMJAG_POSITION
 70
     0
  0
APPID
  5
279
330
9
100
AcDbSymbolTableRecord
100
AcDbRegAppTableRecord
  2
AcadAnnoMonitorAlertIconDisabled
 70
     0
  0
ENDTAB
  0
TABLE
  2
DIMSTYLE
  5
A
330
0
100
AcDbSymbolTable
 70
    10
100
AcDbDimStyleTable
 71
     1
340
57
  0
DIMSTYLE
105
57
330
A
100
AcDbSymbolTableRecord
100
AcDbDimStyleTableRecord
  2
Standard
 70
     0
340
55
  0
DIMSTYLE
105
58
330
A
100
AcDbSymbolTableRecord
100
AcDbDimStyleTableRecord
  2
Annotative
 70
     0
340
55
1001
AcadAnnotative
1000
AnnotativeData
1002
{
1070
     1
1070
     1
1002
}
  0
DIMSTYLE
105
206
102
{ACAD_REACTORS
330
1F6
102
}
330
A
100
AcDbSymbolTableRecord
100
AcDbDimStyleTableRecord
  2
AM_ANSI
 70
     0
  4
mm
 41
0.12
 42
0.05
 43
0.5
 44
0.1
 47
0.1
 48
0.1
 78
     7
 79
     2
 90
     1
140
0.12
141
0.0
146
0.71
147
0.06
176
   256
177
   256
178
     2
274
     4
284
     7
340
55
345
5A
346
5A
347
5A
371
    -1
372
    -1
1001
ACAD_DSTYLE_DIMJAG
1070
   388
1040
1.5
1001
ACAD_DSTYLE_DIMBREAK
1070
   391
1040
0.125
  0
DIMSTYLE
105
216
330
A
100
AcDbSymbolTableRecord
100
AcDbDimStyleTableRecord
  2
AM_ANSI$3
 70
     0
  4
mm
 41
0.12
 42
0.05
 43
0.5
 44
0.1
 47
0.1
 48
0.1
 78
     7
 79
     2
 90
     1
140
0.12
141
0.0
146
0.71
147
0.06
176
   256
177
   256
178
     2
274
     4
284
     7
288
     1
289
     0
340
55
345
5A
346
5A
347
5A
371
    -1
372
    -1
1001
ACAD_DSTYLE_DIMBREAK
1070
   391
1040
0.125
1001
ACAD_DSTYLE_DIMJAG
1070
   388
1040
1.5
  0
DIMSTYLE
105
217
330
A
100
AcDbSymbolTableRecord
100
AcDbDimStyleTableRecord
  2
AM_ANSI$4
 70
     0
  4
mm
 41
0.12
 42
0.05
 43
0.5
 44
0.1
 47
0.1
 48
0.1
 78
     7
 79
     2
 90
     1
140
0.12
141
0.0
146
0.71
147
0.06
176
   256
177
   256
178
     2
274
     4
284
     7
288
     1
289
     0
340
55
345
5A
346
5A
347
5A
371
    -1
372
    -1
1001
ACAD_DSTYLE_DIMBREAK
1070
   391
1040
0.125
1001
ACAD_DSTYLE_DIMJAG
1070
   388
1040
1.5
  0
DIMSTYLE
105
218
330
A
100
AcDbSymbolTableRecord
100
AcDbDimStyleTableRecord
  2
AM_ANSI$7
 70
     0
  4
mm
 41
0.12
 42
0.05
 43
0.5
 44
0.1
 47
0.1
 48
0.1
 78
     7
 79
     2
 90
     1
140
0.12
141
0.0
146
0.71
147
0.06
176
   256
177
   256
178
     2
274
     4
284
     7
340
55
345
5A
346
5A
347
5A
371
    -1
372
    -1
1001
ACAD_DSTYLE_DIMBREAK
1070
   391
1040
0.125
1001
ACAD_DSTYLE_DIMJAG
1070
   388
1040
1.5
  0
DIMSTYLE
105
219
330
A
100
AcDbSymbolTableRecord
100
AcDbDimStyleTableRecord
  2
AM_ANSI$SF
 70
     0
  4
mm
 41
0.12
 42
0.05
 43
0.5
 44
0.1
 47
0.1
 48
0.1
 75
     1
 76
     1
 78
     7
 79
     2
 90
     1
140
0.12
141
0.0
146
0.71
147
0.06
176
   256
177
   256
178
     2
274
     4
284
     7
340
55
345
5A
346
5A
347
5A
371
    -1
372
    -1
1001
ACAD_DSTYLE_DIMBREAK
1070
   391
1040
0.125
1001
ACAD_DSTYLE_DIMJAG
1070
   388
1040
1.5
  0
DIMSTYLE
105
21E
330
A
100
AcDbSymbolTableRecord
100
AcDbDimStyleTableRecord
  2
AM_ANSI$SH
 70
     0
  4
mm
 41
0.12
 42
0.05
 43
0.5
 44
0.1
 47
0.1
 48
0.1
 75
     1
 76
     1
 78
     7
 79
     2
 90
     1
140
0.12
141
0.0
146
0.71
147
0.06
173
     1
176
   256
177
   256
178
     2
274
     4
284
     7
340
55
343
21A
345
5A
346
5A
347
5A
371
    -1
372
    -1
1001
ACAD_DSTYLE_DIMBREAK
1070
   391
1040
0.125
1001
ACAD_DSTYLE_DIMJAG
1070
   388
1040
1.5
  0
ENDTAB
  0
TABLE
  2
BLOCK_RECORD
  5
1
330
0
100
AcDbSymbolTable
 70
    19
  0
BLOCK_RECORD
  5
6F
102
{ACAD_XDICTIONARY
360
274
102
}
330
1
100
AcDbSymbolTableRecord
100
AcDbBlockTableRecord
  2
*Model_Space
340
72
 70
     0
280
     1
281
     0
  0
BLOCK_RECORD
  5
6B
330
1
100
AcDbSymbolTableRecord
100
AcDbBlockTableRecord
  2
*Paper_Space
340
6E
 70
     0
280
     1
281
     0
  0
BLOCK_RECORD
  5
78
330
1
100
AcDbSymbolTableRecord
100
AcDbBlockTableRecord
  2
RECT
340
0
102
{BLKREFS
331
49E
331
49F
331
4A0
331
4A1
331
4A2
331
4A3
331
4A4
331
4A5
331
4A6
331
4A7
331
4A8
331
4A9
331
4AA
331
4AB
331
4AC
331
4AD
331
4AE
331
4AF
331
4B0
331
4B1
331
4B2
331
4B3
331
4B4
331
4B5
331
4B6
331
4B7
331
4B8
331
4B9
331
4BA
331
4BB
331
4BC
331
4BD
331
4BE
331
4BF
331
4C0
331
4C1
331
4C2
331
4C3
331
4C4
331
4C5
331
4C6
331
4C7
331
4C8
331
4C9
331
4CA
331
4CB
331
4CC
331
4CD
331
4CE
331
4CF
331
4D0
331
4D1
331
4D2
331
4D3
331
4D4
331
4D5
331
4D6
331
4D7
331
4D8
331
4D9
331
4DA
331
4DB
331
4DC
331
4DD
331
4DE
331
4DF
331
4E0
331
4E1
331
4E2
331
4E3
331
4E4
331
4E5
331
4E6
331
4E7
331
4E8
331
4E9
331
4EA
331
4EB
331
4EC
331
4ED
331
4EE
331
4EF
331
4F0
331
4F1
331
4F2
331
4F3
331
4F4
331
4F5
331
4F6
331
4F7
331
4F8
331
4F9
331
4FA
331
4FB
331
4FC
331
4FD
331
4FE
331
4FF
331
500
331
501
331
502
331
503
331
504
331
505
331
506
331
50A
331
50B
331
50C
331
50D
331
50E
331
50F
331
510
331
511
331
512
331
513
331
514
331
515
331
516
331
517
331
518
331
519
331
51A
331
51B
331
51C
331
51D
331
51E
331
51F
331
520
331
521
331
522
331
523
331
524
331
525
331
526
331
527
331
528
331
529
331
52A
331
52B
331
52C
331
52D
331
52E
331
52F
331
530
331
531
331
532
331
533
331
534
331
535
331
536
331
537
331
538
331
539
331
53A
331
53B
331
53C
331
53D
331
53E
331
53F
331
540
331
541
331
542
331
543
331
544
331
545
331
546
331
547
331
548
331
549
331
54A
331
54B
331
54C
331
54D
331
54E
331
54F
331
550
331
551
331
552
331
553
331
554
331
555
331
556
331
57C
331
57D
331
57E
331
57F
331
580
331
581
331
582
331
583
331
584
331
585
331
586
331
587
331
588
331
589
331
58A
331
58B
331
58C
331
58D
331
58E
331
58F
331
590
331
591
331
592
331
593
331
594
331
595
331
596
331
597
331
598
331
599
331
59F
331
5A0
331
5A1
331
5A2
331
5A3
331
5A4
331
5A5
331
5A6
331
5A7
331
5A8
331
5A9
331
5AA
331
5AB
331
5AC
331
5AD
331
5AE
331
5AF
331
5B0
331
5B1
331
5B2
331
5B3
331
5B4
331
5B5
331
5B6
331
5B7
331
5B8
331
5B9
331
5BA
331
5BB
331
5BC
331
5BD
331
5BE
331
5BF
331
5C0
331
5C1
331
5C2
331
5C3
331
5C4
331
5C5
331
5C6
331
5C7
331
5C8
331
5C9
331
5CA
331
5CB
331
5CC
331
5CD
331
5CE
331
5CF
331
5D0
331
5D1
331
5D2
331
5D3
331
5D4
331
5D5
331
5D6
331
5D7
331
5D8
331
5D9
331
5DA
331
5DB
331
5DC
331
5DD
331
5DE
331
5DF
331
5E0
331
5E1
331
5E2
331
5E3
331
5E4
331
5E5
331
5E6
331
5E7
331
5E8
331
5E9
331
5EA
331
5EB
331
5EC
331
5ED
331
5EE
331
5EF
331
5F0
331
5F1
331
5F2
331
5F3
331
5F4
331
5F5
331
5F6
331
5F7
331
5F8
331
5F9
331
5FA
331
5FB
331
5FC
331
5FD
331
5FE
331
5FF
331
600
331
601
331
602
331
603
331
604
331
605
331
606
331
607
331
60B
331
60C
331
60D
331
60E
331
60F
331
610
331
611
331
612
331
613
331
614
331
615
331
616
331
617
331
618
331
619
331
61A
331
61B
331
61C
331
61D
331
61E
331
61F
331
620
331
621
331
622
331
623
331
624
331
625
331
626
331
627
331
628
331
629
331
62A
331
62B
331
62C
331
62D
331
62E
331
62F
331
630
331
631
331
632
331
633
331
634
331
635
331
636
331
637
331
638
331
639
331
63A
331
63B
331
63C
331
63D
331
63E
331
63F
331
640
331
641
331
642
331
643
331
644
331
645
331
646
331
647
331
648
331
649
331
64A
331
64B
331
64C
331
64D
331
64E
331
64F
331
650
331
651
331
652
331
653
331
654
331
655
331
656
331
657
331
67D
331
67E
331
67F
331
680
331
681
331
682
331
683
331
684
331
685
331
686
331
687
331
688
331
689
331
68A
331
68B
331
68C
331
68D
331
68E
331
68F
331
690
331
691
331
692
331
693
331
694
331
695
331
696
331
697
331
698
331
699
331
69A
102
}
 70
     0
280
     1
281
     0
  0
BLOCK_RECORD
  5
7C
330
1
100
AcDbSymbolTableRecord
100
AcDbBlockTableRecord
  2
PIE
340
0
 70
     0
280
     1
281
     0
  0
BLOCK_RECORD
  5
80
330
1
100
AcDbSymbolTableRecord
100
AcDbBlockTableRecord
  2
OCTAGONP
340
0
 70
     0
280
     1
281
     0
  0
BLOCK_RECORD
  5
8D
330
1
100
AcDbSymbolTableRecord
100
AcDbBlockTableRecord
  2
SQUAREP
340
0
 70
     0
280
     1
281
     0
  0
BLOCK_RECORD
  5
91
330
1
100
AcDbSymbolTableRecord
100
AcDbBlockTableRecord
  2
ROUNDP
340
0
 70
     0
280
     1
281
     0
  0
BLOCK_RECORD
  5
95
330
1
100
AcDbSymbolTableRecord
100
AcDbBlockTableRecord
  2
ANNULUSP
340
0
 70
     0
280
     1
281
     0
  0
BLOCK_RECORD
  5
99
330
1
100
AcDbSymbolTableRecord
100
AcDbBlockTableRecord
  2
THERMALP
340
0
 70
     0
280
     1
281
     0
  0
BLOCK_RECORD
  5
A0
330
1
100
AcDbSymbolTableRecord
100
AcDbBlockTableRecord
  2
OCTAGONV
340
0
 70
     0
280
     1
281
     0
  0
BLOCK_RECORD
  5
AD
330
1
100
AcDbSymbolTableRecord
100
AcDbBlockTableRecord
  2
SQUAREV
340
0
 70
     0
280
     1
281
     0
  0
BLOCK_RECORD
  5
B1
330
1
100
AcDbSymbolTableRecord
100
AcDbBlockTableRecord
  2
ROUNDV
340
0
 70
     0
280
     1
281
     0
  0
BLOCK_RECORD
  5
B5
330
1
100
AcDbSymbolTableRecord
100
AcDbBlockTableRecord
  2
ANNULUSV
340
0
 70
     0
280
     1
281
     0
  0
BLOCK_RECORD
  5
B9
330
1
100
AcDbSymbolTableRecord
100
AcDbBlockTableRecord
  2
THERMALV
340
0
 70
     0
280
     1
281
     0
  0
BLOCK_RECORD
  5
21A
330
1
100
AcDbSymbolTableRecord
100
AcDbBlockTableRecord
  2
GENAXEH
340
0
 70
     0
280
     1
281
     0
  0
BLOCK_RECORD
  5
228
330
1
100
AcDbSymbolTableRecord
100
AcDbBlockTableRecord
  2
_ACMFILLEDHALF
340
0
 70
     0
280
     1
281
     0
  0
BLOCK_RECORD
  5
26B
330
1
100
AcDbSymbolTableRecord
100
AcDbBlockTableRecord
  2
_ClosedBlank
340
0
 70
     0
280
     1
281
     0
  0
ENDTAB
  0
ENDSEC
  0
SECTION
  2
BLOCKS
  0
BLOCK
  5
70
330
6F
100
AcDbEntity
  8
0
100
AcDbBlockBegin
  2
*Model_Space
 70
     0
 10
0.0
 20
0.0
 30
0.0
  3
*Model_Space
  1

  0
ENDBLK
  5
71
330
6F
100
AcDbEntity
  8
0
100
AcDbBlockEnd
  0
BLOCK
  5
6C
330
6B
100
AcDbEntity
 67
     1
  8
0
100
AcDbBlockBegin
  2
*Paper_Space
 70
     0
 10
0.0
 20
0.0
 30
0.0
  3
*Paper_Space
  1

  0
ENDBLK
  5
6D
330
6B
100
AcDbEntity
 67
     1
  8
0
100
AcDbBlockEnd
  0
BLOCK
  5
79
330
78
100
AcDbEntity
  8
0
100
AcDbBlockBegin
  2
RECT
 70
     0
 10
0.0
 20
0.0
 30
0.0
  3
RECT
  1

  0
SOLID
  5
7A
330
78
100
AcDbEntity
  8
0
100
AcDbTrace
 10
-0.5
 20
-0.5
 30
0.0
 11
0.5
 21
-0.5
 31
0.0
 12
-0.5
 22
0.5
 32
0.0
 13
0.5
 23
0.5
 33
0.0
  0
ENDBLK
  5
7B
330
78
100
AcDbEntity
  8
0
100
AcDbBlockEnd
  0
BLOCK
  5
7D
330
7C
100
AcDbEntity
  8
0
100
AcDbBlockBegin
  2
PIE
 70
     0
 10
0.0
 20
0.0
 30
0.0
  3
PIE
  1

  0
CIRCLE
  5
7E
330
7C
100
AcDbEntity
  8
0
100
AcDbCircle
 10
0.0
 20
0.0
 30
0.0
 40
0.5
  0
ENDBLK
  5
7F
330
7C
100
AcDbEntity
  8
0
100
AcDbBlockEnd
  0
BLOCK
  5
81
330
80
100
AcDbEntity
  8
0
100
AcDbBlockBegin
  2
OCTAGONP
 70
     0
 10
0.0
 20
0.0
 30
0.0
  3
OCTAGONP
  1

  0
POLYLINE
  5
82
330
80
100
AcDbEntity
  8
0
100
AcDb2dPolyline
 66
     1
 10
0.0
 20
0.0
 30
0.0
 70
     1
  0
VERTEX
  5
83
330
82
100
AcDbEntity
  8
0
100
AcDbVertex
100
AcDb2dVertex
 10
-0.5
 20
-0.207107
 30
0.0
  0
VERTEX
  5
84
330
82
100
AcDbEntity
  8
0
100
AcDbVertex
100
AcDb2dVertex
 10
-0.5
 20
0.207107
 30
0.0
  0
VERTEX
  5
85
330
82
100
AcDbEntity
  8
0
100
AcDbVertex
100
AcDb2dVertex
 10
-0.207107
 20
0.5
 30
0.0
  0
VERTEX
  5
86
330
82
100
AcDbEntity
  8
0
100
AcDbVertex
100
AcDb2dVertex
 10
0.207107
 20
0.5
 30
0.0
  0
VERTEX
  5
87
330
82
100
AcDbEntity
  8
0
100
AcDbVertex
100
AcDb2dVertex
 10
0.5
 20
0.207107
 30
0.0
  0
VERTEX
  5
88
330
82
100
AcDbEntity
  8
0
100
AcDbVertex
100
AcDb2dVertex
 10
0.5
 20
-0.207107
 30
0.0
  0
VERTEX
  5
89
330
82
100
AcDbEntity
  8
0
100
AcDbVertex
100
AcDb2dVertex
 10
0.207107
 20
-0.5
 30
0.0
  0
VERTEX
  5
8A
330
82
100
AcDbEntity
  8
0
100
AcDbVertex
100
AcDb2dVertex
 10
-0.207107
 20
-0.5
 30
0.0
  0
SEQEND
  5
8B
330
82
100
AcDbEntity
  8
0
  0
ENDBLK
  5
8C
330
80
100
AcDbEntity
  8
0
100
AcDbBlockEnd
  0
BLOCK
  5
8E
330
8D
100
AcDbEntity
  8
0
100
AcDbBlockBegin
  2
SQUAREP
 70
     0
 10
0.0
 20
0.0
 30
0.0
  3
SQUAREP
  1

  0
SOLID
  5
8F
330
8D
100
AcDbEntity
  8
0
100
AcDbTrace
 10
-0.5
 20
-0.5
 30
0.0
 11
0.5
 21
-0.5
 31
0.0
 12
-0.5
 22
0.5
 32
0.0
 13
0.5
 23
0.5
 33
0.0
  0
ENDBLK
  5
90
330
8D
100
AcDbEntity
  8
0
100
AcDbBlockEnd
  0
BLOCK
  5
92
330
91
100
AcDbEntity
  8
0
100
AcDbBlockBegin
  2
ROUNDP
 70
     0
 10
0.0
 20
0.0
 30
0.0
  3
ROUNDP
  1

  0
CIRCLE
  5
93
330
91
100
AcDbEntity
  8
0
100
AcDbCircle
 10
0.0
 20
0.0
 30
0.0
 40
0.5
  0
ENDBLK
  5
94
330
91
100
AcDbEntity
  8
0
100
AcDbBlockEnd
  0
BLOCK
  5
96
330
95
100
AcDbEntity
  8
0
100
AcDbBlockBegin
  2
ANNULUSP
 70
     0
 10
0.0
 20
0.0
 30
0.0
  3
ANNULUSP
  1

  0
CIRCLE
  5
97
330
95
100
AcDbEntity
  8
0
100
AcDbCircle
 10
0.0
 20
0.0
 30
0.0
 40
0.5
  0
ENDBLK
  5
98
330
95
100
AcDbEntity
  8
0
100
AcDbBlockEnd
  0
BLOCK
  5
9A
330
99
100
AcDbEntity
  8
0
100
AcDbBlockBegin
  2
THERMALP
 70
     0
 10
0.0
 20
0.0
 30
0.0
  3
THERMALP
  1

  0
LINE
  5
9B
330
99
100
AcDbEntity
  8
0
100
AcDbLine
 10
-0.237868
 20
0.45
 30
0.0
 11
0.237868
 21
0.45
 31
0.0
  0
LINE
  5
9C
330
99
100
AcDbEntity
  8
0
100
AcDbLine
 10
0.45
 20
0.237868
 30
0.0
 11
0.45
 21
-0.237868
 31
0.0
  0
LINE
  5
9D
330
99
100
AcDbEntity
  8
0
100
AcDbLine
 10
0.237868
 20
-0.45
 30
0.0
 11
-0.237868
 21
-0.45
 31
0.0
  0
LINE
  5
9E
330
99
100
AcDbEntity
  8
0
100
AcDbLine
 10
-0.45
 20
-0.237868
 30
0.0
 11
-0.45
 21
0.237868
 31
0.0
  0
ENDBLK
  5
9F
330
99
100
AcDbEntity
  8
0
100
AcDbBlockEnd
  0
BLOCK
  5
A1
330
A0
100
AcDbEntity
  8
0
100
AcDbBlockBegin
  2
OCTAGONV
 70
     0
 10
0.0
 20
0.0
 30
0.0
  3
OCTAGONV
  1

  0
POLYLINE
  5
A2
330
A0
100
AcDbEntity
  8
0
100
AcDb2dPolyline
 66
     1
 10
0.0
 20
0.0
 30
0.0
 70
     1
  0
VERTEX
  5
A3
330
A2
100
AcDbEntity
  8
0
100
AcDbVertex
100
AcDb2dVertex
 10
-0.5
 20
-0.207107
 30
0.0
  0
VERTEX
  5
A4
330
A2
100
AcDbEntity
  8
0
100
AcDbVertex
100
AcDb2dVertex
 10
-0.5
 20
0.207107
 30
0.0
  0
VERTEX
  5
A5
330
A2
100
AcDbEntity
  8
0
100
AcDbVertex
100
AcDb2dVertex
 10
-0.207107
 20
0.5
 30
0.0
  0
VERTEX
  5
A6
330
A2
100
AcDbEntity
  8
0
100
AcDbVertex
100
AcDb2dVertex
 10
0.207107
 20
0.5
 30
0.0
  0
VERTEX
  5
A7
330
A2
100
AcDbEntity
  8
0
100
AcDbVertex
100
AcDb2dVertex
 10
0.5
 20
0.207107
 30
0.0
  0
VERTEX
  5
A8
330
A2
100
AcDbEntity
  8
0
100
AcDbVertex
100
AcDb2dVertex
 10
0.5
 20
-0.207107
 30
0.0
  0
VERTEX
  5
A9
330
A2
100
AcDbEntity
  8
0
100
AcDbVertex
100
AcDb2dVertex
 10
0.207107
 20
-0.5
 30
0.0
  0
VERTEX
  5
AA
330
A2
100
AcDbEntity
  8
0
100
AcDbVertex
100
AcDb2dVertex
 10
-0.207107
 20
-0.5
 30
0.0
  0
SEQEND
  5
AB
330
A2
100
AcDbEntity
  8
0
  0
ENDBLK
  5
AC
330
A0
100
AcDbEntity
  8
0
100
AcDbBlockEnd
  0
BLOCK
  5
AE
330
AD
100
AcDbEntity
  8
0
100
AcDbBlockBegin
  2
SQUAREV
 70
     0
 10
0.0
 20
0.0
 30
0.0
  3
SQUAREV
  1

  0
SOLID
  5
AF
330
AD
100
AcDbEntity
  8
0
100
AcDbTrace
 10
-0.5
 20
-0.5
 30
0.0
 11
0.5
 21
-0.5
 31
0.0
 12
-0.5
 22
0.5
 32
0.0
 13
0.5
 23
0.5
 33
0.0
  0
ENDBLK
  5
B0
330
AD
100
AcDbEntity
  8
0
100
AcDbBlockEnd
  0
BLOCK
  5
B2
330
B1
100
AcDbEntity
  8
0
100
AcDbBlockBegin
  2
ROUNDV
 70
     0
 10
0.0
 20
0.0
 30
0.0
  3
ROUNDV
  1

  0
CIRCLE
  5
B3
330
B1
100
AcDbEntity
  8
0
100
AcDbCircle
 10
0.0
 20
0.0
 30
0.0
 40
0.5
  0
ENDBLK
  5
B4
330
B1
100
AcDbEntity
  8
0
100
AcDbBlockEnd
  0
BLOCK
  5
B6
330
B5
100
AcDbEntity
  8
0
100
AcDbBlockBegin
  2
ANNULUSV
 70
     0
 10
0.0
 20
0.0
 30
0.0
  3
ANNULUSV
  1

  0
CIRCLE
  5
B7
330
B5
100
AcDbEntity
  8
0
100
AcDbCircle
 10
0.0
 20
0.0
 30
0.0
 40
0.5
  0
ENDBLK
  5
B8
330
B5
100
AcDbEntity
  8
0
100
AcDbBlockEnd
  0
BLOCK
  5
BA
330
B9
100
AcDbEntity
  8
0
100
AcDbBlockBegin
  2
THERMALV
 70
     0
 10
0.0
 20
0.0
 30
0.0
  3
THERMALV
  1

  0
LINE
  5
BB
330
B9
100
AcDbEntity
  8
0
100
AcDbLine
 10
-0.237868
 20
0.45
 30
0.0
 11
0.237868
 21
0.45
 31
0.0
  0
LINE
  5
BC
330
B9
100
AcDbEntity
  8
0
100
AcDbLine
 10
0.45
 20
0.237868
 30
0.0
 11
0.45
 21
-0.237868
 31
0.0
  0
LINE
  5
BD
330
B9
100
AcDbEntity
  8
0
100
AcDbLine
 10
0.237868
 20
-0.45
 30
0.0
 11
-0.237868
 21
-0.45
 31
0.0
  0
LINE
  5
BE
330
B9
100
AcDbEntity
  8
0
100
AcDbLine
 10
-0.45
 20
-0.237868
 30
0.0
 11
-0.45
 21
0.237868
 31
0.0
  0
ENDBLK
  5
BF
330
B9
100
AcDbEntity
  8
0
100
AcDbBlockEnd
  0
BLOCK
  5
21C
330
21A
100
AcDbEntity
  8
0
100
AcDbBlockBegin
  2
GENAXEH
 70
     0
 10
0.0
 20
0.0
 30
0.0
  3
GENAXEH
  1

  0
LINE
  5
21B
330
21A
100
AcDbEntity
  8
0
100
AcDbLine
 10
-1.0
 20
0.0
 30
0.0
 11
1.0
 21
0.0
 31
0.0
  0
ENDBLK
  5
21D
330
21A
100
AcDbEntity
  8
0
100
AcDbBlockEnd
  0
BLOCK
  5
229
330
228
100
AcDbEntity
  8
0
100
AcDbBlockBegin
  2
_ACMFILLEDHALF
 70
     0
 10
0.0
 20
0.0
 30
0.0
  3
_ACMFILLEDHALF
  1

  0
TRACE
  5
22B
330
228
100
AcDbEntity
  8
0
  6
Continuous
 62
     0
100
AcDbTrace
 10
-0.8
 20
0.0
 30
0.0
 11
-1.0
 21
0.166666666
 31
0.0
 12
0.0
 22
0.0
 32
0.0
 13
0.0
 23
0.0
 33
0.0
  0
LINE
  5
22C
330
228
100
AcDbEntity
  8
0
  6
Continuous
 62
     0
100
AcDbLine
 10
-1.0
 20
0.0
 30
0.0
 11
-0.8
 21
0.0
 31
0.0
  0
ENDBLK
  5
22A
330
228
100
AcDbEntity
  8
0
100
AcDbBlockEnd
  0
BLOCK
  5
26F
330
26B
100
AcDbEntity
  8
0
100
AcDbBlockBegin
  2
_ClosedBlank
 70
     0
 10
0.0
 20
0.0
 30
0.0
  3
_ClosedBlank
  1

  0
LINE
  5
26C
330
26B
100
AcDbEntity
  8
0
  6
ByBlock
 62
     0
370
    -2
100
AcDbLine
 10
-1.0
 20
0.1666666666666666
 30
0.0
 11
0.0
 21
0.0
 31
0.0
  0
LINE
  5
26D
330
26B
100
AcDbEntity
  8
0
  6
ByBlock
 62
     0
370
    -2
100
AcDbLine
 10
0.0
 20
0.0
 30
0.0
 11
-1.0
 21
-0.1666666666666666
 31
0.0
  0
LINE
  5
26E
330
26B
100
AcDbEntity
  8
0
  6
ByBlock
 62
     0
370
    -2
100
AcDbLine
 10
-1.0
 20
0.1666666666666666
 30
0.0
 11
-1.0
 21
-0.1666666666666666
 31
0.0
  0
ENDBLK
  5
270
330
26B
100
AcDbEntity
  8
0
100
AcDbBlockEnd
  0
ENDSEC
  0
SECTION
  2
ENTITIES
  0
LWPOLYLINE
  5
255
330
6F
100
AcDbEntity
  8
0
100
AcDbPolyline
 90
        4
 70
     1
 43
0.0
 10
3.939944860388393
 20
0.30864549466206
 91
        6
 10
9.339944860388394
 20
0.30864549466206
 91
        7
 10
9.339944860388394
 20
5.308645494662059
 10
3.939944860388393
 20
5.30864549466206
 91
        5
1001
GENIUS_GENREC_14
1002
{
1000
PYDIR
1011
3.939944860388394
1021
5.308645494662059
1031
0.0
1002
}
1002
{
1000
PXDIR
1011
9.339944860388394
1021
1.308645494662059
1031
0.0
1002
}
1002
{
1000
PORI
1011
3.939944860388393
1021
1.308645494662059
1031
0.0
1002
}
1002
{
1000
PINS
1011
3.939944860388393
1021
1.308645494662059
1031
0.0
1002
}
1002
{
1000
PINS2
1011
9.339944860388394
1021
5.308645494662059
1031
0.0
1002
}
1002
{
1000
C
1070
     1
1002
}
1001
GENIUS_GENODEF_13
1002
{
1000
HIER
1070
     0
1002
}
1002
{
1000
MANEDIT
1070
     0
1002
}
1002
{
1000
NOSEL
1070
     0
1002
}
1002
{
1000
BEHIND
1070
     0
1002
}
1002
{
1000
OTHER
1070
     0
1002
}
1002
{
1000
REACTOR
1002
}
1001
GENIUS_GENOBJ-N-REC_13
1002
{
1000
OWNER
1000
GEN
1002
}
  0
CIRCLE
  5
256
330
6F
100
AcDbEntity
  8
0
100
AcDbCircle
 10
4.289944860388393
 20
4.308645494662059
 30
0.0
 40
0.0825
  0
CIRCLE
  5
257
330
6F
100
AcDbEntity
  8
0
100
AcDbCircle
 10
8.989944860388394
 20
4.308645494662059
 30
0.0
 40
0.0825
  0
INSERT
  5
49E
330
6F
100
AcDbEntity
  8
31
100
AcDbBlockReference
  2
RECT
 10
6.151479860388393
 20
1.241645494662059
 30
0.0
 41
0.033307
 42
0.02937
  0
INSERT
  5
49F
330
6F
100
AcDbEntity
  8
31
100
AcDbBlockReference
  2
RECT
 10
6.218409860388393
 20
1.241645494662059
 30
0.0
 41
0.033307
 42
0.02937
  0
INSERT
  5
4A0
330
6F
100
AcDbEntity
  8
31
100
AcDbBlockReference
  2
RECT
 10
5.075054860388393
 20
1.038401494662058
 30
0.0
 41
0.033307
 42
0.02937
 50
90.0
  0
INSERT
  5
4A1
330
6F
100
AcDbEntity
  8
31
100
AcDbBlockReference
  2
RECT
 10
5.075054860388393
 20
1.105330494662059
 30
0.0
 41
0.033307
 42
0.02937
 50
90.0
  0
INSERT
  5
4A2
330
6F
100
AcDbEntity
  8
31
100
AcDbBlockReference
  2
RECT
 10
4.927818860388393
 20
1.468291494662059
 30
0.0
 41
0.033307
 42
0.02937
 50
90.0
  0
INSERT
  5
4A3
330
6F
100
AcDbEntity
  8
31
100
AcDbBlockReference
  2
RECT
 10
4.927818860388393
 20
1.535220494662059
 30
0.0
 41
0.033307
 42
0.02937
 50
90.0
  0
INSERT
  5
4A4
330
6F
100
AcDbEntity
  8
31
100
AcDbBlockReference
  2
RECT
 10
5.134826860388393
 20
1.361645494662058
 30
0.0
 41
0.052992
 42
0.060866
  0
INSERT
  5
4A5
330
6F
100
AcDbEntity
  8
31
100
AcDbBlockReference
  2
RECT
 10
5.245062860388394
 20
1.361645494662058
 30
0.0
 41
0.052992
 42
0.060866
  0
INSERT
  5
4A6
330
6F
100
AcDbEntity
  8
31
100
AcDbBlockReference
  2
RECT
 10
5.560944860388393
 20
2.149180494662058
 30
0.0
 41
0.033307
 42
0.02937
 50
90.0
  0
INSERT
  5
4A7
330
6F
100
AcDbEntity
  8
31
100
AcDbBlockReference
  2
RECT
 10
5.560944860388393
 20
2.216110494662058
 30
0.0
 41
0.033307
 42
0.02937
 50
90.0
  0
INSERT
  5
4A8
330
6F
100
AcDbEntity
  8
31
100
AcDbBlockReference
  2
RECT
 10
5.611944860388393
 20
2.228110494662058
 30
0.0
 41
0.033307
 42
0.02937
 50
270.0
  0
INSERT
  5
4A9
330
6F
100
AcDbEntity
  8
31
100
AcDbBlockReference
  2
RECT
 10
5.611944860388393
 20
2.161180494662059
 30
0.0
 41
0.033307
 42
0.02937
 50
270.0
  0
INSERT
  5
4AA
330
6F
100
AcDbEntity
  8
31
100
AcDbBlockReference
  2
RECT
 10
5.668944860388393
 20
2.228110494662058
 30
0.0
 41
0.033307
 42
0.02937
 50
270.0
  0
INSERT
  5
4AB
330
6F
100
AcDbEntity
  8
31
100
AcDbBlockReference
  2
RECT
 10
5.668944860388393
 20
2.161180494662059
 30
0.0
 41
0.033307
 42
0.02937
 50
270.0
  0
INSERT
  5
4AC
330
6F
100
AcDbEntity
  8
31
100
AcDbBlockReference
  2
RECT
 10
5.770771860388393
 20
2.528251494662059
 30
0.0
 41
0.033307
 42
0.02937
 50
90.0
  0
INSERT
  5
4AD
330
6F
100
AcDbEntity
  8
31
100
AcDbBlockReference
  2
RECT
 10
5.770771860388393
 20
2.595180494662058
 30
0.0
 41
0.033307
 42
0.02937
 50
90.0
  0
INSERT
  5
4AE
330
6F
100
AcDbEntity
  8
31
100
AcDbBlockReference
  2
RECT
 10
5.976558860388394
 20
2.248842494662059
 30
0.0
 41
0.033307
 42
0.02937
 50
90.0
  0
INSERT
  5
4AF
330
6F
100
AcDbEntity
  8
31
100
AcDbBlockReference
  2
RECT
 10
5.976558860388394
 20
2.315771494662059
 30
0.0
 41
0.033307
 42
0.02937
 50
90.0
  0
INSERT
  5
4B0
330
6F
100
AcDbEntity
  8
31
100
AcDbBlockReference
  2
RECT
 10
6.183330860388393
 20
2.175062494662058
 30
0.0
 41
0.033307
 42
0.02937
 50
90.0
  0
INSERT
  5
4B1
330
6F
100
AcDbEntity
  8
31
100
AcDbBlockReference
  2
RECT
 10
6.183330860388393
 20
2.241991494662058
 30
0.0
 41
0.033307
 42
0.02937
 50
90.0
  0
INSERT
  5
4B2
330
6F
100
AcDbEntity
  8
31
100
AcDbBlockReference
  2
RECT
 10
6.045180860388393
 20
2.912110494662059
 30
0.0
 41
0.033307
 42
0.02937
 50
90.0
  0
INSERT
  5
4B3
330
6F
100
AcDbEntity
  8
31
100
AcDbBlockReference
  2
RECT
 10
6.045180860388393
 20
2.979039494662059
 30
0.0
 41
0.033307
 42
0.02937
 50
90.0
  0
INSERT
  5
4B4
330
6F
100
AcDbEntity
  8
31
100
AcDbBlockReference
  2
RECT
 10
6.014944860388394
 20
3.415180494662058
 30
0.0
 41
0.033307
 42
0.02937
 50
90.0
  0
INSERT
  5
4B5
330
6F
100
AcDbEntity
  8
31
100
AcDbBlockReference
  2
RECT
 10
6.014944860388394
 20
3.482110494662059
 30
0.0
 41
0.033307
 42
0.02937
 50
90.0
  0
INSERT
  5
4B6
330
6F
100
AcDbEntity
  8
31
100
AcDbBlockReference
  2
RECT
 10
5.771479860388394
 20
3.608645494662058
 30
0.0
 41
0.033307
 42
0.02937
  0
INSERT
  5
4B7
330
6F
100
AcDbEntity
  8
31
100
AcDbBlockReference
  2
RECT
 10
5.838409860388393
 20
3.608645494662058
 30
0.0
 41
0.033307
 42
0.02937
  0
INSERT
  5
4B8
330
6F
100
AcDbEntity
  8
31
100
AcDbBlockReference
  2
RECT
 10
5.419944860388394
 20
3.292110494662058
 30
0.0
 41
0.033307
 42
0.02937
 50
270.0
  0
INSERT
  5
4B9
330
6F
100
AcDbEntity
  8
31
100
AcDbBlockReference
  2
RECT
 10
5.419944860388394
 20
3.225180494662058
 30
0.0
 41
0.033307
 42
0.02937
 50
270.0
  0
INSERT
  5
4BA
330
6F
100
AcDbEntity
  8
31
100
AcDbBlockReference
  2
RECT
 10
5.419944860388394
 20
3.095180494662058
 30
0.0
 41
0.033307
 42
0.02937
 50
90.0
  0
INSERT
  5
4BB
330
6F
100
AcDbEntity
  8
31
100
AcDbBlockReference
  2
RECT
 10
5.419944860388394
 20
3.162110494662059
 30
0.0
 41
0.033307
 42
0.02937
 50
90.0
  0
INSERT
  5
4BC
330
6F
100
AcDbEntity
  8
31
100
AcDbBlockReference
  2
RECT
 10
5.500613860388392
 20
2.852110494662058
 30
0.0
 41
0.033307
 42
0.02937
 50
90.0
  0
INSERT
  5
4BD
330
6F
100
AcDbEntity
  8
31
100
AcDbBlockReference
  2
RECT
 10
5.500613860388392
 20
2.919039494662058
 30
0.0
 41
0.033307
 42
0.02937
 50
90.0
  0
INSERT
  5
4BE
330
6F
100
AcDbEntity
  8
31
100
AcDbBlockReference
  2
RECT
 10
5.261479860388392
 20
2.260645494662059
 30
0.0
 41
0.033307
 42
0.02937
  0
INSERT
  5
4BF
330
6F
100
AcDbEntity
  8
31
100
AcDbBlockReference
  2
RECT
 10
5.328409860388394
 20
2.260645494662059
 30
0.0
 41
0.033307
 42
0.02937
  0
INSERT
  5
4C0
330
6F
100
AcDbEntity
  8
31
100
AcDbBlockReference
  2
RECT
 10
5.386204860388393
 20
1.622645494662058
 30
0.0
 41
0.151417
 42
0.052992
  0
INSERT
  5
4C1
330
6F
100
AcDbEntity
  8
31
100
AcDbBlockReference
  2
RECT
 10
5.043684860388394
 20
1.622645494662058
 30
0.0
 41
0.151417
 42
0.052992
  0
INSERT
  5
4C2
330
6F
100
AcDbEntity
  8
31
100
AcDbBlockReference
  2
RECT
 10
5.864944860388392
 20
2.529645494662058
 30
0.0
 41
0.037
 42
0.039
 50
270.0
  0
INSERT
  5
4C3
330
6F
100
AcDbEntity
  8
31
100
AcDbBlockReference
  2
RECT
 10
5.864944860388392
 20
2.447645494662058
 30
0.0
 41
0.037
 42
0.039
 50
270.0
  0
INSERT
  5
4C4
330
6F
100
AcDbEntity
  8
31
100
AcDbBlockReference
  2
RECT
 10
5.939944860388393
 20
2.529645494662058
 30
0.0
 41
0.037
 42
0.039
 50
270.0
  0
INSERT
  5
4C5
330
6F
100
AcDbEntity
  8
31
100
AcDbBlockReference
  2
RECT
 10
5.939944860388393
 20
2.447645494662058
 30
0.0
 41
0.037
 42
0.039
 50
270.0
  0
INSERT
  5
4C6
330
6F
100
AcDbEntity
  8
31
100
AcDbBlockReference
  2
RECT
 10
6.014944860388393
 20
2.529645494662058
 30
0.0
 41
0.037
 42
0.039
 50
270.0
  0
INSERT
  5
4C7
330
6F
100
AcDbEntity
  8
31
100
AcDbBlockReference
  2
RECT
 10
6.014944860388393
 20
2.447645494662058
 30
0.0
 41
0.037
 42
0.039
 50
270.0
  0
INSERT
  5
4C8
330
6F
100
AcDbEntity
  8
31
100
AcDbBlockReference
  2
RECT
 10
5.544235860388393
 20
1.478212494662058
 30
0.0
 41
0.190472
 42
0.049291
 50
90.0
  0
INSERT
  5
4C9
330
6F
100
AcDbEntity
  8
31
100
AcDbBlockReference
  2
RECT
 10
5.628920860388394
 20
1.477976494662059
 30
0.0
 41
0.15
 42
0.122047
 50
90.0
  0
INSERT
  5
4CA
330
6F
100
AcDbEntity
  8
31
100
AcDbBlockReference
  2
RECT
 10
5.753920860388394
 20
1.402976494662059
 30
0.0
 41
0.017559
 42
0.045118
 50
90.0
  0
INSERT
  5
4CB
330
6F
100
AcDbEntity
  8
31
100
AcDbBlockReference
  2
RECT
 10
5.753920860388394
 20
1.452976494662058
 30
0.0
 41
0.017559
 42
0.045118
 50
90.0
  0
INSERT
  5
4CC
330
6F
100
AcDbEntity
  8
31
100
AcDbBlockReference
  2
RECT
 10
5.753920860388394
 20
1.502976494662058
 30
0.0
 41
0.017559
 42
0.045118
 50
90.0
  0
INSERT
  5
4CD
330
6F
100
AcDbEntity
  8
31
100
AcDbBlockReference
  2
RECT
 10
5.753920860388394
 20
1.552976494662058
 30
0.0
 41
0.017559
 42
0.045118
 50
90.0
  0
INSERT
  5
4CE
330
6F
100
AcDbEntity
  8
31
100
AcDbBlockReference
  2
RECT
 10
5.544235860388393
 20
1.759117494662059
 30
0.0
 41
0.190472
 42
0.049291
 50
90.0
  0
INSERT
  5
4CF
330
6F
100
AcDbEntity
  8
31
100
AcDbBlockReference
  2
RECT
 10
5.628920860388394
 20
1.758881494662059
 30
0.0
 41
0.15
 42
0.122047
 50
90.0
  0
INSERT
  5
4D0
330
6F
100
AcDbEntity
  8
31
100
AcDbBlockReference
  2
RECT
 10
5.753920860388394
 20
1.683881494662058
 30
0.0
 41
0.017559
 42
0.045118
 50
90.0
  0
INSERT
  5
4D1
330
6F
100
AcDbEntity
  8
31
100
AcDbBlockReference
  2
RECT
 10
5.753920860388394
 20
1.733881494662059
 30
0.0
 41
0.017559
 42
0.045118
 50
90.0
  0
INSERT
  5
4D2
330
6F
100
AcDbEntity
  8
31
100
AcDbBlockReference
  2
RECT
 10
5.753920860388394
 20
1.783881494662059
 30
0.0
 41
0.017559
 42
0.045118
 50
90.0
  0
INSERT
  5
4D3
330
6F
100
AcDbEntity
  8
31
100
AcDbBlockReference
  2
RECT
 10
5.753920860388394
 20
1.833881494662059
 30
0.0
 41
0.017559
 42
0.045118
 50
90.0
  0
INSERT
  5
4D4
330
6F
100
AcDbEntity
  8
31
100
AcDbBlockReference
  2
RECT
 10
5.939117860388392
 20
1.478212494662058
 30
0.0
 41
0.190472
 42
0.049291
 50
90.0
  0
INSERT
  5
4D5
330
6F
100
AcDbEntity
  8
31
100
AcDbBlockReference
  2
RECT
 10
6.023802860388393
 20
1.477976494662059
 30
0.0
 41
0.15
 42
0.122047
 50
90.0
  0
INSERT
  5
4D6
330
6F
100
AcDbEntity
  8
31
100
AcDbBlockReference
  2
RECT
 10
6.148802860388393
 20
1.402976494662059
 30
0.0
 41
0.017559
 42
0.045118
 50
90.0
  0
INSERT
  5
4D7
330
6F
100
AcDbEntity
  8
31
100
AcDbBlockReference
  2
RECT
 10
6.148802860388393
 20
1.452976494662058
 30
0.0
 41
0.017559
 42
0.045118
 50
90.0
  0
INSERT
  5
4D8
330
6F
100
AcDbEntity
  8
31
100
AcDbBlockReference
  2
RECT
 10
6.148802860388393
 20
1.502976494662058
 30
0.0
 41
0.017559
 42
0.045118
 50
90.0
  0
INSERT
  5
4D9
330
6F
100
AcDbEntity
  8
31
100
AcDbBlockReference
  2
RECT
 10
6.148802860388393
 20
1.552976494662058
 30
0.0
 41
0.017559
 42
0.045118
 50
90.0
  0
INSERT
  5
4DA
330
6F
100
AcDbEntity
  8
31
100
AcDbBlockReference
  2
RECT
 10
5.939117860388392
 20
1.759117494662059
 30
0.0
 41
0.190472
 42
0.049291
 50
90.0
  0
INSERT
  5
4DB
330
6F
100
AcDbEntity
  8
31
100
AcDbBlockReference
  2
RECT
 10
6.023802860388393
 20
1.758881494662059
 30
0.0
 41
0.15
 42
0.122047
 50
90.0
  0
INSERT
  5
4DC
330
6F
100
AcDbEntity
  8
31
100
AcDbBlockReference
  2
RECT
 10
6.148802860388393
 20
1.683881494662058
 30
0.0
 41
0.017559
 42
0.045118
 50
90.0
  0
INSERT
  5
4DD
330
6F
100
AcDbEntity
  8
31
100
AcDbBlockReference
  2
RECT
 10
6.148802860388393
 20
1.733881494662059
 30
0.0
 41
0.017559
 42
0.045118
 50
90.0
  0
INSERT
  5
4DE
330
6F
100
AcDbEntity
  8
31
100
AcDbBlockReference
  2
RECT
 10
6.148802860388393
 20
1.783881494662059
 30
0.0
 41
0.017559
 42
0.045118
 50
90.0
  0
INSERT
  5
4DF
330
6F
100
AcDbEntity
  8
31
100
AcDbBlockReference
  2
RECT
 10
6.148802860388393
 20
1.833881494662059
 30
0.0
 41
0.017559
 42
0.045118
 50
90.0
  0
INSERT
  5
4E0
330
6F
100
AcDbEntity
  8
31
100
AcDbBlockReference
  2
RECT
 10
5.250298860388394
 20
1.270259494662058
 30
0.0
 41
0.02937
 42
0.052992
 50
270.0
  0
INSERT
  5
4E1
330
6F
100
AcDbEntity
  8
31
100
AcDbBlockReference
  2
RECT
 10
5.250298860388394
 20
1.090732494662058
 30
0.0
 41
0.02937
 42
0.052992
 50
270.0
  0
INSERT
  5
4E2
330
6F
100
AcDbEntity
  8
31
100
AcDbBlockReference
  2
RECT
 10
5.537700860388393
 20
1.180495494662058
 30
0.0
 41
0.202598
 42
0.234094
 50
270.0
  0
INSERT
  5
4E3
330
6F
100
AcDbEntity
  8
31
100
AcDbBlockReference
  2
RECT
 10
5.154590860388394
 20
1.167314494662058
 30
0.0
 41
0.02937
 42
0.033307
  0
INSERT
  5
4E4
330
6F
100
AcDbEntity
  8
31
100
AcDbBlockReference
  2
RECT
 10
5.221519860388394
 20
1.167314494662058
 30
0.0
 41
0.02937
 42
0.033307
  0
INSERT
  5
4E5
330
6F
100
AcDbEntity
  8
31
100
AcDbBlockReference
  2
RECT
 10
5.348409860388393
 20
2.317645494662059
 30
0.0
 41
0.02937
 42
0.033307
 50
180.0
  0
INSERT
  5
4E6
330
6F
100
AcDbEntity
  8
31
100
AcDbBlockReference
  2
RECT
 10
5.281479860388394
 20
2.317645494662059
 30
0.0
 41
0.02937
 42
0.033307
 50
180.0
  0
INSERT
  5
4E7
330
6F
100
AcDbEntity
  8
31
100
AcDbBlockReference
  2
RECT
 10
5.485944860388393
 20
2.299110494662059
 30
0.0
 41
0.02937
 42
0.033307
 50
270.0
  0
INSERT
  5
4E8
330
6F
100
AcDbEntity
  8
31
100
AcDbBlockReference
  2
RECT
 10
5.485944860388393
 20
2.232180494662058
 30
0.0
 41
0.02937
 42
0.033307
 50
270.0
  0
INSERT
  5
4E9
330
6F
100
AcDbEntity
  8
31
100
AcDbBlockReference
  2
RECT
 10
5.724944860388394
 20
2.222110494662059
 30
0.0
 41
0.02937
 42
0.033307
 50
270.0
  0
INSERT
  5
4EA
330
6F
100
AcDbEntity
  8
31
100
AcDbBlockReference
  2
RECT
 10
5.724944860388394
 20
2.155180494662058
 30
0.0
 41
0.02937
 42
0.033307
 50
270.0
  0
INSERT
  5
4EB
330
6F
100
AcDbEntity
  8
31
100
AcDbBlockReference
  2
RECT
 10
5.809944860388393
 20
2.222110494662059
 30
0.0
 41
0.02937
 42
0.033307
 50
270.0
  0
INSERT
  5
4EC
330
6F
100
AcDbEntity
  8
31
100
AcDbBlockReference
  2
RECT
 10
5.809944860388393
 20
2.155180494662058
 30
0.0
 41
0.02937
 42
0.033307
 50
270.0
  0
INSERT
  5
4ED
330
6F
100
AcDbEntity
  8
31
100
AcDbBlockReference
  2
RECT
 10
5.865338860388392
 20
2.616086494662058
 30
0.0
 41
0.02937
 42
0.033307
 50
90.0
  0
INSERT
  5
4EE
330
6F
100
AcDbEntity
  8
31
100
AcDbBlockReference
  2
RECT
 10
5.865338860388392
 20
2.683015494662059
 30
0.0
 41
0.02937
 42
0.033307
 50
90.0
  0
INSERT
  5
4EF
330
6F
100
AcDbEntity
  8
31
100
AcDbBlockReference
  2
RECT
 10
5.937700860388392
 20
2.683015494662059
 30
0.0
 41
0.02937
 42
0.033307
 50
270.0
  0
INSERT
  5
4F0
330
6F
100
AcDbEntity
  8
31
100
AcDbBlockReference
  2
RECT
 10
5.937700860388392
 20
2.616086494662058
 30
0.0
 41
0.02937
 42
0.033307
 50
270.0
  0
INSERT
  5
4F1
330
6F
100
AcDbEntity
  8
31
100
AcDbBlockReference
  2
RECT
 10
6.010062860388392
 20
2.683015494662059
 30
0.0
 41
0.02937
 42
0.033307
 50
270.0
  0
INSERT
  5
4F2
330
6F
100
AcDbEntity
  8
31
100
AcDbBlockReference
  2
RECT
 10
6.010062860388392
 20
2.616086494662058
 30
0.0
 41
0.02937
 42
0.033307
 50
270.0
  0
INSERT
  5
4F3
330
6F
100
AcDbEntity
  8
31
100
AcDbBlockReference
  2
RECT
 10
6.124944860388393
 20
2.667110494662059
 30
0.0
 41
0.02937
 42
0.033307
 50
270.0
  0
INSERT
  5
4F4
330
6F
100
AcDbEntity
  8
31
100
AcDbBlockReference
  2
RECT
 10
6.124944860388393
 20
2.600180494662059
 30
0.0
 41
0.02937
 42
0.033307
 50
270.0
  0
INSERT
  5
4F5
330
6F
100
AcDbEntity
  8
31
100
AcDbBlockReference
  2
RECT
 10
6.189944860388393
 20
2.667110494662059
 30
0.0
 41
0.02937
 42
0.033307
 50
270.0
  0
INSERT
  5
4F6
330
6F
100
AcDbEntity
  8
31
100
AcDbBlockReference
  2
RECT
 10
6.189944860388393
 20
2.600180494662059
 30
0.0
 41
0.02937
 42
0.033307
 50
270.0
  0
INSERT
  5
4F7
330
6F
100
AcDbEntity
  8
31
100
AcDbBlockReference
  2
RECT
 10
6.124944860388393
 20
2.790180494662058
 30
0.0
 41
0.02937
 42
0.033307
 50
90.0
  0
INSERT
  5
4F8
330
6F
100
AcDbEntity
  8
31
100
AcDbBlockReference
  2
RECT
 10
6.124944860388393
 20
2.857110494662059
 30
0.0
 41
0.02937
 42
0.033307
 50
90.0
  0
INSERT
  5
4F9
330
6F
100
AcDbEntity
  8
31
100
AcDbBlockReference
  2
RECT
 10
6.189944860388393
 20
2.790180494662058
 30
0.0
 41
0.02937
 42
0.033307
 50
90.0
  0
INSERT
  5
4FA
330
6F
100
AcDbEntity
  8
31
100
AcDbBlockReference
  2
RECT
 10
6.189944860388393
 20
2.857110494662059
 30
0.0
 41
0.02937
 42
0.033307
 50
90.0
  0
INSERT
  5
4FB
330
6F
100
AcDbEntity
  8
31
100
AcDbBlockReference
  2
RECT
 10
6.184944860388394
 20
3.415180494662058
 30
0.0
 41
0.02937
 42
0.033307
 50
90.0
  0
INSERT
  5
4FC
330
6F
100
AcDbEntity
  8
31
100
AcDbBlockReference
  2
RECT
 10
6.184944860388394
 20
3.482110494662059
 30
0.0
 41
0.02937
 42
0.033307
 50
90.0
  0
INSERT
  5
4FD
330
6F
100
AcDbEntity
  8
31
100
AcDbBlockReference
  2
RECT
 10
6.099944860388394
 20
3.415180494662058
 30
0.0
 41
0.02937
 42
0.033307
 50
90.0
  0
INSERT
  5
4FE
330
6F
100
AcDbEntity
  8
31
100
AcDbBlockReference
  2
RECT
 10
6.099944860388394
 20
3.482110494662059
 30
0.0
 41
0.02937
 42
0.033307
 50
90.0
  0
INSERT
  5
4FF
330
6F
100
AcDbEntity
  8
31
100
AcDbBlockReference
  2
RECT
 10
4.991944860388393
 20
3.355180494662058
 30
0.0
 41
0.02937
 42
0.033307
 50
90.0
  0
INSERT
  5
500
330
6F
100
AcDbEntity
  8
31
100
AcDbBlockReference
  2
RECT
 10
4.991944860388393
 20
3.422110494662059
 30
0.0
 41
0.02937
 42
0.033307
 50
90.0
  0
INSERT
  5
501
330
6F
100
AcDbEntity
  8
31
100
AcDbBlockReference
  2
RECT
 10
5.409944860388392
 20
2.770180494662058
 30
0.0
 41
0.02937
 42
0.033307
 50
90.0
  0
INSERT
  5
502
330
6F
100
AcDbEntity
  8
31
100
AcDbBlockReference
  2
RECT
 10
5.409944860388392
 20
2.837110494662059
 30
0.0
 41
0.02937
 42
0.033307
 50
90.0
  0
INSERT
  5
503
330
6F
100
AcDbEntity
  8
31
100
AcDbBlockReference
  2
RECT
 10
5.339944860388393
 20
2.585180494662058
 30
0.0
 41
0.02937
 42
0.033307
 50
90.0
  0
INSERT
  5
504
330
6F
100
AcDbEntity
  8
31
100
AcDbBlockReference
  2
RECT
 10
5.339944860388393
 20
2.652110494662059
 30
0.0
 41
0.02937
 42
0.033307
 50
90.0
  0
INSERT
  5
505
330
6F
100
AcDbEntity
  8
31
100
AcDbBlockReference
  2
RECT
 10
5.284479860388393
 20
2.403645494662059
 30
0.0
 41
0.02937
 42
0.033307
  0
INSERT
  5
506
330
6F
100
AcDbEntity
  8
31
100
AcDbBlockReference
  2
RECT
 10
5.351409860388393
 20
2.403645494662059
 30
0.0
 41
0.02937
 42
0.033307
  0
INSERT
  5
50A
330
6F
100
AcDbEntity
  8
31
100
AcDbBlockReference
  2
RECT
 10
5.558251860388393
 20
2.559984494662059
 30
0.0
 41
0.1
 42
0.152
 50
90.0
  0
INSERT
  5
50B
330
6F
100
AcDbEntity
  8
31
100
AcDbBlockReference
  2
RECT
 10
5.417503860388393
 20
2.439905494662058
 30
0.0
 41
0.054961
 42
0.008858
 50
90.0
  0
INSERT
  5
50C
330
6F
100
AcDbEntity
  8
31
100
AcDbBlockReference
  2
RECT
 10
5.443094860388393
 20
2.439905494662058
 30
0.0
 41
0.054961
 42
0.008858
 50
90.0
  0
INSERT
  5
50D
330
6F
100
AcDbEntity
  8
31
100
AcDbBlockReference
  2
RECT
 10
5.468684860388393
 20
2.439905494662058
 30
0.0
 41
0.054961
 42
0.008858
 50
90.0
  0
INSERT
  5
50E
330
6F
100
AcDbEntity
  8
31
100
AcDbBlockReference
  2
RECT
 10
5.494275860388393
 20
2.439905494662058
 30
0.0
 41
0.054961
 42
0.008858
 50
90.0
  0
INSERT
  5
50F
330
6F
100
AcDbEntity
  8
31
100
AcDbBlockReference
  2
RECT
 10
5.519865860388392
 20
2.439905494662058
 30
0.0
 41
0.054961
 42
0.008858
 50
90.0
  0
INSERT
  5
510
330
6F
100
AcDbEntity
  8
31
100
AcDbBlockReference
  2
RECT
 10
5.545456860388393
 20
2.439905494662058
 30
0.0
 41
0.054961
 42
0.008858
 50
90.0
  0
INSERT
  5
511
330
6F
100
AcDbEntity
  8
31
100
AcDbBlockReference
  2
RECT
 10
5.571046860388394
 20
2.439905494662058
 30
0.0
 41
0.054961
 42
0.008858
 50
90.0
  0
INSERT
  5
512
330
6F
100
AcDbEntity
  8
31
100
AcDbBlockReference
  2
RECT
 10
5.596637860388393
 20
2.439905494662058
 30
0.0
 41
0.054961
 42
0.008858
 50
90.0
  0
INSERT
  5
513
330
6F
100
AcDbEntity
  8
31
100
AcDbBlockReference
  2
RECT
 10
5.622227860388393
 20
2.439905494662058
 30
0.0
 41
0.054961
 42
0.008858
 50
90.0
  0
INSERT
  5
514
330
6F
100
AcDbEntity
  8
31
100
AcDbBlockReference
  2
RECT
 10
5.647818860388393
 20
2.439905494662058
 30
0.0
 41
0.054961
 42
0.008858
 50
90.0
  0
INSERT
  5
515
330
6F
100
AcDbEntity
  8
31
100
AcDbBlockReference
  2
RECT
 10
5.673409860388392
 20
2.439905494662058
 30
0.0
 41
0.054961
 42
0.008858
 50
90.0
  0
INSERT
  5
516
330
6F
100
AcDbEntity
  8
31
100
AcDbBlockReference
  2
RECT
 10
5.698999860388394
 20
2.439905494662058
 30
0.0
 41
0.054961
 42
0.008858
 50
90.0
  0
INSERT
  5
517
330
6F
100
AcDbEntity
  8
31
100
AcDbBlockReference
  2
RECT
 10
5.698999860388394
 20
2.680062494662058
 30
0.0
 41
0.054961
 42
0.008858
 50
90.0
  0
INSERT
  5
518
330
6F
100
AcDbEntity
  8
31
100
AcDbBlockReference
  2
RECT
 10
5.673409860388392
 20
2.680062494662058
 30
0.0
 41
0.054961
 42
0.008858
 50
90.0
  0
INSERT
  5
519
330
6F
100
AcDbEntity
  8
31
100
AcDbBlockReference
  2
RECT
 10
5.647818860388393
 20
2.680062494662058
 30
0.0
 41
0.054961
 42
0.008858
 50
90.0
  0
INSERT
  5
51A
330
6F
100
AcDbEntity
  8
31
100
AcDbBlockReference
  2
RECT
 10
5.622227860388393
 20
2.680062494662058
 30
0.0
 41
0.054961
 42
0.008858
 50
90.0
  0
INSERT
  5
51B
330
6F
100
AcDbEntity
  8
31
100
AcDbBlockReference
  2
RECT
 10
5.596637860388393
 20
2.680062494662058
 30
0.0
 41
0.054961
 42
0.008858
 50
90.0
  0
INSERT
  5
51C
330
6F
100
AcDbEntity
  8
31
100
AcDbBlockReference
  2
RECT
 10
5.571046860388394
 20
2.680062494662058
 30
0.0
 41
0.054961
 42
0.008858
 50
90.0
  0
INSERT
  5
51D
330
6F
100
AcDbEntity
  8
31
100
AcDbBlockReference
  2
RECT
 10
5.545456860388393
 20
2.680062494662058
 30
0.0
 41
0.054961
 42
0.008858
 50
90.0
  0
INSERT
  5
51E
330
6F
100
AcDbEntity
  8
31
100
AcDbBlockReference
  2
RECT
 10
5.519865860388392
 20
2.680062494662058
 30
0.0
 41
0.054961
 42
0.008858
 50
90.0
  0
INSERT
  5
51F
330
6F
100
AcDbEntity
  8
31
100
AcDbBlockReference
  2
RECT
 10
5.494275860388393
 20
2.680062494662058
 30
0.0
 41
0.054961
 42
0.008858
 50
90.0
  0
INSERT
  5
520
330
6F
100
AcDbEntity
  8
31
100
AcDbBlockReference
  2
RECT
 10
5.468684860388393
 20
2.680062494662058
 30
0.0
 41
0.054961
 42
0.008858
 50
90.0
  0
INSERT
  5
521
330
6F
100
AcDbEntity
  8
31
100
AcDbBlockReference
  2
RECT
 10
5.443094860388393
 20
2.680062494662058
 30
0.0
 41
0.054961
 42
0.008858
 50
90.0
  0
INSERT
  5
522
330
6F
100
AcDbEntity
  8
31
100
AcDbBlockReference
  2
RECT
 10
5.417503860388393
 20
2.680062494662058
 30
0.0
 41
0.054961
 42
0.008858
 50
90.0
  0
INSERT
  5
523
330
6F
100
AcDbEntity
  8
31
100
AcDbBlockReference
  2
RECT
 10
5.886794860388393
 20
3.433527494662059
 30
0.0
 41
0.049055
 42
0.009843
 50
270.0
  0
INSERT
  5
524
330
6F
100
AcDbEntity
  8
31
100
AcDbBlockReference
  2
RECT
 10
5.855298860388393
 20
3.433527494662059
 30
0.0
 41
0.049055
 42
0.009843
 50
270.0
  0
INSERT
  5
525
330
6F
100
AcDbEntity
  8
31
100
AcDbBlockReference
  2
RECT
 10
5.823802860388394
 20
3.433527494662059
 30
0.0
 41
0.049055
 42
0.009843
 50
270.0
  0
INSERT
  5
526
330
6F
100
AcDbEntity
  8
31
100
AcDbBlockReference
  2
RECT
 10
5.792306860388393
 20
3.433527494662059
 30
0.0
 41
0.049055
 42
0.009843
 50
270.0
  0
INSERT
  5
527
330
6F
100
AcDbEntity
  8
31
100
AcDbBlockReference
  2
RECT
 10
5.760810860388394
 20
3.433527494662059
 30
0.0
 41
0.049055
 42
0.009843
 50
270.0
  0
INSERT
  5
528
330
6F
100
AcDbEntity
  8
31
100
AcDbBlockReference
  2
RECT
 10
5.729314860388393
 20
3.433527494662059
 30
0.0
 41
0.049055
 42
0.009843
 50
270.0
  0
INSERT
  5
529
330
6F
100
AcDbEntity
  8
31
100
AcDbBlockReference
  2
RECT
 10
5.697818860388394
 20
3.433527494662059
 30
0.0
 41
0.049055
 42
0.009843
 50
270.0
  0
INSERT
  5
52A
330
6F
100
AcDbEntity
  8
31
100
AcDbBlockReference
  2
RECT
 10
5.666322860388394
 20
3.433527494662059
 30
0.0
 41
0.049055
 42
0.009843
 50
270.0
  0
INSERT
  5
52B
330
6F
100
AcDbEntity
  8
31
100
AcDbBlockReference
  2
RECT
 10
5.634826860388393
 20
3.433527494662059
 30
0.0
 41
0.049055
 42
0.009843
 50
270.0
  0
INSERT
  5
52C
330
6F
100
AcDbEntity
  8
31
100
AcDbBlockReference
  2
RECT
 10
5.603330860388394
 20
3.433527494662059
 30
0.0
 41
0.049055
 42
0.009843
 50
270.0
  0
INSERT
  5
52D
330
6F
100
AcDbEntity
  8
31
100
AcDbBlockReference
  2
RECT
 10
5.571834860388394
 20
3.433527494662059
 30
0.0
 41
0.049055
 42
0.009843
 50
270.0
  0
INSERT
  5
52E
330
6F
100
AcDbEntity
  8
31
100
AcDbBlockReference
  2
RECT
 10
5.500968860388393
 20
3.362661494662058
 30
0.0
 41
0.009843
 42
0.049055
 50
270.0
  0
INSERT
  5
52F
330
6F
100
AcDbEntity
  8
31
100
AcDbBlockReference
  2
RECT
 10
5.500968860388393
 20
3.331165494662059
 30
0.0
 41
0.009843
 42
0.049055
 50
270.0
  0
INSERT
  5
530
330
6F
100
AcDbEntity
  8
31
100
AcDbBlockReference
  2
RECT
 10
5.500968860388393
 20
3.299669494662059
 30
0.0
 41
0.009843
 42
0.049055
 50
270.0
  0
INSERT
  5
531
330
6F
100
AcDbEntity
  8
31
100
AcDbBlockReference
  2
RECT
 10
5.500968860388393
 20
3.268173494662058
 30
0.0
 41
0.009843
 42
0.049055
 50
270.0
  0
INSERT
  5
532
330
6F
100
AcDbEntity
  8
31
100
AcDbBlockReference
  2
RECT
 10
5.500968860388393
 20
3.236677494662059
 30
0.0
 41
0.009843
 42
0.049055
 50
270.0
  0
INSERT
  5
533
330
6F
100
AcDbEntity
  8
31
100
AcDbBlockReference
  2
RECT
 10
5.500968860388393
 20
3.205181494662058
 30
0.0
 41
0.009843
 42
0.049055
 50
270.0
  0
INSERT
  5
534
330
6F
100
AcDbEntity
  8
31
100
AcDbBlockReference
  2
RECT
 10
5.500968860388393
 20
3.173685494662059
 30
0.0
 41
0.009843
 42
0.049055
 50
270.0
  0
INSERT
  5
535
330
6F
100
AcDbEntity
  8
31
100
AcDbBlockReference
  2
RECT
 10
5.500968860388393
 20
3.142189494662058
 30
0.0
 41
0.009843
 42
0.049055
 50
270.0
  0
INSERT
  5
536
330
6F
100
AcDbEntity
  8
31
100
AcDbBlockReference
  2
RECT
 10
5.500968860388393
 20
3.110692494662059
 30
0.0
 41
0.009843
 42
0.049055
 50
270.0
  0
INSERT
  5
537
330
6F
100
AcDbEntity
  8
31
100
AcDbBlockReference
  2
RECT
 10
5.500968860388393
 20
3.079196494662058
 30
0.0
 41
0.009843
 42
0.049055
 50
270.0
  0
INSERT
  5
538
330
6F
100
AcDbEntity
  8
31
100
AcDbBlockReference
  2
RECT
 10
5.500968860388393
 20
3.047700494662059
 30
0.0
 41
0.009843
 42
0.049055
 50
270.0
  0
INSERT
  5
539
330
6F
100
AcDbEntity
  8
31
100
AcDbBlockReference
  2
RECT
 10
5.571834860388393
 20
2.976834494662059
 30
0.0
 41
0.049055
 42
0.009843
 50
270.0
  0
INSERT
  5
53A
330
6F
100
AcDbEntity
  8
31
100
AcDbBlockReference
  2
RECT
 10
5.603330860388393
 20
2.976834494662059
 30
0.0
 41
0.049055
 42
0.009843
 50
270.0
  0
INSERT
  5
53B
330
6F
100
AcDbEntity
  8
31
100
AcDbBlockReference
  2
RECT
 10
5.634826860388393
 20
2.976834494662059
 30
0.0
 41
0.049055
 42
0.009843
 50
270.0
  0
INSERT
  5
53C
330
6F
100
AcDbEntity
  8
31
100
AcDbBlockReference
  2
RECT
 10
5.666322860388393
 20
2.976834494662059
 30
0.0
 41
0.049055
 42
0.009843
 50
270.0
  0
INSERT
  5
53D
330
6F
100
AcDbEntity
  8
31
100
AcDbBlockReference
  2
RECT
 10
5.697818860388393
 20
2.976834494662059
 30
0.0
 41
0.049055
 42
0.009843
 50
270.0
  0
INSERT
  5
53E
330
6F
100
AcDbEntity
  8
31
100
AcDbBlockReference
  2
RECT
 10
5.729314860388393
 20
2.976834494662059
 30
0.0
 41
0.049055
 42
0.009843
 50
270.0
  0
INSERT
  5
53F
330
6F
100
AcDbEntity
  8
31
100
AcDbBlockReference
  2
RECT
 10
5.760810860388393
 20
2.976834494662059
 30
0.0
 41
0.049055
 42
0.009843
 50
270.0
  0
INSERT
  5
540
330
6F
100
AcDbEntity
  8
31
100
AcDbBlockReference
  2
RECT
 10
5.792306860388393
 20
2.976834494662059
 30
0.0
 41
0.049055
 42
0.009843
 50
270.0
  0
INSERT
  5
541
330
6F
100
AcDbEntity
  8
31
100
AcDbBlockReference
  2
RECT
 10
5.823802860388394
 20
2.976834494662059
 30
0.0
 41
0.049055
 42
0.009843
 50
270.0
  0
INSERT
  5
542
330
6F
100
AcDbEntity
  8
31
100
AcDbBlockReference
  2
RECT
 10
5.855298860388392
 20
2.976834494662059
 30
0.0
 41
0.049055
 42
0.009843
 50
270.0
  0
INSERT
  5
543
330
6F
100
AcDbEntity
  8
31
100
AcDbBlockReference
  2
RECT
 10
5.886794860388393
 20
2.976834494662059
 30
0.0
 41
0.049055
 42
0.009843
 50
270.0
  0
INSERT
  5
544
330
6F
100
AcDbEntity
  8
31
100
AcDbBlockReference
  2
RECT
 10
5.957661860388393
 20
3.047700494662059
 30
0.0
 41
0.009843
 42
0.049055
 50
270.0
  0
INSERT
  5
545
330
6F
100
AcDbEntity
  8
31
100
AcDbBlockReference
  2
RECT
 10
5.957661860388394
 20
3.079196494662058
 30
0.0
 41
0.009843
 42
0.049055
 50
270.0
  0
INSERT
  5
546
330
6F
100
AcDbEntity
  8
31
100
AcDbBlockReference
  2
RECT
 10
5.957661860388394
 20
3.110692494662059
 30
0.0
 41
0.009843
 42
0.049055
 50
270.0
  0
INSERT
  5
547
330
6F
100
AcDbEntity
  8
31
100
AcDbBlockReference
  2
RECT
 10
5.957661860388394
 20
3.142189494662058
 30
0.0
 41
0.009843
 42
0.049055
 50
270.0
  0
INSERT
  5
548
330
6F
100
AcDbEntity
  8
31
100
AcDbBlockReference
  2
RECT
 10
5.957661860388394
 20
3.173685494662059
 30
0.0
 41
0.009843
 42
0.049055
 50
270.0
  0
INSERT
  5
549
330
6F
100
AcDbEntity
  8
31
100
AcDbBlockReference
  2
RECT
 10
5.957661860388394
 20
3.205181494662058
 30
0.0
 41
0.009843
 42
0.049055
 50
270.0
  0
INSERT
  5
54A
330
6F
100
AcDbEntity
  8
31
100
AcDbBlockReference
  2
RECT
 10
5.957661860388394
 20
3.236677494662059
 30
0.0
 41
0.009843
 42
0.049055
 50
270.0
  0
INSERT
  5
54B
330
6F
100
AcDbEntity
  8
31
100
AcDbBlockReference
  2
RECT
 10
5.957661860388394
 20
3.268173494662058
 30
0.0
 41
0.009843
 42
0.049055
 50
270.0
  0
INSERT
  5
54C
330
6F
100
AcDbEntity
  8
31
100
AcDbBlockReference
  2
RECT
 10
5.957661860388394
 20
3.299669494662059
 30
0.0
 41
0.009843
 42
0.049055
 50
270.0
  0
INSERT
  5
54D
330
6F
100
AcDbEntity
  8
31
100
AcDbBlockReference
  2
RECT
 10
5.957661860388394
 20
3.331165494662059
 30
0.0
 41
0.009843
 42
0.049055
 50
270.0
  0
INSERT
  5
54E
330
6F
100
AcDbEntity
  8
31
100
AcDbBlockReference
  2
RECT
 10
5.957661860388394
 20
3.362661494662058
 30
0.0
 41
0.009843
 42
0.049055
 50
270.0
  0
INSERT
  5
54F
330
6F
100
AcDbEntity
  8
31
100
AcDbBlockReference
  2
RECT
 10
5.956676860388393
 20
1.937346494662059
 30
0.0
 41
0.058898
 42
0.015591
 50
90.0
  0
INSERT
  5
550
330
6F
100
AcDbEntity
  8
31
100
AcDbBlockReference
  2
RECT
 10
6.006676860388393
 20
1.937346494662059
 30
0.0
 41
0.058898
 42
0.015591
 50
90.0
  0
INSERT
  5
551
330
6F
100
AcDbEntity
  8
31
100
AcDbBlockReference
  2
RECT
 10
6.056676860388392
 20
1.937346494662059
 30
0.0
 41
0.058898
 42
0.015591
 50
90.0
  0
INSERT
  5
552
330
6F
100
AcDbEntity
  8
31
100
AcDbBlockReference
  2
RECT
 10
6.106676860388393
 20
1.937346494662059
 30
0.0
 41
0.058898
 42
0.015591
 50
90.0
  0
INSERT
  5
553
330
6F
100
AcDbEntity
  8
31
100
AcDbBlockReference
  2
RECT
 10
6.106676860388393
 20
2.157818494662059
 30
0.0
 41
0.058898
 42
0.015591
 50
90.0
  0
INSERT
  5
554
330
6F
100
AcDbEntity
  8
31
100
AcDbBlockReference
  2
RECT
 10
6.056676860388392
 20
2.157818494662059
 30
0.0
 41
0.058898
 42
0.015591
 50
90.0
  0
INSERT
  5
555
330
6F
100
AcDbEntity
  8
31
100
AcDbBlockReference
  2
RECT
 10
6.006676860388393
 20
2.157818494662059
 30
0.0
 41
0.058898
 42
0.015591
 50
90.0
  0
INSERT
  5
556
330
6F
100
AcDbEntity
  8
31
100
AcDbBlockReference
  2
RECT
 10
5.956676860388393
 20
2.157818494662059
 30
0.0
 41
0.058898
 42
0.015591
 50
90.0
  0
LINE
  5
557
330
6F
100
AcDbEntity
  8
31
100
AcDbLine
 10
4.960007860388393
 20
1.291208494662058
 30
0.0
 11
4.986007860388394
 21
1.317208494662059
 31
0.0
  0
LINE
  5
558
330
6F
100
AcDbEntity
  8
31
100
AcDbLine
 10
4.986007860388394
 20
1.317208494662059
 30
0.0
 11
5.072007860388392
 21
1.317208494662059
 31
0.0
  0
LINE
  5
559
330
6F
100
AcDbEntity
  8
31
100
AcDbLine
 10
5.072007860388392
 20
1.317208494662059
 30
0.0
 11
5.103007860388393
 21
1.286208494662059
 31
0.0
  0
LINE
  5
55A
330
6F
100
AcDbEntity
  8
31
100
AcDbLine
 10
5.103007860388393
 20
1.286208494662059
 30
0.0
 11
5.103007860388393
 21
1.269208494662059
 31
0.0
  0
LINE
  5
55B
330
6F
100
AcDbEntity
  8
31
100
AcDbLine
 10
5.103007860388393
 20
1.269208494662059
 30
0.0
 11
5.071007860388393
 21
1.237208494662059
 31
0.0
  0
LINE
  5
55C
330
6F
100
AcDbEntity
  8
31
100
AcDbLine
 10
5.071007860388393
 20
1.237208494662059
 30
0.0
 11
4.987007860388393
 21
1.237208494662059
 31
0.0
  0
LINE
  5
55D
330
6F
100
AcDbEntity
  8
31
100
AcDbLine
 10
4.987007860388393
 20
1.237208494662059
 30
0.0
 11
4.960007860388393
 21
1.264208494662059
 31
0.0
  0
LINE
  5
55E
330
6F
100
AcDbEntity
  8
31
100
AcDbLine
 10
4.960007860388393
 20
1.264208494662059
 30
0.0
 11
4.960007860388393
 21
1.291208494662058
 31
0.0
  0
LINE
  5
55F
330
6F
100
AcDbEntity
  8
31
100
AcDbLine
 10
4.961007860388393
 20
1.292208494662058
 30
0.0
 11
4.961007860388393
 21
1.263208494662058
 31
0.0
  0
LINE
  5
560
330
6F
100
AcDbEntity
  8
31
100
AcDbLine
 10
4.966007860388392
 20
1.297208494662058
 30
0.0
 11
4.966007860388392
 21
1.258208494662059
 31
0.0
  0
LINE
  5
561
330
6F
100
AcDbEntity
  8
31
100
AcDbLine
 10
4.971007860388393
 20
1.302208494662059
 30
0.0
 11
4.971007860388393
 21
1.253208494662059
 31
0.0
  0
LINE
  5
562
330
6F
100
AcDbEntity
  8
31
100
AcDbLine
 10
4.976007860388393
 20
1.307208494662058
 30
0.0
 11
4.976007860388393
 21
1.248208494662059
 31
0.0
  0
LINE
  5
563
330
6F
100
AcDbEntity
  8
31
100
AcDbLine
 10
4.981007860388393
 20
1.312208494662059
 30
0.0
 11
4.981007860388393
 21
1.243208494662058
 31
0.0
  0
LINE
  5
564
330
6F
100
AcDbEntity
  8
31
100
AcDbLine
 10
4.986007860388394
 20
1.317208494662059
 30
0.0
 11
4.986007860388394
 21
1.238208494662059
 31
0.0
  0
LINE
  5
565
330
6F
100
AcDbEntity
  8
31
100
AcDbLine
 10
4.991007860388393
 20
1.317208494662059
 30
0.0
 11
4.991007860388393
 21
1.237208494662059
 31
0.0
  0
LINE
  5
566
330
6F
100
AcDbEntity
  8
31
100
AcDbLine
 10
4.996007860388393
 20
1.317208494662059
 30
0.0
 11
4.996007860388393
 21
1.237208494662059
 31
0.0
  0
LINE
  5
567
330
6F
100
AcDbEntity
  8
31
100
AcDbLine
 10
5.001007860388392
 20
1.317208494662059
 30
0.0
 11
5.001007860388392
 21
1.237208494662059
 31
0.0
  0
LINE
  5
568
330
6F
100
AcDbEntity
  8
31
100
AcDbLine
 10
5.006007860388393
 20
1.317208494662059
 30
0.0
 11
5.006007860388393
 21
1.237208494662059
 31
0.0
  0
LINE
  5
569
330
6F
100
AcDbEntity
  8
31
100
AcDbLine
 10
5.011007860388392
 20
1.317208494662059
 30
0.0
 11
5.011007860388392
 21
1.237208494662059
 31
0.0
  0
LINE
  5
56A
330
6F
100
AcDbEntity
  8
31
100
AcDbLine
 10
5.016007860388393
 20
1.317208494662059
 30
0.0
 11
5.016007860388393
 21
1.237208494662059
 31
0.0
  0
LINE
  5
56B
330
6F
100
AcDbEntity
  8
31
100
AcDbLine
 10
5.021007860388393
 20
1.317208494662059
 30
0.0
 11
5.021007860388393
 21
1.237208494662059
 31
0.0
  0
LINE
  5
56C
330
6F
100
AcDbEntity
  8
31
100
AcDbLine
 10
5.026007860388393
 20
1.317208494662059
 30
0.0
 11
5.026007860388393
 21
1.237208494662059
 31
0.0
  0
LINE
  5
56D
330
6F
100
AcDbEntity
  8
31
100
AcDbLine
 10
5.031007860388394
 20
1.317208494662059
 30
0.0
 11
5.031007860388394
 21
1.237208494662059
 31
0.0
  0
LINE
  5
56E
330
6F
100
AcDbEntity
  8
31
100
AcDbLine
 10
5.036007860388393
 20
1.317208494662059
 30
0.0
 11
5.036007860388393
 21
1.237208494662059
 31
0.0
  0
LINE
  5
56F
330
6F
100
AcDbEntity
  8
31
100
AcDbLine
 10
5.041007860388393
 20
1.317208494662059
 30
0.0
 11
5.041007860388393
 21
1.237208494662059
 31
0.0
  0
LINE
  5
570
330
6F
100
AcDbEntity
  8
31
100
AcDbLine
 10
5.046007860388392
 20
1.317208494662059
 30
0.0
 11
5.046007860388392
 21
1.237208494662059
 31
0.0
  0
LINE
  5
571
330
6F
100
AcDbEntity
  8
31
100
AcDbLine
 10
5.051007860388393
 20
1.317208494662059
 30
0.0
 11
5.051007860388393
 21
1.237208494662059
 31
0.0
  0
LINE
  5
572
330
6F
100
AcDbEntity
  8
31
100
AcDbLine
 10
5.056007860388393
 20
1.317208494662059
 30
0.0
 11
5.056007860388393
 21
1.237208494662059
 31
0.0
  0
LINE
  5
573
330
6F
100
AcDbEntity
  8
31
100
AcDbLine
 10
5.061007860388393
 20
1.317208494662059
 30
0.0
 11
5.061007860388393
 21
1.237208494662059
 31
0.0
  0
LINE
  5
574
330
6F
100
AcDbEntity
  8
31
100
AcDbLine
 10
5.066007860388393
 20
1.317208494662059
 30
0.0
 11
5.066007860388393
 21
1.237208494662059
 31
0.0
  0
LINE
  5
575
330
6F
100
AcDbEntity
  8
31
100
AcDbLine
 10
5.071007860388393
 20
1.317208494662059
 30
0.0
 11
5.071007860388393
 21
1.237208494662059
 31
0.0
  0
LINE
  5
576
330
6F
100
AcDbEntity
  8
31
100
AcDbLine
 10
5.076007860388394
 20
1.313208494662058
 30
0.0
 11
5.076007860388394
 21
1.242208494662059
 31
0.0
  0
LINE
  5
577
330
6F
100
AcDbEntity
  8
31
100
AcDbLine
 10
5.081007860388393
 20
1.308208494662058
 30
0.0
 11
5.081007860388393
 21
1.247208494662058
 31
0.0
  0
LINE
  5
578
330
6F
100
AcDbEntity
  8
31
100
AcDbLine
 10
5.086007860388393
 20
1.303208494662059
 30
0.0
 11
5.086007860388393
 21
1.252208494662058
 31
0.0
  0
LINE
  5
579
330
6F
100
AcDbEntity
  8
31
100
AcDbLine
 10
5.091007860388392
 20
1.298208494662059
 30
0.0
 11
5.091007860388392
 21
1.257208494662059
 31
0.0
  0
LINE
  5
57A
330
6F
100
AcDbEntity
  8
31
100
AcDbLine
 10
5.096007860388393
 20
1.293208494662059
 30
0.0
 11
5.096007860388393
 21
1.262208494662058
 31
0.0
  0
LINE
  5
57B
330
6F
100
AcDbEntity
  8
31
100
AcDbLine
 10
5.101007860388393
 20
1.288208494662058
 30
0.0
 11
5.101007860388393
 21
1.267208494662059
 31
0.0
  0
INSERT
  5
57C
330
6F
100
AcDbEntity
  8
31
100
AcDbBlockReference
  2
RECT
 10
4.917464860388394
 20
1.277208494662059
 30
0.0
 41
0.049055
 42
0.02937
  0
INSERT
  5
57D
330
6F
100
AcDbEntity
  8
31
100
AcDbBlockReference
  2
RECT
 10
4.917464860388394
 20
1.218153494662058
 30
0.0
 41
0.049055
 42
0.02937
  0
INSERT
  5
57E
330
6F
100
AcDbEntity
  8
31
100
AcDbBlockReference
  2
RECT
 10
4.917464860388394
 20
1.336263494662059
 30
0.0
 41
0.049055
 42
0.02937
  0
INSERT
  5
57F
330
6F
100
AcDbEntity
  8
31
100
AcDbBlockReference
  2
RECT
 10
5.194944860388392
 20
2.493881494662059
 30
0.0
 41
0.058898
 42
0.015591
 50
270.0
  0
INSERT
  5
580
330
6F
100
AcDbEntity
  8
31
100
AcDbBlockReference
  2
RECT
 10
5.144944860388394
 20
2.493881494662059
 30
0.0
 41
0.058898
 42
0.015591
 50
270.0
  0
INSERT
  5
581
330
6F
100
AcDbEntity
  8
31
100
AcDbBlockReference
  2
RECT
 10
5.094944860388393
 20
2.493881494662059
 30
0.0
 41
0.058898
 42
0.015591
 50
270.0
  0
INSERT
  5
582
330
6F
100
AcDbEntity
  8
31
100
AcDbBlockReference
  2
RECT
 10
5.044944860388393
 20
2.493881494662059
 30
0.0
 41
0.058898
 42
0.015591
 50
270.0
  0
INSERT
  5
583
330
6F
100
AcDbEntity
  8
31
100
AcDbBlockReference
  2
RECT
 10
4.994944860388393
 20
2.493881494662059
 30
0.0
 41
0.058898
 42
0.015591
 50
270.0
  0
INSERT
  5
584
330
6F
100
AcDbEntity
  8
31
100
AcDbBlockReference
  2
RECT
 10
4.944944860388392
 20
2.493881494662059
 30
0.0
 41
0.058898
 42
0.015591
 50
270.0
  0
INSERT
  5
585
330
6F
100
AcDbEntity
  8
31
100
AcDbBlockReference
  2
RECT
 10
4.894944860388394
 20
2.493881494662059
 30
0.0
 41
0.058898
 42
0.015591
 50
270.0
  0
INSERT
  5
586
330
6F
100
AcDbEntity
  8
31
100
AcDbBlockReference
  2
RECT
 10
4.894944860388394
 20
2.273409494662058
 30
0.0
 41
0.058898
 42
0.015591
 50
270.0
  0
INSERT
  5
587
330
6F
100
AcDbEntity
  8
31
100
AcDbBlockReference
  2
RECT
 10
4.944944860388392
 20
2.273409494662058
 30
0.0
 41
0.058898
 42
0.015591
 50
270.0
  0
INSERT
  5
588
330
6F
100
AcDbEntity
  8
31
100
AcDbBlockReference
  2
RECT
 10
4.994944860388393
 20
2.273409494662058
 30
0.0
 41
0.058898
 42
0.015591
 50
270.0
  0
INSERT
  5
589
330
6F
100
AcDbEntity
  8
31
100
AcDbBlockReference
  2
RECT
 10
5.044944860388393
 20
2.273409494662058
 30
0.0
 41
0.058898
 42
0.015591
 50
270.0
  0
INSERT
  5
58A
330
6F
100
AcDbEntity
  8
31
100
AcDbBlockReference
  2
RECT
 10
5.094944860388393
 20
2.273409494662058
 30
0.0
 41
0.058898
 42
0.015591
 50
270.0
  0
INSERT
  5
58B
330
6F
100
AcDbEntity
  8
31
100
AcDbBlockReference
  2
RECT
 10
5.144944860388394
 20
2.273409494662058
 30
0.0
 41
0.058898
 42
0.015591
 50
270.0
  0
INSERT
  5
58C
330
6F
100
AcDbEntity
  8
31
100
AcDbBlockReference
  2
RECT
 10
5.194944860388392
 20
2.273409494662058
 30
0.0
 41
0.058898
 42
0.015591
 50
270.0
  0
INSERT
  5
58D
330
6F
100
AcDbEntity
  8
31
100
AcDbBlockReference
  2
RECT
 10
6.254574860388393
 20
3.158464494662058
 30
0.0
 41
0.007874
 42
0.04315
 50
90.0
  0
INSERT
  5
58E
330
6F
100
AcDbEntity
  8
31
100
AcDbBlockReference
  2
RECT
 10
6.254574860388393
 20
3.184054494662059
 30
0.0
 41
0.007874
 42
0.04315
 50
90.0
  0
INSERT
  5
58F
330
6F
100
AcDbEntity
  8
31
100
AcDbBlockReference
  2
RECT
 10
6.254574860388393
 20
3.209645494662058
 30
0.0
 41
0.007874
 42
0.04315
 50
90.0
  0
INSERT
  5
590
330
6F
100
AcDbEntity
  8
31
100
AcDbBlockReference
  2
RECT
 10
6.254574860388393
 20
3.235236494662058
 30
0.0
 41
0.007874
 42
0.04315
 50
90.0
  0
INSERT
  5
591
330
6F
100
AcDbEntity
  8
31
100
AcDbBlockReference
  2
RECT
 10
6.254574860388393
 20
3.260826494662059
 30
0.0
 41
0.007874
 42
0.04315
 50
90.0
  0
INSERT
  5
592
330
6F
100
AcDbEntity
  8
31
100
AcDbBlockReference
  2
RECT
 10
6.259495860388393
 20
3.087598494662058
 30
0.0
 41
0.072677
 42
0.052992
 50
90.0
  0
INSERT
  5
593
330
6F
100
AcDbEntity
  8
31
100
AcDbBlockReference
  2
RECT
 10
6.259495860388393
 20
3.331692494662059
 30
0.0
 41
0.072677
 42
0.052992
 50
90.0
  0
INSERT
  5
594
330
6F
100
AcDbEntity
  8
31
100
AcDbBlockReference
  2
RECT
 10
6.359889860388394
 20
3.052165494662058
 30
0.0
 41
0.060866
 42
0.064803
 50
90.0
  0
INSERT
  5
595
330
6F
100
AcDbEntity
  8
31
100
AcDbBlockReference
  2
RECT
 10
6.359889860388394
 20
3.367125494662059
 30
0.0
 41
0.060866
 42
0.064803
 50
90.0
  0
INSERT
  5
596
330
6F
100
AcDbEntity
  8
31
100
AcDbBlockReference
  2
RECT
 10
6.359889860388394
 20
3.162401494662059
 30
0.0
 41
0.064803
 42
0.064803
 50
90.0
  0
INSERT
  5
597
330
6F
100
AcDbEntity
  8
31
100
AcDbBlockReference
  2
RECT
 10
6.359889860388394
 20
3.256889494662059
 30
0.0
 41
0.064803
 42
0.064803
 50
90.0
  0
INSERT
  5
598
330
6F
100
AcDbEntity
  8
31
100
AcDbBlockReference
  2
RECT
 10
5.252944860388393
 20
3.209645494662058
 30
0.0
 41
0.2
 42
0.066
 50
270.0
  0
INSERT
  5
599
330
6F
100
AcDbEntity
  8
31
100
AcDbBlockReference
  2
RECT
 10
5.252944860388392
 20
2.829645494662059
 30
0.0
 41
0.2
 42
0.066
 50
270.0
  0
INSERT
  5
59F
330
6F
100
AcDbEntity
  8
31
100
AcDbBlockReference
  2
RECT
 10
8.026479860388393
 20
1.241645494662059
 30
0.0
 41
0.033307
 42
0.02937
  0
INSERT
  5
5A0
330
6F
100
AcDbEntity
  8
31
100
AcDbBlockReference
  2
RECT
 10
8.093409860388394
 20
1.241645494662059
 30
0.0
 41
0.033307
 42
0.02937
  0
INSERT
  5
5A1
330
6F
100
AcDbEntity
  8
31
100
AcDbBlockReference
  2
RECT
 10
6.950054860388393
 20
1.038401494662058
 30
0.0
 41
0.033307
 42
0.02937
 50
90.0
  0
INSERT
  5
5A2
330
6F
100
AcDbEntity
  8
31
100
AcDbBlockReference
  2
RECT
 10
6.950054860388393
 20
1.105330494662059
 30
0.0
 41
0.033307
 42
0.02937
 50
90.0
  0
INSERT
  5
5A3
330
6F
100
AcDbEntity
  8
31
100
AcDbBlockReference
  2
RECT
 10
6.802818860388393
 20
1.468291494662059
 30
0.0
 41
0.033307
 42
0.02937
 50
90.0
  0
INSERT
  5
5A4
330
6F
100
AcDbEntity
  8
31
100
AcDbBlockReference
  2
RECT
 10
6.802818860388393
 20
1.535220494662059
 30
0.0
 41
0.033307
 42
0.02937
 50
90.0
  0
INSERT
  5
5A5
330
6F
100
AcDbEntity
  8
31
100
AcDbBlockReference
  2
RECT
 10
7.009826860388393
 20
1.361645494662058
 30
0.0
 41
0.052992
 42
0.060866
  0
INSERT
  5
5A6
330
6F
100
AcDbEntity
  8
31
100
AcDbBlockReference
  2
RECT
 10
7.120062860388394
 20
1.361645494662058
 30
0.0
 41
0.052992
 42
0.060866
  0
INSERT
  5
5A7
330
6F
100
AcDbEntity
  8
31
100
AcDbBlockReference
  2
RECT
 10
7.435944860388393
 20
2.149180494662058
 30
0.0
 41
0.033307
 42
0.02937
 50
90.0
  0
INSERT
  5
5A8
330
6F
100
AcDbEntity
  8
31
100
AcDbBlockReference
  2
RECT
 10
7.435944860388393
 20
2.216110494662058
 30
0.0
 41
0.033307
 42
0.02937
 50
90.0
  0
INSERT
  5
5A9
330
6F
100
AcDbEntity
  8
31
100
AcDbBlockReference
  2
RECT
 10
7.486944860388393
 20
2.228110494662058
 30
0.0
 41
0.033307
 42
0.02937
 50
270.0
  0
INSERT
  5
5AA
330
6F
100
AcDbEntity
  8
31
100
AcDbBlockReference
  2
RECT
 10
7.486944860388393
 20
2.161180494662059
 30
0.0
 41
0.033307
 42
0.02937
 50
270.0
  0
INSERT
  5
5AB
330
6F
100
AcDbEntity
  8
31
100
AcDbBlockReference
  2
RECT
 10
7.543944860388393
 20
2.228110494662058
 30
0.0
 41
0.033307
 42
0.02937
 50
270.0
  0
INSERT
  5
5AC
330
6F
100
AcDbEntity
  8
31
100
AcDbBlockReference
  2
RECT
 10
7.543944860388393
 20
2.161180494662059
 30
0.0
 41
0.033307
 42
0.02937
 50
270.0
  0
INSERT
  5
5AD
330
6F
100
AcDbEntity
  8
31
100
AcDbBlockReference
  2
RECT
 10
7.645771860388393
 20
2.528251494662059
 30
0.0
 41
0.033307
 42
0.02937
 50
90.0
  0
INSERT
  5
5AE
330
6F
100
AcDbEntity
  8
31
100
AcDbBlockReference
  2
RECT
 10
7.645771860388393
 20
2.595180494662058
 30
0.0
 41
0.033307
 42
0.02937
 50
90.0
  0
INSERT
  5
5AF
330
6F
100
AcDbEntity
  8
31
100
AcDbBlockReference
  2
RECT
 10
7.851558860388394
 20
2.248842494662059
 30
0.0
 41
0.033307
 42
0.02937
 50
90.0
  0
INSERT
  5
5B0
330
6F
100
AcDbEntity
  8
31
100
AcDbBlockReference
  2
RECT
 10
7.851558860388394
 20
2.315771494662059
 30
0.0
 41
0.033307
 42
0.02937
 50
90.0
  0
INSERT
  5
5B1
330
6F
100
AcDbEntity
  8
31
100
AcDbBlockReference
  2
RECT
 10
8.058330860388393
 20
2.175062494662058
 30
0.0
 41
0.033307
 42
0.02937
 50
90.0
  0
INSERT
  5
5B2
330
6F
100
AcDbEntity
  8
31
100
AcDbBlockReference
  2
RECT
 10
8.058330860388393
 20
2.241991494662058
 30
0.0
 41
0.033307
 42
0.02937
 50
90.0
  0
INSERT
  5
5B3
330
6F
100
AcDbEntity
  8
31
100
AcDbBlockReference
  2
RECT
 10
7.920180860388393
 20
2.912110494662059
 30
0.0
 41
0.033307
 42
0.02937
 50
90.0
  0
INSERT
  5
5B4
330
6F
100
AcDbEntity
  8
31
100
AcDbBlockReference
  2
RECT
 10
7.920180860388393
 20
2.979039494662059
 30
0.0
 41
0.033307
 42
0.02937
 50
90.0
  0
INSERT
  5
5B5
330
6F
100
AcDbEntity
  8
31
100
AcDbBlockReference
  2
RECT
 10
7.889944860388394
 20
3.415180494662058
 30
0.0
 41
0.033307
 42
0.02937
 50
90.0
  0
INSERT
  5
5B6
330
6F
100
AcDbEntity
  8
31
100
AcDbBlockReference
  2
RECT
 10
7.889944860388394
 20
3.482110494662059
 30
0.0
 41
0.033307
 42
0.02937
 50
90.0
  0
INSERT
  5
5B7
330
6F
100
AcDbEntity
  8
31
100
AcDbBlockReference
  2
RECT
 10
7.646479860388394
 20
3.608645494662058
 30
0.0
 41
0.033307
 42
0.02937
  0
INSERT
  5
5B8
330
6F
100
AcDbEntity
  8
31
100
AcDbBlockReference
  2
RECT
 10
7.713409860388393
 20
3.608645494662058
 30
0.0
 41
0.033307
 42
0.02937
  0
INSERT
  5
5B9
330
6F
100
AcDbEntity
  8
31
100
AcDbBlockReference
  2
RECT
 10
7.294944860388394
 20
3.292110494662058
 30
0.0
 41
0.033307
 42
0.02937
 50
270.0
  0
INSERT
  5
5BA
330
6F
100
AcDbEntity
  8
31
100
AcDbBlockReference
  2
RECT
 10
7.294944860388394
 20
3.225180494662058
 30
0.0
 41
0.033307
 42
0.02937
 50
270.0
  0
INSERT
  5
5BB
330
6F
100
AcDbEntity
  8
31
100
AcDbBlockReference
  2
RECT
 10
7.294944860388394
 20
3.095180494662058
 30
0.0
 41
0.033307
 42
0.02937
 50
90.0
  0
INSERT
  5
5BC
330
6F
100
AcDbEntity
  8
31
100
AcDbBlockReference
  2
RECT
 10
7.294944860388394
 20
3.162110494662059
 30
0.0
 41
0.033307
 42
0.02937
 50
90.0
  0
INSERT
  5
5BD
330
6F
100
AcDbEntity
  8
31
100
AcDbBlockReference
  2
RECT
 10
7.375613860388392
 20
2.852110494662058
 30
0.0
 41
0.033307
 42
0.02937
 50
90.0
  0
INSERT
  5
5BE
330
6F
100
AcDbEntity
  8
31
100
AcDbBlockReference
  2
RECT
 10
7.375613860388392
 20
2.919039494662058
 30
0.0
 41
0.033307
 42
0.02937
 50
90.0
  0
INSERT
  5
5BF
330
6F
100
AcDbEntity
  8
31
100
AcDbBlockReference
  2
RECT
 10
7.136479860388392
 20
2.260645494662059
 30
0.0
 41
0.033307
 42
0.02937
  0
INSERT
  5
5C0
330
6F
100
AcDbEntity
  8
31
100
AcDbBlockReference
  2
RECT
 10
7.203409860388394
 20
2.260645494662059
 30
0.0
 41
0.033307
 42
0.02937
  0
INSERT
  5
5C1
330
6F
100
AcDbEntity
  8
31
100
AcDbBlockReference
  2
RECT
 10
7.261204860388393
 20
1.622645494662058
 30
0.0
 41
0.151417
 42
0.052992
  0
INSERT
  5
5C2
330
6F
100
AcDbEntity
  8
31
100
AcDbBlockReference
  2
RECT
 10
6.918684860388394
 20
1.622645494662058
 30
0.0
 41
0.151417
 42
0.052992
  0
INSERT
  5
5C3
330
6F
100
AcDbEntity
  8
31
100
AcDbBlockReference
  2
RECT
 10
7.739944860388392
 20
2.529645494662058
 30
0.0
 41
0.037
 42
0.039
 50
270.0
  0
INSERT
  5
5C4
330
6F
100
AcDbEntity
  8
31
100
AcDbBlockReference
  2
RECT
 10
7.739944860388392
 20
2.447645494662058
 30
0.0
 41
0.037
 42
0.039
 50
270.0
  0
INSERT
  5
5C5
330
6F
100
AcDbEntity
  8
31
100
AcDbBlockReference
  2
RECT
 10
7.814944860388393
 20
2.529645494662058
 30
0.0
 41
0.037
 42
0.039
 50
270.0
  0
INSERT
  5
5C6
330
6F
100
AcDbEntity
  8
31
100
AcDbBlockReference
  2
RECT
 10
7.814944860388393
 20
2.447645494662058
 30
0.0
 41
0.037
 42
0.039
 50
270.0
  0
INSERT
  5
5C7
330
6F
100
AcDbEntity
  8
31
100
AcDbBlockReference
  2
RECT
 10
7.889944860388393
 20
2.529645494662058
 30
0.0
 41
0.037
 42
0.039
 50
270.0
  0
INSERT
  5
5C8
330
6F
100
AcDbEntity
  8
31
100
AcDbBlockReference
  2
RECT
 10
7.889944860388393
 20
2.447645494662058
 30
0.0
 41
0.037
 42
0.039
 50
270.0
  0
INSERT
  5
5C9
330
6F
100
AcDbEntity
  8
31
100
AcDbBlockReference
  2
RECT
 10
7.419235860388393
 20
1.478212494662058
 30
0.0
 41
0.190472
 42
0.049291
 50
90.0
  0
INSERT
  5
5CA
330
6F
100
AcDbEntity
  8
31
100
AcDbBlockReference
  2
RECT
 10
7.503920860388394
 20
1.477976494662059
 30
0.0
 41
0.15
 42
0.122047
 50
90.0
  0
INSERT
  5
5CB
330
6F
100
AcDbEntity
  8
31
100
AcDbBlockReference
  2
RECT
 10
7.628920860388394
 20
1.402976494662059
 30
0.0
 41
0.017559
 42
0.045118
 50
90.0
  0
INSERT
  5
5CC
330
6F
100
AcDbEntity
  8
31
100
AcDbBlockReference
  2
RECT
 10
7.628920860388394
 20
1.452976494662058
 30
0.0
 41
0.017559
 42
0.045118
 50
90.0
  0
INSERT
  5
5CD
330
6F
100
AcDbEntity
  8
31
100
AcDbBlockReference
  2
RECT
 10
7.628920860388394
 20
1.502976494662058
 30
0.0
 41
0.017559
 42
0.045118
 50
90.0
  0
INSERT
  5
5CE
330
6F
100
AcDbEntity
  8
31
100
AcDbBlockReference
  2
RECT
 10
7.628920860388394
 20
1.552976494662058
 30
0.0
 41
0.017559
 42
0.045118
 50
90.0
  0
INSERT
  5
5CF
330
6F
100
AcDbEntity
  8
31
100
AcDbBlockReference
  2
RECT
 10
7.419235860388393
 20
1.759117494662059
 30
0.0
 41
0.190472
 42
0.049291
 50
90.0
  0
INSERT
  5
5D0
330
6F
100
AcDbEntity
  8
31
100
AcDbBlockReference
  2
RECT
 10
7.503920860388394
 20
1.758881494662059
 30
0.0
 41
0.15
 42
0.122047
 50
90.0
  0
INSERT
  5
5D1
330
6F
100
AcDbEntity
  8
31
100
AcDbBlockReference
  2
RECT
 10
7.628920860388394
 20
1.683881494662058
 30
0.0
 41
0.017559
 42
0.045118
 50
90.0
  0
INSERT
  5
5D2
330
6F
100
AcDbEntity
  8
31
100
AcDbBlockReference
  2
RECT
 10
7.628920860388394
 20
1.733881494662059
 30
0.0
 41
0.017559
 42
0.045118
 50
90.0
  0
INSERT
  5
5D3
330
6F
100
AcDbEntity
  8
31
100
AcDbBlockReference
  2
RECT
 10
7.628920860388394
 20
1.783881494662059
 30
0.0
 41
0.017559
 42
0.045118
 50
90.0
  0
INSERT
  5
5D4
330
6F
100
AcDbEntity
  8
31
100
AcDbBlockReference
  2
RECT
 10
7.628920860388394
 20
1.833881494662059
 30
0.0
 41
0.017559
 42
0.045118
 50
90.0
  0
INSERT
  5
5D5
330
6F
100
AcDbEntity
  8
31
100
AcDbBlockReference
  2
RECT
 10
7.814117860388392
 20
1.478212494662058
 30
0.0
 41
0.190472
 42
0.049291
 50
90.0
  0
INSERT
  5
5D6
330
6F
100
AcDbEntity
  8
31
100
AcDbBlockReference
  2
RECT
 10
7.898802860388393
 20
1.477976494662059
 30
0.0
 41
0.15
 42
0.122047
 50
90.0
  0
INSERT
  5
5D7
330
6F
100
AcDbEntity
  8
31
100
AcDbBlockReference
  2
RECT
 10
8.023802860388393
 20
1.402976494662059
 30
0.0
 41
0.017559
 42
0.045118
 50
90.0
  0
INSERT
  5
5D8
330
6F
100
AcDbEntity
  8
31
100
AcDbBlockReference
  2
RECT
 10
8.023802860388393
 20
1.452976494662058
 30
0.0
 41
0.017559
 42
0.045118
 50
90.0
  0
INSERT
  5
5D9
330
6F
100
AcDbEntity
  8
31
100
AcDbBlockReference
  2
RECT
 10
8.023802860388393
 20
1.502976494662058
 30
0.0
 41
0.017559
 42
0.045118
 50
90.0
  0
INSERT
  5
5DA
330
6F
100
AcDbEntity
  8
31
100
AcDbBlockReference
  2
RECT
 10
8.023802860388393
 20
1.552976494662058
 30
0.0
 41
0.017559
 42
0.045118
 50
90.0
  0
INSERT
  5
5DB
330
6F
100
AcDbEntity
  8
31
100
AcDbBlockReference
  2
RECT
 10
7.814117860388392
 20
1.759117494662059
 30
0.0
 41
0.190472
 42
0.049291
 50
90.0
  0
INSERT
  5
5DC
330
6F
100
AcDbEntity
  8
31
100
AcDbBlockReference
  2
RECT
 10
7.898802860388393
 20
1.758881494662059
 30
0.0
 41
0.15
 42
0.122047
 50
90.0
  0
INSERT
  5
5DD
330
6F
100
AcDbEntity
  8
31
100
AcDbBlockReference
  2
RECT
 10
8.023802860388393
 20
1.683881494662058
 30
0.0
 41
0.017559
 42
0.045118
 50
90.0
  0
INSERT
  5
5DE
330
6F
100
AcDbEntity
  8
31
100
AcDbBlockReference
  2
RECT
 10
8.023802860388393
 20
1.733881494662059
 30
0.0
 41
0.017559
 42
0.045118
 50
90.0
  0
INSERT
  5
5DF
330
6F
100
AcDbEntity
  8
31
100
AcDbBlockReference
  2
RECT
 10
8.023802860388393
 20
1.783881494662059
 30
0.0
 41
0.017559
 42
0.045118
 50
90.0
  0
INSERT
  5
5E0
330
6F
100
AcDbEntity
  8
31
100
AcDbBlockReference
  2
RECT
 10
8.023802860388393
 20
1.833881494662059
 30
0.0
 41
0.017559
 42
0.045118
 50
90.0
  0
INSERT
  5
5E1
330
6F
100
AcDbEntity
  8
31
100
AcDbBlockReference
  2
RECT
 10
7.125298860388394
 20
1.270259494662058
 30
0.0
 41
0.02937
 42
0.052992
 50
270.0
  0
INSERT
  5
5E2
330
6F
100
AcDbEntity
  8
31
100
AcDbBlockReference
  2
RECT
 10
7.125298860388394
 20
1.090732494662058
 30
0.0
 41
0.02937
 42
0.052992
 50
270.0
  0
INSERT
  5
5E3
330
6F
100
AcDbEntity
  8
31
100
AcDbBlockReference
  2
RECT
 10
7.412700860388393
 20
1.180495494662058
 30
0.0
 41
0.202598
 42
0.234094
 50
270.0
  0
INSERT
  5
5E4
330
6F
100
AcDbEntity
  8
31
100
AcDbBlockReference
  2
RECT
 10
7.029590860388394
 20
1.167314494662058
 30
0.0
 41
0.02937
 42
0.033307
  0
INSERT
  5
5E5
330
6F
100
AcDbEntity
  8
31
100
AcDbBlockReference
  2
RECT
 10
7.096519860388394
 20
1.167314494662058
 30
0.0
 41
0.02937
 42
0.033307
  0
INSERT
  5
5E6
330
6F
100
AcDbEntity
  8
31
100
AcDbBlockReference
  2
RECT
 10
7.223409860388393
 20
2.317645494662059
 30
0.0
 41
0.02937
 42
0.033307
 50
180.0
  0
INSERT
  5
5E7
330
6F
100
AcDbEntity
  8
31
100
AcDbBlockReference
  2
RECT
 10
7.156479860388394
 20
2.317645494662059
 30
0.0
 41
0.02937
 42
0.033307
 50
180.0
  0
INSERT
  5
5E8
330
6F
100
AcDbEntity
  8
31
100
AcDbBlockReference
  2
RECT
 10
7.360944860388393
 20
2.299110494662059
 30
0.0
 41
0.02937
 42
0.033307
 50
270.0
  0
INSERT
  5
5E9
330
6F
100
AcDbEntity
  8
31
100
AcDbBlockReference
  2
RECT
 10
7.360944860388393
 20
2.232180494662058
 30
0.0
 41
0.02937
 42
0.033307
 50
270.0
  0
INSERT
  5
5EA
330
6F
100
AcDbEntity
  8
31
100
AcDbBlockReference
  2
RECT
 10
7.599944860388394
 20
2.222110494662059
 30
0.0
 41
0.02937
 42
0.033307
 50
270.0
  0
INSERT
  5
5EB
330
6F
100
AcDbEntity
  8
31
100
AcDbBlockReference
  2
RECT
 10
7.599944860388394
 20
2.155180494662058
 30
0.0
 41
0.02937
 42
0.033307
 50
270.0
  0
INSERT
  5
5EC
330
6F
100
AcDbEntity
  8
31
100
AcDbBlockReference
  2
RECT
 10
7.684944860388393
 20
2.222110494662059
 30
0.0
 41
0.02937
 42
0.033307
 50
270.0
  0
INSERT
  5
5ED
330
6F
100
AcDbEntity
  8
31
100
AcDbBlockReference
  2
RECT
 10
7.684944860388393
 20
2.155180494662058
 30
0.0
 41
0.02937
 42
0.033307
 50
270.0
  0
INSERT
  5
5EE
330
6F
100
AcDbEntity
  8
31
100
AcDbBlockReference
  2
RECT
 10
7.740338860388392
 20
2.616086494662058
 30
0.0
 41
0.02937
 42
0.033307
 50
90.0
  0
INSERT
  5
5EF
330
6F
100
AcDbEntity
  8
31
100
AcDbBlockReference
  2
RECT
 10
7.740338860388392
 20
2.683015494662059
 30
0.0
 41
0.02937
 42
0.033307
 50
90.0
  0
INSERT
  5
5F0
330
6F
100
AcDbEntity
  8
31
100
AcDbBlockReference
  2
RECT
 10
7.812700860388392
 20
2.683015494662059
 30
0.0
 41
0.02937
 42
0.033307
 50
270.0
  0
INSERT
  5
5F1
330
6F
100
AcDbEntity
  8
31
100
AcDbBlockReference
  2
RECT
 10
7.812700860388392
 20
2.616086494662058
 30
0.0
 41
0.02937
 42
0.033307
 50
270.0
  0
INSERT
  5
5F2
330
6F
100
AcDbEntity
  8
31
100
AcDbBlockReference
  2
RECT
 10
7.885062860388392
 20
2.683015494662059
 30
0.0
 41
0.02937
 42
0.033307
 50
270.0
  0
INSERT
  5
5F3
330
6F
100
AcDbEntity
  8
31
100
AcDbBlockReference
  2
RECT
 10
7.885062860388392
 20
2.616086494662058
 30
0.0
 41
0.02937
 42
0.033307
 50
270.0
  0
INSERT
  5
5F4
330
6F
100
AcDbEntity
  8
31
100
AcDbBlockReference
  2
RECT
 10
7.999944860388393
 20
2.667110494662059
 30
0.0
 41
0.02937
 42
0.033307
 50
270.0
  0
INSERT
  5
5F5
330
6F
100
AcDbEntity
  8
31
100
AcDbBlockReference
  2
RECT
 10
7.999944860388393
 20
2.600180494662059
 30
0.0
 41
0.02937
 42
0.033307
 50
270.0
  0
INSERT
  5
5F6
330
6F
100
AcDbEntity
  8
31
100
AcDbBlockReference
  2
RECT
 10
8.064944860388393
 20
2.667110494662059
 30
0.0
 41
0.02937
 42
0.033307
 50
270.0
  0
INSERT
  5
5F7
330
6F
100
AcDbEntity
  8
31
100
AcDbBlockReference
  2
RECT
 10
8.064944860388393
 20
2.600180494662059
 30
0.0
 41
0.02937
 42
0.033307
 50
270.0
  0
INSERT
  5
5F8
330
6F
100
AcDbEntity
  8
31
100
AcDbBlockReference
  2
RECT
 10
7.999944860388393
 20
2.790180494662058
 30
0.0
 41
0.02937
 42
0.033307
 50
90.0
  0
INSERT
  5
5F9
330
6F
100
AcDbEntity
  8
31
100
AcDbBlockReference
  2
RECT
 10
7.999944860388393
 20
2.857110494662059
 30
0.0
 41
0.02937
 42
0.033307
 50
90.0
  0
INSERT
  5
5FA
330
6F
100
AcDbEntity
  8
31
100
AcDbBlockReference
  2
RECT
 10
8.064944860388393
 20
2.790180494662058
 30
0.0
 41
0.02937
 42
0.033307
 50
90.0
  0
INSERT
  5
5FB
330
6F
100
AcDbEntity
  8
31
100
AcDbBlockReference
  2
RECT
 10
8.064944860388393
 20
2.857110494662059
 30
0.0
 41
0.02937
 42
0.033307
 50
90.0
  0
INSERT
  5
5FC
330
6F
100
AcDbEntity
  8
31
100
AcDbBlockReference
  2
RECT
 10
8.059944860388394
 20
3.415180494662058
 30
0.0
 41
0.02937
 42
0.033307
 50
90.0
  0
INSERT
  5
5FD
330
6F
100
AcDbEntity
  8
31
100
AcDbBlockReference
  2
RECT
 10
8.059944860388394
 20
3.482110494662059
 30
0.0
 41
0.02937
 42
0.033307
 50
90.0
  0
INSERT
  5
5FE
330
6F
100
AcDbEntity
  8
31
100
AcDbBlockReference
  2
RECT
 10
7.974944860388394
 20
3.415180494662058
 30
0.0
 41
0.02937
 42
0.033307
 50
90.0
  0
INSERT
  5
5FF
330
6F
100
AcDbEntity
  8
31
100
AcDbBlockReference
  2
RECT
 10
7.974944860388394
 20
3.482110494662059
 30
0.0
 41
0.02937
 42
0.033307
 50
90.0
  0
INSERT
  5
600
330
6F
100
AcDbEntity
  8
31
100
AcDbBlockReference
  2
RECT
 10
6.866944860388393
 20
3.355180494662058
 30
0.0
 41
0.02937
 42
0.033307
 50
90.0
  0
INSERT
  5
601
330
6F
100
AcDbEntity
  8
31
100
AcDbBlockReference
  2
RECT
 10
6.866944860388393
 20
3.422110494662059
 30
0.0
 41
0.02937
 42
0.033307
 50
90.0
  0
INSERT
  5
602
330
6F
100
AcDbEntity
  8
31
100
AcDbBlockReference
  2
RECT
 10
7.284944860388392
 20
2.770180494662058
 30
0.0
 41
0.02937
 42
0.033307
 50
90.0
  0
INSERT
  5
603
330
6F
100
AcDbEntity
  8
31
100
AcDbBlockReference
  2
RECT
 10
7.284944860388392
 20
2.837110494662059
 30
0.0
 41
0.02937
 42
0.033307
 50
90.0
  0
INSERT
  5
604
330
6F
100
AcDbEntity
  8
31
100
AcDbBlockReference
  2
RECT
 10
7.214944860388393
 20
2.585180494662058
 30
0.0
 41
0.02937
 42
0.033307
 50
90.0
  0
INSERT
  5
605
330
6F
100
AcDbEntity
  8
31
100
AcDbBlockReference
  2
RECT
 10
7.214944860388393
 20
2.652110494662059
 30
0.0
 41
0.02937
 42
0.033307
 50
90.0
  0
INSERT
  5
606
330
6F
100
AcDbEntity
  8
31
100
AcDbBlockReference
  2
RECT
 10
7.159479860388393
 20
2.403645494662059
 30
0.0
 41
0.02937
 42
0.033307
  0
INSERT
  5
607
330
6F
100
AcDbEntity
  8
31
100
AcDbBlockReference
  2
RECT
 10
7.226409860388393
 20
2.403645494662059
 30
0.0
 41
0.02937
 42
0.033307
  0
INSERT
  5
60B
330
6F
100
AcDbEntity
  8
31
100
AcDbBlockReference
  2
RECT
 10
7.433251860388393
 20
2.559984494662059
 30
0.0
 41
0.1
 42
0.152
 50
90.0
  0
INSERT
  5
60C
330
6F
100
AcDbEntity
  8
31
100
AcDbBlockReference
  2
RECT
 10
7.292503860388393
 20
2.439905494662058
 30
0.0
 41
0.054961
 42
0.008858
 50
90.0
  0
INSERT
  5
60D
330
6F
100
AcDbEntity
  8
31
100
AcDbBlockReference
  2
RECT
 10
7.318094860388393
 20
2.439905494662058
 30
0.0
 41
0.054961
 42
0.008858
 50
90.0
  0
INSERT
  5
60E
330
6F
100
AcDbEntity
  8
31
100
AcDbBlockReference
  2
RECT
 10
7.343684860388393
 20
2.439905494662058
 30
0.0
 41
0.054961
 42
0.008858
 50
90.0
  0
INSERT
  5
60F
330
6F
100
AcDbEntity
  8
31
100
AcDbBlockReference
  2
RECT
 10
7.369275860388393
 20
2.439905494662058
 30
0.0
 41
0.054961
 42
0.008858
 50
90.0
  0
INSERT
  5
610
330
6F
100
AcDbEntity
  8
31
100
AcDbBlockReference
  2
RECT
 10
7.394865860388392
 20
2.439905494662058
 30
0.0
 41
0.054961
 42
0.008858
 50
90.0
  0
INSERT
  5
611
330
6F
100
AcDbEntity
  8
31
100
AcDbBlockReference
  2
RECT
 10
7.420456860388393
 20
2.439905494662058
 30
0.0
 41
0.054961
 42
0.008858
 50
90.0
  0
INSERT
  5
612
330
6F
100
AcDbEntity
  8
31
100
AcDbBlockReference
  2
RECT
 10
7.446046860388394
 20
2.439905494662058
 30
0.0
 41
0.054961
 42
0.008858
 50
90.0
  0
INSERT
  5
613
330
6F
100
AcDbEntity
  8
31
100
AcDbBlockReference
  2
RECT
 10
7.471637860388393
 20
2.439905494662058
 30
0.0
 41
0.054961
 42
0.008858
 50
90.0
  0
INSERT
  5
614
330
6F
100
AcDbEntity
  8
31
100
AcDbBlockReference
  2
RECT
 10
7.497227860388393
 20
2.439905494662058
 30
0.0
 41
0.054961
 42
0.008858
 50
90.0
  0
INSERT
  5
615
330
6F
100
AcDbEntity
  8
31
100
AcDbBlockReference
  2
RECT
 10
7.522818860388393
 20
2.439905494662058
 30
0.0
 41
0.054961
 42
0.008858
 50
90.0
  0
INSERT
  5
616
330
6F
100
AcDbEntity
  8
31
100
AcDbBlockReference
  2
RECT
 10
7.548409860388392
 20
2.439905494662058
 30
0.0
 41
0.054961
 42
0.008858
 50
90.0
  0
INSERT
  5
617
330
6F
100
AcDbEntity
  8
31
100
AcDbBlockReference
  2
RECT
 10
7.573999860388394
 20
2.439905494662058
 30
0.0
 41
0.054961
 42
0.008858
 50
90.0
  0
INSERT
  5
618
330
6F
100
AcDbEntity
  8
31
100
AcDbBlockReference
  2
RECT
 10
7.573999860388394
 20
2.680062494662058
 30
0.0
 41
0.054961
 42
0.008858
 50
90.0
  0
INSERT
  5
619
330
6F
100
AcDbEntity
  8
31
100
AcDbBlockReference
  2
RECT
 10
7.548409860388392
 20
2.680062494662058
 30
0.0
 41
0.054961
 42
0.008858
 50
90.0
  0
INSERT
  5
61A
330
6F
100
AcDbEntity
  8
31
100
AcDbBlockReference
  2
RECT
 10
7.522818860388393
 20
2.680062494662058
 30
0.0
 41
0.054961
 42
0.008858
 50
90.0
  0
INSERT
  5
61B
330
6F
100
AcDbEntity
  8
31
100
AcDbBlockReference
  2
RECT
 10
7.497227860388393
 20
2.680062494662058
 30
0.0
 41
0.054961
 42
0.008858
 50
90.0
  0
INSERT
  5
61C
330
6F
100
AcDbEntity
  8
31
100
AcDbBlockReference
  2
RECT
 10
7.471637860388393
 20
2.680062494662058
 30
0.0
 41
0.054961
 42
0.008858
 50
90.0
  0
INSERT
  5
61D
330
6F
100
AcDbEntity
  8
31
100
AcDbBlockReference
  2
RECT
 10
7.446046860388394
 20
2.680062494662058
 30
0.0
 41
0.054961
 42
0.008858
 50
90.0
  0
INSERT
  5
61E
330
6F
100
AcDbEntity
  8
31
100
AcDbBlockReference
  2
RECT
 10
7.420456860388393
 20
2.680062494662058
 30
0.0
 41
0.054961
 42
0.008858
 50
90.0
  0
INSERT
  5
61F
330
6F
100
AcDbEntity
  8
31
100
AcDbBlockReference
  2
RECT
 10
7.394865860388392
 20
2.680062494662058
 30
0.0
 41
0.054961
 42
0.008858
 50
90.0
  0
INSERT
  5
620
330
6F
100
AcDbEntity
  8
31
100
AcDbBlockReference
  2
RECT
 10
7.369275860388393
 20
2.680062494662058
 30
0.0
 41
0.054961
 42
0.008858
 50
90.0
  0
INSERT
  5
621
330
6F
100
AcDbEntity
  8
31
100
AcDbBlockReference
  2
RECT
 10
7.343684860388393
 20
2.680062494662058
 30
0.0
 41
0.054961
 42
0.008858
 50
90.0
  0
INSERT
  5
622
330
6F
100
AcDbEntity
  8
31
100
AcDbBlockReference
  2
RECT
 10
7.318094860388393
 20
2.680062494662058
 30
0.0
 41
0.054961
 42
0.008858
 50
90.0
  0
INSERT
  5
623
330
6F
100
AcDbEntity
  8
31
100
AcDbBlockReference
  2
RECT
 10
7.292503860388393
 20
2.680062494662058
 30
0.0
 41
0.054961
 42
0.008858
 50
90.0
  0
INSERT
  5
624
330
6F
100
AcDbEntity
  8
31
100
AcDbBlockReference
  2
RECT
 10
7.761794860388393
 20
3.433527494662059
 30
0.0
 41
0.049055
 42
0.009843
 50
270.0
  0
INSERT
  5
625
330
6F
100
AcDbEntity
  8
31
100
AcDbBlockReference
  2
RECT
 10
7.730298860388393
 20
3.433527494662059
 30
0.0
 41
0.049055
 42
0.009843
 50
270.0
  0
INSERT
  5
626
330
6F
100
AcDbEntity
  8
31
100
AcDbBlockReference
  2
RECT
 10
7.698802860388394
 20
3.433527494662059
 30
0.0
 41
0.049055
 42
0.009843
 50
270.0
  0
INSERT
  5
627
330
6F
100
AcDbEntity
  8
31
100
AcDbBlockReference
  2
RECT
 10
7.667306860388393
 20
3.433527494662059
 30
0.0
 41
0.049055
 42
0.009843
 50
270.0
  0
INSERT
  5
628
330
6F
100
AcDbEntity
  8
31
100
AcDbBlockReference
  2
RECT
 10
7.635810860388394
 20
3.433527494662059
 30
0.0
 41
0.049055
 42
0.009843
 50
270.0
  0
INSERT
  5
629
330
6F
100
AcDbEntity
  8
31
100
AcDbBlockReference
  2
RECT
 10
7.604314860388393
 20
3.433527494662059
 30
0.0
 41
0.049055
 42
0.009843
 50
270.0
  0
INSERT
  5
62A
330
6F
100
AcDbEntity
  8
31
100
AcDbBlockReference
  2
RECT
 10
7.572818860388394
 20
3.433527494662059
 30
0.0
 41
0.049055
 42
0.009843
 50
270.0
  0
INSERT
  5
62B
330
6F
100
AcDbEntity
  8
31
100
AcDbBlockReference
  2
RECT
 10
7.541322860388394
 20
3.433527494662059
 30
0.0
 41
0.049055
 42
0.009843
 50
270.0
  0
INSERT
  5
62C
330
6F
100
AcDbEntity
  8
31
100
AcDbBlockReference
  2
RECT
 10
7.509826860388393
 20
3.433527494662059
 30
0.0
 41
0.049055
 42
0.009843
 50
270.0
  0
INSERT
  5
62D
330
6F
100
AcDbEntity
  8
31
100
AcDbBlockReference
  2
RECT
 10
7.478330860388394
 20
3.433527494662059
 30
0.0
 41
0.049055
 42
0.009843
 50
270.0
  0
INSERT
  5
62E
330
6F
100
AcDbEntity
  8
31
100
AcDbBlockReference
  2
RECT
 10
7.446834860388394
 20
3.433527494662059
 30
0.0
 41
0.049055
 42
0.009843
 50
270.0
  0
INSERT
  5
62F
330
6F
100
AcDbEntity
  8
31
100
AcDbBlockReference
  2
RECT
 10
7.375968860388393
 20
3.362661494662058
 30
0.0
 41
0.009843
 42
0.049055
 50
270.0
  0
INSERT
  5
630
330
6F
100
AcDbEntity
  8
31
100
AcDbBlockReference
  2
RECT
 10
7.375968860388393
 20
3.331165494662059
 30
0.0
 41
0.009843
 42
0.049055
 50
270.0
  0
INSERT
  5
631
330
6F
100
AcDbEntity
  8
31
100
AcDbBlockReference
  2
RECT
 10
7.375968860388393
 20
3.299669494662059
 30
0.0
 41
0.009843
 42
0.049055
 50
270.0
  0
INSERT
  5
632
330
6F
100
AcDbEntity
  8
31
100
AcDbBlockReference
  2
RECT
 10
7.375968860388393
 20
3.268173494662058
 30
0.0
 41
0.009843
 42
0.049055
 50
270.0
  0
INSERT
  5
633
330
6F
100
AcDbEntity
  8
31
100
AcDbBlockReference
  2
RECT
 10
7.375968860388393
 20
3.236677494662059
 30
0.0
 41
0.009843
 42
0.049055
 50
270.0
  0
INSERT
  5
634
330
6F
100
AcDbEntity
  8
31
100
AcDbBlockReference
  2
RECT
 10
7.375968860388393
 20
3.205181494662058
 30
0.0
 41
0.009843
 42
0.049055
 50
270.0
  0
INSERT
  5
635
330
6F
100
AcDbEntity
  8
31
100
AcDbBlockReference
  2
RECT
 10
7.375968860388393
 20
3.173685494662059
 30
0.0
 41
0.009843
 42
0.049055
 50
270.0
  0
INSERT
  5
636
330
6F
100
AcDbEntity
  8
31
100
AcDbBlockReference
  2
RECT
 10
7.375968860388393
 20
3.142189494662058
 30
0.0
 41
0.009843
 42
0.049055
 50
270.0
  0
INSERT
  5
637
330
6F
100
AcDbEntity
  8
31
100
AcDbBlockReference
  2
RECT
 10
7.375968860388393
 20
3.110692494662059
 30
0.0
 41
0.009843
 42
0.049055
 50
270.0
  0
INSERT
  5
638
330
6F
100
AcDbEntity
  8
31
100
AcDbBlockReference
  2
RECT
 10
7.375968860388393
 20
3.079196494662058
 30
0.0
 41
0.009843
 42
0.049055
 50
270.0
  0
INSERT
  5
639
330
6F
100
AcDbEntity
  8
31
100
AcDbBlockReference
  2
RECT
 10
7.375968860388393
 20
3.047700494662059
 30
0.0
 41
0.009843
 42
0.049055
 50
270.0
  0
INSERT
  5
63A
330
6F
100
AcDbEntity
  8
31
100
AcDbBlockReference
  2
RECT
 10
7.446834860388393
 20
2.976834494662059
 30
0.0
 41
0.049055
 42
0.009843
 50
270.0
  0
INSERT
  5
63B
330
6F
100
AcDbEntity
  8
31
100
AcDbBlockReference
  2
RECT
 10
7.478330860388393
 20
2.976834494662059
 30
0.0
 41
0.049055
 42
0.009843
 50
270.0
  0
INSERT
  5
63C
330
6F
100
AcDbEntity
  8
31
100
AcDbBlockReference
  2
RECT
 10
7.509826860388393
 20
2.976834494662059
 30
0.0
 41
0.049055
 42
0.009843
 50
270.0
  0
INSERT
  5
63D
330
6F
100
AcDbEntity
  8
31
100
AcDbBlockReference
  2
RECT
 10
7.541322860388393
 20
2.976834494662059
 30
0.0
 41
0.049055
 42
0.009843
 50
270.0
  0
INSERT
  5
63E
330
6F
100
AcDbEntity
  8
31
100
AcDbBlockReference
  2
RECT
 10
7.572818860388393
 20
2.976834494662059
 30
0.0
 41
0.049055
 42
0.009843
 50
270.0
  0
INSERT
  5
63F
330
6F
100
AcDbEntity
  8
31
100
AcDbBlockReference
  2
RECT
 10
7.604314860388393
 20
2.976834494662059
 30
0.0
 41
0.049055
 42
0.009843
 50
270.0
  0
INSERT
  5
640
330
6F
100
AcDbEntity
  8
31
100
AcDbBlockReference
  2
RECT
 10
7.635810860388393
 20
2.976834494662059
 30
0.0
 41
0.049055
 42
0.009843
 50
270.0
  0
INSERT
  5
641
330
6F
100
AcDbEntity
  8
31
100
AcDbBlockReference
  2
RECT
 10
7.667306860388393
 20
2.976834494662059
 30
0.0
 41
0.049055
 42
0.009843
 50
270.0
  0
INSERT
  5
642
330
6F
100
AcDbEntity
  8
31
100
AcDbBlockReference
  2
RECT
 10
7.698802860388394
 20
2.976834494662059
 30
0.0
 41
0.049055
 42
0.009843
 50
270.0
  0
INSERT
  5
643
330
6F
100
AcDbEntity
  8
31
100
AcDbBlockReference
  2
RECT
 10
7.730298860388392
 20
2.976834494662059
 30
0.0
 41
0.049055
 42
0.009843
 50
270.0
  0
INSERT
  5
644
330
6F
100
AcDbEntity
  8
31
100
AcDbBlockReference
  2
RECT
 10
7.761794860388393
 20
2.976834494662059
 30
0.0
 41
0.049055
 42
0.009843
 50
270.0
  0
INSERT
  5
645
330
6F
100
AcDbEntity
  8
31
100
AcDbBlockReference
  2
RECT
 10
7.832661860388393
 20
3.047700494662059
 30
0.0
 41
0.009843
 42
0.049055
 50
270.0
  0
INSERT
  5
646
330
6F
100
AcDbEntity
  8
31
100
AcDbBlockReference
  2
RECT
 10
7.832661860388394
 20
3.079196494662058
 30
0.0
 41
0.009843
 42
0.049055
 50
270.0
  0
INSERT
  5
647
330
6F
100
AcDbEntity
  8
31
100
AcDbBlockReference
  2
RECT
 10
7.832661860388394
 20
3.110692494662059
 30
0.0
 41
0.009843
 42
0.049055
 50
270.0
  0
INSERT
  5
648
330
6F
100
AcDbEntity
  8
31
100
AcDbBlockReference
  2
RECT
 10
7.832661860388394
 20
3.142189494662058
 30
0.0
 41
0.009843
 42
0.049055
 50
270.0
  0
INSERT
  5
649
330
6F
100
AcDbEntity
  8
31
100
AcDbBlockReference
  2
RECT
 10
7.832661860388394
 20
3.173685494662059
 30
0.0
 41
0.009843
 42
0.049055
 50
270.0
  0
INSERT
  5
64A
330
6F
100
AcDbEntity
  8
31
100
AcDbBlockReference
  2
RECT
 10
7.832661860388394
 20
3.205181494662058
 30
0.0
 41
0.009843
 42
0.049055
 50
270.0
  0
INSERT
  5
64B
330
6F
100
AcDbEntity
  8
31
100
AcDbBlockReference
  2
RECT
 10
7.832661860388394
 20
3.236677494662059
 30
0.0
 41
0.009843
 42
0.049055
 50
270.0
  0
INSERT
  5
64C
330
6F
100
AcDbEntity
  8
31
100
AcDbBlockReference
  2
RECT
 10
7.832661860388394
 20
3.268173494662058
 30
0.0
 41
0.009843
 42
0.049055
 50
270.0
  0
INSERT
  5
64D
330
6F
100
AcDbEntity
  8
31
100
AcDbBlockReference
  2
RECT
 10
7.832661860388394
 20
3.299669494662059
 30
0.0
 41
0.009843
 42
0.049055
 50
270.0
  0
INSERT
  5
64E
330
6F
100
AcDbEntity
  8
31
100
AcDbBlockReference
  2
RECT
 10
7.832661860388394
 20
3.331165494662059
 30
0.0
 41
0.009843
 42
0.049055
 50
270.0
  0
INSERT
  5
64F
330
6F
100
AcDbEntity
  8
31
100
AcDbBlockReference
  2
RECT
 10
7.832661860388394
 20
3.362661494662058
 30
0.0
 41
0.009843
 42
0.049055
 50
270.0
  0
INSERT
  5
650
330
6F
100
AcDbEntity
  8
31
100
AcDbBlockReference
  2
RECT
 10
7.831676860388393
 20
1.937346494662059
 30
0.0
 41
0.058898
 42
0.015591
 50
90.0
  0
INSERT
  5
651
330
6F
100
AcDbEntity
  8
31
100
AcDbBlockReference
  2
RECT
 10
7.881676860388393
 20
1.937346494662059
 30
0.0
 41
0.058898
 42
0.015591
 50
90.0
  0
INSERT
  5
652
330
6F
100
AcDbEntity
  8
31
100
AcDbBlockReference
  2
RECT
 10
7.931676860388392
 20
1.937346494662059
 30
0.0
 41
0.058898
 42
0.015591
 50
90.0
  0
INSERT
  5
653
330
6F
100
AcDbEntity
  8
31
100
AcDbBlockReference
  2
RECT
 10
7.981676860388393
 20
1.937346494662059
 30
0.0
 41
0.058898
 42
0.015591
 50
90.0
  0
INSERT
  5
654
330
6F
100
AcDbEntity
  8
31
100
AcDbBlockReference
  2
RECT
 10
7.981676860388393
 20
2.157818494662059
 30
0.0
 41
0.058898
 42
0.015591
 50
90.0
  0
INSERT
  5
655
330
6F
100
AcDbEntity
  8
31
100
AcDbBlockReference
  2
RECT
 10
7.931676860388392
 20
2.157818494662059
 30
0.0
 41
0.058898
 42
0.015591
 50
90.0
  0
INSERT
  5
656
330
6F
100
AcDbEntity
  8
31
100
AcDbBlockReference
  2
RECT
 10
7.881676860388393
 20
2.157818494662059
 30
0.0
 41
0.058898
 42
0.015591
 50
90.0
  0
INSERT
  5
657
330
6F
100
AcDbEntity
  8
31
100
AcDbBlockReference
  2
RECT
 10
7.831676860388393
 20
2.157818494662059
 30
0.0
 41
0.058898
 42
0.015591
 50
90.0
  0
LINE
  5
658
330
6F
100
AcDbEntity
  8
31
100
AcDbLine
 10
6.835007860388393
 20
1.291208494662058
 30
0.0
 11
6.861007860388394
 21
1.317208494662059
 31
0.0
  0
LINE
  5
659
330
6F
100
AcDbEntity
  8
31
100
AcDbLine
 10
6.861007860388394
 20
1.317208494662059
 30
0.0
 11
6.947007860388392
 21
1.317208494662059
 31
0.0
  0
LINE
  5
65A
330
6F
100
AcDbEntity
  8
31
100
AcDbLine
 10
6.947007860388392
 20
1.317208494662059
 30
0.0
 11
6.978007860388393
 21
1.286208494662059
 31
0.0
  0
LINE
  5
65B
330
6F
100
AcDbEntity
  8
31
100
AcDbLine
 10
6.978007860388393
 20
1.286208494662059
 30
0.0
 11
6.978007860388393
 21
1.269208494662059
 31
0.0
  0
LINE
  5
65C
330
6F
100
AcDbEntity
  8
31
100
AcDbLine
 10
6.978007860388393
 20
1.269208494662059
 30
0.0
 11
6.946007860388393
 21
1.237208494662059
 31
0.0
  0
LINE
  5
65D
330
6F
100
AcDbEntity
  8
31
100
AcDbLine
 10
6.946007860388393
 20
1.237208494662059
 30
0.0
 11
6.862007860388393
 21
1.237208494662059
 31
0.0
  0
LINE
  5
65E
330
6F
100
AcDbEntity
  8
31
100
AcDbLine
 10
6.862007860388393
 20
1.237208494662059
 30
0.0
 11
6.835007860388393
 21
1.264208494662059
 31
0.0
  0
LINE
  5
65F
330
6F
100
AcDbEntity
  8
31
100
AcDbLine
 10
6.835007860388393
 20
1.264208494662059
 30
0.0
 11
6.835007860388393
 21
1.291208494662058
 31
0.0
  0
LINE
  5
660
330
6F
100
AcDbEntity
  8
31
100
AcDbLine
 10
6.836007860388393
 20
1.292208494662058
 30
0.0
 11
6.836007860388393
 21
1.263208494662058
 31
0.0
  0
LINE
  5
661
330
6F
100
AcDbEntity
  8
31
100
AcDbLine
 10
6.841007860388392
 20
1.297208494662058
 30
0.0
 11
6.841007860388392
 21
1.258208494662059
 31
0.0
  0
LINE
  5
662
330
6F
100
AcDbEntity
  8
31
100
AcDbLine
 10
6.846007860388393
 20
1.302208494662059
 30
0.0
 11
6.846007860388393
 21
1.253208494662059
 31
0.0
  0
LINE
  5
663
330
6F
100
AcDbEntity
  8
31
100
AcDbLine
 10
6.851007860388393
 20
1.307208494662058
 30
0.0
 11
6.851007860388393
 21
1.248208494662059
 31
0.0
  0
LINE
  5
664
330
6F
100
AcDbEntity
  8
31
100
AcDbLine
 10
6.856007860388393
 20
1.312208494662059
 30
0.0
 11
6.856007860388393
 21
1.243208494662058
 31
0.0
  0
LINE
  5
665
330
6F
100
AcDbEntity
  8
31
100
AcDbLine
 10
6.861007860388394
 20
1.317208494662059
 30
0.0
 11
6.861007860388394
 21
1.238208494662059
 31
0.0
  0
LINE
  5
666
330
6F
100
AcDbEntity
  8
31
100
AcDbLine
 10
6.866007860388393
 20
1.317208494662059
 30
0.0
 11
6.866007860388393
 21
1.237208494662059
 31
0.0
  0
LINE
  5
667
330
6F
100
AcDbEntity
  8
31
100
AcDbLine
 10
6.871007860388393
 20
1.317208494662059
 30
0.0
 11
6.871007860388393
 21
1.237208494662059
 31
0.0
  0
LINE
  5
668
330
6F
100
AcDbEntity
  8
31
100
AcDbLine
 10
6.876007860388392
 20
1.317208494662059
 30
0.0
 11
6.876007860388392
 21
1.237208494662059
 31
0.0
  0
LINE
  5
669
330
6F
100
AcDbEntity
  8
31
100
AcDbLine
 10
6.881007860388393
 20
1.317208494662059
 30
0.0
 11
6.881007860388393
 21
1.237208494662059
 31
0.0
  0
LINE
  5
66A
330
6F
100
AcDbEntity
  8
31
100
AcDbLine
 10
6.886007860388392
 20
1.317208494662059
 30
0.0
 11
6.886007860388392
 21
1.237208494662059
 31
0.0
  0
LINE
  5
66B
330
6F
100
AcDbEntity
  8
31
100
AcDbLine
 10
6.891007860388393
 20
1.317208494662059
 30
0.0
 11
6.891007860388393
 21
1.237208494662059
 31
0.0
  0
LINE
  5
66C
330
6F
100
AcDbEntity
  8
31
100
AcDbLine
 10
6.896007860388393
 20
1.317208494662059
 30
0.0
 11
6.896007860388393
 21
1.237208494662059
 31
0.0
  0
LINE
  5
66D
330
6F
100
AcDbEntity
  8
31
100
AcDbLine
 10
6.901007860388393
 20
1.317208494662059
 30
0.0
 11
6.901007860388393
 21
1.237208494662059
 31
0.0
  0
LINE
  5
66E
330
6F
100
AcDbEntity
  8
31
100
AcDbLine
 10
6.906007860388394
 20
1.317208494662059
 30
0.0
 11
6.906007860388394
 21
1.237208494662059
 31
0.0
  0
LINE
  5
66F
330
6F
100
AcDbEntity
  8
31
100
AcDbLine
 10
6.911007860388393
 20
1.317208494662059
 30
0.0
 11
6.911007860388393
 21
1.237208494662059
 31
0.0
  0
LINE
  5
670
330
6F
100
AcDbEntity
  8
31
100
AcDbLine
 10
6.916007860388393
 20
1.317208494662059
 30
0.0
 11
6.916007860388393
 21
1.237208494662059
 31
0.0
  0
LINE
  5
671
330
6F
100
AcDbEntity
  8
31
100
AcDbLine
 10
6.921007860388392
 20
1.317208494662059
 30
0.0
 11
6.921007860388392
 21
1.237208494662059
 31
0.0
  0
LINE
  5
672
330
6F
100
AcDbEntity
  8
31
100
AcDbLine
 10
6.926007860388393
 20
1.317208494662059
 30
0.0
 11
6.926007860388393
 21
1.237208494662059
 31
0.0
  0
LINE
  5
673
330
6F
100
AcDbEntity
  8
31
100
AcDbLine
 10
6.931007860388393
 20
1.317208494662059
 30
0.0
 11
6.931007860388393
 21
1.237208494662059
 31
0.0
  0
LINE
  5
674
330
6F
100
AcDbEntity
  8
31
100
AcDbLine
 10
6.936007860388393
 20
1.317208494662059
 30
0.0
 11
6.936007860388393
 21
1.237208494662059
 31
0.0
  0
LINE
  5
675
330
6F
100
AcDbEntity
  8
31
100
AcDbLine
 10
6.941007860388393
 20
1.317208494662059
 30
0.0
 11
6.941007860388393
 21
1.237208494662059
 31
0.0
  0
LINE
  5
676
330
6F
100
AcDbEntity
  8
31
100
AcDbLine
 10
6.946007860388393
 20
1.317208494662059
 30
0.0
 11
6.946007860388393
 21
1.237208494662059
 31
0.0
  0
LINE
  5
677
330
6F
100
AcDbEntity
  8
31
100
AcDbLine
 10
6.951007860388394
 20
1.313208494662058
 30
0.0
 11
6.951007860388394
 21
1.242208494662059
 31
0.0
  0
LINE
  5
678
330
6F
100
AcDbEntity
  8
31
100
AcDbLine
 10
6.956007860388393
 20
1.308208494662058
 30
0.0
 11
6.956007860388393
 21
1.247208494662058
 31
0.0
  0
LINE
  5
679
330
6F
100
AcDbEntity
  8
31
100
AcDbLine
 10
6.961007860388393
 20
1.303208494662059
 30
0.0
 11
6.961007860388393
 21
1.252208494662058
 31
0.0
  0
LINE
  5
67A
330
6F
100
AcDbEntity
  8
31
100
AcDbLine
 10
6.966007860388392
 20
1.298208494662059
 30
0.0
 11
6.966007860388392
 21
1.257208494662059
 31
0.0
  0
LINE
  5
67B
330
6F
100
AcDbEntity
  8
31
100
AcDbLine
 10
6.971007860388393
 20
1.293208494662059
 30
0.0
 11
6.971007860388393
 21
1.262208494662058
 31
0.0
  0
LINE
  5
67C
330
6F
100
AcDbEntity
  8
31
100
AcDbLine
 10
6.976007860388393
 20
1.288208494662058
 30
0.0
 11
6.976007860388393
 21
1.267208494662059
 31
0.0
  0
INSERT
  5
67D
330
6F
100
AcDbEntity
  8
31
100
AcDbBlockReference
  2
RECT
 10
6.792464860388394
 20
1.277208494662059
 30
0.0
 41
0.049055
 42
0.02937
  0
INSERT
  5
67E
330
6F
100
AcDbEntity
  8
31
100
AcDbBlockReference
  2
RECT
 10
6.792464860388394
 20
1.218153494662058
 30
0.0
 41
0.049055
 42
0.02937
  0
INSERT
  5
67F
330
6F
100
AcDbEntity
  8
31
100
AcDbBlockReference
  2
RECT
 10
6.792464860388394
 20
1.336263494662059
 30
0.0
 41
0.049055
 42
0.02937
  0
INSERT
  5
680
330
6F
100
AcDbEntity
  8
31
100
AcDbBlockReference
  2
RECT
 10
7.069944860388392
 20
2.493881494662059
 30
0.0
 41
0.058898
 42
0.015591
 50
270.0
  0
INSERT
  5
681
330
6F
100
AcDbEntity
  8
31
100
AcDbBlockReference
  2
RECT
 10
7.019944860388394
 20
2.493881494662059
 30
0.0
 41
0.058898
 42
0.015591
 50
270.0
  0
INSERT
  5
682
330
6F
100
AcDbEntity
  8
31
100
AcDbBlockReference
  2
RECT
 10
6.969944860388393
 20
2.493881494662059
 30
0.0
 41
0.058898
 42
0.015591
 50
270.0
  0
INSERT
  5
683
330
6F
100
AcDbEntity
  8
31
100
AcDbBlockReference
  2
RECT
 10
6.919944860388393
 20
2.493881494662059
 30
0.0
 41
0.058898
 42
0.015591
 50
270.0
  0
INSERT
  5
684
330
6F
100
AcDbEntity
  8
31
100
AcDbBlockReference
  2
RECT
 10
6.869944860388393
 20
2.493881494662059
 30
0.0
 41
0.058898
 42
0.015591
 50
270.0
  0
INSERT
  5
685
330
6F
100
AcDbEntity
  8
31
100
AcDbBlockReference
  2
RECT
 10
6.819944860388392
 20
2.493881494662059
 30
0.0
 41
0.058898
 42
0.015591
 50
270.0
  0
INSERT
  5
686
330
6F
100
AcDbEntity
  8
31
100
AcDbBlockReference
  2
RECT
 10
6.769944860388394
 20
2.493881494662059
 30
0.0
 41
0.058898
 42
0.015591
 50
270.0
  0
INSERT
  5
687
330
6F
100
AcDbEntity
  8
31
100
AcDbBlockReference
  2
RECT
 10
6.769944860388394
 20
2.273409494662058
 30
0.0
 41
0.058898
 42
0.015591
 50
270.0
  0
INSERT
  5
688
330
6F
100
AcDbEntity
  8
31
100
AcDbBlockReference
  2
RECT
 10
6.819944860388392
 20
2.273409494662058
 30
0.0
 41
0.058898
 42
0.015591
 50
270.0
  0
INSERT
  5
689
330
6F
100
AcDbEntity
  8
31
100
AcDbBlockReference
  2
RECT
 10
6.869944860388393
 20
2.273409494662058
 30
0.0
 41
0.058898
 42
0.015591
 50
270.0
  0
INSERT
  5
68A
330
6F
100
AcDbEntity
  8
31
100
AcDbBlockReference
  2
RECT
 10
6.919944860388393
 20
2.273409494662058
 30
0.0
 41
0.058898
 42
0.015591
 50
270.0
  0
INSERT
  5
68B
330
6F
100
AcDbEntity
  8
31
100
AcDbBlockReference
  2
RECT
 10
6.969944860388393
 20
2.273409494662058
 30
0.0
 41
0.058898
 42
0.015591
 50
270.0
  0
INSERT
  5
68C
330
6F
100
AcDbEntity
  8
31
100
AcDbBlockReference
  2
RECT
 10
7.019944860388394
 20
2.273409494662058
 30
0.0
 41
0.058898
 42
0.015591
 50
270.0
  0
INSERT
  5
68D
330
6F
100
AcDbEntity
  8
31
100
AcDbBlockReference
  2
RECT
 10
7.069944860388392
 20
2.273409494662058
 30
0.0
 41
0.058898
 42
0.015591
 50
270.0
  0
INSERT
  5
68E
330
6F
100
AcDbEntity
  8
31
100
AcDbBlockReference
  2
RECT
 10
8.129574860388393
 20
3.158464494662058
 30
0.0
 41
0.007874
 42
0.04315
 50
90.0
  0
INSERT
  5
68F
330
6F
100
AcDbEntity
  8
31
100
AcDbBlockReference
  2
RECT
 10
8.129574860388393
 20
3.184054494662059
 30
0.0
 41
0.007874
 42
0.04315
 50
90.0
  0
INSERT
  5
690
330
6F
100
AcDbEntity
  8
31
100
AcDbBlockReference
  2
RECT
 10
8.129574860388393
 20
3.209645494662058
 30
0.0
 41
0.007874
 42
0.04315
 50
90.0
  0
INSERT
  5
691
330
6F
100
AcDbEntity
  8
31
100
AcDbBlockReference
  2
RECT
 10
8.129574860388393
 20
3.235236494662058
 30
0.0
 41
0.007874
 42
0.04315
 50
90.0
  0
INSERT
  5
692
330
6F
100
AcDbEntity
  8
31
100
AcDbBlockReference
  2
RECT
 10
8.129574860388393
 20
3.260826494662059
 30
0.0
 41
0.007874
 42
0.04315
 50
90.0
  0
INSERT
  5
693
330
6F
100
AcDbEntity
  8
31
100
AcDbBlockReference
  2
RECT
 10
8.134495860388394
 20
3.087598494662058
 30
0.0
 41
0.072677
 42
0.052992
 50
90.0
  0
INSERT
  5
694
330
6F
100
AcDbEntity
  8
31
100
AcDbBlockReference
  2
RECT
 10
8.134495860388394
 20
3.331692494662059
 30
0.0
 41
0.072677
 42
0.052992
 50
90.0
  0
INSERT
  5
695
330
6F
100
AcDbEntity
  8
31
100
AcDbBlockReference
  2
RECT
 10
8.234889860388394
 20
3.052165494662058
 30
0.0
 41
0.060866
 42
0.064803
 50
90.0
  0
INSERT
  5
696
330
6F
100
AcDbEntity
  8
31
100
AcDbBlockReference
  2
RECT
 10
8.234889860388394
 20
3.367125494662059
 30
0.0
 41
0.060866
 42
0.064803
 50
90.0
  0
INSERT
  5
697
330
6F
100
AcDbEntity
  8
31
100
AcDbBlockReference
  2
RECT
 10
8.234889860388394
 20
3.162401494662059
 30
0.0
 41
0.064803
 42
0.064803
 50
90.0
  0
INSERT
  5
698
330
6F
100
AcDbEntity
  8
31
100
AcDbBlockReference
  2
RECT
 10
8.234889860388394
 20
3.256889494662059
 30
0.0
 41
0.064803
 42
0.064803
 50
90.0
  0
INSERT
  5
699
330
6F
100
AcDbEntity
  8
31
100
AcDbBlockReference
  2
RECT
 10
7.127944860388393
 20
3.209645494662058
 30
0.0
 41
0.2
 42
0.066
 50
270.0
  0
INSERT
  5
69A
330
6F
100
AcDbEntity
  8
31
100
AcDbBlockReference
  2
RECT
 10
7.127944860388392
 20
2.829645494662059
 30
0.0
 41
0.2
 42
0.066
 50
270.0
  0
ENDSEC
  0
SECTION
  2
OBJECTS
  0
DICTIONARY
  5
C
330
0
100
AcDbDictionary
281
     1
  3
ACAD_CIP_PREVIOUS_PRODUCT_INFO
350
1C1
  3
ACAD_COLOR
350
62
  3
ACAD_DETAILVIEWSTYLE
350
69
  3
ACAD_FIELDLIST
350
232
  3
ACAD_GROUP
350
D
  3
ACAD_LAYOUT
350
61
  3
ACAD_MATERIAL
350
10
  3
ACAD_MLEADERSTYLE
350
65
  3
ACAD_MLINESTYLE
350
5E
  3
ACAD_PLOTSETTINGS
350
60
  3
ACAD_PLOTSTYLENAME
350
E
  3
ACAD_SCALELIST
350
42
  3
ACAD_SECTIONVIEWSTYLE
350
67
  3
ACAD_TABLESTYLE
350
63
  3
ACAD_VISUALSTYLE
350
29
  3
ACDB_RECOMPOSE_DATA
350
6D3
  3
AcDbVariableDictionary
350
6C3
  3
AcmDictionary
350
1EE
  3
AMG
350
1C2
  3
AMGSNAPSETTINGS
350
24D
  0
DICTIONARY
  5
242
330
2
100
AcDbDictionary
280
     1
281
     1
  3
ACAD_LAYERSTATES
360
243
  0
DICTIONARY
  5
6B4
330
54
100
AcDbDictionary
280
     1
281
     1
  3
ADSK_XREC_LAYER_RECONCILED
360
6B5
  0
DICTIONARY
  5
6B6
330
73
100
AcDbDictionary
280
     1
281
     1
  3
ADSK_XREC_LAYER_RECONCILED
360
6B7
  0
DICTIONARY
  5
6B8
330
74
100
AcDbDictionary
280
     1
281
     1
  3
ADSK_XREC_LAYER_RECONCILED
360
6B9
  0
DICTIONARY
  5
6BA
330
75
100
AcDbDictionary
280
     1
281
     1
  3
ADSK_XREC_LAYER_RECONCILED
360
6BB
  0
DICTIONARY
  5
274
330
6F
100
AcDbDictionary
280
     1
281
     1
  0
XRECORD
  5
1C1
102
{ACAD_REACTORS
330
C
102
}
330
C
100
AcDbXrecord
280
     1
300
AMECH_PP
300
2016
300
PDSU_F_S
  0
DICTIONARY
  5
62
102
{ACAD_REACTORS
330
C
102
}
330
C
100
AcDbDictionary
281
     1
  0
DICTIONARY
  5
69
102
{ACAD_REACTORS
330
C
102
}
330
C
100
AcDbDictionary
281
     1
  3
Imperial24
350
6A
  0
FIELDLIST
  5
232
102
{ACAD_REACTORS
330
C
102
}
330
C
100
AcDbIdSet
 90
        4
330
230
330
231
330
233
330
234
100
AcDbFieldList
  0
DICTIONARY
  5
D
102
{ACAD_REACTORS
330
C
102
}
330
C
100
AcDbDictionary
281
     1
  0
DICTIONARY
  5
61
102
{ACAD_REACTORS
330
C
102
}
330
C
100
AcDbDictionary
281
     1
  3
Layout1
350
6E
  3
Model
350
72
  0
DICTIONARY
  5
10
102
{ACAD_REACTORS
330
C
102
}
330
C
100
AcDbDictionary
281
     1
  3
ByBlock
350
19
  3
ByLayer
350
11
  3
Global
350
21
  0
DICTIONARY
  5
65
102
{ACAD_REACTORS
330
C
102
}
330
C
100
AcDbDictionary
281
     1
  3
Standard
350
66
  0
DICTIONARY
  5
5E
102
{ACAD_REACTORS
330
C
102
}
330
C
100
AcDbDictionary
281
     1
  3
Standard
350
5F
  0
DICTIONARY
  5
60
102
{ACAD_REACTORS
330
C
102
}
330
C
100
AcDbDictionary
281
     1
  0
ACDBDICTIONARYWDFLT
  5
E
102
{ACAD_REACTORS
330
C
102
}
330
C
100
AcDbDictionary
281
     1
  3
Normal
350
F
100
AcDbDictionaryWithDefault
340
F
  0
DICTIONARY
  5
42
102
{ACAD_REACTORS
330
C
102
}
330
C
100
AcDbDictionary
281
     1
  3
A0
350
43
  3
A1
350
44
  3
A2
350
45
  3
A3
350
46
  3
A4
350
47
  3
A5
350
48
  3
A6
350
49
  3
A7
350
4A
  3
A8
350
4B
  3
A9
350
4C
  3
B0
350
4D
  3
B1
350
4E
  3
B2
350
4F
  3
B3
350
50
  3
B4
350
51
  3
B5
350
52
  3
B6
350
53
  0
DICTIONARY
  5
67
102
{ACAD_REACTORS
330
C
102
}
330
C
100
AcDbDictionary
281
     1
  3
Imperial24
350
68
  0
DICTIONARY
  5
63
102
{ACAD_REACTORS
330
C
102
}
330
C
100
AcDbDictionary
281
     1
  3
Standard
350
64
  0
DICTIONARY
  5
29
102
{ACAD_REACTORS
330
C
102
}
330
C
100
AcDbDictionary
281
     1
  3
2dWireframe
350
2F
  3
Basic
350
2E
  3
Brighten
350
35
  3
ColorChange
350
39
  3
Conceptual
350
32
  3
Dim
350
34
  3
EdgeColorOff
350
41
  3
Facepattern
350
38
  3
Flat
350
2A
  3
FlatWithEdges
350
2B
  3
Gouraud
350
2C
  3
GouraudWithEdges
350
2D
  3
Hidden
350
31
  3
JitterOff
350
3F
  3
Linepattern
350
37
  3
OverhangOff
350
40
  3
Realistic
350
33
  3
Shaded
350
3E
  3
Shaded with edges
350
3D
  3
Shades of Gray
350
3A
  3
Sketchy
350
3B
  3
Thicken
350
36
  3
Wireframe
350
30
  3
X-Ray
350
3C
  0
XRECORD
  5
6D3
102
{ACAD_REACTORS
330
C
102
}
330
C
100
AcDbXrecord
280
     1
 90
        1
330
64
330
68
330
6A
  0
DICTIONARY
  5
6C3
102
{ACAD_REACTORS
330
C
102
}
330
C
100
AcDbDictionary
281
     1
  3
CANNOSCALE
350
6C9
  3
CMLEADERSTYLE
350
6C5
  3
CTABLESTYLE
350
6C4
  3
CVIEWDETAILSTYLE
350
6C6
  3
CVIEWSECTIONSTYLE
350
6C7
  3
LAYEREVAL
350
6CB
  3
LAYERNOTIFY
350
6CC
  3
LIGHTINGUNITS
350
6CA
  3
MSLTSCALE
350
6C8
  0
DICTIONARY
  5
1EE
102
{ACAD_REACTORS
330
C
102
}
330
C
100
AcDbDictionary
281
     1
  3
AcmStdDictionary
350
1F5
  0
DICTIONARY
  5
1C2
102
{ACAD_REACTORS
330
C
102
}
330
C
100
AcDbDictionary
281
     1
  0
DICTIONARY
  5
24D
102
{ACAD_REACTORS
330
C
102
}
330
C
100
AcDbDictionary
281
     1
  0
DICTIONARY
  5
243
102
{ACAD_REACTORS
330
242
102
}
330
242
100
AcDbDictionary
281
     1
  0
XRECORD
  5
6B5
102
{ACAD_REACTORS
330
6B4
102
}
330
6B4
100
AcDbXrecord
280
     1
290
     1
  0
XRECORD
  5
6B7
102
{ACAD_REACTORS
330
6B6
102
}
330
6B6
100
AcDbXrecord
280
     1
290
     1
  0
XRECORD
  5
6B9
102
{ACAD_REACTORS
330
6B8
102
}
330
6B8
100
AcDbXrecord
280
     1
290
     1
  0
XRECORD
  5
6BB
102
{ACAD_REACTORS
330
6BA
102
}
330
6BA
100
AcDbXrecord
280
     1
290
     1
  0
ACDBDETAILVIEWSTYLE
  5
6A
102
{ACAD_XDICTIONARY
360
6D1
102
}
102
{ACAD_REACTORS
330
69
330
222
102
}
330
69
100
AcDbModelDocViewStyle
 70
     0
  3
Imperial24
290
     0
100
AcDbDetailViewStyle
 70
     0
 71
     0
 90
        3
 71
     1
340
55
 62
   256
 40
0.24
340
0
 62
   256
 40
0.24
300

 40
0.36
280
     3
 71
     2
340
5C
 90
       25
 62
   256
 71
     3
340
55
 62
   256
 40
0.24
 90
        1
 40
0.75
 90
        1
300
%<\AcVar ViewType \f "%tc1">% %<\AcVar ViewDetailId>%\PSCALE %<\AcVar ViewScale \f "%sn">%
 71
     4
340
5C
 90
       25
 62
   256
340
5C
 90
       25
 62
   256
280
     0
  0
LAYOUT
  5
6E
102
{ACAD_REACTORS
330
61
102
}
330
61
100
AcDbPlotSettings
  1

  2
Microsoft Print to PDF
  4

  6

 40
0.0
 41
0.0
 42
0.0
 43
0.0
 44
0.0
 45
0.0
 46
0.0
 47
0.0
 48
0.0
 49
0.0
140
0.0
141
0.0
142
1.0
143
1.0
 70
   688
 72
     0
 73
     0
 74
     5
  7

 75
    16
147
1.0
 76
     0
 77
     2
 78
   300
148
0.0
149
0.0
100
AcDbLayout
  1
Layout1
 70
     1
 71
     1
 10
0.0
 20
0.0
 11
12.0
 21
9.0
 12
0.0
 22
0.0
 32
0.0
 14
1.000000000000000E+20
 24
1.000000000000000E+20
 34
1.000000000000000E+20
 15
-1.000000000000000E+20
 25
-1.000000000000000E+20
 35
-1.000000000000000E+20
146
0.0
 13
0.0
 23
0.0
 33
0.0
 16
1.0
 26
0.0
 36
0.0
 17
0.0
 27
1.0
 37
0.0
 76
     0
330
6B
  0
LAYOUT
  5
72
102
{ACAD_REACTORS
330
61
102
}
330
61
100
AcDbPlotSettings
  1

  2
Microsoft Print to PDF
  4

  6

 40
0.0
 41
0.0
 42
0.0
 43
0.0
 44
0.0
 45
0.0
 46
0.0
 47
0.0
 48
0.0
 49
0.0
140
0.0
141
0.0
142
1.0
143
1.0
 70
  1712
 72
     0
 73
     0
 74
     0
  7

 75
     0
147
1.0
 76
     0
 77
     2
 78
   300
148
0.0
149
0.0
100
AcDbLayout
  1
Model
 70
     1
 71
     0
 10
0.0
 20
0.0
 11
12.0
 21
9.0
 12
0.0
 22
0.0
 32
0.0
 14
0.0
 24
0.0
 34
0.0
 15
0.0
 25
0.0
 35
0.0
146
0.0
 13
0.0
 23
0.0
 33
0.0
 16
1.0
 26
0.0
 36
0.0
 17
0.0
 27
1.0
 37
0.0
 76
     0
330
6F
331
77
  0
MATERIAL
  5
19
102
{ACAD_XDICTIONARY
360
1A
102
}
102
{ACAD_REACTORS
330
10
102
}
330
10
100
AcDbMaterial
  1
ByBlock
 72
     0
 43
0.0208333333333333
 43
0.0
 43
0.0
 43
0.0
 43
0.0
 43
0.0208333333333333
 43
0.0
 43
0.0
 43
0.0
 43
0.0
 43
1.0
 43
0.0
 43
0.0
 43
0.0
 43
0.0
 43
1.0
 77
     0
 47
0.0208333333333333
 47
0.0
 47
0.0
 47
0.0
 47
0.0
 47
0.0208333333333333
 47
0.0
 47
0.0
 47
0.0
 47
0.0
 47
1.0
 47
0.0
 47
0.0
 47
0.0
 47
0.0
 47
1.0
171
     0
 49
0.0208333333333333
 49
0.0
 49
0.0
 49
0.0
 49
0.0
 49
0.0208333333333333
 49
0.0
 49
0.0
 49
0.0
 49
0.0
 49
1.0
 49
0.0
 49
0.0
 49
0.0
 49
0.0
 49
1.0
175
     0
142
0.0208333333333333
142
0.0
142
0.0
142
0.0
142
0.0
142
0.0208333333333333
142
0.0
142
0.0
142
0.0
142
0.0
142
1.0
142
0.0
142
0.0
142
0.0
142
0.0
142
1.0
179
     0
144
0.0208333333333333
144
0.0
144
0.0
144
0.0
144
0.0
144
0.0208333333333333
144
0.0
144
0.0
144
0.0
144
0.0
144
1.0
144
0.0
144
0.0
144
0.0
144
0.0
144
1.0
147
0.0208333333333333
147
0.0
147
0.0
147
0.0
147
0.0
147
0.0208333333333333
147
0.0
147
0.0
147
0.0
147
0.0
147
1.0
147
0.0
147
0.0
147
0.0
147
0.0
147
1.0
  0
MATERIAL
  5
11
102
{ACAD_XDICTIONARY
360
12
102
}
102
{ACAD_REACTORS
330
10
102
}
330
10
100
AcDbMaterial
  1
ByLayer
 72
     0
 43
0.0208333333333333
 43
0.0
 43
0.0
 43
0.0
 43
0.0
 43
0.0208333333333333
 43
0.0
 43
0.0
 43
0.0
 43
0.0
 43
1.0
 43
0.0
 43
0.0
 43
0.0
 43
0.0
 43
1.0
 77
     0
 47
0.0208333333333333
 47
0.0
 47
0.0
 47
0.0
 47
0.0
 47
0.0208333333333333
 47
0.0
 47
0.0
 47
0.0
 47
0.0
 47
1.0
 47
0.0
 47
0.0
 47
0.0
 47
0.0
 47
1.0
171
     0
 49
0.0208333333333333
 49
0.0
 49
0.0
 49
0.0
 49
0.0
 49
0.0208333333333333
 49
0.0
 49
0.0
 49
0.0
 49
0.0
 49
1.0
 49
0.0
 49
0.0
 49
0.0
 49
0.0
 49
1.0
175
     0
142
0.0208333333333333
142
0.0
142
0.0
142
0.0
142
0.0
142
0.0208333333333333
142
0.0
142
0.0
142
0.0
142
0.0
142
1.0
142
0.0
142
0.0
142
0.0
142
0.0
142
1.0
179
     0
144
0.0208333333333333
144
0.0
144
0.0
144
0.0
144
0.0
144
0.0208333333333333
144
0.0
144
0.0
144
0.0
144
0.0
144
1.0
144
0.0
144
0.0
144
0.0
144
0.0
144
1.0
147
0.0208333333333333
147
0.0
147
0.0
147
0.0
147
0.0
147
0.0208333333333333
147
0.0
147
0.0
147
0.0
147
0.0
147
1.0
147
0.0
147
0.0
147
0.0
147
0.0
147
1.0
  0
MATERIAL
  5
21
102
{ACAD_XDICTIONARY
360
22
102
}
102
{ACAD_REACTORS
330
10
102
}
330
10
100
AcDbMaterial
  1
Global
 72
     0
 43
0.0208333333333333
 43
0.0
 43
0.0
 43
0.0
 43
0.0
 43
0.0208333333333333
 43
0.0
 43
0.0
 43
0.0
 43
0.0
 43
1.0
 43
0.0
 43
0.0
 43
0.0
 43
0.0
 43
1.0
 77
     0
 47
0.0208333333333333
 47
0.0
 47
0.0
 47
0.0
 47
0.0
 47
0.0208333333333333
 47
0.0
 47
0.0
 47
0.0
 47
0.0
 47
1.0
 47
0.0
 47
0.0
 47
0.0
 47
0.0
 47
1.0
171
     0
 49
0.0208333333333333
 49
0.0
 49
0.0
 49
0.0
 49
0.0
 49
0.0208333333333333
 49
0.0
 49
0.0
 49
0.0
 49
0.0
 49
1.0
 49
0.0
 49
0.0
 49
0.0
 49
0.0
 49
1.0
175
     0
142
0.0208333333333333
142
0.0
142
0.0
142
0.0
142
0.0
142
0.0208333333333333
142
0.0
142
0.0
142
0.0
142
0.0
142
1.0
142
0.0
142
0.0
142
0.0
142
0.0
142
1.0
179
     0
144
0.0208333333333333
144
0.0
144
0.0
144
0.0
144
0.0
144
0.0208333333333333
144
0.0
144
0.0
144
0.0
144
0.0
144
1.0
144
0.0
144
0.0
144
0.0
144
0.0
144
1.0
147
0.0208333333333333
147
0.0
147
0.0
147
0.0
147
0.0
147
0.0208333333333333
147
0.0
147
0.0
147
0.0
147
0.0
147
1.0
147
0.0
147
0.0
147
0.0
147
0.0
147
1.0
  0
MLEADERSTYLE
  5
66
102
{ACAD_REACTORS
330
65
102
}
330
65
100
AcDbMLeaderStyle
179
     2
170
     2
171
     1
172
     0
 90
        2
 40
0.0
 41
0.0
173
     1
 91
-1056964608
340
5A
 92
       -2
290
     1
 42
0.09
291
     1
 43
0.36
  3
Standard
 44
0.18
300

342
55
174
     1
178
     6
175
     1
176
     0
 93
-1056964608
 45
0.18
292
     0
297
     0
 46
0.18
 94
-1056964608
 47
1.0
 49
1.0
140
1.0
293
     1
141
0.0
294
     1
177
     0
142
1.0
295
     0
296
     0
143
0.125
271
     0
272
     9
273
     9
298
     0
  0
MLINESTYLE
  5
5F
102
{ACAD_REACTORS
330
5E
102
}
330
5E
100
AcDbMlineStyle
  2
STANDARD
 70
     0
  3

 62
   256
 51
90.0
 52
90.0
 71
     2
 49
0.5
 62
   256
  6
BYLAYER
 49
-0.5
 62
   256
  6
BYLAYER
  0
ACDBPLACEHOLDER
  5
F
102
{ACAD_REACTORS
330
E
102
}
330
E
  0
SCALE
  5
43
102
{ACAD_REACTORS
330
42
102
}
330
42
100
AcDbScale
 70
     0
300
1:1
140
1.0
141
1.0
290
     1
  0
SCALE
  5
44
102
{ACAD_REACTORS
330
42
102
}
330
42
100
AcDbScale
 70
     0
300
1/128" = 1'-0"
140
0.0078125
141
12.0
290
     0
  0
SCALE
  5
45
102
{ACAD_REACTORS
330
42
102
}
330
42
100
AcDbScale
 70
     0
300
1/64" = 1'-0"
140
0.015625
141
12.0
290
     0
  0
SCALE
  5
46
102
{ACAD_REACTORS
330
42
102
}
330
42
100
AcDbScale
 70
     0
300
1/32" = 1'-0"
140
0.03125
141
12.0
290
     0
  0
SCALE
  5
47
102
{ACAD_REACTORS
330
42
102
}
330
42
100
AcDbScale
 70
     0
300
1/16" = 1'-0"
140
0.0625
141
12.0
290
     0
  0
SCALE
  5
48
102
{ACAD_REACTORS
330
42
102
}
330
42
100
AcDbScale
 70
     0
300
3/32" = 1'-0"
140
0.09375
141
12.0
290
     0
  0
SCALE
  5
49
102
{ACAD_REACTORS
330
42
102
}
330
42
100
AcDbScale
 70
     0
300
1/8" = 1'-0"
140
0.125
141
12.0
290
     0
  0
SCALE
  5
4A
102
{ACAD_REACTORS
330
42
102
}
330
42
100
AcDbScale
 70
     0
300
3/16" = 1'-0"
140
0.1875
141
12.0
290
     0
  0
SCALE
  5
4B
102
{ACAD_REACTORS
330
42
102
}
330
42
100
AcDbScale
 70
     0
300
1/4" = 1'-0"
140
0.25
141
12.0
290
     0
  0
SCALE
  5
4C
102
{ACAD_REACTORS
330
42
102
}
330
42
100
AcDbScale
 70
     0
300
3/8" = 1'-0"
140
0.375
141
12.0
290
     0
  0
SCALE
  5
4D
102
{ACAD_REACTORS
330
42
102
}
330
42
100
AcDbScale
 70
     0
300
1/2" = 1'-0"
140
0.5
141
12.0
290
     0
  0
SCALE
  5
4E
102
{ACAD_REACTORS
330
42
102
}
330
42
100
AcDbScale
 70
     0
300
3/4" = 1'-0"
140
0.75
141
12.0
290
     0
  0
SCALE
  5
4F
102
{ACAD_REACTORS
330
42
102
}
330
42
100
AcDbScale
 70
     0
300
1" = 1'-0"
140
1.0
141
12.0
290
     0
  0
SCALE
  5
50
102
{ACAD_REACTORS
330
42
102
}
330
42
100
AcDbScale
 70
     0
300
1-1/2" = 1'-0"
140
1.5
141
12.0
290
     0
  0
SCALE
  5
51
102
{ACAD_REACTORS
330
42
102
}
330
42
100
AcDbScale
 70
     0
300
3" = 1'-0"
140
3.0
141
12.0
290
     0
  0
SCALE
  5
52
102
{ACAD_REACTORS
330
42
102
}
330
42
100
AcDbScale
 70
     0
300
6" = 1'-0"
140
6.0
141
12.0
290
     0
  0
SCALE
  5
53
102
{ACAD_REACTORS
330
42
102
}
330
42
100
AcDbScale
 70
     0
300
1'-0" = 1'-0"
140
12.0
141
12.0
290
     0
  0
ACDBSECTIONVIEWSTYLE
  5
68
102
{ACAD_XDICTIONARY
360
6CF
102
}
102
{ACAD_REACTORS
330
67
330
221
102
}
330
67
100
AcDbModelDocViewStyle
 70
     0
  3
Imperial24
290
     0
100
AcDbSectionViewStyle
 70
     0
 71
     0
 90
       78
 71
     1
340
55
 62
   256
 40
0.24
340
0
340
0
 62
   256
 40
0.24
300
I, O, Q, S, X, Z
 40
0.48
 90
        3
 40
0.18
 90
        1
 71
     2
340
5C
 90
       25
 62
   256
340
5C
 90
       50
 62
   256
 40
0.24
 40
0.0
 40
0.24
 71
     3
340
55
 62
   256
 40
0.24
 90
        1
 40
0.75
 90
        1
300
%<\AcVar ViewType \f "%tc1">% %<\AcVar ViewSectionStartId>%-%<\AcVar ViewSectionEndId>%\PSCALE %<\AcVar ViewScale \f "%sn">%
 71
     4
 62
   256
 62
   257
300
ANSI31
 40
1.0
 90
        0
290
     0
290
     0
 90
        6
 40
0.0
 40
1.570796326794896
 40
0.2617993877991494
 40
1.308996938995747
 40
-0.2617993877991494
 40
1.832595714594046
  0
TABLESTYLE
  5
64
102
{ACAD_XDICTIONARY
360
6CD
102
}
102
{ACAD_REACTORS
330
63
102
}
330
63
100
AcDbTableStyle
280
     0
  3
Standard
 70
     0
 71
     0
 40
0.06
 41
0.06
280
     0
281
     0
  7
Standard
140
0.18
170
     2
 62
     0
 63
     7
283
     0
 90
      512
 91
        0
  1

274
    -2
284
     1
 64
     0
275
    -2
285
     1
 65
     0
276
    -2
286
     1
 66
     0
277
    -2
287
     1
 67
     0
278
    -2
288
     1
 68
     0
279
    -2
289
     1
 69
     0
  7
Standard
140
0.25
170
     5
 62
     0
 63
     7
283
     0
 90
      512
 91
        0
  1

274
    -2
284
     1
 64
     0
275
    -2
285
     1
 65
     0
276
    -2
286
     1
 66
     0
277
    -2
287
     1
 67
     0
278
    -2
288
     1
 68
     0
279
    -2
289
     1
 69
     0
  7
Standard
140
0.18
170
     5
 62
     0
 63
     7
283
     0
 90
      512
 91
        0
  1

274
    -2
284
     1
 64
     0
275
    -2
285
     1
 65
     0
276
    -2
286
     1
 66
     0
277
    -2
287
     1
 67
     0
278
    -2
288
     1
 68
     0
279
    -2
289
     1
 69
     0
  0
VISUALSTYLE
  5
2F
102
{ACAD_REACTORS
330
29
102
}
330
29
100
AcDbVisualStyle
  2
2dWireframe
 70
     4
177
     3
291
     0
 70
    58
 90
        0
176
     1
 90
        2
176
     1
 90
        0
176
     1
 90
        0
176
     1
 40
0.6
176
     1
 40
30.0
176
     1
 62
     7
420
 16777215
176
     1
 90
        1
176
     1
 90
        4
176
     1
 62
     7
176
     1
 62
   257
176
     1
 90
        1
176
     1
 90
        1
176
     1
 40
1.0
176
     1
 90
        0
176
     1
 62
   257
176
     1
 40
1.0
176
     1
 90
        1
176
     1
 90
        6
176
     1
 90
        2
176
     1
 62
     7
176
     1
 90
        5
176
     1
 90
        0
176
     1
 90
        0
176
     1
290
     0
176
     1
 90
        1
176
     1
 40
0.0
176
     1
 90
        0
176
     1
290
     1
176
     1
290
     1
176
     1
290
     0
176
     1
290
     0
176
     1
290
     0
176
     1
290
     0
176
     1
290
     0
176
     1
290
     0
176
     1
290
     0
176
     1
 90
       50
176
     1
 40
0.0
176
     1
 40
1.0
176
     1
 90
        0
176
     1
 62
    18
420
        0
176
     1
 90
       50
176
     1
 90
        3
176
     1
 62
     5
420
      255
176
     1
290
     0
176
     1
 90
       50
176
     1
 90
       50
176
     1
 90
       50
176
     1
290
     0
176
     1
 90
       50
176
     1
 62
   256
176
     0
 40
1.0
176
     0
 90
        2
176
     1
  1
strokes_ogs.tif
176
     1
290
     0
176
     1
 40
1.0
176
     1
 40
1.0
176
     1
  0
VISUALSTYLE
  5
2E
102
{ACAD_REACTORS
330
29
102
}
330
29
100
AcDbVisualStyle
  2
Basic
 70
     7
177
     3
291
     1
 70
    58
 90
        1
176
     1
 90
        0
176
     1
 90
        1
176
     1
 90
        0
176
     1
 40
0.6
176
     1
 40
30.0
176
     1
 62
     7
420
 16777215
176
     1
 90
        0
176
     1
 90
        4
176
     1
 62
     7
176
     1
 62
   257
176
     1
 90
        1
176
     1
 90
        1
176
     1
 40
1.0
176
     1
 90
        8
176
     1
 62
     7
176
     1
 40
1.0
176
     1
 90
        1
176
     1
 90
        6
176
     1
 90
        2
176
     1
 62
     7
176
     1
 90
        5
176
     1
 90
        0
176
     1
 90
        0
176
     1
290
     0
176
     1
 90
        1
176
     1
 40
0.0
176
     1
 90
        0
176
     1
290
     0
176
     1
290
     1
176
     1
290
     1
176
     1
290
     0
176
     1
290
     0
176
     1
290
     0
176
     1
290
     0
176
     1
290
     0
176
     1
290
     0
176
     1
 90
       50
176
     1
 40
0.0
176
     1
 40
1.0
176
     1
 90
        0
176
     1
 62
    18
420
        0
176
     1
 90
       50
176
     1
 90
        3
176
     1
 62
     5
420
      255
176
     1
290
     0
176
     1
 90
       50
176
     1
 90
       50
176
     1
 90
       50
176
     1
290
     0
176
     1
 90
       50
176
     1
 62
   256
176
     0
 40
1.0
176
     0
 90
        2
176
     1
  1
strokes_ogs.tif
176
     1
290
     0
176
     1
 40
1.0
176
     1
 40
1.0
176
     1
  0
VISUALSTYLE
  5
35
102
{ACAD_REACTORS
330
29
102
}
330
29
100
AcDbVisualStyle
  2
Brighten
 70
    12
177
     3
291
     1
 70
    58
 90
        2
176
     1
 90
        2
176
     1
 90
        0
176
     1
 90
        0
176
     1
 40
0.6
176
     1
 40
30.0
176
     1
 62
     7
420
 16777215
176
     1
 90
        1
176
     1
 90
        4
176
     1
 62
     7
176
     1
 62
   257
176
     1
 90
        1
176
     1
 90
        1
176
     1
 40
1.0
176
     1
 90
        8
176
     1
 62
     7
176
     1
 40
1.0
176
     1
 90
        1
176
     1
 90
        6
176
     1
 90
        2
176
     1
 62
     7
176
     1
 90
        5
176
     1
 90
        0
176
     1
 90
        0
176
     1
290
     0
176
     1
 90
        1
176
     1
 40
50.0
176
     1
 90
        0
176
     1
290
     0
176
     1
290
     1
176
     1
290
     1
176
     1
290
     0
176
     1
290
     0
176
     1
290
     0
176
     1
290
     0
176
     1
290
     0
176
     1
290
     0
176
     1
 90
       50
176
     1
 40
0.0
176
     1
 40
1.0
176
     1
 90
        0
176
     1
 62
    18
420
        0
176
     1
 90
       50
176
     1
 90
        3
176
     1
 62
     5
420
      255
176
     1
290
     0
176
     1
 90
       50
176
     1
 90
       50
176
     1
 90
       50
176
     1
290
     0
176
     1
 90
       50
176
     1
 62
   256
176
     0
 40
1.0
176
     0
 90
        2
176
     1
  1
strokes_ogs.tif
176
     1
290
     0
176
     1
 40
1.0
176
     1
 40
1.0
176
     1
  0
VISUALSTYLE
  5
39
102
{ACAD_REACTORS
330
29
102
}
330
29
100
AcDbVisualStyle
  2
ColorChange
 70
    16
177
     3
291
     1
 70
    58
 90
        2
176
     1
 90
        2
176
     1
 90
        3
176
     1
 90
        0
176
     1
 40
0.6
176
     1
 40
30.0
176
     1
 62
     8
420
  8421504
176
     1
 90
        1
176
     1
 90
        4
176
     1
 62
     7
176
     1
 62
   257
176
     1
 90
        1
176
     1
 90
        1
176
     1
 40
1.0
176
     1
 90
        8
176
     1
 62
     8
420
  8421504
176
     1
 40
1.0
176
     1
 90
        1
176
     1
 90
        6
176
     1
 90
        2
176
     1
 62
     7
176
     1
 90
        5
176
     1
 90
        0
176
     1
 90
        0
176
     1
290
     0
176
     1
 90
        1
176
     1
 40
0.0
176
     1
 90
        0
176
     1
290
     0
176
     1
290
     1
176
     1
290
     1
176
     1
290
     0
176
     1
290
     0
176
     1
290
     0
176
     1
290
     0
176
     1
290
     0
176
     1
290
     0
176
     1
 90
       50
176
     1
 40
0.0
176
     1
 40
1.0
176
     1
 90
        0
176
     1
 62
    18
420
        0
176
     1
 90
       50
176
     1
 90
        3
176
     1
 62
     5
420
      255
176
     1
290
     0
176
     1
 90
       50
176
     1
 90
       50
176
     1
 90
       50
176
     1
290
     0
176
     1
 90
       50
176
     1
 62
   256
176
     0
 40
1.0
176
     0
 90
        2
176
     1
  1
strokes_ogs.tif
176
     1
290
     0
176
     1
 40
1.0
176
     1
 40
1.0
176
     1
  0
VISUALSTYLE
  5
32
102
{ACAD_REACTORS
330
29
102
}
330
29
100
AcDbVisualStyle
  2
Conceptual
 70
     9
177
     3
291
     0
 70
    58
 90
        3
176
     1
 90
        2
176
     1
 90
        0
176
     1
 90
        0
176
     1
 40
0.6
176
     1
 40
30.0
176
     1
 62
     7
420
 16777215
176
     1
 90
        2
176
     1
 90
        2
176
     1
 62
     7
176
     1
 62
   257
176
     1
 90
        1
176
     1
 90
        1
176
     1
 40
179.0
176
     1
 90
        8
176
     1
 62
     7
176
     1
 40
1.0
176
     1
 90
        1
176
     1
 90
        6
176
     1
 90
        2
176
     1
 62
     7
176
     1
 90
        3
176
     1
 90
        0
176
     1
 90
        0
176
     1
290
     0
176
     1
 90
        1
176
     1
 40
0.0
176
     1
 90
        0
176
     1
290
     0
176
     1
290
     1
176
     1
290
     1
176
     1
290
     0
176
     1
290
     0
176
     1
290
     0
176
     1
290
     0
176
     1
290
     0
176
     1
290
     0
176
     1
 90
       50
176
     1
 40
0.0
176
     1
 40
1.0
176
     1
 90
        0
176
     1
 62
    18
420
        0
176
     1
 90
       50
176
     1
 90
        3
176
     1
 62
     5
420
      255
176
     1
290
     0
176
     1
 90
       50
176
     1
 90
       50
176
     1
 90
       50
176
     1
290
     0
176
     1
 90
       50
176
     1
 62
   256
176
     0
 40
1.0
176
     0
 90
        2
176
     1
  1
strokes_ogs.tif
176
     1
290
     0
176
     1
 40
1.0
176
     1
 40
1.0
176
     1
  0
VISUALSTYLE
  5
34
102
{ACAD_REACTORS
330
29
102
}
330
29
100
AcDbVisualStyle
  2
Dim
 70
    11
177
     3
291
     1
 70
    58
 90
        2
176
     1
 90
        2
176
     1
 90
        0
176
     1
 90
        0
176
     1
 40
0.6
176
     1
 40
30.0
176
     1
 62
     7
420
 16777215
176
     1
 90
        1
176
     1
 90
        4
176
     1
 62
     7
176
     1
 62
   257
176
     1
 90
        1
176
     1
 90
        1
176
     1
 40
1.0
176
     1
 90
        8
176
     1
 62
     7
176
     1
 40
1.0
176
     1
 90
        1
176
     1
 90
        6
176
     1
 90
        2
176
     1
 62
     7
176
     1
 90
        5
176
     1
 90
        0
176
     1
 90
        0
176
     1
290
     0
176
     1
 90
        1
176
     1
 40
-50.0
176
     1
 90
        0
176
     1
290
     0
176
     1
290
     1
176
     1
290
     1
176
     1
290
     0
176
     1
290
     0
176
     1
290
     0
176
     1
290
     0
176
     1
290
     0
176
     1
290
     0
176
     1
 90
       50
176
     1
 40
0.0
176
     1
 40
1.0
176
     1
 90
        0
176
     1
 62
    18
420
        0
176
     1
 90
       50
176
     1
 90
        3
176
     1
 62
     5
420
      255
176
     1
290
     0
176
     1
 90
       50
176
     1
 90
       50
176
     1
 90
       50
176
     1
290
     0
176
     1
 90
       50
176
     1
 62
   256
176
     0
 40
1.0
176
     0
 90
        2
176
     1
  1
strokes_ogs.tif
176
     1
290
     0
176
     1
 40
1.0
176
     1
 40
1.0
176
     1
  0
VISUALSTYLE
  5
41
102
{ACAD_REACTORS
330
29
102
}
330
29
100
AcDbVisualStyle
  2
EdgeColorOff
 70
    22
177
     3
291
     1
 70
    58
 90
        2
176
     0
 90
        2
176
     0
 90
        0
176
     0
 90
        0
176
     0
 40
0.6
176
     0
 40
30.0
176
     0
 62
     7
420
 16777215
176
     0
 90
        1
176
     0
 90
        4
176
     0
 62
     7
176
     0
 62
   257
176
     0
 90
        1
176
     0
 90
        1
176
     0
 40
1.0
176
     0
 90
        8
176
     2
 62
     7
176
     0
 40
1.0
176
     0
 90
        1
176
     0
 90
        6
176
     0
 90
        2
176
     0
 62
     7
176
     0
 90
        5
176
     0
 90
        0
176
     0
 90
        0
176
     0
290
     0
176
     0
 90
        1
176
     0
 40
0.0
176
     0
 90
        0
176
     0
290
     0
176
     1
290
     1
176
     1
290
     1
176
     1
290
     0
176
     1
290
     0
176
     1
290
     0
176
     1
290
     0
176
     1
290
     0
176
     1
290
     0
176
     1
 90
       50
176
     0
 40
0.0
176
     0
 40
1.0
176
     0
 90
        0
176
     0
 62
    18
420
        0
176
     0
 90
       50
176
     0
 90
        3
176
     0
 62
     5
420
      255
176
     0
290
     0
176
     1
 90
       50
176
     0
 90
       50
176
     0
 90
       50
176
     0
290
     0
176
     1
 90
       50
176
     0
 62
   256
176
     0
 40
1.0
176
     0
 90
        2
176
     0
  1
strokes_ogs.tif
176
     0
290
     0
176
     1
 40
1.0
176
     0
 40
1.0
176
     0
  0
VISUALSTYLE
  5
38
102
{ACAD_REACTORS
330
29
102
}
330
29
100
AcDbVisualStyle
  2
Facepattern
 70
    15
177
     3
291
     1
 70
    58
 90
        2
176
     1
 90
        2
176
     1
 90
        0
176
     1
 90
        0
176
     1
 40
0.6
176
     1
 40
30.0
176
     1
 62
     7
420
 16777215
176
     1
 90
        1
176
     1
 90
        4
176
     1
 62
     7
176
     1
 62
   257
176
     1
 90
        1
176
     1
 90
        1
176
     1
 40
1.0
176
     1
 90
        8
176
     1
 62
     7
176
     1
 40
1.0
176
     1
 90
        1
176
     1
 90
        6
176
     1
 90
        2
176
     1
 62
     7
176
     1
 90
        5
176
     1
 90
        0
176
     1
 90
        0
176
     1
290
     0
176
     1
 90
        1
176
     1
 40
0.0
176
     1
 90
        0
176
     1
290
     0
176
     1
290
     1
176
     1
290
     1
176
     1
290
     0
176
     1
290
     0
176
     1
290
     0
176
     1
290
     0
176
     1
290
     0
176
     1
290
     0
176
     1
 90
       50
176
     1
 40
0.0
176
     1
 40
1.0
176
     1
 90
        0
176
     1
 62
    18
420
        0
176
     1
 90
       50
176
     1
 90
        3
176
     1
 62
     5
420
      255
176
     1
290
     0
176
     1
 90
       50
176
     1
 90
       50
176
     1
 90
       50
176
     1
290
     0
176
     1
 90
       50
176
     1
 62
   256
176
     0
 40
1.0
176
     0
 90
        2
176
     1
  1
strokes_ogs.tif
176
     1
290
     0
176
     1
 40
1.0
176
     1
 40
1.0
176
     1
  0
VISUALSTYLE
  5
2A
102
{ACAD_REACTORS
330
29
102
}
330
29
100
AcDbVisualStyle
  2
Flat
 70
     0
177
     3
291
     1
 70
    58
 90
        2
176
     1
 90
        1
176
     1
 90
        1
176
     1
 90
        2
176
     1
 40
0.6
176
     1
 40
30.0
176
     1
 62
     7
420
 16777215
176
     1
 90
        0
176
     1
 90
        0
176
     1
 62
     7
176
     1
 62
   257
176
     1
 90
        1
176
     1
 90
        1
176
     1
 40
1.0
176
     1
 90
        8
176
     1
 62
     7
176
     1
 40
1.0
176
     1
 90
        1
176
     1
 90
        6
176
     1
 90
        2
176
     1
 62
     7
176
     1
 90
        5
176
     1
 90
        0
176
     1
 90
        0
176
     1
290
     0
176
     1
 90
       13
176
     1
 40
0.0
176
     1
 90
        0
176
     1
290
     0
176
     1
290
     1
176
     1
290
     1
176
     1
290
     0
176
     1
290
     0
176
     1
290
     0
176
     1
290
     0
176
     1
290
     0
176
     1
290
     0
176
     1
 90
       50
176
     1
 40
0.0
176
     1
 40
1.0
176
     1
 90
        0
176
     1
 62
    18
420
        0
176
     1
 90
       50
176
     1
 90
        3
176
     1
 62
     5
420
      255
176
     1
290
     0
176
     1
 90
       50
176
     1
 90
       50
176
     1
 90
       50
176
     1
290
     0
176
     1
 90
       50
176
     1
 62
   256
176
     0
 40
1.0
176
     0
 90
        2
176
     1
  1
strokes_ogs.tif
176
     1
290
     0
176
     1
 40
1.0
176
     1
 40
1.0
176
     1
  0
VISUALSTYLE
  5
2B
102
{ACAD_REACTORS
330
29
102
}
330
29
100
AcDbVisualStyle
  2
FlatWithEdges
 70
     1
177
     3
291
     1
 70
    58
 90
        2
176
     1
 90
        1
176
     1
 90
        1
176
     1
 90
        2
176
     1
 40
0.6
176
     1
 40
30.0
176
     1
 62
     7
420
 16777215
176
     1
 90
        1
176
     1
 90
        0
176
     1
 62
     7
176
     1
 62
   257
176
     1
 90
        1
176
     1
 90
        1
176
     1
 40
1.0
176
     1
 90
        0
176
     1
 62
   257
176
     1
 40
1.0
176
     1
 90
        1
176
     1
 90
        6
176
     1
 90
        2
176
     1
 62
     7
176
     1
 90
        5
176
     1
 90
        0
176
     1
 90
        0
176
     1
290
     0
176
     1
 90
       13
176
     1
 40
0.0
176
     1
 90
        0
176
     1
290
     0
176
     1
290
     1
176
     1
290
     1
176
     1
290
     0
176
     1
290
     0
176
     1
290
     0
176
     1
290
     0
176
     1
290
     0
176
     1
290
     0
176
     1
 90
       50
176
     1
 40
0.0
176
     1
 40
1.0
176
     1
 90
        0
176
     1
 62
    18
420
        0
176
     1
 90
       50
176
     1
 90
        3
176
     1
 62
     5
420
      255
176
     1
290
     0
176
     1
 90
       50
176
     1
 90
       50
176
     1
 90
       50
176
     1
290
     0
176
     1
 90
       50
176
     1
 62
   256
176
     0
 40
1.0
176
     0
 90
        2
176
     1
  1
strokes_ogs.tif
176
     1
290
     0
176
     1
 40
1.0
176
     1
 40
1.0
176
     1
  0
VISUALSTYLE
  5
2C
102
{ACAD_REACTORS
330
29
102
}
330
29
100
AcDbVisualStyle
  2
Gouraud
 70
     2
177
     3
291
     1
 70
    58
 90
        2
176
     1
 90
        2
176
     1
 90
        1
176
     1
 90
        2
176
     1
 40
0.6
176
     1
 40
30.0
176
     1
 62
     7
420
 16777215
176
     1
 90
        0
176
     1
 90
        0
176
     1
 62
     7
176
     1
 62
   257
176
     1
 90
        1
176
     1
 90
        1
176
     1
 40
1.0
176
     1
 90
        0
176
     1
 62
     7
176
     1
 40
1.0
176
     1
 90
        1
176
     1
 90
        6
176
     1
 90
        2
176
     1
 62
     7
176
     1
 90
        5
176
     1
 90
        0
176
     1
 90
        0
176
     1
290
     0
176
     1
 90
       13
176
     1
 40
0.0
176
     1
 90
        0
176
     1
290
     0
176
     1
290
     1
176
     1
290
     1
176
     1
290
     0
176
     1
290
     0
176
     1
290
     0
176
     1
290
     0
176
     1
290
     0
176
     1
290
     0
176
     1
 90
       50
176
     1
 40
0.0
176
     1
 40
1.0
176
     1
 90
        0
176
     1
 62
    18
420
        0
176
     1
 90
       50
176
     1
 90
        3
176
     1
 62
     5
420
      255
176
     1
290
     0
176
     1
 90
       50
176
     1
 90
       50
176
     1
 90
       50
176
     1
290
     0
176
     1
 90
       50
176
     1
 62
   256
176
     0
 40
1.0
176
     0
 90
        2
176
     1
  1
strokes_ogs.tif
176
     1
290
     0
176
     1
 40
1.0
176
     1
 40
1.0
176
     1
  0
VISUALSTYLE
  5
2D
102
{ACAD_REACTORS
330
29
102
}
330
29
100
AcDbVisualStyle
  2
GouraudWithEdges
 70
     3
177
     3
291
     1
 70
    58
 90
        2
176
     1
 90
        2
176
     1
 90
        1
176
     1
 90
        2
176
     1
 40
0.6
176
     1
 40
30.0
176
     1
 62
     7
420
 16777215
176
     1
 90
        1
176
     1
 90
        0
176
     1
 62
     7
176
     1
 62
   257
176
     1
 90
        1
176
     1
 90
        1
176
     1
 40
1.0
176
     1
 90
        0
176
     1
 62
   257
176
     1
 40
1.0
176
     1
 90
        1
176
     1
 90
        6
176
     1
 90
        2
176
     1
 62
     7
176
     1
 90
        5
176
     1
 90
        0
176
     1
 90
        0
176
     1
290
     0
176
     1
 90
       13
176
     1
 40
0.0
176
     1
 90
        0
176
     1
290
     0
176
     1
290
     1
176
     1
290
     1
176
     1
290
     0
176
     1
290
     0
176
     1
290
     0
176
     1
290
     0
176
     1
290
     0
176
     1
290
     0
176
     1
 90
       50
176
     1
 40
0.0
176
     1
 40
1.0
176
     1
 90
        0
176
     1
 62
    18
420
        0
176
     1
 90
       50
176
     1
 90
        3
176
     1
 62
     5
420
      255
176
     1
290
     0
176
     1
 90
       50
176
     1
 90
       50
176
     1
 90
       50
176
     1
290
     0
176
     1
 90
       50
176
     1
 62
   256
176
     0
 40
1.0
176
     0
 90
        2
176
     1
  1
strokes_ogs.tif
176
     1
290
     0
176
     1
 40
1.0
176
     1
 40
1.0
176
     1
  0
VISUALSTYLE
  5
31
102
{ACAD_REACTORS
330
29
102
}
330
29
100
AcDbVisualStyle
  2
Hidden
 70
     6
177
     3
291
     0
 70
    58
 90
        1
176
     1
 90
        2
176
     1
 90
        2
176
     1
 90
        0
176
     1
 40
0.6
176
     1
 40
30.0
176
     1
 62
     7
420
 16777215
176
     1
 90
        2
176
     1
 90
        2
176
     1
 62
     7
176
     1
 62
   257
176
     1
 90
        2
176
     1
 90
        1
176
     1
 40
40.0
176
     1
 90
        0
176
     1
 62
   257
176
     1
 40
1.0
176
     1
 90
        1
176
     1
 90
        6
176
     1
 90
        2
176
     1
 62
     7
176
     1
 90
        3
176
     1
 90
        0
176
     1
 90
        0
176
     1
290
     0
176
     1
 90
        1
176
     1
 40
0.0
176
     1
 90
        0
176
     1
290
     0
176
     1
290
     1
176
     1
290
     1
176
     1
290
     0
176
     1
290
     0
176
     1
290
     0
176
     1
290
     0
176
     1
290
     0
176
     1
290
     0
176
     1
 90
       50
176
     1
 40
0.0
176
     1
 40
1.0
176
     1
 90
        0
176
     1
 62
    18
420
        0
176
     1
 90
       50
176
     1
 90
        3
176
     1
 62
     5
420
      255
176
     1
290
     0
176
     1
 90
       50
176
     1
 90
       50
176
     1
 90
       50
176
     1
290
     0
176
     1
 90
       50
176
     1
 62
   256
176
     0
 40
1.0
176
     0
 90
        2
176
     1
  1
strokes_ogs.tif
176
     1
290
     0
176
     1
 40
1.0
176
     1
 40
1.0
176
     1
  0
VISUALSTYLE
  5
3F
102
{ACAD_REACTORS
330
29
102
}
330
29
100
AcDbVisualStyle
  2
JitterOff
 70
    20
177
     3
291
     1
 70
    58
 90
        2
176
     0
 90
        2
176
     0
 90
        0
176
     0
 90
        0
176
     0
 40
0.6
176
     0
 40
30.0
176
     0
 62
     7
420
 16777215
176
     0
 90
        1
176
     0
 90
        4
176
     0
 62
     7
176
     0
 62
   257
176
     0
 90
        1
176
     0
 90
        1
176
     0
 40
1.0
176
     0
 90
       10
176
     2
 62
     7
176
     0
 40
1.0
176
     0
 90
        1
176
     0
 90
        6
176
     0
 90
        2
176
     0
 62
     7
176
     0
 90
        5
176
     0
 90
        0
176
     0
 90
        0
176
     0
290
     0
176
     0
 90
        1
176
     0
 40
0.0
176
     0
 90
        0
176
     0
290
     0
176
     1
290
     1
176
     1
290
     1
176
     1
290
     0
176
     1
290
     0
176
     1
290
     0
176
     1
290
     0
176
     1
290
     0
176
     1
290
     0
176
     1
 90
       50
176
     0
 40
0.0
176
     0
 40
1.0
176
     0
 90
        0
176
     0
 62
    18
420
        0
176
     0
 90
       50
176
     0
 90
        3
176
     0
 62
     5
420
      255
176
     0
290
     0
176
     1
 90
       50
176
     0
 90
       50
176
     0
 90
       50
176
     0
290
     0
176
     1
 90
       50
176
     0
 62
   256
176
     0
 40
1.0
176
     0
 90
        2
176
     0
  1
strokes_ogs.tif
176
     0
290
     0
176
     1
 40
1.0
176
     0
 40
1.0
176
     0
  0
VISUALSTYLE
  5
37
102
{ACAD_REACTORS
330
29
102
}
330
29
100
AcDbVisualStyle
  2
Linepattern
 70
    14
177
     3
291
     1
 70
    58
 90
        2
176
     1
 90
        2
176
     1
 90
        0
176
     1
 90
        0
176
     1
 40
0.6
176
     1
 40
30.0
176
     1
 62
     7
420
 16777215
176
     1
 90
        1
176
     1
 90
        4
176
     1
 62
     7
176
     1
 62
   257
176
     1
 90
        7
176
     1
 90
        7
176
     1
 40
1.0
176
     1
 90
        8
176
     1
 62
     7
176
     1
 40
1.0
176
     1
 90
        1
176
     1
 90
        6
176
     1
 90
        2
176
     1
 62
     7
176
     1
 90
        5
176
     1
 90
        0
176
     1
 90
        0
176
     1
290
     0
176
     1
 90
        1
176
     1
 40
0.0
176
     1
 90
        0
176
     1
290
     0
176
     1
290
     1
176
     1
290
     1
176
     1
290
     0
176
     1
290
     0
176
     1
290
     0
176
     1
290
     0
176
     1
290
     0
176
     1
290
     0
176
     1
 90
       50
176
     1
 40
0.0
176
     1
 40
1.0
176
     1
 90
        0
176
     1
 62
    18
420
        0
176
     1
 90
       50
176
     1
 90
        3
176
     1
 62
     5
420
      255
176
     1
290
     0
176
     1
 90
       50
176
     1
 90
       50
176
     1
 90
       50
176
     1
290
     0
176
     1
 90
       50
176
     1
 62
   256
176
     0
 40
1.0
176
     0
 90
        2
176
     1
  1
strokes_ogs.tif
176
     1
290
     0
176
     1
 40
1.0
176
     1
 40
1.0
176
     1
  0
VISUALSTYLE
  5
40
102
{ACAD_REACTORS
330
29
102
}
330
29
100
AcDbVisualStyle
  2
OverhangOff
 70
    21
177
     3
291
     1
 70
    58
 90
        2
176
     0
 90
        2
176
     0
 90
        0
176
     0
 90
        0
176
     0
 40
0.6
176
     0
 40
30.0
176
     0
 62
     7
420
 16777215
176
     0
 90
        1
176
     0
 90
        4
176
     0
 62
     7
176
     0
 62
   257
176
     0
 90
        1
176
     0
 90
        1
176
     0
 40
1.0
176
     0
 90
        9
176
     2
 62
     7
176
     0
 40
1.0
176
     0
 90
        1
176
     0
 90
        6
176
     0
 90
        2
176
     0
 62
     7
176
     0
 90
        5
176
     0
 90
        0
176
     0
 90
        0
176
     0
290
     0
176
     0
 90
        1
176
     0
 40
0.0
176
     0
 90
        0
176
     0
290
     0
176
     1
290
     1
176
     1
290
     1
176
     1
290
     0
176
     1
290
     0
176
     1
290
     0
176
     1
290
     0
176
     1
290
     0
176
     1
290
     0
176
     1
 90
       50
176
     0
 40
0.0
176
     0
 40
1.0
176
     0
 90
        0
176
     0
 62
    18
420
        0
176
     0
 90
       50
176
     0
 90
        3
176
     0
 62
     5
420
      255
176
     0
290
     0
176
     1
 90
       50
176
     0
 90
       50
176
     0
 90
       50
176
     0
290
     0
176
     1
 90
       50
176
     0
 62
   256
176
     0
 40
1.0
176
     0
 90
        2
176
     0
  1
strokes_ogs.tif
176
     0
290
     0
176
     1
 40
1.0
176
     0
 40
1.0
176
     0
  0
VISUALSTYLE
  5
33
102
{ACAD_REACTORS
330
29
102
}
330
29
100
AcDbVisualStyle
  2
Realistic
 70
     8
177
     3
291
     0
 70
    58
 90
        2
176
     1
 90
        3
176
     1
 90
        0
176
     1
 90
        2
176
     1
 40
0.6
176
     1
 40
30.0
176
     1
 62
     7
420
 16777215
176
     1
 90
        0
176
     1
 90
        0
176
     1
 62
     7
176
     1
 62
   257
176
     1
 90
        1
176
     1
 90
        1
176
     1
 40
1.0
176
     1
 90
        8
176
     1
 62
   257
176
     1
 40
1.0
176
     1
 90
        1
176
     1
 90
        6
176
     1
 90
        2
176
     1
 62
     7
176
     1
 90
        3
176
     1
 90
        0
176
     1
 90
        0
176
     1
290
     0
176
     1
 90
       13
176
     1
 40
0.0
176
     1
 90
        0
176
     1
290
     0
176
     1
290
     1
176
     1
290
     1
176
     1
290
     0
176
     1
290
     0
176
     1
290
     0
176
     1
290
     0
176
     1
290
     0
176
     1
290
     0
176
     1
 90
       50
176
     1
 40
0.0
176
     1
 40
1.0
176
     1
 90
        0
176
     1
 62
    18
420
        0
176
     1
 90
       50
176
     1
 90
        3
176
     1
 62
     5
420
      255
176
     1
290
     0
176
     1
 90
       50
176
     1
 90
       50
176
     1
 90
       50
176
     1
290
     0
176
     1
 90
       50
176
     1
 62
   256
176
     0
 40
1.0
176
     0
 90
        2
176
     1
  1
strokes_ogs.tif
176
     1
290
     0
176
     1
 40
1.0
176
     1
 40
1.0
176
     1
  0
VISUALSTYLE
  5
3E
102
{ACAD_REACTORS
330
29
102
}
330
29
100
AcDbVisualStyle
  2
Shaded
 70
    27
177
     3
291
     0
 70
    58
 90
        2
176
     1
 90
        2
176
     1
 90
        1
176
     1
 90
        2
176
     1
 40
0.6
176
     1
 40
30.0
176
     1
 62
     7
420
 16777215
176
     1
 90
        0
176
     1
 90
        4
176
     1
 62
     7
176
     1
 62
   257
176
     1
 90
        1
176
     1
 90
        1
176
     1
 40
1.0
176
     1
 90
        8
176
     1
 62
   257
176
     1
 40
1.0
176
     1
 90
        1
176
     1
 90
        6
176
     1
 90
        2
176
     1
 62
     8
420
  7895160
176
     1
 90
        3
176
     1
 90
        0
176
     1
 90
        0
176
     1
290
     0
176
     1
 90
        5
176
     1
 40
0.0
176
     1
 90
        0
176
     1
290
     0
176
     1
290
     1
176
     1
290
     1
176
     1
290
     0
176
     1
290
     0
176
     1
290
     0
176
     1
290
     0
176
     1
290
     0
176
     1
290
     0
176
     1
 90
       50
176
     1
 40
0.0
176
     1
 40
1.0
176
     1
 90
        0
176
     1
 62
    18
420
        0
176
     1
 90
       50
176
     1
 90
        3
176
     1
 62
     5
420
      255
176
     1
290
     0
176
     1
 90
       50
176
     1
 90
       50
176
     1
 90
       50
176
     1
290
     0
176
     1
 90
       50
176
     1
 62
   256
176
     0
 40
1.0
176
     0
 90
        2
176
     1
  1
strokes_ogs.tif
176
     1
290
     0
176
     1
 40
1.0
176
     1
 40
1.0
176
     1
  0
VISUALSTYLE
  5
3D
102
{ACAD_REACTORS
330
29
102
}
330
29
100
AcDbVisualStyle
  2
Shaded with edges
 70
    26
177
     3
291
     0
 70
    58
 90
        2
176
     1
 90
        2
176
     1
 90
        1
176
     1
 90
        2
176
     1
 40
0.6
176
     1
 40
30.0
176
     1
 62
     7
420
 16777215
176
     1
 90
        1
176
     1
 90
       10
176
     1
 62
     7
176
     1
 62
   257
176
     1
 90
        2
176
     1
 90
        1
176
     1
 40
1.0
176
     1
 90
        8
176
     1
 62
   257
176
     1
 40
1.0
176
     1
 90
        1
176
     1
 90
        6
176
     1
 90
        2
176
     1
 62
     7
176
     1
 90
        3
176
     1
 90
        0
176
     1
 90
        0
176
     1
290
     0
176
     1
 90
        5
176
     1
 40
0.0
176
     1
 90
        0
176
     1
290
     0
176
     1
290
     1
176
     1
290
     1
176
     1
290
     0
176
     1
290
     0
176
     1
290
     0
176
     1
290
     0
176
     1
290
     0
176
     1
290
     0
176
     1
 90
       50
176
     1
 40
0.0
176
     1
 40
1.0
176
     1
 90
        0
176
     1
 62
    18
420
        0
176
     1
 90
       50
176
     1
 90
        3
176
     1
 62
     5
420
      255
176
     1
290
     0
176
     1
 90
       50
176
     1
 90
       50
176
     1
 90
       50
176
     1
290
     0
176
     1
 90
       50
176
     1
 62
   256
176
     0
 40
1.0
176
     0
 90
        2
176
     1
  1
strokes_ogs.tif
176
     1
290
     0
176
     1
 40
1.0
176
     1
 40
1.0
176
     1
  0
VISUALSTYLE
  5
3A
102
{ACAD_REACTORS
330
29
102
}
330
29
100
AcDbVisualStyle
  2
Shades of Gray
 70
    23
177
     3
291
     0
 70
    58
 90
        2
176
     1
 90
        2
176
     1
 90
        3
176
     1
 90
        0
176
     1
 40
0.6
176
     1
 40
30.0
176
     1
 62
     7
420
 16777215
176
     1
 90
        2
176
     1
 90
        2
176
     1
 62
     7
176
     1
 62
     7
176
     1
 90
        1
176
     1
 90
        1
176
     1
 40
40.0
176
     1
 90
        8
176
     1
 62
     7
176
     1
 40
1.0
176
     1
 90
        1
176
     1
 90
        6
176
     1
 90
        2
176
     1
 62
     7
176
     1
 90
        3
176
     1
 90
        0
176
     1
 90
        0
176
     1
290
     0
176
     1
 90
        1
176
     1
 40
0.0
176
     1
 90
        0
176
     1
290
     0
176
     1
290
     1
176
     1
290
     1
176
     1
290
     0
176
     1
290
     0
176
     1
290
     0
176
     1
290
     0
176
     1
290
     0
176
     1
290
     0
176
     1
 90
       50
176
     1
 40
0.0
176
     1
 40
1.0
176
     1
 90
        0
176
     1
 62
    18
420
        0
176
     1
 90
       50
176
     1
 90
        3
176
     1
 62
     5
420
      255
176
     1
290
     0
176
     1
 90
       50
176
     1
 90
       50
176
     1
 90
       50
176
     1
290
     0
176
     1
 90
       50
176
     1
 62
   256
176
     0
 40
1.0
176
     0
 90
        2
176
     1
  1
strokes_ogs.tif
176
     1
290
     0
176
     1
 40
1.0
176
     1
 40
1.0
176
     1
  0
VISUALSTYLE
  5
3B
102
{ACAD_REACTORS
330
29
102
}
330
29
100
AcDbVisualStyle
  2
Sketchy
 70
    24
177
     3
291
     0
 70
    58
 90
        1
176
     1
 90
        2
176
     1
 90
        2
176
     1
 90
        0
176
     1
 40
0.6
176
     1
 40
30.0
176
     1
 62
     7
420
 16777215
176
     1
 90
        2
176
     1
 90
        2
176
     1
 62
     7
176
     1
 62
     7
176
     1
 90
        1
176
     1
 90
        1
176
     1
 40
40.0
176
     1
 90
       11
176
     1
 62
     7
176
     1
 40
1.0
176
     1
 90
        1
176
     1
 90
        6
176
     1
 90
        2
176
     1
 62
     7
176
     1
 90
        6
176
     1
 90
        0
176
     1
 90
        0
176
     1
290
     0
176
     1
 90
        1
176
     1
 40
0.0
176
     1
 90
        0
176
     1
290
     0
176
     1
290
     1
176
     1
290
     1
176
     1
290
     0
176
     1
290
     0
176
     1
290
     0
176
     1
290
     0
176
     1
290
     0
176
     1
290
     0
176
     1
 90
       50
176
     1
 40
0.0
176
     1
 40
1.0
176
     1
 90
        0
176
     1
 62
    18
420
        0
176
     1
 90
       50
176
     1
 90
        3
176
     1
 62
     5
420
      255
176
     1
290
     0
176
     1
 90
       50
176
     1
 90
       50
176
     1
 90
       50
176
     1
290
     0
176
     1
 90
       50
176
     1
 62
   256
176
     0
 40
1.0
176
     0
 90
        2
176
     1
  1
strokes_ogs.tif
176
     1
290
     0
176
     1
 40
1.0
176
     1
 40
1.0
176
     1
  0
VISUALSTYLE
  5
36
102
{ACAD_REACTORS
330
29
102
}
330
29
100
AcDbVisualStyle
  2
Thicken
 70
    13
177
     3
291
     1
 70
    58
 90
        2
176
     1
 90
        2
176
     1
 90
        0
176
     1
 90
        0
176
     1
 40
0.6
176
     1
 40
30.0
176
     1
 62
     7
420
 16777215
176
     1
 90
        1
176
     1
 90
        4
176
     1
 62
     7
176
     1
 62
   257
176
     1
 90
        1
176
     1
 90
        1
176
     1
 40
1.0
176
     1
 90
       12
176
     1
 62
     7
176
     1
 40
1.0
176
     1
 90
        1
176
     1
 90
        6
176
     1
 90
        2
176
     1
 62
     7
176
     1
 90
        5
176
     1
 90
        0
176
     1
 90
        0
176
     1
290
     0
176
     1
 90
        1
176
     1
 40
0.0
176
     1
 90
        0
176
     1
290
     0
176
     1
290
     1
176
     1
290
     1
176
     1
290
     0
176
     1
290
     0
176
     1
290
     0
176
     1
290
     0
176
     1
290
     0
176
     1
290
     0
176
     1
 90
       50
176
     1
 40
0.0
176
     1
 40
1.0
176
     1
 90
        0
176
     1
 62
    18
420
        0
176
     1
 90
       50
176
     1
 90
        3
176
     1
 62
     5
420
      255
176
     1
290
     0
176
     1
 90
       50
176
     1
 90
       50
176
     1
 90
       50
176
     1
290
     0
176
     1
 90
       50
176
     1
 62
   256
176
     0
 40
1.0
176
     0
 90
        2
176
     1
  1
strokes_ogs.tif
176
     1
290
     0
176
     1
 40
1.0
176
     1
 40
1.0
176
     1
  0
VISUALSTYLE
  5
30
102
{ACAD_REACTORS
330
29
102
}
330
29
100
AcDbVisualStyle
  2
Wireframe
 70
     5
177
     3
291
     0
 70
    58
 90
        0
176
     1
 90
        2
176
     1
 90
        0
176
     1
 90
        0
176
     1
 40
0.6
176
     1
 40
30.0
176
     1
 62
     7
420
 16777215
176
     1
 90
        1
176
     1
 90
        4
176
     1
 62
     7
176
     1
 62
   257
176
     1
 90
        1
176
     1
 90
        1
176
     1
 40
1.0
176
     1
 90
        0
176
     1
 62
   257
176
     1
 40
1.0
176
     1
 90
        1
176
     1
 90
        6
176
     1
 90
        2
176
     1
 62
     7
176
     1
 90
        3
176
     1
 90
        0
176
     1
 90
        0
176
     1
290
     0
176
     1
 90
        1
176
     1
 40
0.0
176
     1
 90
        0
176
     1
290
     0
176
     1
290
     1
176
     1
290
     1
176
     1
290
     0
176
     1
290
     0
176
     1
290
     0
176
     1
290
     0
176
     1
290
     0
176
     1
290
     0
176
     1
 90
       50
176
     1
 40
0.0
176
     1
 40
1.0
176
     1
 90
        0
176
     1
 62
    18
420
        0
176
     1
 90
       50
176
     1
 90
        3
176
     1
 62
     5
420
      255
176
     1
290
     0
176
     1
 90
       50
176
     1
 90
       50
176
     1
 90
       50
176
     1
290
     0
176
     1
 90
       50
176
     1
 62
   256
176
     0
 40
1.0
176
     0
 90
        2
176
     1
  1
strokes_ogs.tif
176
     1
290
     0
176
     1
 40
1.0
176
     1
 40
1.0
176
     1
  0
VISUALSTYLE
  5
3C
102
{ACAD_REACTORS
330
29
102
}
330
29
100
AcDbVisualStyle
  2
X-Ray
 70
    25
177
     3
291
     0
 70
    58
 90
        2
176
     1
 90
        2
176
     1
 90
        1
176
     1
 90
        1
176
     1
 40
0.5
176
     1
 40
30.0
176
     1
 62
     7
420
 16777215
176
     1
 90
        1
176
     1
 90
        0
176
     1
 62
     7
176
     1
 62
   257
176
     1
 90
        1
176
     1
 90
        1
176
     1
 40
1.0
176
     1
 90
        8
176
     1
 62
     7
176
     1
 40
1.0
176
     1
 90
        1
176
     1
 90
        6
176
     1
 90
        2
176
     1
 62
     7
176
     1
 90
        3
176
     1
 90
        0
176
     1
 90
        0
176
     1
290
     0
176
     1
 90
       13
176
     1
 40
0.0
176
     1
 90
        0
176
     1
290
     0
176
     1
290
     1
176
     1
290
     1
176
     1
290
     0
176
     1
290
     0
176
     1
290
     0
176
     1
290
     0
176
     1
290
     0
176
     1
290
     0
176
     1
 90
       50
176
     1
 40
0.0
176
     1
 40
1.0
176
     1
 90
        0
176
     1
 62
    18
420
        0
176
     1
 90
       50
176
     1
 90
        3
176
     1
 62
     5
420
      255
176
     1
290
     0
176
     1
 90
       50
176
     1
 90
       50
176
     1
 90
       50
176
     1
290
     0
176
     1
 90
       50
176
     1
 62
   256
176
     0
 40
1.0
176
     0
 90
        2
176
     1
  1
strokes_ogs.tif
176
     1
290
     0
176
     1
 40
1.0
176
     1
 40
1.0
176
     1
  0
DICTIONARYVAR
  5
6C9
102
{ACAD_REACTORS
330
6C3
102
}
330
6C3
100
DictionaryVariables
280
     0
  1
1:1
  0
DICTIONARYVAR
  5
6C5
102
{ACAD_REACTORS
330
6C3
102
}
330
6C3
100
DictionaryVariables
280
     0
  1
STANDARD
  0
DICTIONARYVAR
  5
6C4
102
{ACAD_REACTORS
330
6C3
102
}
330
6C3
100
DictionaryVariables
280
     0
  1
STANDARD
  0
DICTIONARYVAR
  5
6C6
102
{ACAD_REACTORS
330
6C3
102
}
330
6C3
100
DictionaryVariables
280
     0
  1
Imperial24
  0
DICTIONARYVAR
  5
6C7
102
{ACAD_REACTORS
330
6C3
102
}
330
6C3
100
DictionaryVariables
280
     0
  1
Imperial24
  0
DICTIONARYVAR
  5
6CB
102
{ACAD_REACTORS
330
6C3
102
}
330
6C3
100
DictionaryVariables
280
     0
  1
1
  0
DICTIONARYVAR
  5
6CC
102
{ACAD_REACTORS
330
6C3
102
}
330
6C3
100
DictionaryVariables
280
     0
  1
15
  0
DICTIONARYVAR
  5
6CA
102
{ACAD_REACTORS
330
6C3
102
}
330
6C3
100
DictionaryVariables
280
     0
  1
0
  0
DICTIONARYVAR
  5
6C8
102
{ACAD_REACTORS
330
6C3
102
}
330
6C3
100
DictionaryVariables
280
     0
  1
0
  0
DICTIONARY
  5
1F5
102
{ACAD_REACTORS
330
1EE
102
}
330
1EE
100
AcDbDictionary
281
     1
  0
DICTIONARY
  5
6D1
330
6A
100
AcDbDictionary
280
     1
281
     1
  3
ACAD_XREC_ROUNDTRIP
360
6D2
  0
DICTIONARY
  5
1A
330
19
100
AcDbDictionary
280
     1
281
     1
  3
BUMPTILE
360
1C
  3
DIFFUSETILE
360
1B
  3
OPACITYTILE
360
1F
  3
REFLECTIONTILE
360
1E
  3
REFRACTIONTILE
360
20
  3
SPECULARTILE
360
1D
  0
DICTIONARY
  5
12
330
11
100
AcDbDictionary
280
     1
281
     1
  3
BUMPTILE
360
14
  3
DIFFUSETILE
360
13
  3
OPACITYTILE
360
17
  3
REFLECTIONTILE
360
16
  3
REFRACTIONTILE
360
18
  3
SPECULARTILE
360
15
  0
DICTIONARY
  5
22
330
21
100
AcDbDictionary
280
     1
281
     1
  3
BUMPTILE
360
24
  3
DIFFUSETILE
360
23
  3
OPACITYTILE
360
27
  3
REFLECTIONTILE
360
26
  3
REFRACTIONTILE
360
28
  3
SPECULARTILE
360
25
  0
DICTIONARY
  5
6CF
330
68
100
AcDbDictionary
280
     1
281
     1
  3
ACAD_XREC_ROUNDTRIP
360
6D0
  0
DICTIONARY
  5
6CD
330
64
100
AcDbDictionary
280
     1
281
     1
  3
ACAD_ROUNDTRIP_2008_TABLESTYLE_CELLSTYLEMAP
360
6CE
  0
XRECORD
  5
6D2
102
{ACAD_REACTORS
330
6D1
102
}
330
6D1
100
AcDbXrecord
280
     1
102
DISPLAYNAME
  1
Imperial24
102
FLAGS
 90
        0
  0
XRECORD
  5
1C
102
{ACAD_REACTORS
330
1A
102
}
330
1A
100
AcDbXrecord
280
     1
270
     1
271
     1
  0
XRECORD
  5
1B
102
{ACAD_REACTORS
330
1A
102
}
330
1A
100
AcDbXrecord
280
     1
270
     1
271
     1
  0
XRECORD
  5
1F
102
{ACAD_REACTORS
330
1A
102
}
330
1A
100
AcDbXrecord
280
     1
270
     1
271
     1
  0
XRECORD
  5
1E
102
{ACAD_REACTORS
330
1A
102
}
330
1A
100
AcDbXrecord
280
     1
270
     1
271
     1
  0
XRECORD
  5
20
102
{ACAD_REACTORS
330
1A
102
}
330
1A
100
AcDbXrecord
280
     1
270
     1
271
     1
  0
XRECORD
  5
1D
102
{ACAD_REACTORS
330
1A
102
}
330
1A
100
AcDbXrecord
280
     1
270
     1
271
     1
  0
XRECORD
  5
14
102
{ACAD_REACTORS
330
12
102
}
330
12
100
AcDbXrecord
280
     1
270
     1
271
     1
  0
XRECORD
  5
13
102
{ACAD_REACTORS
330
12
102
}
330
12
100
AcDbXrecord
280
     1
270
     1
271
     1
  0
XRECORD
  5
17
102
{ACAD_REACTORS
330
12
102
}
330
12
100
AcDbXrecord
280
     1
270
     1
271
     1
  0
XRECORD
  5
16
102
{ACAD_REACTORS
330
12
102
}
330
12
100
AcDbXrecord
280
     1
270
     1
271
     1
  0
XRECORD
  5
18
102
{ACAD_REACTORS
330
12
102
}
330
12
100
AcDbXrecord
280
     1
270
     1
271
     1
  0
XRECORD
  5
15
102
{ACAD_REACTORS
330
12
102
}
330
12
100
AcDbXrecord
280
     1
270
     1
271
     1
  0
XRECORD
  5
24
102
{ACAD_REACTORS
330
22
102
}
330
22
100
AcDbXrecord
280
     1
270
     1
271
     1
  0
XRECORD
  5
23
102
{ACAD_REACTORS
330
22
102
}
330
22
100
AcDbXrecord
280
     1
270
     1
271
     1
  0
XRECORD
  5
27
102
{ACAD_REACTORS
330
22
102
}
330
22
100
AcDbXrecord
280
     1
270
     1
271
     1
  0
XRECORD
  5
26
102
{ACAD_REACTORS
330
22
102
}
330
22
100
AcDbXrecord
280
     1
270
     1
271
     1
  0
XRECORD
  5
28
102
{ACAD_REACTORS
330
22
102
}
330
22
100
AcDbXrecord
280
     1
270
     1
271
     1
  0
XRECORD
  5
25
102
{ACAD_REACTORS
330
22
102
}
330
22
100
AcDbXrecord
280
     1
270
     1
271
     1
  0
XRECORD
  5
6D0
102
{ACAD_REACTORS
330
6CF
102
}
330
6CF
100
AcDbXrecord
280
     1
102
DISPLAYNAME
  1
Imperial24
102
FLAGS
 90
        0
  0
CELLSTYLEMAP
  5
6CE
102
{ACAD_REACTORS
330
6CD
102
}
330
6CD
100
AcDbCellStyleMap
 90
        3
300
CELLSTYLE
  1
TABLEFORMAT_BEGIN
 90
        5
170
     1
 91
        0
 92
    32768
 62
   257
 93
        1
300
CONTENTFORMAT
  1
CONTENTFORMAT_BEGIN
 90
        0
 91
        0
 92
      512
 93
        0
300

 40
0.0
140
1.0
 94
        5
 62
     0
340
55
144
0.25
309
CONTENTFORMAT_END
171
     0
 94
        0
309
TABLEFORMAT_END
  1
CELLSTYLE_BEGIN
 90
        1
 91
        1
300
_TITLE
309
CELLSTYLE_END
300
CELLSTYLE
  1
TABLEFORMAT_BEGIN
 90
        5
170
     1
 91
        0
 92
        0
 62
   257
 93
        1
300
CONTENTFORMAT
  1
CONTENTFORMAT_BEGIN
 90
        0
 91
        0
 92
      512
 93
        0
300

 40
0.0
140
1.0
 94
        5
 62
     0
340
55
144
0.18
309
CONTENTFORMAT_END
171
     0
 94
        0
309
TABLEFORMAT_END
  1
CELLSTYLE_BEGIN
 90
        2
 91
        1
300
_HEADER
309
CELLSTYLE_END
300
CELLSTYLE
  1
TABLEFORMAT_BEGIN
 90
        5
170
     1
 91
        0
 92
        0
 62
   257
 93
        1
300
CONTENTFORMAT
  1
CONTENTFORMAT_BEGIN
 90
        0
 91
        0
 92
      512
 93
        0
300

 40
0.0
140
1.0
 94
        2
 62
     0
340
55
144
0.18
309
CONTENTFORMAT_END
171
     0
 94
        0
309
TABLEFORMAT_END
  1
CELLSTYLE_BEGIN
 90
        3
 91
        2
300
_DATA
309
CELLSTYLE_END
  0
ENDSEC
  0
SECTION
  2
ACDSDATA
 70
     2
 71
     8
  0
ACDSSCHEMA
 90
        0
  1
AcDb_Thumbnail_Schema
  2
AcDbDs::ID
280
    10
 91
        8
  2
Thumbnail_Data
280
    15
 91
        0
101
ACDSRECORD
 95
        0
 90
        1
  2
AcDbDs::TreatedAsObjectData
280
     1
291
     1
101
ACDSRECORD
 95
        0
 90
        2
  2
AcDbDs::Legacy
280
     1
291
     1
101
ACDSRECORD
  1
AcDbDs::ID
 90
        3
  2
AcDs:Indexable
280
     1
291
     1
101
ACDSRECORD
  1
AcDbDs::ID
 90
        4
  2
AcDbDs::HandleAttribute
280
     7
282
     1
  0
ACDSSCHEMA
 90
        1
  1
AcDbDs::TreatedAsObjectDataSchema
  2
AcDbDs::TreatedAsObjectData
280
     1
 91
        0
  0
ACDSSCHEMA
 90
        2
  1
AcDbDs::LegacySchema
  2
AcDbDs::Legacy
280
     1
 91
        0
  0
ACDSSCHEMA
 90
        3
  1
AcDbDs::IndexedPropertySchema
  2
AcDs:Indexable
280
     1
 91
        0
  0
ACDSSCHEMA
 90
        4
  1
AcDbDs::HandleAttributeSchema
  2
AcDbDs::HandleAttribute
280
     7
 91
        1
284
     1
  0
ACDSRECORD
 90
        0
  2
AcDbDs::ID
280
    10
320
72
  2
Thumbnail_Data
280
    15
 94
     1149
310
89504E470D0A1A0A0000000D4948445200000100000000670803000000D82A6C0200000300504C5445212830000000C8C8C80000000000000000000000000000000000000000000000000000330000660000990000CC0000FF0033000033330033660033990033CC0033FF0066000066330066660066990066CC0066FF0099
310
000099330099660099990099CC0099FF00CC0000CC3300CC6600CC9900CCCC00CCFF00FF0000FF3300FF6600FF9900FFCC00FFFF3300003300333300663300993300CC3300FF3333003333333333663333993333CC3333FF3366003366333366663366993366CC3366FF3399003399333399663399993399CC3399FF33CC00
310
33CC3333CC6633CC9933CCCC33CCFF33FF0033FF3333FF6633FF9933FFCC33FFFF6600006600336600666600996600CC6600FF6633006633336633666633996633CC6633FF6666006666336666666666996666CC6666FF6699006699336699666699996699CC6699FF66CC0066CC3366CC6666CC9966CCCC66CCFF66FF0066
310
FF3366FF6666FF9966FFCC66FFFF9900009900339900669900999900CC9900FF9933009933339933669933999933CC9933FF9966009966339966669966999966CC9966FF9999009999339999669999999999CC9999FF99CC0099CC3399CC6699CC9999CCCC99CCFF99FF0099FF3399FF6699FF9999FFCC99FFFFCC0000CC00
310
33CC0066CC0099CC00CCCC00FFCC3300CC3333CC3366CC3399CC33CCCC33FFCC6600CC6633CC6666CC6699CC66CCCC66FFCC9900CC9933CC9966CC9999CC99CCCC99FFCCCC00CCCC33CCCC66CCCC99CCCCCCCCCCFFCCFF00CCFF33CCFF66CCFF99CCFFCCCCFFFFFF0000FF0033FF0066FF0099FF00CCFF00FFFF3300FF3333
310
FF3366FF3399FF33CCFF33FFFF6600FF6633FF6666FF6699FF66CCFF66FFFF9900FF9933FF9966FF9999FF99CCFF99FFFFCC00FFCC33FFCC66FFCC99FFCCCCFFCCFFFFFF00FFFF33FFFF66FFFF99FFFFCCFFFFFF0000000D0D0D1A1A1A2828283535354343435050505D5D5D6B6B6B787878868686939393A1A1A1AEAEAEBB
310
BBBBC9C9C9D6D6D6E4E4E4F1F1F1FFFFFF000000000000000000000000000000000000000000000000000000000000B21171F6000001384944415478DAED9B410EC2201045E7FE37FD07E85E636D81428D36B1D6F9EF2D5C90B098C700C39846000000000000000000007C85E92869049C3C0F0108400002108000045C4AC0
310
74CEA4CB0A983E0EE6C81C32803300010840000210F01702A43786F20AD0CC6048D905A80E565A575EED5866016BDC4BD2DF7FB55888F402A217F0D482001701D51958056B73062CCBBC09DFE716285BA015D08FA516A072195477834906C468B7CB4580D4254035B02D86130BA8EE3B49E3F5CF2C602D8A378F00130173FE
310
2BD455000A8743700E3A4C5F8334445EB744E42140C60D917D01E152087555DF680C0169050CB680ACB640B3DEA53F607308F6EDE0689E061619F0E8FFD402A214C106FF0B8C6FC0AE064A2C6050137A96C2F66F010420000108B011E0FECD100000000000000000000000000000FC8C1B7FF27DB86BC54927000000004945
310
4E44AE426082
  0
ENDSEC
  0
EOF
