  0
SECTION
  2
HEADER
  9
$ACADVER
  1
AC1009
  9
$FILLMODE
 70
0
  9
$EXTMIN
 10
-0.011480
 20
-0.008000
 30
0.000000
  9
$EXTMAX
 10
1.355000
 20
1.108000
 30
0.000000
  0
ENDSEC
  0
SECTION
  2
TABLES
  0
TABLE
  2
LTYPE
 70
1
  0
LTYPE
  2
CONTINUOUS
 70
64
  3
Solid line
 72
65
 73
0
 40
0
  0
ENDTAB
  0
TABLE
  2
LAYER
 70
255
  0
LAYER
  2
20
 70
64
 62
178
  6
CONTINUOUS
  0
LAYER
  2
31
 70
64
 62
251
  6
CONTINUOUS
  0
LAYER
  2
32
 70
64
 62
251
  6
CONTINUOUS
  0
ENDTAB
  0
ENDSEC
  0
SECTION
  2
BLOCKS
  0
BLOCK
  8
0
  2
RECT
 70
64
 10
0.000000
 20
0.000000
 30
0.000000
  3
RECT
  0
SOLID
  8
0
 10
-0.500000
 20
-0.500000
 30
0.000000
 11
0.500000
 21
-0.500000
 31
0.000000
 12
-0.500000
 22
0.500000
 32
0.000000
 13
0.500000
 23
0.500000
 33
0.000000
  0
ENDBLK
  8
0
  0
BLOCK
  8
0
  2
PIE
 70
64
 10
0.000000
 20
0.000000
 30
0.000000
  3
PIE
  0
CIRCLE
  8
0
 10
0.000000
 20
0.000000
 30
0.000000
 40
0.500000
  0
ENDBLK
  8
0
  0
BLOCK
  8
0
  2
OCTAGONP
 70
64
 10
0.000000
 20
0.000000
 30
0.000000
  3
OCTAGONP
  0
POLYLINE
  8
0
 66
1
 10
0.000000
 20
0.000000
 30
0.000000
 40
0.000000
 41
0.000000
 70
1
  0
VERTEX
  8
0
 10
-0.500000
 20
-0.207107
 30
0.000000
  0
VERTEX
  8
0
 10
-0.500000
 20
0.207107
 30
0.000000
  0
VERTEX
  8
0
 10
-0.207107
 20
0.500000
 30
0.000000
  0
VERTEX
  8
0
 10
0.207107
 20
0.500000
 30
0.000000
  0
VERTEX
  8
0
 10
0.500000
 20
0.207107
 30
0.000000
  0
VERTEX
  8
0
 10
0.500000
 20
-0.207107
 30
0.000000
  0
VERTEX
  8
0
 10
0.207107
 20
-0.500000
 30
0.000000
  0
VERTEX
  8
0
 10
-0.207107
 20
-0.500000
 30
0.000000
  0
SEQEND
  8
0
  0
ENDBLK
  8
0
  0
BLOCK
  8
0
  2
SQUAREP
 70
64
 10
0.000000
 20
0.000000
 30
0.000000
  3
SQUAREP
  0
SOLID
  8
0
 10
-0.500000
 20
-0.500000
 30
0.000000
 11
0.500000
 21
-0.500000
 31
0.000000
 12
-0.500000
 22
0.500000
 32
0.000000
 13
0.500000
 23
0.500000
 33
0.000000
  0
ENDBLK
  8
0
  0
BLOCK
  8
0
  2
ROUNDP
 70
64
 10
0.000000
 20
0.000000
 30
0.000000
  3
ROUNDP
  0
CIRCLE
  8
0
 10
0.000000
 20
0.000000
 30
0.000000
 40
0.500000
  0
ENDBLK
  8
0
  0
BLOCK
  8
0
  2
ANNULUSP
 70
64
 10
0.000000
 20
0.000000
 30
0.000000
  3
ANNULUSP
  0
CIRCLE
  8
0
 10
0.000000
 20
0.000000
 30
0.000000
 40
0.500000
  0
ENDBLK
  8
0
  0
BLOCK
  8
0
  2
THERMALP
 70
64
 10
0.000000
 20
0.000000
 30
0.000000
  3
THERMALP
  0
LINE
  8
0
 10
-0.237868
 20
0.450000
 30
0.000000
 11
0.237868
 21
0.450000
 31
0.000000
  0
LINE
  8
0
 10
0.450000
 20
0.237868
 30
0.000000
 11
0.450000
 21
-0.237868
 31
0.000000
  0
LINE
  8
0
 10
0.237868
 20
-0.450000
 30
0.000000
 11
-0.237868
 21
-0.450000
 31
0.000000
  0
LINE
  8
0
 10
-0.450000
 20
-0.237868
 30
0.000000
 11
-0.450000
 21
0.237868
 31
0.000000
  0
ENDBLK
  8
0
  0
BLOCK
  8
0
  2
OCTAGONV
 70
64
 10
0.000000
 20
0.000000
 30
0.000000
  3
OCTAGONV
  0
POLYLINE
  8
0
 66
1
 10
0.000000
 20
0.000000
 30
0.000000
 40
0.000000
 41
0.000000
 70
1
  0
VERTEX
  8
0
 10
-0.500000
 20
-0.207107
 30
0.000000
  0
VERTEX
  8
0
 10
-0.500000
 20
0.207107
 30
0.000000
  0
VERTEX
  8
0
 10
-0.207107
 20
0.500000
 30
0.000000
  0
VERTEX
  8
0
 10
0.207107
 20
0.500000
 30
0.000000
  0
VERTEX
  8
0
 10
0.500000
 20
0.207107
 30
0.000000
  0
VERTEX
  8
0
 10
0.500000
 20
-0.207107
 30
0.000000
  0
VERTEX
  8
0
 10
0.207107
 20
-0.500000
 30
0.000000
  0
VERTEX
  8
0
 10
-0.207107
 20
-0.500000
 30
0.000000
  0
SEQEND
  8
0
  0
ENDBLK
  8
0
  0
BLOCK
  8
0
  2
SQUAREV
 70
64
 10
0.000000
 20
0.000000
 30
0.000000
  3
SQUAREV
  0
SOLID
  8
0
 10
-0.500000
 20
-0.500000
 30
0.000000
 11
0.500000
 21
-0.500000
 31
0.000000
 12
-0.500000
 22
0.500000
 32
0.000000
 13
0.500000
 23
0.500000
 33
0.000000
  0
ENDBLK
  8
0
  0
BLOCK
  8
0
  2
ROUNDV
 70
64
 10
0.000000
 20
0.000000
 30
0.000000
  3
ROUNDV
  0
CIRCLE
  8
0
 10
0.000000
 20
0.000000
 30
0.000000
 40
0.500000
  0
ENDBLK
  8
0
  0
BLOCK
  8
0
  2
ANNULUSV
 70
64
 10
0.000000
 20
0.000000
 30
0.000000
  3
ANNULUSV
  0
CIRCLE
  8
0
 10
0.000000
 20
0.000000
 30
0.000000
 40
0.500000
  0
ENDBLK
  8
0
  0
BLOCK
  8
0
  2
THERMALV
 70
64
 10
0.000000
 20
0.000000
 30
0.000000
  3
THERMALV
  0
LINE
  8
0
 10
-0.237868
 20
0.450000
 30
0.000000
 11
0.237868
 21
0.450000
 31
0.000000
  0
LINE
  8
0
 10
0.450000
 20
0.237868
 30
0.000000
 11
0.450000
 21
-0.237868
 31
0.000000
  0
LINE
  8
0
 10
0.237868
 20
-0.450000
 30
0.000000
 11
-0.237868
 21
-0.450000
 31
0.000000
  0
LINE
  8
0
 10
-0.450000
 20
-0.237868
 30
0.000000
 11
-0.450000
 21
0.237868
 31
0.000000
  0
ENDBLK
  8
0
  0
ENDSEC
  0
SECTION
  2
ENTITIES
  0
LINE
  8
20
 10
0.000000
 20
0.000000
 30
0.000000
 11
0.000000
 21
1.100000
 31
0.000000
  0
LINE
  8
20
 10
0.000000
 20
1.100000
 30
0.000000
 11
1.300000
 21
1.100000
 31
0.000000
  0
LINE
  8
20
 10
1.300000
 20
1.100000
 30
0.000000
 11
1.300000
 21
0.000000
 31
0.000000
  0
LINE
  8
20
 10
0.000000
 20
0.000000
 30
0.000000
 11
1.300000
 21
0.000000
 31
0.000000
  0
INSERT
  8
31
  2
RECT
 10
0.950000
 20
0.780118
 30
0.000000
 41
0.052992
 42
0.045118
 43
1.000000
 50
180.000000
  0
INSERT
  8
31
  2
RECT
 10
0.950000
 20
0.669882
 30
0.000000
 41
0.052992
 42
0.045118
 43
1.000000
 50
180.000000
  0
INSERT
  8
31
  2
RECT
 10
0.466535
 20
0.650000
 30
0.000000
 41
0.033307
 42
0.029370
 43
1.000000
 50
0.000000
  0
INSERT
  8
31
  2
RECT
 10
0.533465
 20
0.650000
 30
0.000000
 41
0.033307
 42
0.029370
 43
1.000000
 50
0.000000
  0
INSERT
  8
31
  2
RECT
 10
0.994000
 20
0.290465
 30
0.000000
 41
0.033307
 42
0.029370
 43
1.000000
 50
270.000000
  0
INSERT
  8
31
  2
RECT
 10
0.994000
 20
0.223535
 30
0.000000
 41
0.033307
 42
0.029370
 43
1.000000
 50
270.000000
  0
INSERT
  8
31
  2
RECT
 10
0.339000
 20
0.904000
 30
0.000000
 41
0.096000
 42
0.090000
 43
1.000000
 50
0.000000
  0
INSERT
  8
31
  2
RECT
 10
0.322783
 20
0.904000
 30
0.000000
 41
0.015000
 42
0.040000
 43
1.000000
 50
0.000000
  0
INSERT
  8
31
  2
RECT
 10
0.355217
 20
0.904000
 30
0.000000
 41
0.015000
 42
0.040000
 43
1.000000
 50
0.000000
  0
INSERT
  8
31
  2
RECT
 10
0.341000
 20
1.014000
 30
0.000000
 41
0.096000
 42
0.090000
 43
1.000000
 50
0.000000
  0
INSERT
  8
31
  2
RECT
 10
0.324783
 20
1.014000
 30
0.000000
 41
0.015000
 42
0.040000
 43
1.000000
 50
0.000000
  0
INSERT
  8
31
  2
RECT
 10
0.357217
 20
1.014000
 30
0.000000
 41
0.015000
 42
0.040000
 43
1.000000
 50
0.000000
  0
CIRCLE
  8
20
 10
0.150000
 20
0.950000
 30
0.000000
 40
0.065000
  0
CIRCLE
  8
20
 10
1.150000
 20
0.125000
 30
0.000000
 40
0.065000
  0
INSERT
  8
31
  2
RECT
 10
0.766339
 20
1.036717
 30
0.000000
 41
0.007874
 42
0.049055
 43
1.000000
 50
180.000000
  0
INSERT
  8
31
  2
RECT
 10
0.740748
 20
1.036717
 30
0.000000
 41
0.007874
 42
0.049055
 43
1.000000
 50
180.000000
  0
INSERT
  8
31
  2
RECT
 10
0.715157
 20
1.036717
 30
0.000000
 41
0.007874
 42
0.049055
 43
1.000000
 50
180.000000
  0
INSERT
  8
31
  2
RECT
 10
0.689567
 20
1.036717
 30
0.000000
 41
0.007874
 42
0.049055
 43
1.000000
 50
180.000000
  0
INSERT
  8
31
  2
RECT
 10
0.663976
 20
1.036717
 30
0.000000
 41
0.007874
 42
0.049055
 43
1.000000
 50
180.000000
  0
INSERT
  8
31
  2
RECT
 10
0.638386
 20
1.036717
 30
0.000000
 41
0.007874
 42
0.049055
 43
1.000000
 50
180.000000
  0
INSERT
  8
31
  2
RECT
 10
0.612795
 20
1.036717
 30
0.000000
 41
0.007874
 42
0.049055
 43
1.000000
 50
180.000000
  0
INSERT
  8
31
  2
RECT
 10
0.587205
 20
1.036717
 30
0.000000
 41
0.007874
 42
0.049055
 43
1.000000
 50
180.000000
  0
INSERT
  8
31
  2
RECT
 10
0.561614
 20
1.036717
 30
0.000000
 41
0.007874
 42
0.049055
 43
1.000000
 50
180.000000
  0
INSERT
  8
31
  2
RECT
 10
0.536024
 20
1.036717
 30
0.000000
 41
0.007874
 42
0.049055
 43
1.000000
 50
180.000000
  0
INSERT
  8
31
  2
RECT
 10
0.510433
 20
1.036717
 30
0.000000
 41
0.007874
 42
0.049055
 43
1.000000
 50
180.000000
  0
INSERT
  8
31
  2
RECT
 10
0.484843
 20
1.036717
 30
0.000000
 41
0.007874
 42
0.049055
 43
1.000000
 50
180.000000
  0
INSERT
  8
31
  2
RECT
 10
0.459252
 20
1.036717
 30
0.000000
 41
0.007874
 42
0.049055
 43
1.000000
 50
180.000000
  0
INSERT
  8
31
  2
RECT
 10
0.433661
 20
1.036717
 30
0.000000
 41
0.007874
 42
0.049055
 43
1.000000
 50
180.000000
  0
INSERT
  8
31
  2
RECT
 10
0.433661
 20
0.751283
 30
0.000000
 41
0.007874
 42
0.049055
 43
1.000000
 50
180.000000
  0
INSERT
  8
31
  2
RECT
 10
0.459252
 20
0.751283
 30
0.000000
 41
0.007874
 42
0.049055
 43
1.000000
 50
180.000000
  0
INSERT
  8
31
  2
RECT
 10
0.484843
 20
0.751283
 30
0.000000
 41
0.007874
 42
0.049055
 43
1.000000
 50
180.000000
  0
INSERT
  8
31
  2
RECT
 10
0.510433
 20
0.751283
 30
0.000000
 41
0.007874
 42
0.049055
 43
1.000000
 50
180.000000
  0
INSERT
  8
31
  2
RECT
 10
0.536024
 20
0.751283
 30
0.000000
 41
0.007874
 42
0.049055
 43
1.000000
 50
180.000000
  0
INSERT
  8
31
  2
RECT
 10
0.561614
 20
0.751283
 30
0.000000
 41
0.007874
 42
0.049055
 43
1.000000
 50
180.000000
  0
INSERT
  8
31
  2
RECT
 10
0.587205
 20
0.751283
 30
0.000000
 41
0.007874
 42
0.049055
 43
1.000000
 50
180.000000
  0
INSERT
  8
31
  2
RECT
 10
0.612795
 20
0.751283
 30
0.000000
 41
0.007874
 42
0.049055
 43
1.000000
 50
180.000000
  0
INSERT
  8
31
  2
RECT
 10
0.638386
 20
0.751283
 30
0.000000
 41
0.007874
 42
0.049055
 43
1.000000
 50
180.000000
  0
INSERT
  8
31
  2
RECT
 10
0.663976
 20
0.751283
 30
0.000000
 41
0.007874
 42
0.049055
 43
1.000000
 50
180.000000
  0
INSERT
  8
31
  2
RECT
 10
0.689567
 20
0.751283
 30
0.000000
 41
0.007874
 42
0.049055
 43
1.000000
 50
180.000000
  0
INSERT
  8
31
  2
RECT
 10
0.715157
 20
0.751283
 30
0.000000
 41
0.007874
 42
0.049055
 43
1.000000
 50
180.000000
  0
INSERT
  8
31
  2
RECT
 10
0.740748
 20
0.751283
 30
0.000000
 41
0.007874
 42
0.049055
 43
1.000000
 50
180.000000
  0
INSERT
  8
31
  2
RECT
 10
0.766339
 20
0.751283
 30
0.000000
 41
0.007874
 42
0.049055
 43
1.000000
 50
180.000000
  0
INSERT
  8
31
  2
RECT
 10
0.903346
 20
0.142520
 30
0.000000
 41
0.049055
 42
0.009843
 43
1.000000
 50
180.000000
  0
INSERT
  8
31
  2
RECT
 10
0.903346
 20
0.174016
 30
0.000000
 41
0.049055
 42
0.009843
 43
1.000000
 50
180.000000
  0
INSERT
  8
31
  2
RECT
 10
0.903346
 20
0.205512
 30
0.000000
 41
0.049055
 42
0.009843
 43
1.000000
 50
180.000000
  0
INSERT
  8
31
  2
RECT
 10
0.903346
 20
0.237008
 30
0.000000
 41
0.049055
 42
0.009843
 43
1.000000
 50
180.000000
  0
INSERT
  8
31
  2
RECT
 10
0.903346
 20
0.268504
 30
0.000000
 41
0.049055
 42
0.009843
 43
1.000000
 50
180.000000
  0
INSERT
  8
31
  2
RECT
 10
0.903346
 20
0.300000
 30
0.000000
 41
0.049055
 42
0.009843
 43
1.000000
 50
180.000000
  0
INSERT
  8
31
  2
RECT
 10
0.903346
 20
0.331496
 30
0.000000
 41
0.049055
 42
0.009843
 43
1.000000
 50
180.000000
  0
INSERT
  8
31
  2
RECT
 10
0.903346
 20
0.362992
 30
0.000000
 41
0.049055
 42
0.009843
 43
1.000000
 50
180.000000
  0
INSERT
  8
31
  2
RECT
 10
0.903346
 20
0.394488
 30
0.000000
 41
0.049055
 42
0.009843
 43
1.000000
 50
180.000000
  0
INSERT
  8
31
  2
RECT
 10
0.903346
 20
0.425984
 30
0.000000
 41
0.049055
 42
0.009843
 43
1.000000
 50
180.000000
  0
INSERT
  8
31
  2
RECT
 10
0.903346
 20
0.457480
 30
0.000000
 41
0.049055
 42
0.009843
 43
1.000000
 50
180.000000
  0
INSERT
  8
31
  2
RECT
 10
0.832480
 20
0.528346
 30
0.000000
 41
0.009843
 42
0.049055
 43
1.000000
 50
180.000000
  0
INSERT
  8
31
  2
RECT
 10
0.800984
 20
0.528346
 30
0.000000
 41
0.009843
 42
0.049055
 43
1.000000
 50
180.000000
  0
INSERT
  8
31
  2
RECT
 10
0.769488
 20
0.528346
 30
0.000000
 41
0.009843
 42
0.049055
 43
1.000000
 50
180.000000
  0
INSERT
  8
31
  2
RECT
 10
0.737992
 20
0.528346
 30
0.000000
 41
0.009843
 42
0.049055
 43
1.000000
 50
180.000000
  0
INSERT
  8
31
  2
RECT
 10
0.706496
 20
0.528346
 30
0.000000
 41
0.009843
 42
0.049055
 43
1.000000
 50
180.000000
  0
INSERT
  8
31
  2
RECT
 10
0.675000
 20
0.528346
 30
0.000000
 41
0.009843
 42
0.049055
 43
1.000000
 50
180.000000
  0
INSERT
  8
31
  2
RECT
 10
0.643504
 20
0.528346
 30
0.000000
 41
0.009843
 42
0.049055
 43
1.000000
 50
180.000000
  0
INSERT
  8
31
  2
RECT
 10
0.612008
 20
0.528346
 30
0.000000
 41
0.009843
 42
0.049055
 43
1.000000
 50
180.000000
  0
INSERT
  8
31
  2
RECT
 10
0.580512
 20
0.528346
 30
0.000000
 41
0.009843
 42
0.049055
 43
1.000000
 50
180.000000
  0
INSERT
  8
31
  2
RECT
 10
0.549016
 20
0.528346
 30
0.000000
 41
0.009843
 42
0.049055
 43
1.000000
 50
180.000000
  0
INSERT
  8
31
  2
RECT
 10
0.517520
 20
0.528346
 30
0.000000
 41
0.009843
 42
0.049055
 43
1.000000
 50
180.000000
  0
INSERT
  8
31
  2
RECT
 10
0.446654
 20
0.457480
 30
0.000000
 41
0.049055
 42
0.009843
 43
1.000000
 50
180.000000
  0
INSERT
  8
31
  2
RECT
 10
0.446654
 20
0.425984
 30
0.000000
 41
0.049055
 42
0.009843
 43
1.000000
 50
180.000000
  0
INSERT
  8
31
  2
RECT
 10
0.446654
 20
0.394488
 30
0.000000
 41
0.049055
 42
0.009843
 43
1.000000
 50
180.000000
  0
INSERT
  8
31
  2
RECT
 10
0.446654
 20
0.362992
 30
0.000000
 41
0.049055
 42
0.009843
 43
1.000000
 50
180.000000
  0
INSERT
  8
31
  2
RECT
 10
0.446654
 20
0.331496
 30
0.000000
 41
0.049055
 42
0.009843
 43
1.000000
 50
180.000000
  0
INSERT
  8
31
  2
RECT
 10
0.446654
 20
0.300000
 30
0.000000
 41
0.049055
 42
0.009843
 43
1.000000
 50
180.000000
  0
INSERT
  8
31
  2
RECT
 10
0.446654
 20
0.268504
 30
0.000000
 41
0.049055
 42
0.009843
 43
1.000000
 50
180.000000
  0
INSERT
  8
31
  2
RECT
 10
0.446654
 20
0.237008
 30
0.000000
 41
0.049055
 42
0.009843
 43
1.000000
 50
180.000000
  0
INSERT
  8
31
  2
RECT
 10
0.446654
 20
0.205512
 30
0.000000
 41
0.049055
 42
0.009843
 43
1.000000
 50
180.000000
  0
INSERT
  8
31
  2
RECT
 10
0.446654
 20
0.174016
 30
0.000000
 41
0.049055
 42
0.009843
 43
1.000000
 50
180.000000
  0
INSERT
  8
31
  2
RECT
 10
0.446654
 20
0.142520
 30
0.000000
 41
0.049055
 42
0.009843
 43
1.000000
 50
180.000000
  0
INSERT
  8
31
  2
RECT
 10
0.517520
 20
0.071654
 30
0.000000
 41
0.009843
 42
0.049055
 43
1.000000
 50
180.000000
  0
INSERT
  8
31
  2
RECT
 10
0.549016
 20
0.071654
 30
0.000000
 41
0.009843
 42
0.049055
 43
1.000000
 50
180.000000
  0
INSERT
  8
31
  2
RECT
 10
0.580512
 20
0.071654
 30
0.000000
 41
0.009843
 42
0.049055
 43
1.000000
 50
180.000000
  0
INSERT
  8
31
  2
RECT
 10
0.612008
 20
0.071654
 30
0.000000
 41
0.009843
 42
0.049055
 43
1.000000
 50
180.000000
  0
INSERT
  8
31
  2
RECT
 10
0.643504
 20
0.071654
 30
0.000000
 41
0.009843
 42
0.049055
 43
1.000000
 50
180.000000
  0
INSERT
  8
31
  2
RECT
 10
0.675000
 20
0.071654
 30
0.000000
 41
0.009843
 42
0.049055
 43
1.000000
 50
180.000000
  0
INSERT
  8
31
  2
RECT
 10
0.706496
 20
0.071654
 30
0.000000
 41
0.009843
 42
0.049055
 43
1.000000
 50
180.000000
  0
INSERT
  8
31
  2
RECT
 10
0.737992
 20
0.071654
 30
0.000000
 41
0.009843
 42
0.049055
 43
1.000000
 50
180.000000
  0
INSERT
  8
31
  2
RECT
 10
0.769488
 20
0.071654
 30
0.000000
 41
0.009843
 42
0.049055
 43
1.000000
 50
180.000000
  0
INSERT
  8
31
  2
RECT
 10
0.800984
 20
0.071654
 30
0.000000
 41
0.009843
 42
0.049055
 43
1.000000
 50
180.000000
  0
INSERT
  8
31
  2
RECT
 10
0.832480
 20
0.071654
 30
0.000000
 41
0.009843
 42
0.049055
 43
1.000000
 50
180.000000
  0
INSERT
  8
31
  2
RECT
 10
0.716535
 20
0.650000
 30
0.000000
 41
0.029370
 42
0.033307
 43
1.000000
 50
0.000000
  0
INSERT
  8
31
  2
RECT
 10
0.783465
 20
0.650000
 30
0.000000
 41
0.029370
 42
0.033307
 43
1.000000
 50
0.000000
  0
INSERT
  8
31
  2
RECT
 10
0.080000
 20
0.079000
 30
0.000000
 41
0.037000
 42
0.039000
 43
1.000000
 50
90.000000
  0
INSERT
  8
31
  2
RECT
 10
0.080000
 20
0.161000
 30
0.000000
 41
0.037000
 42
0.039000
 43
1.000000
 50
90.000000
  0
INSERT
  8
31
  2
RECT
 10
0.875000
 20
0.916535
 30
0.000000
 41
0.029370
 42
0.033307
 43
1.000000
 50
90.000000
  0
INSERT
  8
31
  2
RECT
 10
0.875000
 20
0.983465
 30
0.000000
 41
0.029370
 42
0.033307
 43
1.000000
 50
90.000000
  0
INSERT
  8
31
  2
RECT
 10
0.216535
 20
0.075000
 30
0.000000
 41
0.029370
 42
0.033307
 43
1.000000
 50
0.000000
  0
INSERT
  8
31
  2
RECT
 10
0.283465
 20
0.075000
 30
0.000000
 41
0.029370
 42
0.033307
 43
1.000000
 50
0.000000
  0
CIRCLE
  8
20
 10
1.200000
 20
0.300000
 30
0.000000
 40
0.039370
  0
CIRCLE
  8
20
 10
1.200000
 20
0.400000
 30
0.000000
 40
0.039370
  0
CIRCLE
  8
20
 10
1.200000
 20
0.500000
 30
0.000000
 40
0.039370
  0
CIRCLE
  8
20
 10
1.200000
 20
0.600000
 30
0.000000
 40
0.039370
  0
CIRCLE
  8
20
 10
1.200000
 20
0.700000
 30
0.000000
 40
0.039370
  0
CIRCLE
  8
20
 10
1.200000
 20
0.800000
 30
0.000000
 40
0.039370
  0
INSERT
  8
31
  2
RECT
 10
0.189370
 20
0.601181
 30
0.000000
 41
0.007874
 42
0.043150
 43
1.000000
 50
270.000000
  0
INSERT
  8
31
  2
RECT
 10
0.189370
 20
0.575591
 30
0.000000
 41
0.007874
 42
0.043150
 43
1.000000
 50
270.000000
  0
INSERT
  8
31
  2
RECT
 10
0.189370
 20
0.550000
 30
0.000000
 41
0.007874
 42
0.043150
 43
1.000000
 50
270.000000
  0
INSERT
  8
31
  2
RECT
 10
0.189370
 20
0.524409
 30
0.000000
 41
0.007874
 42
0.043150
 43
1.000000
 50
270.000000
  0
INSERT
  8
31
  2
RECT
 10
0.189370
 20
0.498819
 30
0.000000
 41
0.007874
 42
0.043150
 43
1.000000
 50
270.000000
  0
INSERT
  8
31
  2
RECT
 10
0.184449
 20
0.672047
 30
0.000000
 41
0.072677
 42
0.052992
 43
1.000000
 50
270.000000
  0
INSERT
  8
31
  2
RECT
 10
0.184449
 20
0.427953
 30
0.000000
 41
0.072677
 42
0.052992
 43
1.000000
 50
270.000000
  0
INSERT
  8
31
  2
RECT
 10
0.084055
 20
0.707480
 30
0.000000
 41
0.060866
 42
0.064803
 43
1.000000
 50
270.000000
  0
INSERT
  8
31
  2
RECT
 10
0.084055
 20
0.392520
 30
0.000000
 41
0.060866
 42
0.064803
 43
1.000000
 50
270.000000
  0
INSERT
  8
31
  2
RECT
 10
0.084055
 20
0.597244
 30
0.000000
 41
0.064803
 42
0.064803
 43
1.000000
 50
270.000000
  0
INSERT
  8
31
  2
RECT
 10
0.084055
 20
0.502756
 30
0.000000
 41
0.064803
 42
0.064803
 43
1.000000
 50
270.000000
  0
ENDSEC
  0
EOF
