  0
SECTION
  2
HEADER
  9
$ACADVER
  1
AC1009
  9
$FILLMODE
 70
0
  9
$EXTMIN
 10
-0.982500
 20
-0.103961
 30
0.000000
  9
$EXTMAX
 10
3.234114
 20
3.077500
 30
0.000000
  0
ENDSEC
  0
SECTION
  2
TABLES
  0
TABLE
  2
LTYPE
 70
1
  0
LTYPE
  2
CONTINUOUS
 70
64
  3
Solid line
 72
65
 73
0
 40
0
  0
ENDTAB
  0
TABLE
  2
LAYER
 70
255
  0
LAYER
  2
20
 70
64
 62
7
  6
CONTINUOUS
  0
LAYER
  2
31
 70
64
 62
253
  6
CONTINUOUS
  0
ENDTAB
  0
ENDSEC
  0
SECTION
  2
BLOCKS
  0
BLOCK
  8
0
  2
RECT
 70
64
 10
0.000000
 20
0.000000
 30
0.000000
  3
RECT
  0
SOLID
  8
0
 10
-0.500000
 20
-0.500000
 30
0.000000
 11
0.500000
 21
-0.500000
 31
0.000000
 12
-0.500000
 22
0.500000
 32
0.000000
 13
0.500000
 23
0.500000
 33
0.000000
  0
ENDBLK
  8
0
  0
BLOCK
  8
0
  2
PIE
 70
64
 10
0.000000
 20
0.000000
 30
0.000000
  3
PIE
  0
CIRCLE
  8
0
 10
0.000000
 20
0.000000
 30
0.000000
 40
0.500000
  0
ENDBLK
  8
0
  0
BLOCK
  8
0
  2
OCTAGONP
 70
64
 10
0.000000
 20
0.000000
 30
0.000000
  3
OCTAGONP
  0
POLYLINE
  8
0
 66
1
 10
0.000000
 20
0.000000
 30
0.000000
 40
0.000000
 41
0.000000
 70
1
  0
VERTEX
  8
0
 10
-0.500000
 20
-0.207107
 30
0.000000
  0
VERTEX
  8
0
 10
-0.500000
 20
0.207107
 30
0.000000
  0
VERTEX
  8
0
 10
-0.207107
 20
0.500000
 30
0.000000
  0
VERTEX
  8
0
 10
0.207107
 20
0.500000
 30
0.000000
  0
VERTEX
  8
0
 10
0.500000
 20
0.207107
 30
0.000000
  0
VERTEX
  8
0
 10
0.500000
 20
-0.207107
 30
0.000000
  0
VERTEX
  8
0
 10
0.207107
 20
-0.500000
 30
0.000000
  0
VERTEX
  8
0
 10
-0.207107
 20
-0.500000
 30
0.000000
  0
SEQEND
  8
0
  0
ENDBLK
  8
0
  0
BLOCK
  8
0
  2
SQUAREP
 70
64
 10
0.000000
 20
0.000000
 30
0.000000
  3
SQUAREP
  0
SOLID
  8
0
 10
-0.500000
 20
-0.500000
 30
0.000000
 11
0.500000
 21
-0.500000
 31
0.000000
 12
-0.500000
 22
0.500000
 32
0.000000
 13
0.500000
 23
0.500000
 33
0.000000
  0
ENDBLK
  8
0
  0
BLOCK
  8
0
  2
ROUNDP
 70
64
 10
0.000000
 20
0.000000
 30
0.000000
  3
ROUNDP
  0
CIRCLE
  8
0
 10
0.000000
 20
0.000000
 30
0.000000
 40
0.500000
  0
ENDBLK
  8
0
  0
BLOCK
  8
0
  2
ANNULUSP
 70
64
 10
0.000000
 20
0.000000
 30
0.000000
  3
ANNULUSP
  0
CIRCLE
  8
0
 10
0.000000
 20
0.000000
 30
0.000000
 40
0.500000
  0
ENDBLK
  8
0
  0
BLOCK
  8
0
  2
THERMALP
 70
64
 10
0.000000
 20
0.000000
 30
0.000000
  3
THERMALP
  0
LINE
  8
0
 10
-0.237868
 20
0.450000
 30
0.000000
 11
0.237868
 21
0.450000
 31
0.000000
  0
LINE
  8
0
 10
0.450000
 20
0.237868
 30
0.000000
 11
0.450000
 21
-0.237868
 31
0.000000
  0
LINE
  8
0
 10
0.237868
 20
-0.450000
 30
0.000000
 11
-0.237868
 21
-0.450000
 31
0.000000
  0
LINE
  8
0
 10
-0.450000
 20
-0.237868
 30
0.000000
 11
-0.450000
 21
0.237868
 31
0.000000
  0
ENDBLK
  8
0
  0
BLOCK
  8
0
  2
OCTAGONV
 70
64
 10
0.000000
 20
0.000000
 30
0.000000
  3
OCTAGONV
  0
POLYLINE
  8
0
 66
1
 10
0.000000
 20
0.000000
 30
0.000000
 40
0.000000
 41
0.000000
 70
1
  0
VERTEX
  8
0
 10
-0.500000
 20
-0.207107
 30
0.000000
  0
VERTEX
  8
0
 10
-0.500000
 20
0.207107
 30
0.000000
  0
VERTEX
  8
0
 10
-0.207107
 20
0.500000
 30
0.000000
  0
VERTEX
  8
0
 10
0.207107
 20
0.500000
 30
0.000000
  0
VERTEX
  8
0
 10
0.500000
 20
0.207107
 30
0.000000
  0
VERTEX
  8
0
 10
0.500000
 20
-0.207107
 30
0.000000
  0
VERTEX
  8
0
 10
0.207107
 20
-0.500000
 30
0.000000
  0
VERTEX
  8
0
 10
-0.207107
 20
-0.500000
 30
0.000000
  0
SEQEND
  8
0
  0
ENDBLK
  8
0
  0
BLOCK
  8
0
  2
SQUAREV
 70
64
 10
0.000000
 20
0.000000
 30
0.000000
  3
SQUAREV
  0
SOLID
  8
0
 10
-0.500000
 20
-0.500000
 30
0.000000
 11
0.500000
 21
-0.500000
 31
0.000000
 12
-0.500000
 22
0.500000
 32
0.000000
 13
0.500000
 23
0.500000
 33
0.000000
  0
ENDBLK
  8
0
  0
BLOCK
  8
0
  2
ROUNDV
 70
64
 10
0.000000
 20
0.000000
 30
0.000000
  3
ROUNDV
  0
CIRCLE
  8
0
 10
0.000000
 20
0.000000
 30
0.000000
 40
0.500000
  0
ENDBLK
  8
0
  0
BLOCK
  8
0
  2
ANNULUSV
 70
64
 10
0.000000
 20
0.000000
 30
0.000000
  3
ANNULUSV
  0
CIRCLE
  8
0
 10
0.000000
 20
0.000000
 30
0.000000
 40
0.500000
  0
ENDBLK
  8
0
  0
BLOCK
  8
0
  2
THERMALV
 70
64
 10
0.000000
 20
0.000000
 30
0.000000
  3
THERMALV
  0
LINE
  8
0
 10
-0.237868
 20
0.450000
 30
0.000000
 11
0.237868
 21
0.450000
 31
0.000000
  0
LINE
  8
0
 10
0.450000
 20
0.237868
 30
0.000000
 11
0.450000
 21
-0.237868
 31
0.000000
  0
LINE
  8
0
 10
0.237868
 20
-0.450000
 30
0.000000
 11
-0.237868
 21
-0.450000
 31
0.000000
  0
LINE
  8
0
 10
-0.450000
 20
-0.237868
 30
0.000000
 11
-0.450000
 21
0.237868
 31
0.000000
  0
ENDBLK
  8
0
  0
BLOCK
  8
0
  2
RECT85344X85344R100
 70
64
 10
0.000000
 20
0.000000
 30
0.000000
  3
RECT85344X85344R100
  0
POLYLINE
  8
0
 66
1
 10
0.000000
 20
0.000000
 30
0.000000
 40
0.000000
 41
0.000000
 70
1
  0
VERTEX
  8
0
 10
0.010500
 20
0.000000
 30
0.000000
  0
VERTEX
  8
0
 10
0.010500
 20
0.000000
 30
0.000000
 42
0.414214
  0
VERTEX
  8
0
 10
0.000000
 20
0.010500
 30
0.000000
  0
VERTEX
  8
0
 10
0.000000
 20
0.010500
 30
0.000000
 42
0.414214
  0
VERTEX
  8
0
 10
-0.010500
 20
0.000000
 30
0.000000
  0
VERTEX
  8
0
 10
-0.010500
 20
0.000000
 30
0.000000
 42
0.414214
  0
VERTEX
  8
0
 10
0.000000
 20
-0.010500
 30
0.000000
  0
VERTEX
  8
0
 10
0.000000
 20
-0.010500
 30
0.000000
 42
0.414214
  0
SEQEND
  8
0
  0
ENDBLK
  8
0
  0
ENDSEC
  0
SECTION
  2
ENTITIES
  0
LINE
  8
20
 10
0.000000
 20
0.000000
 30
0.000000
 11
3.000000
 21
0.000000
 31
0.000000
  0
LINE
  8
20
 10
3.000000
 20
0.000000
 30
0.000000
 11
3.000000
 21
3.000000
 31
0.000000
  0
LINE
  8
20
 10
3.000000
 20
3.000000
 30
0.000000
 11
0.000000
 21
3.000000
 31
0.000000
  0
LINE
  8
20
 10
0.000000
 20
3.000000
 30
0.000000
 11
0.000000
 21
0.000000
 31
0.000000
  0
INSERT
  8
31
  2
RECT
 10
1.764567
 20
1.800000
 30
0.000000
 41
0.021496
 42
0.037244
 43
1.000000
 50
0.000000
  0
INSERT
  8
31
  2
RECT
 10
1.835433
 20
1.800000
 30
0.000000
 41
0.021496
 42
0.037244
 43
1.000000
 50
0.000000
  0
INSERT
  8
31
  2
RECT
 10
1.200000
 20
1.616535
 30
0.000000
 41
0.033307
 42
0.029370
 43
1.000000
 50
90.000000
  0
INSERT
  8
31
  2
RECT
 10
1.200000
 20
1.683465
 30
0.000000
 41
0.033307
 42
0.029370
 43
1.000000
 50
90.000000
  0
INSERT
  8
31
  2
RECT
 10
1.900000
 20
1.683465
 30
0.000000
 41
0.033307
 42
0.029370
 43
1.000000
 50
270.000000
  0
INSERT
  8
31
  2
RECT
 10
1.900000
 20
1.616535
 30
0.000000
 41
0.033307
 42
0.029370
 43
1.000000
 50
270.000000
  0
INSERT
  8
31
  2
RECT
 10
1.300000
 20
1.233465
 30
0.000000
 41
0.033307
 42
0.029370
 43
1.000000
 50
270.000000
  0
INSERT
  8
31
  2
RECT
 10
1.300000
 20
1.166535
 30
0.000000
 41
0.033307
 42
0.029370
 43
1.000000
 50
270.000000
  0
INSERT
  8
31
  2
RECT
 10
1.785906
 20
1.180000
 30
0.000000
 41
0.033307
 42
0.029370
 43
1.000000
 50
0.000000
  0
INSERT
  8
31
  2
RECT
 10
1.852835
 20
1.180000
 30
0.000000
 41
0.033307
 42
0.029370
 43
1.000000
 50
0.000000
  0
INSERT
  8
31
  2
RECT
 10
1.446535
 20
1.906181
 30
0.000000
 41
0.033307
 42
0.029370
 43
1.000000
 50
0.000000
  0
INSERT
  8
31
  2
RECT
 10
1.513465
 20
1.906181
 30
0.000000
 41
0.033307
 42
0.029370
 43
1.000000
 50
0.000000
  0
INSERT
  8
31
  2
RECT
 10
1.446535
 20
1.841496
 30
0.000000
 41
0.033307
 42
0.029370
 43
1.000000
 50
0.000000
  0
INSERT
  8
31
  2
RECT
 10
1.513465
 20
1.841496
 30
0.000000
 41
0.033307
 42
0.029370
 43
1.000000
 50
0.000000
  0
INSERT
  8
31
  2
RECT
 10
1.675465
 20
2.210000
 30
0.000000
 41
0.033307
 42
0.029370
 43
1.000000
 50
180.000000
  0
INSERT
  8
31
  2
RECT
 10
1.608535
 20
2.210000
 30
0.000000
 41
0.033307
 42
0.029370
 43
1.000000
 50
180.000000
  0
INSERT
  8
31
  2
RECT
 10
1.233465
 20
2.210000
 30
0.000000
 41
0.033307
 42
0.029370
 43
1.000000
 50
180.000000
  0
INSERT
  8
31
  2
RECT
 10
1.166535
 20
2.210000
 30
0.000000
 41
0.033307
 42
0.029370
 43
1.000000
 50
180.000000
  0
INSERT
  8
31
  2
RECT
 10
1.220000
 20
1.348465
 30
0.000000
 41
0.033307
 42
0.029370
 43
1.000000
 50
270.000000
  0
INSERT
  8
31
  2
RECT
 10
1.220000
 20
1.281535
 30
0.000000
 41
0.033307
 42
0.029370
 43
1.000000
 50
270.000000
  0
INSERT
  8
31
  2
RECT
 10
1.690000
 20
1.163465
 30
0.000000
 41
0.033307
 42
0.029370
 43
1.000000
 50
270.000000
  0
INSERT
  8
31
  2
RECT
 10
1.690000
 20
1.096535
 30
0.000000
 41
0.033307
 42
0.029370
 43
1.000000
 50
270.000000
  0
INSERT
  8
31
  2
RECT
 10
1.666535
 20
0.300000
 30
0.000000
 41
0.033307
 42
0.029370
 43
1.000000
 50
0.000000
  0
INSERT
  8
31
  2
RECT
 10
1.733465
 20
0.300000
 30
0.000000
 41
0.033307
 42
0.029370
 43
1.000000
 50
0.000000
  0
INSERT
  8
31
  2
RECT
 10
1.575000
 20
2.398465
 30
0.000000
 41
0.033307
 42
0.029370
 43
1.000000
 50
270.000000
  0
INSERT
  8
31
  2
RECT
 10
1.575000
 20
2.331535
 30
0.000000
 41
0.033307
 42
0.029370
 43
1.000000
 50
270.000000
  0
INSERT
  8
31
  2
RECT
 10
0.875000
 20
2.398465
 30
0.000000
 41
0.033307
 42
0.029370
 43
1.000000
 50
270.000000
  0
INSERT
  8
31
  2
RECT
 10
0.875000
 20
2.331535
 30
0.000000
 41
0.033307
 42
0.029370
 43
1.000000
 50
270.000000
  0
INSERT
  8
31
  2
RECT
 10
0.866535
 20
1.575000
 30
0.000000
 41
0.033307
 42
0.029370
 43
1.000000
 50
0.000000
  0
INSERT
  8
31
  2
RECT
 10
0.933465
 20
1.575000
 30
0.000000
 41
0.033307
 42
0.029370
 43
1.000000
 50
0.000000
  0
INSERT
  8
31
  2
RECT
 10
0.866535
 20
1.075000
 30
0.000000
 41
0.033307
 42
0.029370
 43
1.000000
 50
0.000000
  0
INSERT
  8
31
  2
RECT
 10
0.933465
 20
1.075000
 30
0.000000
 41
0.033307
 42
0.029370
 43
1.000000
 50
0.000000
  0
INSERT
  8
31
  2
RECT
 10
1.383465
 20
0.600000
 30
0.000000
 41
0.033307
 42
0.029370
 43
1.000000
 50
180.000000
  0
INSERT
  8
31
  2
RECT
 10
1.316535
 20
0.600000
 30
0.000000
 41
0.033307
 42
0.029370
 43
1.000000
 50
180.000000
  0
INSERT
  8
31
  2
RECT
 10
1.559567
 20
0.525000
 30
0.000000
 41
0.021496
 42
0.037244
 43
1.000000
 50
0.000000
  0
INSERT
  8
31
  2
RECT
 10
1.630433
 20
0.525000
 30
0.000000
 41
0.021496
 42
0.037244
 43
1.000000
 50
0.000000
  0
INSERT
  8
31
  2
RECT
 10
1.383465
 20
0.250000
 30
0.000000
 41
0.033307
 42
0.029370
 43
1.000000
 50
180.000000
  0
INSERT
  8
31
  2
RECT
 10
1.316535
 20
0.250000
 30
0.000000
 41
0.033307
 42
0.029370
 43
1.000000
 50
180.000000
  0
INSERT
  8
31
  2
RECT
 10
2.835000
 20
1.964567
 30
0.000000
 41
0.021496
 42
0.037244
 43
1.000000
 50
90.000000
  0
INSERT
  8
31
  2
RECT
 10
2.835000
 20
2.035433
 30
0.000000
 41
0.021496
 42
0.037244
 43
1.000000
 50
90.000000
  0
INSERT
  8
31
  2
RECT
 10
2.910000
 20
1.966535
 30
0.000000
 41
0.033307
 42
0.029370
 43
1.000000
 50
90.000000
  0
INSERT
  8
31
  2
RECT
 10
2.910000
 20
2.033465
 30
0.000000
 41
0.033307
 42
0.029370
 43
1.000000
 50
90.000000
  0
INSERT
  8
31
  2
RECT
 10
0.650000
 20
0.655118
 30
0.000000
 41
0.052992
 42
0.060866
 43
1.000000
 50
270.000000
  0
INSERT
  8
31
  2
RECT
 10
0.650000
 20
0.544882
 30
0.000000
 41
0.052992
 42
0.060866
 43
1.000000
 50
270.000000
  0
INSERT
  8
31
  2
RECT
 10
0.550000
 20
0.655118
 30
0.000000
 41
0.052992
 42
0.060866
 43
1.000000
 50
270.000000
  0
INSERT
  8
31
  2
RECT
 10
0.550000
 20
0.544882
 30
0.000000
 41
0.052992
 42
0.060866
 43
1.000000
 50
270.000000
  0
INSERT
  8
31
  2
RECT
 10
0.900000
 20
0.233465
 30
0.000000
 41
0.033307
 42
0.029370
 43
1.000000
 50
270.000000
  0
INSERT
  8
31
  2
RECT
 10
0.900000
 20
0.166535
 30
0.000000
 41
0.033307
 42
0.029370
 43
1.000000
 50
270.000000
  0
INSERT
  8
31
  2
RECT
 10
1.000000
 20
0.233465
 30
0.000000
 41
0.033307
 42
0.029370
 43
1.000000
 50
270.000000
  0
INSERT
  8
31
  2
RECT
 10
1.000000
 20
0.166535
 30
0.000000
 41
0.033307
 42
0.029370
 43
1.000000
 50
270.000000
  0
INSERT
  8
31
  2
RECT
 10
0.500000
 20
2.505118
 30
0.000000
 41
0.052992
 42
0.060866
 43
1.000000
 50
270.000000
  0
INSERT
  8
31
  2
RECT
 10
0.500000
 20
2.394882
 30
0.000000
 41
0.052992
 42
0.060866
 43
1.000000
 50
270.000000
  0
INSERT
  8
31
  2
RECT
 10
0.700000
 20
0.766535
 30
0.000000
 41
0.033307
 42
0.029370
 43
1.000000
 50
90.000000
  0
INSERT
  8
31
  2
RECT
 10
0.700000
 20
0.833465
 30
0.000000
 41
0.033307
 42
0.029370
 43
1.000000
 50
90.000000
  0
INSERT
  8
31
  2
RECT
 10
0.694882
 20
2.150000
 30
0.000000
 41
0.052992
 42
0.060866
 43
1.000000
 50
0.000000
  0
INSERT
  8
31
  2
RECT
 10
0.805118
 20
2.150000
 30
0.000000
 41
0.052992
 42
0.060866
 43
1.000000
 50
0.000000
  0
INSERT
  8
31
  2
RECT
 10
1.094882
 20
0.800000
 30
0.000000
 41
0.052992
 42
0.060866
 43
1.000000
 50
0.000000
  0
INSERT
  8
31
  2
RECT
 10
1.205118
 20
0.800000
 30
0.000000
 41
0.052992
 42
0.060866
 43
1.000000
 50
0.000000
  0
INSERT
  8
31
  2
RECT
 10
1.094882
 20
0.950000
 30
0.000000
 41
0.052992
 42
0.060866
 43
1.000000
 50
0.000000
  0
INSERT
  8
31
  2
RECT
 10
1.205118
 20
0.950000
 30
0.000000
 41
0.052992
 42
0.060866
 43
1.000000
 50
0.000000
  0
INSERT
  8
31
  2
RECT
 10
0.170000
 20
0.755000
 30
0.000000
 41
0.340000
 42
0.040000
 43
1.000000
 50
0.000000
  0
INSERT
  8
31
  2
RECT
 10
0.170000
 20
0.445000
 30
0.000000
 41
0.340000
 42
0.040000
 43
1.000000
 50
0.000000
  0
CIRCLE
  8
20
 10
2.350000
 20
0.850000
 30
0.000000
 40
0.019500
  0
CIRCLE
  8
20
 10
2.750000
 20
0.890000
 30
0.000000
 40
0.019500
  0
CIRCLE
  8
20
 10
2.750000
 20
0.810000
 30
0.000000
 40
0.019500
  0
INSERT
  8
31
  2
PIE
 10
2.400000
 20
0.825000
 30
0.000000
 41
0.021000
 42
0.021000
 43
1.000000
 50
0.000000
  0
INSERT
  8
31
  2
PIE
 10
2.400000
 20
0.875000
 30
0.000000
 41
0.021000
 42
0.021000
 43
1.000000
 50
0.000000
  0
INSERT
  8
31
  2
PIE
 10
2.450000
 20
0.825000
 30
0.000000
 41
0.021000
 42
0.021000
 43
1.000000
 50
0.000000
  0
INSERT
  8
31
  2
PIE
 10
2.450000
 20
0.875000
 30
0.000000
 41
0.021000
 42
0.021000
 43
1.000000
 50
0.000000
  0
INSERT
  8
31
  2
PIE
 10
2.500000
 20
0.825000
 30
0.000000
 41
0.021000
 42
0.021000
 43
1.000000
 50
0.000000
  0
INSERT
  8
31
  2
PIE
 10
2.500000
 20
0.875000
 30
0.000000
 41
0.021000
 42
0.021000
 43
1.000000
 50
0.000000
  0
INSERT
  8
31
  2
PIE
 10
2.550000
 20
0.825000
 30
0.000000
 41
0.021000
 42
0.021000
 43
1.000000
 50
0.000000
  0
INSERT
  8
31
  2
PIE
 10
2.550000
 20
0.875000
 30
0.000000
 41
0.021000
 42
0.021000
 43
1.000000
 50
0.000000
  0
INSERT
  8
31
  2
PIE
 10
2.600000
 20
0.825000
 30
0.000000
 41
0.021000
 42
0.021000
 43
1.000000
 50
0.000000
  0
INSERT
  8
31
  2
PIE
 10
2.600000
 20
0.875000
 30
0.000000
 41
0.021000
 42
0.021000
 43
1.000000
 50
0.000000
  0
INSERT
  8
31
  2
PIE
 10
2.650000
 20
0.825000
 30
0.000000
 41
0.021000
 42
0.021000
 43
1.000000
 50
0.000000
  0
INSERT
  8
31
  2
PIE
 10
2.650000
 20
0.875000
 30
0.000000
 41
0.021000
 42
0.021000
 43
1.000000
 50
0.000000
  0
INSERT
  8
31
  2
PIE
 10
2.700000
 20
0.825000
 30
0.000000
 41
0.021000
 42
0.021000
 43
1.000000
 50
0.000000
  0
INSERT
  8
31
  2
PIE
 10
2.700000
 20
0.875000
 30
0.000000
 41
0.021000
 42
0.021000
 43
1.000000
 50
0.000000
  0
INSERT
  8
31
  2
RECT
 10
0.900000
 20
0.749606
 30
0.000000
 41
0.064803
 42
0.214409
 43
1.000000
 50
90.000000
  0
INSERT
  8
31
  2
RECT
 10
0.900000
 20
0.950394
 30
0.000000
 41
0.064803
 42
0.214409
 43
1.000000
 50
90.000000
  0
INSERT
  8
31
  2
RECT
 10
2.600000
 20
0.476000
 30
0.000000
 41
0.037000
 42
0.039000
 43
1.000000
 50
270.000000
  0
INSERT
  8
31
  2
RECT
 10
2.600000
 20
0.394000
 30
0.000000
 41
0.037000
 42
0.039000
 43
1.000000
 50
270.000000
  0
INSERT
  8
31
  2
RECT
 10
2.500000
 20
0.476000
 30
0.000000
 41
0.037000
 42
0.039000
 43
1.000000
 50
270.000000
  0
INSERT
  8
31
  2
RECT
 10
2.500000
 20
0.394000
 30
0.000000
 41
0.037000
 42
0.039000
 43
1.000000
 50
270.000000
  0
INSERT
  8
31
  2
RECT
 10
2.400000
 20
0.476000
 30
0.000000
 41
0.037000
 42
0.039000
 43
1.000000
 50
270.000000
  0
INSERT
  8
31
  2
RECT
 10
2.400000
 20
0.394000
 30
0.000000
 41
0.037000
 42
0.039000
 43
1.000000
 50
270.000000
  0
INSERT
  8
31
  2
RECT
 10
2.300000
 20
0.476000
 30
0.000000
 41
0.037000
 42
0.039000
 43
1.000000
 50
270.000000
  0
INSERT
  8
31
  2
RECT
 10
2.300000
 20
0.394000
 30
0.000000
 41
0.037000
 42
0.039000
 43
1.000000
 50
270.000000
  0
INSERT
  8
31
  2
RECT
 10
2.341000
 20
2.100000
 30
0.000000
 41
0.037000
 42
0.039000
 43
1.000000
 50
180.000000
  0
INSERT
  8
31
  2
RECT
 10
2.259000
 20
2.100000
 30
0.000000
 41
0.037000
 42
0.039000
 43
1.000000
 50
180.000000
  0
INSERT
  8
31
  2
RECT
 10
1.166535
 20
1.415000
 30
0.000000
 41
0.029370
 42
0.033307
 43
1.000000
 50
0.000000
  0
INSERT
  8
31
  2
RECT
 10
1.233465
 20
1.415000
 30
0.000000
 41
0.029370
 42
0.033307
 43
1.000000
 50
0.000000
  0
INSERT
  8
31
  2
RECT
 10
1.983465
 20
1.560000
 30
0.000000
 41
0.029370
 42
0.033307
 43
1.000000
 50
180.000000
  0
INSERT
  8
31
  2
RECT
 10
1.916535
 20
1.560000
 30
0.000000
 41
0.029370
 42
0.033307
 43
1.000000
 50
180.000000
  0
INSERT
  8
31
  2
RECT
 10
1.838465
 20
1.885000
 30
0.000000
 41
0.029370
 42
0.033307
 43
1.000000
 50
180.000000
  0
INSERT
  8
31
  2
RECT
 10
1.771535
 20
1.885000
 30
0.000000
 41
0.029370
 42
0.033307
 43
1.000000
 50
180.000000
  0
INSERT
  8
31
  2
RECT
 10
2.600000
 20
0.551535
 30
0.000000
 41
0.029370
 42
0.033307
 43
1.000000
 50
90.000000
  0
INSERT
  8
31
  2
RECT
 10
2.600000
 20
0.618465
 30
0.000000
 41
0.029370
 42
0.033307
 43
1.000000
 50
90.000000
  0
INSERT
  8
31
  2
RECT
 10
2.500000
 20
0.551535
 30
0.000000
 41
0.029370
 42
0.033307
 43
1.000000
 50
90.000000
  0
INSERT
  8
31
  2
RECT
 10
2.500000
 20
0.618465
 30
0.000000
 41
0.029370
 42
0.033307
 43
1.000000
 50
90.000000
  0
INSERT
  8
31
  2
RECT
 10
2.400000
 20
0.551535
 30
0.000000
 41
0.029370
 42
0.033307
 43
1.000000
 50
90.000000
  0
INSERT
  8
31
  2
RECT
 10
2.400000
 20
0.618465
 30
0.000000
 41
0.029370
 42
0.033307
 43
1.000000
 50
90.000000
  0
INSERT
  8
31
  2
RECT
 10
2.300000
 20
0.551535
 30
0.000000
 41
0.029370
 42
0.033307
 43
1.000000
 50
90.000000
  0
INSERT
  8
31
  2
RECT
 10
2.300000
 20
0.618465
 30
0.000000
 41
0.029370
 42
0.033307
 43
1.000000
 50
90.000000
  0
INSERT
  8
31
  2
RECT
 10
1.050000
 20
1.216535
 30
0.000000
 41
0.029370
 42
0.033307
 43
1.000000
 50
90.000000
  0
INSERT
  8
31
  2
RECT
 10
1.050000
 20
1.283465
 30
0.000000
 41
0.029370
 42
0.033307
 43
1.000000
 50
90.000000
  0
INSERT
  8
31
  2
RECT
 10
1.050000
 20
1.716535
 30
0.000000
 41
0.029370
 42
0.033307
 43
1.000000
 50
90.000000
  0
INSERT
  8
31
  2
RECT
 10
1.050000
 20
1.783465
 30
0.000000
 41
0.029370
 42
0.033307
 43
1.000000
 50
90.000000
  0
INSERT
  8
31
  2
RECT
 10
1.116535
 20
2.050000
 30
0.000000
 41
0.029370
 42
0.033307
 43
1.000000
 50
0.000000
  0
INSERT
  8
31
  2
RECT
 10
1.183465
 20
2.050000
 30
0.000000
 41
0.029370
 42
0.033307
 43
1.000000
 50
0.000000
  0
INSERT
  8
31
  2
RECT
 10
1.938465
 20
2.200000
 30
0.000000
 41
0.029370
 42
0.033307
 43
1.000000
 50
180.000000
  0
INSERT
  8
31
  2
RECT
 10
1.871535
 20
2.200000
 30
0.000000
 41
0.029370
 42
0.033307
 43
1.000000
 50
180.000000
  0
INSERT
  8
31
  2
RECT
 10
0.650000
 20
1.366535
 30
0.000000
 41
0.029370
 42
0.033307
 43
1.000000
 50
90.000000
  0
INSERT
  8
31
  2
RECT
 10
0.650000
 20
1.433465
 30
0.000000
 41
0.029370
 42
0.033307
 43
1.000000
 50
90.000000
  0
INSERT
  8
31
  2
RECT
 10
0.650000
 20
1.933465
 30
0.000000
 41
0.029370
 42
0.033307
 43
1.000000
 50
270.000000
  0
INSERT
  8
31
  2
RECT
 10
0.650000
 20
1.866535
 30
0.000000
 41
0.029370
 42
0.033307
 43
1.000000
 50
270.000000
  0
INSERT
  8
31
  2
RECT
 10
1.263465
 20
2.590000
 30
0.000000
 41
0.029370
 42
0.033307
 43
1.000000
 50
180.000000
  0
INSERT
  8
31
  2
RECT
 10
1.196535
 20
2.590000
 30
0.000000
 41
0.029370
 42
0.033307
 43
1.000000
 50
180.000000
  0
INSERT
  8
31
  2
RECT
 10
1.963465
 20
2.590000
 30
0.000000
 41
0.029370
 42
0.033307
 43
1.000000
 50
180.000000
  0
INSERT
  8
31
  2
RECT
 10
1.896535
 20
2.590000
 30
0.000000
 41
0.029370
 42
0.033307
 43
1.000000
 50
180.000000
  0
INSERT
  8
31
  2
RECT
 10
1.170000
 20
0.328465
 30
0.000000
 41
0.029370
 42
0.033307
 43
1.000000
 50
270.000000
  0
INSERT
  8
31
  2
RECT
 10
1.170000
 20
0.261535
 30
0.000000
 41
0.029370
 42
0.033307
 43
1.000000
 50
270.000000
  0
INSERT
  8
31
  2
RECT
 10
2.416535
 20
2.100000
 30
0.000000
 41
0.029370
 42
0.033307
 43
1.000000
 50
0.000000
  0
INSERT
  8
31
  2
RECT
 10
2.483465
 20
2.100000
 30
0.000000
 41
0.029370
 42
0.033307
 43
1.000000
 50
0.000000
  0
INSERT
  8
31
  2
RECT
 10
0.633465
 20
0.150000
 30
0.000000
 41
0.029370
 42
0.033307
 43
1.000000
 50
180.000000
  0
INSERT
  8
31
  2
RECT
 10
0.566535
 20
0.150000
 30
0.000000
 41
0.029370
 42
0.033307
 43
1.000000
 50
180.000000
  0
INSERT
  8
31
  2
RECT
 10
0.783465
 20
0.150000
 30
0.000000
 41
0.029370
 42
0.033307
 43
1.000000
 50
180.000000
  0
INSERT
  8
31
  2
RECT
 10
0.716535
 20
0.150000
 30
0.000000
 41
0.029370
 42
0.033307
 43
1.000000
 50
180.000000
  0
INSERT
  8
31
  2
RECT
 10
0.683465
 20
0.300000
 30
0.000000
 41
0.029370
 42
0.033307
 43
1.000000
 50
180.000000
  0
INSERT
  8
31
  2
RECT
 10
0.616535
 20
0.300000
 30
0.000000
 41
0.029370
 42
0.033307
 43
1.000000
 50
180.000000
  0
INSERT
  8
31
  2
RECT
 10
2.400000
 20
2.866535
 30
0.000000
 41
0.029370
 42
0.033307
 43
1.000000
 50
90.000000
  0
INSERT
  8
31
  2
RECT
 10
2.400000
 20
2.933465
 30
0.000000
 41
0.029370
 42
0.033307
 43
1.000000
 50
90.000000
  0
INSERT
  8
31
  2
RECT
 10
2.300000
 20
2.866535
 30
0.000000
 41
0.029370
 42
0.033307
 43
1.000000
 50
90.000000
  0
INSERT
  8
31
  2
RECT
 10
2.300000
 20
2.933465
 30
0.000000
 41
0.029370
 42
0.033307
 43
1.000000
 50
90.000000
  0
INSERT
  8
31
  2
RECT
 10
0.650000
 20
1.303465
 30
0.000000
 41
0.029370
 42
0.033307
 43
1.000000
 50
270.000000
  0
INSERT
  8
31
  2
RECT
 10
0.650000
 20
1.236535
 30
0.000000
 41
0.029370
 42
0.033307
 43
1.000000
 50
270.000000
  0
INSERT
  8
31
  2
RECT
 10
0.650000
 20
1.803465
 30
0.000000
 41
0.029370
 42
0.033307
 43
1.000000
 50
270.000000
  0
INSERT
  8
31
  2
RECT
 10
0.650000
 20
1.736535
 30
0.000000
 41
0.029370
 42
0.033307
 43
1.000000
 50
270.000000
  0
INSERT
  8
31
  2
RECT
 10
1.133465
 20
2.590000
 30
0.000000
 41
0.029370
 42
0.033307
 43
1.000000
 50
180.000000
  0
INSERT
  8
31
  2
RECT
 10
1.066535
 20
2.590000
 30
0.000000
 41
0.029370
 42
0.033307
 43
1.000000
 50
180.000000
  0
INSERT
  8
31
  2
RECT
 10
1.833465
 20
2.590000
 30
0.000000
 41
0.029370
 42
0.033307
 43
1.000000
 50
180.000000
  0
INSERT
  8
31
  2
RECT
 10
1.766535
 20
2.590000
 30
0.000000
 41
0.029370
 42
0.033307
 43
1.000000
 50
180.000000
  0
INSERT
  8
31
  2
RECT
 10
0.416535
 20
1.450000
 30
0.000000
 41
0.029370
 42
0.033307
 43
1.000000
 50
0.000000
  0
INSERT
  8
31
  2
RECT
 10
0.483465
 20
1.450000
 30
0.000000
 41
0.029370
 42
0.033307
 43
1.000000
 50
0.000000
  0
INSERT
  8
31
  2
RECT
 10
0.483465
 20
1.350000
 30
0.000000
 41
0.029370
 42
0.033307
 43
1.000000
 50
180.000000
  0
INSERT
  8
31
  2
RECT
 10
0.416535
 20
1.350000
 30
0.000000
 41
0.029370
 42
0.033307
 43
1.000000
 50
180.000000
  0
INSERT
  8
31
  2
RECT
 10
0.416535
 20
1.150000
 30
0.000000
 41
0.029370
 42
0.033307
 43
1.000000
 50
0.000000
  0
INSERT
  8
31
  2
RECT
 10
0.483465
 20
1.150000
 30
0.000000
 41
0.029370
 42
0.033307
 43
1.000000
 50
0.000000
  0
INSERT
  8
31
  2
RECT
 10
0.416535
 20
1.250000
 30
0.000000
 41
0.029370
 42
0.033307
 43
1.000000
 50
0.000000
  0
INSERT
  8
31
  2
RECT
 10
0.483465
 20
1.250000
 30
0.000000
 41
0.029370
 42
0.033307
 43
1.000000
 50
0.000000
  0
INSERT
  8
31
  2
RECT
 10
0.416535
 20
1.890000
 30
0.000000
 41
0.029370
 42
0.033307
 43
1.000000
 50
0.000000
  0
INSERT
  8
31
  2
RECT
 10
0.483465
 20
1.890000
 30
0.000000
 41
0.029370
 42
0.033307
 43
1.000000
 50
0.000000
  0
INSERT
  8
31
  2
RECT
 10
0.483465
 20
1.990000
 30
0.000000
 41
0.029370
 42
0.033307
 43
1.000000
 50
180.000000
  0
INSERT
  8
31
  2
RECT
 10
0.416535
 20
1.990000
 30
0.000000
 41
0.029370
 42
0.033307
 43
1.000000
 50
180.000000
  0
INSERT
  8
31
  2
RECT
 10
0.483465
 20
2.190000
 30
0.000000
 41
0.029370
 42
0.033307
 43
1.000000
 50
180.000000
  0
INSERT
  8
31
  2
RECT
 10
0.416535
 20
2.190000
 30
0.000000
 41
0.029370
 42
0.033307
 43
1.000000
 50
180.000000
  0
INSERT
  8
31
  2
RECT
 10
0.416535
 20
2.090000
 30
0.000000
 41
0.029370
 42
0.033307
 43
1.000000
 50
0.000000
  0
INSERT
  8
31
  2
RECT
 10
0.483465
 20
2.090000
 30
0.000000
 41
0.029370
 42
0.033307
 43
1.000000
 50
0.000000
  0
INSERT
  8
31
  2
RECT
 10
1.326535
 20
2.230000
 30
0.000000
 41
0.029370
 42
0.033307
 43
1.000000
 50
0.000000
  0
INSERT
  8
31
  2
RECT
 10
1.393465
 20
2.230000
 30
0.000000
 41
0.029370
 42
0.033307
 43
1.000000
 50
0.000000
  0
INSERT
  8
31
  2
RECT
 10
1.393465
 20
2.320000
 30
0.000000
 41
0.029370
 42
0.033307
 43
1.000000
 50
180.000000
  0
INSERT
  8
31
  2
RECT
 10
1.326535
 20
2.320000
 30
0.000000
 41
0.029370
 42
0.033307
 43
1.000000
 50
180.000000
  0
INSERT
  8
31
  2
RECT
 10
1.326535
 20
2.410000
 30
0.000000
 41
0.029370
 42
0.033307
 43
1.000000
 50
0.000000
  0
INSERT
  8
31
  2
RECT
 10
1.393465
 20
2.410000
 30
0.000000
 41
0.029370
 42
0.033307
 43
1.000000
 50
0.000000
  0
INSERT
  8
31
  2
RECT
 10
1.383465
 20
2.500000
 30
0.000000
 41
0.029370
 42
0.033307
 43
1.000000
 50
180.000000
  0
INSERT
  8
31
  2
RECT
 10
1.316535
 20
2.500000
 30
0.000000
 41
0.029370
 42
0.033307
 43
1.000000
 50
180.000000
  0
INSERT
  8
31
  2
RECT
 10
2.026535
 20
2.230000
 30
0.000000
 41
0.029370
 42
0.033307
 43
1.000000
 50
0.000000
  0
INSERT
  8
31
  2
RECT
 10
2.093465
 20
2.230000
 30
0.000000
 41
0.029370
 42
0.033307
 43
1.000000
 50
0.000000
  0
INSERT
  8
31
  2
RECT
 10
2.093465
 20
2.320000
 30
0.000000
 41
0.029370
 42
0.033307
 43
1.000000
 50
180.000000
  0
INSERT
  8
31
  2
RECT
 10
2.026535
 20
2.320000
 30
0.000000
 41
0.029370
 42
0.033307
 43
1.000000
 50
180.000000
  0
INSERT
  8
31
  2
RECT
 10
2.026535
 20
2.410000
 30
0.000000
 41
0.029370
 42
0.033307
 43
1.000000
 50
0.000000
  0
INSERT
  8
31
  2
RECT
 10
2.093465
 20
2.410000
 30
0.000000
 41
0.029370
 42
0.033307
 43
1.000000
 50
0.000000
  0
INSERT
  8
31
  2
RECT
 10
2.093465
 20
2.500000
 30
0.000000
 41
0.029370
 42
0.033307
 43
1.000000
 50
180.000000
  0
INSERT
  8
31
  2
RECT
 10
2.026535
 20
2.500000
 30
0.000000
 41
0.029370
 42
0.033307
 43
1.000000
 50
180.000000
  0
CIRCLE
  8
20
 10
0.250000
 20
0.250000
 30
0.000000
 40
0.065000
  0
CIRCLE
  8
20
 10
0.250000
 20
2.750000
 30
0.000000
 40
0.065000
  0
CIRCLE
  8
20
 10
2.750000
 20
2.750000
 30
0.000000
 40
0.065000
  0
CIRCLE
  8
20
 10
2.750000
 20
0.250000
 30
0.000000
 40
0.065000
  0
INSERT
  8
31
  2
RECT
 10
1.697638
 20
1.732283
 30
0.000000
 41
0.064803
 42
0.005811
 43
1.000000
 50
270.000000
  0
INSERT
  8
31
  2
RECT
 10
1.677953
 20
1.732283
 30
0.000000
 41
0.064803
 42
0.005811
 43
1.000000
 50
270.000000
  0
INSERT
  8
31
  2
RECT
 10
1.658268
 20
1.732283
 30
0.000000
 41
0.064803
 42
0.005811
 43
1.000000
 50
270.000000
  0
INSERT
  8
31
  2
RECT
 10
1.638583
 20
1.732283
 30
0.000000
 41
0.064803
 42
0.005811
 43
1.000000
 50
270.000000
  0
INSERT
  8
31
  2
RECT
 10
1.618898
 20
1.732283
 30
0.000000
 41
0.064803
 42
0.005811
 43
1.000000
 50
270.000000
  0
INSERT
  8
31
  2
RECT
 10
1.599213
 20
1.732283
 30
0.000000
 41
0.064803
 42
0.005811
 43
1.000000
 50
270.000000
  0
INSERT
  8
31
  2
RECT
 10
1.579528
 20
1.732283
 30
0.000000
 41
0.064803
 42
0.005811
 43
1.000000
 50
270.000000
  0
INSERT
  8
31
  2
RECT
 10
1.559843
 20
1.732283
 30
0.000000
 41
0.064803
 42
0.005811
 43
1.000000
 50
270.000000
  0
INSERT
  8
31
  2
RECT
 10
1.540157
 20
1.732283
 30
0.000000
 41
0.064803
 42
0.005811
 43
1.000000
 50
270.000000
  0
INSERT
  8
31
  2
RECT
 10
1.520472
 20
1.732283
 30
0.000000
 41
0.064803
 42
0.005811
 43
1.000000
 50
270.000000
  0
INSERT
  8
31
  2
RECT
 10
1.500787
 20
1.732283
 30
0.000000
 41
0.064803
 42
0.005811
 43
1.000000
 50
270.000000
  0
INSERT
  8
31
  2
RECT
 10
1.481102
 20
1.732283
 30
0.000000
 41
0.064803
 42
0.005811
 43
1.000000
 50
270.000000
  0
INSERT
  8
31
  2
RECT
 10
1.461417
 20
1.732283
 30
0.000000
 41
0.064803
 42
0.005811
 43
1.000000
 50
270.000000
  0
INSERT
  8
31
  2
RECT
 10
1.441732
 20
1.732283
 30
0.000000
 41
0.064803
 42
0.005811
 43
1.000000
 50
270.000000
  0
INSERT
  8
31
  2
RECT
 10
1.422047
 20
1.732283
 30
0.000000
 41
0.064803
 42
0.005811
 43
1.000000
 50
270.000000
  0
INSERT
  8
31
  2
RECT
 10
1.402362
 20
1.732283
 30
0.000000
 41
0.064803
 42
0.005811
 43
1.000000
 50
270.000000
  0
INSERT
  8
31
  2
RECT
 10
1.317717
 20
1.647638
 30
0.000000
 41
0.064803
 42
0.005811
 43
1.000000
 50
0.000000
  0
INSERT
  8
31
  2
RECT
 10
1.317717
 20
1.627953
 30
0.000000
 41
0.064803
 42
0.005811
 43
1.000000
 50
0.000000
  0
INSERT
  8
31
  2
RECT
 10
1.317717
 20
1.608268
 30
0.000000
 41
0.064803
 42
0.005811
 43
1.000000
 50
0.000000
  0
INSERT
  8
31
  2
RECT
 10
1.317717
 20
1.588583
 30
0.000000
 41
0.064803
 42
0.005811
 43
1.000000
 50
0.000000
  0
INSERT
  8
31
  2
RECT
 10
1.317717
 20
1.568898
 30
0.000000
 41
0.064803
 42
0.005811
 43
1.000000
 50
0.000000
  0
INSERT
  8
31
  2
RECT
 10
1.317717
 20
1.549213
 30
0.000000
 41
0.064803
 42
0.005811
 43
1.000000
 50
0.000000
  0
INSERT
  8
31
  2
RECT
 10
1.317717
 20
1.529528
 30
0.000000
 41
0.064803
 42
0.005811
 43
1.000000
 50
0.000000
  0
INSERT
  8
31
  2
RECT
 10
1.317717
 20
1.509843
 30
0.000000
 41
0.064803
 42
0.005811
 43
1.000000
 50
0.000000
  0
INSERT
  8
31
  2
RECT
 10
1.317717
 20
1.490157
 30
0.000000
 41
0.064803
 42
0.005811
 43
1.000000
 50
0.000000
  0
INSERT
  8
31
  2
RECT
 10
1.317717
 20
1.470472
 30
0.000000
 41
0.064803
 42
0.005811
 43
1.000000
 50
0.000000
  0
INSERT
  8
31
  2
RECT
 10
1.317717
 20
1.450787
 30
0.000000
 41
0.064803
 42
0.005811
 43
1.000000
 50
0.000000
  0
INSERT
  8
31
  2
RECT
 10
1.317717
 20
1.431102
 30
0.000000
 41
0.064803
 42
0.005811
 43
1.000000
 50
0.000000
  0
INSERT
  8
31
  2
RECT
 10
1.317717
 20
1.411417
 30
0.000000
 41
0.064803
 42
0.005811
 43
1.000000
 50
0.000000
  0
INSERT
  8
31
  2
RECT
 10
1.317717
 20
1.391732
 30
0.000000
 41
0.064803
 42
0.005811
 43
1.000000
 50
0.000000
  0
INSERT
  8
31
  2
RECT
 10
1.317717
 20
1.372047
 30
0.000000
 41
0.064803
 42
0.005811
 43
1.000000
 50
0.000000
  0
INSERT
  8
31
  2
RECT
 10
1.317717
 20
1.352362
 30
0.000000
 41
0.064803
 42
0.005811
 43
1.000000
 50
0.000000
  0
INSERT
  8
31
  2
RECT
 10
1.402362
 20
1.267717
 30
0.000000
 41
0.064803
 42
0.005811
 43
1.000000
 50
270.000000
  0
INSERT
  8
31
  2
RECT
 10
1.422047
 20
1.267717
 30
0.000000
 41
0.064803
 42
0.005811
 43
1.000000
 50
270.000000
  0
INSERT
  8
31
  2
RECT
 10
1.441732
 20
1.267717
 30
0.000000
 41
0.064803
 42
0.005811
 43
1.000000
 50
270.000000
  0
INSERT
  8
31
  2
RECT
 10
1.461417
 20
1.267717
 30
0.000000
 41
0.064803
 42
0.005811
 43
1.000000
 50
270.000000
  0
INSERT
  8
31
  2
RECT
 10
1.481102
 20
1.267717
 30
0.000000
 41
0.064803
 42
0.005811
 43
1.000000
 50
270.000000
  0
INSERT
  8
31
  2
RECT
 10
1.500787
 20
1.267717
 30
0.000000
 41
0.064803
 42
0.005811
 43
1.000000
 50
270.000000
  0
INSERT
  8
31
  2
RECT
 10
1.520472
 20
1.267717
 30
0.000000
 41
0.064803
 42
0.005811
 43
1.000000
 50
270.000000
  0
INSERT
  8
31
  2
RECT
 10
1.540157
 20
1.267717
 30
0.000000
 41
0.064803
 42
0.005811
 43
1.000000
 50
270.000000
  0
INSERT
  8
31
  2
RECT
 10
1.559843
 20
1.267717
 30
0.000000
 41
0.064803
 42
0.005811
 43
1.000000
 50
270.000000
  0
INSERT
  8
31
  2
RECT
 10
1.579528
 20
1.267717
 30
0.000000
 41
0.064803
 42
0.005811
 43
1.000000
 50
270.000000
  0
INSERT
  8
31
  2
RECT
 10
1.599213
 20
1.267717
 30
0.000000
 41
0.064803
 42
0.005811
 43
1.000000
 50
270.000000
  0
INSERT
  8
31
  2
RECT
 10
1.618898
 20
1.267717
 30
0.000000
 41
0.064803
 42
0.005811
 43
1.000000
 50
270.000000
  0
INSERT
  8
31
  2
RECT
 10
1.638583
 20
1.267717
 30
0.000000
 41
0.064803
 42
0.005811
 43
1.000000
 50
270.000000
  0
INSERT
  8
31
  2
RECT
 10
1.658268
 20
1.267717
 30
0.000000
 41
0.064803
 42
0.005811
 43
1.000000
 50
270.000000
  0
INSERT
  8
31
  2
RECT
 10
1.677953
 20
1.267717
 30
0.000000
 41
0.064803
 42
0.005811
 43
1.000000
 50
270.000000
  0
INSERT
  8
31
  2
RECT
 10
1.697638
 20
1.267717
 30
0.000000
 41
0.064803
 42
0.005811
 43
1.000000
 50
270.000000
  0
INSERT
  8
31
  2
RECT
 10
1.782283
 20
1.352362
 30
0.000000
 41
0.064803
 42
0.005811
 43
1.000000
 50
0.000000
  0
INSERT
  8
31
  2
RECT
 10
1.782283
 20
1.372047
 30
0.000000
 41
0.064803
 42
0.005811
 43
1.000000
 50
0.000000
  0
INSERT
  8
31
  2
RECT
 10
1.782283
 20
1.391732
 30
0.000000
 41
0.064803
 42
0.005811
 43
1.000000
 50
0.000000
  0
INSERT
  8
31
  2
RECT
 10
1.782283
 20
1.411417
 30
0.000000
 41
0.064803
 42
0.005811
 43
1.000000
 50
0.000000
  0
INSERT
  8
31
  2
RECT
 10
1.782283
 20
1.431102
 30
0.000000
 41
0.064803
 42
0.005811
 43
1.000000
 50
0.000000
  0
INSERT
  8
31
  2
RECT
 10
1.782283
 20
1.450787
 30
0.000000
 41
0.064803
 42
0.005811
 43
1.000000
 50
0.000000
  0
INSERT
  8
31
  2
RECT
 10
1.782283
 20
1.470472
 30
0.000000
 41
0.064803
 42
0.005811
 43
1.000000
 50
0.000000
  0
INSERT
  8
31
  2
RECT
 10
1.782283
 20
1.490157
 30
0.000000
 41
0.064803
 42
0.005811
 43
1.000000
 50
0.000000
  0
INSERT
  8
31
  2
RECT
 10
1.782283
 20
1.509843
 30
0.000000
 41
0.064803
 42
0.005811
 43
1.000000
 50
0.000000
  0
INSERT
  8
31
  2
RECT
 10
1.782283
 20
1.529528
 30
0.000000
 41
0.064803
 42
0.005811
 43
1.000000
 50
0.000000
  0
INSERT
  8
31
  2
RECT
 10
1.782283
 20
1.549213
 30
0.000000
 41
0.064803
 42
0.005811
 43
1.000000
 50
0.000000
  0
INSERT
  8
31
  2
RECT
 10
1.782283
 20
1.568898
 30
0.000000
 41
0.064803
 42
0.005811
 43
1.000000
 50
0.000000
  0
INSERT
  8
31
  2
RECT
 10
1.782283
 20
1.588583
 30
0.000000
 41
0.064803
 42
0.005811
 43
1.000000
 50
0.000000
  0
INSERT
  8
31
  2
RECT
 10
1.782283
 20
1.608268
 30
0.000000
 41
0.064803
 42
0.005811
 43
1.000000
 50
0.000000
  0
INSERT
  8
31
  2
RECT
 10
1.782283
 20
1.627953
 30
0.000000
 41
0.064803
 42
0.005811
 43
1.000000
 50
0.000000
  0
INSERT
  8
31
  2
RECT
 10
1.782283
 20
1.647638
 30
0.000000
 41
0.064803
 42
0.005811
 43
1.000000
 50
0.000000
  0
INSERT
  8
31
  2
RECT
 10
0.960236
 20
1.150000
 30
0.000000
 41
0.058898
 42
0.015591
 43
1.000000
 50
180.000000
  0
INSERT
  8
31
  2
RECT
 10
0.960236
 20
1.200000
 30
0.000000
 41
0.058898
 42
0.015591
 43
1.000000
 50
180.000000
  0
INSERT
  8
31
  2
RECT
 10
0.960236
 20
1.250000
 30
0.000000
 41
0.058898
 42
0.015591
 43
1.000000
 50
180.000000
  0
INSERT
  8
31
  2
RECT
 10
0.960236
 20
1.300000
 30
0.000000
 41
0.058898
 42
0.015591
 43
1.000000
 50
180.000000
  0
INSERT
  8
31
  2
RECT
 10
0.960236
 20
1.350000
 30
0.000000
 41
0.058898
 42
0.015591
 43
1.000000
 50
180.000000
  0
INSERT
  8
31
  2
RECT
 10
0.960236
 20
1.400000
 30
0.000000
 41
0.058898
 42
0.015591
 43
1.000000
 50
180.000000
  0
INSERT
  8
31
  2
RECT
 10
0.960236
 20
1.450000
 30
0.000000
 41
0.058898
 42
0.015591
 43
1.000000
 50
180.000000
  0
INSERT
  8
31
  2
RECT
 10
0.739764
 20
1.450000
 30
0.000000
 41
0.058898
 42
0.015591
 43
1.000000
 50
180.000000
  0
INSERT
  8
31
  2
RECT
 10
0.739764
 20
1.400000
 30
0.000000
 41
0.058898
 42
0.015591
 43
1.000000
 50
180.000000
  0
INSERT
  8
31
  2
RECT
 10
0.739764
 20
1.350000
 30
0.000000
 41
0.058898
 42
0.015591
 43
1.000000
 50
180.000000
  0
INSERT
  8
31
  2
RECT
 10
0.739764
 20
1.300000
 30
0.000000
 41
0.058898
 42
0.015591
 43
1.000000
 50
180.000000
  0
INSERT
  8
31
  2
RECT
 10
0.739764
 20
1.250000
 30
0.000000
 41
0.058898
 42
0.015591
 43
1.000000
 50
180.000000
  0
INSERT
  8
31
  2
RECT
 10
0.739764
 20
1.200000
 30
0.000000
 41
0.058898
 42
0.015591
 43
1.000000
 50
180.000000
  0
INSERT
  8
31
  2
RECT
 10
0.739764
 20
1.150000
 30
0.000000
 41
0.058898
 42
0.015591
 43
1.000000
 50
180.000000
  0
INSERT
  8
31
  2
RECT
 10
0.960236
 20
1.650000
 30
0.000000
 41
0.058898
 42
0.015591
 43
1.000000
 50
180.000000
  0
INSERT
  8
31
  2
RECT
 10
0.960236
 20
1.700000
 30
0.000000
 41
0.058898
 42
0.015591
 43
1.000000
 50
180.000000
  0
INSERT
  8
31
  2
RECT
 10
0.960236
 20
1.750000
 30
0.000000
 41
0.058898
 42
0.015591
 43
1.000000
 50
180.000000
  0
INSERT
  8
31
  2
RECT
 10
0.960236
 20
1.800000
 30
0.000000
 41
0.058898
 42
0.015591
 43
1.000000
 50
180.000000
  0
INSERT
  8
31
  2
RECT
 10
0.960236
 20
1.850000
 30
0.000000
 41
0.058898
 42
0.015591
 43
1.000000
 50
180.000000
  0
INSERT
  8
31
  2
RECT
 10
0.960236
 20
1.900000
 30
0.000000
 41
0.058898
 42
0.015591
 43
1.000000
 50
180.000000
  0
INSERT
  8
31
  2
RECT
 10
0.960236
 20
1.950000
 30
0.000000
 41
0.058898
 42
0.015591
 43
1.000000
 50
180.000000
  0
INSERT
  8
31
  2
RECT
 10
0.739764
 20
1.950000
 30
0.000000
 41
0.058898
 42
0.015591
 43
1.000000
 50
180.000000
  0
INSERT
  8
31
  2
RECT
 10
0.739764
 20
1.900000
 30
0.000000
 41
0.058898
 42
0.015591
 43
1.000000
 50
180.000000
  0
INSERT
  8
31
  2
RECT
 10
0.739764
 20
1.850000
 30
0.000000
 41
0.058898
 42
0.015591
 43
1.000000
 50
180.000000
  0
INSERT
  8
31
  2
RECT
 10
0.739764
 20
1.800000
 30
0.000000
 41
0.058898
 42
0.015591
 43
1.000000
 50
180.000000
  0
INSERT
  8
31
  2
RECT
 10
0.739764
 20
1.750000
 30
0.000000
 41
0.058898
 42
0.015591
 43
1.000000
 50
180.000000
  0
INSERT
  8
31
  2
RECT
 10
0.739764
 20
1.700000
 30
0.000000
 41
0.058898
 42
0.015591
 43
1.000000
 50
180.000000
  0
INSERT
  8
31
  2
RECT
 10
0.739764
 20
1.650000
 30
0.000000
 41
0.058898
 42
0.015591
 43
1.000000
 50
180.000000
  0
INSERT
  8
31
  2
RECT
 10
0.950000
 20
2.289764
 30
0.000000
 41
0.058898
 42
0.015591
 43
1.000000
 50
90.000000
  0
INSERT
  8
31
  2
RECT
 10
1.000000
 20
2.289764
 30
0.000000
 41
0.058898
 42
0.015591
 43
1.000000
 50
90.000000
  0
INSERT
  8
31
  2
RECT
 10
1.050000
 20
2.289764
 30
0.000000
 41
0.058898
 42
0.015591
 43
1.000000
 50
90.000000
  0
INSERT
  8
31
  2
RECT
 10
1.100000
 20
2.289764
 30
0.000000
 41
0.058898
 42
0.015591
 43
1.000000
 50
90.000000
  0
INSERT
  8
31
  2
RECT
 10
1.150000
 20
2.289764
 30
0.000000
 41
0.058898
 42
0.015591
 43
1.000000
 50
90.000000
  0
INSERT
  8
31
  2
RECT
 10
1.200000
 20
2.289764
 30
0.000000
 41
0.058898
 42
0.015591
 43
1.000000
 50
90.000000
  0
INSERT
  8
31
  2
RECT
 10
1.250000
 20
2.289764
 30
0.000000
 41
0.058898
 42
0.015591
 43
1.000000
 50
90.000000
  0
INSERT
  8
31
  2
RECT
 10
1.250000
 20
2.510236
 30
0.000000
 41
0.058898
 42
0.015591
 43
1.000000
 50
90.000000
  0
INSERT
  8
31
  2
RECT
 10
1.200000
 20
2.510236
 30
0.000000
 41
0.058898
 42
0.015591
 43
1.000000
 50
90.000000
  0
INSERT
  8
31
  2
RECT
 10
1.150000
 20
2.510236
 30
0.000000
 41
0.058898
 42
0.015591
 43
1.000000
 50
90.000000
  0
INSERT
  8
31
  2
RECT
 10
1.100000
 20
2.510236
 30
0.000000
 41
0.058898
 42
0.015591
 43
1.000000
 50
90.000000
  0
INSERT
  8
31
  2
RECT
 10
1.050000
 20
2.510236
 30
0.000000
 41
0.058898
 42
0.015591
 43
1.000000
 50
90.000000
  0
INSERT
  8
31
  2
RECT
 10
1.000000
 20
2.510236
 30
0.000000
 41
0.058898
 42
0.015591
 43
1.000000
 50
90.000000
  0
INSERT
  8
31
  2
RECT
 10
0.950000
 20
2.510236
 30
0.000000
 41
0.058898
 42
0.015591
 43
1.000000
 50
90.000000
  0
INSERT
  8
31
  2
RECT
 10
1.650000
 20
2.289764
 30
0.000000
 41
0.058898
 42
0.015591
 43
1.000000
 50
90.000000
  0
INSERT
  8
31
  2
RECT
 10
1.700000
 20
2.289764
 30
0.000000
 41
0.058898
 42
0.015591
 43
1.000000
 50
90.000000
  0
INSERT
  8
31
  2
RECT
 10
1.750000
 20
2.289764
 30
0.000000
 41
0.058898
 42
0.015591
 43
1.000000
 50
90.000000
  0
INSERT
  8
31
  2
RECT
 10
1.800000
 20
2.289764
 30
0.000000
 41
0.058898
 42
0.015591
 43
1.000000
 50
90.000000
  0
INSERT
  8
31
  2
RECT
 10
1.850000
 20
2.289764
 30
0.000000
 41
0.058898
 42
0.015591
 43
1.000000
 50
90.000000
  0
INSERT
  8
31
  2
RECT
 10
1.900000
 20
2.289764
 30
0.000000
 41
0.058898
 42
0.015591
 43
1.000000
 50
90.000000
  0
INSERT
  8
31
  2
RECT
 10
1.950000
 20
2.289764
 30
0.000000
 41
0.058898
 42
0.015591
 43
1.000000
 50
90.000000
  0
INSERT
  8
31
  2
RECT
 10
1.950000
 20
2.510236
 30
0.000000
 41
0.058898
 42
0.015591
 43
1.000000
 50
90.000000
  0
INSERT
  8
31
  2
RECT
 10
1.900000
 20
2.510236
 30
0.000000
 41
0.058898
 42
0.015591
 43
1.000000
 50
90.000000
  0
INSERT
  8
31
  2
RECT
 10
1.850000
 20
2.510236
 30
0.000000
 41
0.058898
 42
0.015591
 43
1.000000
 50
90.000000
  0
INSERT
  8
31
  2
RECT
 10
1.800000
 20
2.510236
 30
0.000000
 41
0.058898
 42
0.015591
 43
1.000000
 50
90.000000
  0
INSERT
  8
31
  2
RECT
 10
1.750000
 20
2.510236
 30
0.000000
 41
0.058898
 42
0.015591
 43
1.000000
 50
90.000000
  0
INSERT
  8
31
  2
RECT
 10
1.700000
 20
2.510236
 30
0.000000
 41
0.058898
 42
0.015591
 43
1.000000
 50
90.000000
  0
INSERT
  8
31
  2
RECT
 10
1.650000
 20
2.510236
 30
0.000000
 41
0.058898
 42
0.015591
 43
1.000000
 50
90.000000
  0
INSERT
  8
31
  2
RECT
 10
1.253543
 20
0.525000
 30
0.000000
 41
0.068740
 42
0.013622
 43
1.000000
 50
0.000000
  0
INSERT
  8
31
  2
RECT
 10
1.253543
 20
0.475000
 30
0.000000
 41
0.068740
 42
0.013622
 43
1.000000
 50
0.000000
  0
INSERT
  8
31
  2
RECT
 10
1.253543
 20
0.425000
 30
0.000000
 41
0.068740
 42
0.013622
 43
1.000000
 50
0.000000
  0
INSERT
  8
31
  2
RECT
 10
1.253543
 20
0.375000
 30
0.000000
 41
0.068740
 42
0.013622
 43
1.000000
 50
0.000000
  0
INSERT
  8
31
  2
RECT
 10
1.446457
 20
0.375000
 30
0.000000
 41
0.068740
 42
0.013622
 43
1.000000
 50
0.000000
  0
INSERT
  8
31
  2
RECT
 10
1.446457
 20
0.425000
 30
0.000000
 41
0.068740
 42
0.013622
 43
1.000000
 50
0.000000
  0
INSERT
  8
31
  2
RECT
 10
1.446457
 20
0.475000
 30
0.000000
 41
0.068740
 42
0.013622
 43
1.000000
 50
0.000000
  0
INSERT
  8
31
  2
RECT
 10
1.446457
 20
0.525000
 30
0.000000
 41
0.068740
 42
0.013622
 43
1.000000
 50
0.000000
  0
INSERT
  8
31
  2
RECT
 10
2.951693
 20
1.805906
 30
0.000000
 41
0.056000
 42
0.022000
 43
1.000000
 50
270.000000
  0
INSERT
  8
31
  2
RECT
 10
2.892638
 20
1.805906
 30
0.000000
 41
0.056000
 42
0.022000
 43
1.000000
 50
270.000000
  0
INSERT
  8
31
  2
RECT
 10
2.833583
 20
1.805906
 30
0.000000
 41
0.056000
 42
0.022000
 43
1.000000
 50
270.000000
  0
INSERT
  8
31
  2
RECT
 10
2.774528
 20
1.805906
 30
0.000000
 41
0.056000
 42
0.022000
 43
1.000000
 50
270.000000
  0
INSERT
  8
31
  2
RECT
 10
2.715472
 20
1.805906
 30
0.000000
 41
0.056000
 42
0.022000
 43
1.000000
 50
270.000000
  0
INSERT
  8
31
  2
RECT
 10
2.656417
 20
1.805906
 30
0.000000
 41
0.056000
 42
0.022000
 43
1.000000
 50
270.000000
  0
INSERT
  8
31
  2
RECT
 10
2.597362
 20
1.805906
 30
0.000000
 41
0.056000
 42
0.022000
 43
1.000000
 50
270.000000
  0
INSERT
  8
31
  2
RECT
 10
2.538307
 20
1.805906
 30
0.000000
 41
0.056000
 42
0.022000
 43
1.000000
 50
270.000000
  0
INSERT
  8
31
  2
RECT
 10
2.479252
 20
1.805906
 30
0.000000
 41
0.056000
 42
0.022000
 43
1.000000
 50
270.000000
  0
INSERT
  8
31
  2
RECT
 10
2.420197
 20
1.805906
 30
0.000000
 41
0.056000
 42
0.022000
 43
1.000000
 50
270.000000
  0
INSERT
  8
31
  2
RECT
 10
2.361142
 20
1.805906
 30
0.000000
 41
0.056000
 42
0.022000
 43
1.000000
 50
270.000000
  0
INSERT
  8
31
  2
RECT
 10
2.302087
 20
1.805906
 30
0.000000
 41
0.056000
 42
0.022000
 43
1.000000
 50
270.000000
  0
INSERT
  8
31
  2
RECT
 10
2.243031
 20
1.805906
 30
0.000000
 41
0.056000
 42
0.022000
 43
1.000000
 50
270.000000
  0
INSERT
  8
31
  2
RECT
 10
2.172559
 20
1.755906
 30
0.000000
 41
0.056000
 42
0.022000
 43
1.000000
 50
0.000000
  0
INSERT
  8
31
  2
RECT
 10
2.172559
 20
1.696850
 30
0.000000
 41
0.056000
 42
0.022000
 43
1.000000
 50
0.000000
  0
INSERT
  8
31
  2
RECT
 10
2.172559
 20
1.637795
 30
0.000000
 41
0.056000
 42
0.022000
 43
1.000000
 50
0.000000
  0
INSERT
  8
31
  2
RECT
 10
2.172559
 20
1.578740
 30
0.000000
 41
0.056000
 42
0.022000
 43
1.000000
 50
0.000000
  0
INSERT
  8
31
  2
RECT
 10
2.172559
 20
1.519685
 30
0.000000
 41
0.056000
 42
0.022000
 43
1.000000
 50
0.000000
  0
INSERT
  8
31
  2
RECT
 10
2.172559
 20
1.460630
 30
0.000000
 41
0.056000
 42
0.022000
 43
1.000000
 50
0.000000
  0
INSERT
  8
31
  2
RECT
 10
2.172559
 20
1.401575
 30
0.000000
 41
0.056000
 42
0.022000
 43
1.000000
 50
0.000000
  0
INSERT
  8
31
  2
RECT
 10
2.172559
 20
1.342520
 30
0.000000
 41
0.056000
 42
0.022000
 43
1.000000
 50
0.000000
  0
INSERT
  8
31
  2
RECT
 10
2.243031
 20
1.294094
 30
0.000000
 41
0.056000
 42
0.022000
 43
1.000000
 50
270.000000
  0
INSERT
  8
31
  2
RECT
 10
2.302087
 20
1.294094
 30
0.000000
 41
0.056000
 42
0.022000
 43
1.000000
 50
270.000000
  0
INSERT
  8
31
  2
RECT
 10
2.361142
 20
1.294094
 30
0.000000
 41
0.056000
 42
0.022000
 43
1.000000
 50
270.000000
  0
INSERT
  8
31
  2
RECT
 10
2.420197
 20
1.294094
 30
0.000000
 41
0.056000
 42
0.022000
 43
1.000000
 50
270.000000
  0
INSERT
  8
31
  2
RECT
 10
2.479252
 20
1.294094
 30
0.000000
 41
0.056000
 42
0.022000
 43
1.000000
 50
270.000000
  0
INSERT
  8
31
  2
RECT
 10
2.538307
 20
1.294094
 30
0.000000
 41
0.056000
 42
0.022000
 43
1.000000
 50
270.000000
  0
INSERT
  8
31
  2
RECT
 10
2.597362
 20
1.294094
 30
0.000000
 41
0.056000
 42
0.022000
 43
1.000000
 50
270.000000
  0
INSERT
  8
31
  2
RECT
 10
2.656417
 20
1.294094
 30
0.000000
 41
0.056000
 42
0.022000
 43
1.000000
 50
270.000000
  0
INSERT
  8
31
  2
RECT
 10
2.715472
 20
1.294094
 30
0.000000
 41
0.056000
 42
0.022000
 43
1.000000
 50
270.000000
  0
INSERT
  8
31
  2
RECT
 10
2.774528
 20
1.294094
 30
0.000000
 41
0.056000
 42
0.022000
 43
1.000000
 50
270.000000
  0
INSERT
  8
31
  2
RECT
 10
2.833583
 20
1.294094
 30
0.000000
 41
0.056000
 42
0.022000
 43
1.000000
 50
270.000000
  0
INSERT
  8
31
  2
RECT
 10
2.892638
 20
1.294094
 30
0.000000
 41
0.056000
 42
0.022000
 43
1.000000
 50
270.000000
  0
INSERT
  8
31
  2
RECT
 10
2.951693
 20
1.294094
 30
0.000000
 41
0.056000
 42
0.022000
 43
1.000000
 50
270.000000
  0
INSERT
  8
31
  2
RECT
 10
0.900000
 20
0.500000
 30
0.000000
 41
0.094488
 42
0.122047
 43
1.000000
 50
90.000000
  0
INSERT
  8
31
  2
RECT
 10
0.825000
 20
0.386811
 30
0.000000
 41
0.076614
 42
0.013622
 43
1.000000
 50
90.000000
  0
INSERT
  8
31
  2
RECT
 10
0.875000
 20
0.386811
 30
0.000000
 41
0.076614
 42
0.013622
 43
1.000000
 50
90.000000
  0
INSERT
  8
31
  2
RECT
 10
0.925000
 20
0.386811
 30
0.000000
 41
0.076614
 42
0.013622
 43
1.000000
 50
90.000000
  0
INSERT
  8
31
  2
RECT
 10
0.975000
 20
0.386811
 30
0.000000
 41
0.076614
 42
0.013622
 43
1.000000
 50
90.000000
  0
INSERT
  8
31
  2
RECT
 10
0.975000
 20
0.613189
 30
0.000000
 41
0.076614
 42
0.013622
 43
1.000000
 50
90.000000
  0
INSERT
  8
31
  2
RECT
 10
0.925000
 20
0.613189
 30
0.000000
 41
0.076614
 42
0.013622
 43
1.000000
 50
90.000000
  0
INSERT
  8
31
  2
RECT
 10
0.875000
 20
0.613189
 30
0.000000
 41
0.076614
 42
0.013622
 43
1.000000
 50
90.000000
  0
INSERT
  8
31
  2
RECT
 10
0.825000
 20
0.613189
 30
0.000000
 41
0.076614
 42
0.013622
 43
1.000000
 50
90.000000
  0
INSERT
  8
31
  2
RECT
 10
0.790551
 20
2.522047
 30
0.000000
 41
0.060866
 42
0.027402
 43
1.000000
 50
270.000000
  0
INSERT
  8
31
  2
RECT
 10
0.700000
 20
2.522047
 30
0.000000
 41
0.060866
 42
0.027402
 43
1.000000
 50
270.000000
  0
INSERT
  8
31
  2
RECT
 10
0.609449
 20
2.522047
 30
0.000000
 41
0.060866
 42
0.027402
 43
1.000000
 50
270.000000
  0
INSERT
  8
31
  2
RECT
 10
0.700000
 20
2.277953
 30
0.000000
 41
0.060866
 42
0.115984
 43
1.000000
 50
270.000000
  0
INSERT
  8
31
  2
RECT
 10
1.418819
 20
0.162370
 30
0.000000
 41
0.007874
 42
0.043150
 43
1.000000
 50
0.000000
  0
INSERT
  8
31
  2
RECT
 10
1.444409
 20
0.162370
 30
0.000000
 41
0.007874
 42
0.043150
 43
1.000000
 50
0.000000
  0
INSERT
  8
31
  2
RECT
 10
1.470000
 20
0.162370
 30
0.000000
 41
0.007874
 42
0.043150
 43
1.000000
 50
0.000000
  0
INSERT
  8
31
  2
RECT
 10
1.495591
 20
0.162370
 30
0.000000
 41
0.007874
 42
0.043150
 43
1.000000
 50
0.000000
  0
INSERT
  8
31
  2
RECT
 10
1.521181
 20
0.162370
 30
0.000000
 41
0.007874
 42
0.043150
 43
1.000000
 50
0.000000
  0
INSERT
  8
31
  2
RECT
 10
1.347953
 20
0.157449
 30
0.000000
 41
0.072677
 42
0.052992
 43
1.000000
 50
0.000000
  0
INSERT
  8
31
  2
RECT
 10
1.592047
 20
0.157449
 30
0.000000
 41
0.072677
 42
0.052992
 43
1.000000
 50
0.000000
  0
INSERT
  8
31
  2
RECT
 10
1.312520
 20
0.057055
 30
0.000000
 41
0.060866
 42
0.064803
 43
1.000000
 50
0.000000
  0
INSERT
  8
31
  2
RECT
 10
1.627480
 20
0.057055
 30
0.000000
 41
0.060866
 42
0.064803
 43
1.000000
 50
0.000000
  0
INSERT
  8
31
  2
RECT
 10
1.422756
 20
0.057055
 30
0.000000
 41
0.064803
 42
0.064803
 43
1.000000
 50
0.000000
  0
INSERT
  8
31
  2
RECT
 10
1.517244
 20
0.057055
 30
0.000000
 41
0.064803
 42
0.064803
 43
1.000000
 50
0.000000
  0
INSERT
  8
31
  2
RECT
 10
1.410000
 20
2.050000
 30
0.000000
 41
0.200000
 42
0.066000
 43
1.000000
 50
0.000000
  0
INSERT
  8
31
  2
RECT
 10
1.790000
 20
2.050000
 30
0.000000
 41
0.200000
 42
0.066000
 43
1.000000
 50
0.000000
  0
ENDSEC
  0
EOF
