  0
SECTION
  2
HEADER
  9
$ACADVER
  1
AC1009
  9
$FILLMODE
 70
0
  9
$EXTMIN
 10
-0.152272
 20
-0.412500
 30
0.000000
  9
$EXTMAX
 10
1.472272
 20
1.612272
 30
0.000000
  0
ENDSEC
  0
SECTION
  2
TABLES
  0
TABLE
  2
LTYPE
 70
1
  0
LTYPE
  2
CONTINUOUS
 70
64
  3
Solid line
 72
65
 73
0
 40
0
  0
ENDTAB
  0
TABLE
  2
LAYER
 70
255
  0
LAYER
  2
20
 70
64
 62
178
  6
CONTINUOUS
  0
LAYER
  2
31
 70
64
 62
251
  6
CONTINUOUS
  0
ENDTAB
  0
ENDSEC
  0
SECTION
  2
BLOCKS
  0
BLOCK
  8
0
  2
RECT
 70
64
 10
0.000000
 20
0.000000
 30
0.000000
  3
RECT
  0
SOLID
  8
0
 10
-0.500000
 20
-0.500000
 30
0.000000
 11
0.500000
 21
-0.500000
 31
0.000000
 12
-0.500000
 22
0.500000
 32
0.000000
 13
0.500000
 23
0.500000
 33
0.000000
  0
ENDBLK
  8
0
  0
BLOCK
  8
0
  2
PIE
 70
64
 10
0.000000
 20
0.000000
 30
0.000000
  3
PIE
  0
CIRCLE
  8
0
 10
0.000000
 20
0.000000
 30
0.000000
 40
0.500000
  0
ENDBLK
  8
0
  0
BLOCK
  8
0
  2
OCTAGONP
 70
64
 10
0.000000
 20
0.000000
 30
0.000000
  3
OCTAGONP
  0
POLYLINE
  8
0
 66
1
 10
0.000000
 20
0.000000
 30
0.000000
 40
0.000000
 41
0.000000
 70
1
  0
VERTEX
  8
0
 10
-0.500000
 20
-0.207107
 30
0.000000
  0
VERTEX
  8
0
 10
-0.500000
 20
0.207107
 30
0.000000
  0
VERTEX
  8
0
 10
-0.207107
 20
0.500000
 30
0.000000
  0
VERTEX
  8
0
 10
0.207107
 20
0.500000
 30
0.000000
  0
VERTEX
  8
0
 10
0.500000
 20
0.207107
 30
0.000000
  0
VERTEX
  8
0
 10
0.500000
 20
-0.207107
 30
0.000000
  0
VERTEX
  8
0
 10
0.207107
 20
-0.500000
 30
0.000000
  0
VERTEX
  8
0
 10
-0.207107
 20
-0.500000
 30
0.000000
  0
SEQEND
  8
0
  0
ENDBLK
  8
0
  0
BLOCK
  8
0
  2
SQUAREP
 70
64
 10
0.000000
 20
0.000000
 30
0.000000
  3
SQUAREP
  0
SOLID
  8
0
 10
-0.500000
 20
-0.500000
 30
0.000000
 11
0.500000
 21
-0.500000
 31
0.000000
 12
-0.500000
 22
0.500000
 32
0.000000
 13
0.500000
 23
0.500000
 33
0.000000
  0
ENDBLK
  8
0
  0
BLOCK
  8
0
  2
ROUNDP
 70
64
 10
0.000000
 20
0.000000
 30
0.000000
  3
ROUNDP
  0
CIRCLE
  8
0
 10
0.000000
 20
0.000000
 30
0.000000
 40
0.500000
  0
ENDBLK
  8
0
  0
BLOCK
  8
0
  2
ANNULUSP
 70
64
 10
0.000000
 20
0.000000
 30
0.000000
  3
ANNULUSP
  0
CIRCLE
  8
0
 10
0.000000
 20
0.000000
 30
0.000000
 40
0.500000
  0
ENDBLK
  8
0
  0
BLOCK
  8
0
  2
THERMALP
 70
64
 10
0.000000
 20
0.000000
 30
0.000000
  3
THERMALP
  0
LINE
  8
0
 10
-0.237868
 20
0.450000
 30
0.000000
 11
0.237868
 21
0.450000
 31
0.000000
  0
LINE
  8
0
 10
0.450000
 20
0.237868
 30
0.000000
 11
0.450000
 21
-0.237868
 31
0.000000
  0
LINE
  8
0
 10
0.237868
 20
-0.450000
 30
0.000000
 11
-0.237868
 21
-0.450000
 31
0.000000
  0
LINE
  8
0
 10
-0.450000
 20
-0.237868
 30
0.000000
 11
-0.450000
 21
0.237868
 31
0.000000
  0
ENDBLK
  8
0
  0
BLOCK
  8
0
  2
OCTAGONV
 70
64
 10
0.000000
 20
0.000000
 30
0.000000
  3
OCTAGONV
  0
POLYLINE
  8
0
 66
1
 10
0.000000
 20
0.000000
 30
0.000000
 40
0.000000
 41
0.000000
 70
1
  0
VERTEX
  8
0
 10
-0.500000
 20
-0.207107
 30
0.000000
  0
VERTEX
  8
0
 10
-0.500000
 20
0.207107
 30
0.000000
  0
VERTEX
  8
0
 10
-0.207107
 20
0.500000
 30
0.000000
  0
VERTEX
  8
0
 10
0.207107
 20
0.500000
 30
0.000000
  0
VERTEX
  8
0
 10
0.500000
 20
0.207107
 30
0.000000
  0
VERTEX
  8
0
 10
0.500000
 20
-0.207107
 30
0.000000
  0
VERTEX
  8
0
 10
0.207107
 20
-0.500000
 30
0.000000
  0
VERTEX
  8
0
 10
-0.207107
 20
-0.500000
 30
0.000000
  0
SEQEND
  8
0
  0
ENDBLK
  8
0
  0
BLOCK
  8
0
  2
SQUAREV
 70
64
 10
0.000000
 20
0.000000
 30
0.000000
  3
SQUAREV
  0
SOLID
  8
0
 10
-0.500000
 20
-0.500000
 30
0.000000
 11
0.500000
 21
-0.500000
 31
0.000000
 12
-0.500000
 22
0.500000
 32
0.000000
 13
0.500000
 23
0.500000
 33
0.000000
  0
ENDBLK
  8
0
  0
BLOCK
  8
0
  2
ROUNDV
 70
64
 10
0.000000
 20
0.000000
 30
0.000000
  3
ROUNDV
  0
CIRCLE
  8
0
 10
0.000000
 20
0.000000
 30
0.000000
 40
0.500000
  0
ENDBLK
  8
0
  0
BLOCK
  8
0
  2
ANNULUSV
 70
64
 10
0.000000
 20
0.000000
 30
0.000000
  3
ANNULUSV
  0
CIRCLE
  8
0
 10
0.000000
 20
0.000000
 30
0.000000
 40
0.500000
  0
ENDBLK
  8
0
  0
BLOCK
  8
0
  2
THERMALV
 70
64
 10
0.000000
 20
0.000000
 30
0.000000
  3
THERMALV
  0
LINE
  8
0
 10
-0.237868
 20
0.450000
 30
0.000000
 11
0.237868
 21
0.450000
 31
0.000000
  0
LINE
  8
0
 10
0.450000
 20
0.237868
 30
0.000000
 11
0.450000
 21
-0.237868
 31
0.000000
  0
LINE
  8
0
 10
0.237868
 20
-0.450000
 30
0.000000
 11
-0.237868
 21
-0.450000
 31
0.000000
  0
LINE
  8
0
 10
-0.450000
 20
-0.237868
 30
0.000000
 11
-0.450000
 21
0.237868
 31
0.000000
  0
ENDBLK
  8
0
  0
ENDSEC
  0
SECTION
  2
ENTITIES
  0
LINE
  8
20
 10
1.460000
 20
0.000000
 30
0.000000
 11
-0.140000
 21
0.000000
 31
0.000000
  0
LINE
  8
20
 10
-0.140000
 20
0.000000
 30
0.000000
 11
-0.140000
 21
1.600000
 31
0.000000
  0
LINE
  8
20
 10
-0.140000
 20
1.600000
 30
0.000000
 11
1.460000
 21
1.600000
 31
0.000000
  0
LINE
  8
20
 10
1.460000
 20
1.600000
 30
0.000000
 11
1.460000
 21
0.000000
 31
0.000000
  0
INSERT
  8
31
  2
RECT
 10
0.376535
 20
0.550000
 30
0.000000
 41
0.033307
 42
0.029370
 43
1.000000
 50
0.000000
  0
INSERT
  8
31
  2
RECT
 10
0.443465
 20
0.550000
 30
0.000000
 41
0.033307
 42
0.029370
 43
1.000000
 50
0.000000
  0
INSERT
  8
31
  2
RECT
 10
1.070000
 20
0.806535
 30
0.000000
 41
0.033307
 42
0.029370
 43
1.000000
 50
90.000000
  0
INSERT
  8
31
  2
RECT
 10
1.070000
 20
0.873465
 30
0.000000
 41
0.033307
 42
0.029370
 43
1.000000
 50
90.000000
  0
INSERT
  8
31
  2
RECT
 10
0.722598
 20
0.480630
 30
0.000000
 41
0.021496
 42
0.025433
 43
1.000000
 50
0.000000
  0
INSERT
  8
31
  2
RECT
 10
0.797402
 20
0.480630
 30
0.000000
 41
0.021496
 42
0.025433
 43
1.000000
 50
0.000000
  0
INSERT
  8
31
  2
RECT
 10
0.760000
 20
0.563307
 30
0.000000
 41
0.021496
 42
0.025433
 43
1.000000
 50
0.000000
  0
INSERT
  8
31
  2
RECT
 10
0.522598
 20
0.480630
 30
0.000000
 41
0.021496
 42
0.025433
 43
1.000000
 50
0.000000
  0
INSERT
  8
31
  2
RECT
 10
0.597402
 20
0.480630
 30
0.000000
 41
0.021496
 42
0.025433
 43
1.000000
 50
0.000000
  0
INSERT
  8
31
  2
RECT
 10
0.560000
 20
0.563307
 30
0.000000
 41
0.021496
 42
0.025433
 43
1.000000
 50
0.000000
  0
INSERT
  8
31
  2
RECT
 10
0.760000
 20
0.636535
 30
0.000000
 41
0.029370
 42
0.033307
 43
1.000000
 50
90.000000
  0
INSERT
  8
31
  2
RECT
 10
0.760000
 20
0.703465
 30
0.000000
 41
0.029370
 42
0.033307
 43
1.000000
 50
90.000000
  0
INSERT
  8
31
  2
RECT
 10
0.560000
 20
0.636535
 30
0.000000
 41
0.029370
 42
0.033307
 43
1.000000
 50
90.000000
  0
INSERT
  8
31
  2
RECT
 10
0.560000
 20
0.703465
 30
0.000000
 41
0.029370
 42
0.033307
 43
1.000000
 50
90.000000
  0
INSERT
  8
31
  2
RECT
 10
0.994465
 20
0.175000
 30
0.000000
 41
0.029370
 42
0.033307
 43
1.000000
 50
180.000000
  0
INSERT
  8
31
  2
RECT
 10
0.927535
 20
0.175000
 30
0.000000
 41
0.029370
 42
0.033307
 43
1.000000
 50
180.000000
  0
INSERT
  8
31
  2
RECT
 10
1.154465
 20
0.175000
 30
0.000000
 41
0.029370
 42
0.033307
 43
1.000000
 50
180.000000
  0
INSERT
  8
31
  2
RECT
 10
1.087535
 20
0.175000
 30
0.000000
 41
0.029370
 42
0.033307
 43
1.000000
 50
180.000000
  0
INSERT
  8
31
  2
RECT
 10
1.220000
 20
0.873465
 30
0.000000
 41
0.029370
 42
0.033307
 43
1.000000
 50
270.000000
  0
INSERT
  8
31
  2
RECT
 10
1.220000
 20
0.806535
 30
0.000000
 41
0.029370
 42
0.033307
 43
1.000000
 50
270.000000
  0
INSERT
  8
31
  2
RECT
 10
0.915000
 20
0.407000
 30
0.000000
 41
0.010000
 42
0.010000
 43
1.000000
 50
0.000000
  0
INSERT
  8
31
  2
RECT
 10
0.435000
 20
0.075000
 30
0.000000
 41
0.140000
 42
0.070000
 43
1.000000
 50
270.000000
  0
INSERT
  8
31
  2
RECT
 10
0.535000
 20
0.075000
 30
0.000000
 41
0.140000
 42
0.070000
 43
1.000000
 50
270.000000
  0
INSERT
  8
31
  2
RECT
 10
0.635000
 20
0.075000
 30
0.000000
 41
0.140000
 42
0.070000
 43
1.000000
 50
270.000000
  0
INSERT
  8
31
  2
RECT
 10
0.735000
 20
0.075000
 30
0.000000
 41
0.140000
 42
0.070000
 43
1.000000
 50
270.000000
  0
INSERT
  8
31
  2
RECT
 10
0.835000
 20
0.075000
 30
0.000000
 41
0.140000
 42
0.070000
 43
1.000000
 50
270.000000
  0
CIRCLE
  8
20
 10
1.360000
 20
1.500000
 30
0.000000
 40
0.065000
  0
CIRCLE
  8
20
 10
-0.040000
 20
1.500000
 30
0.000000
 40
0.065000
  0
CIRCLE
  8
20
 10
-0.040000
 20
0.100000
 30
0.000000
 40
0.065000
  0
CIRCLE
  8
20
 10
1.360000
 20
0.100000
 30
0.000000
 40
0.065000
  0
INSERT
  8
31
  2
RECT
 10
0.107764
 20
0.463000
 30
0.000000
 41
0.058898
 42
0.015591
 43
1.000000
 50
0.000000
  0
INSERT
  8
31
  2
RECT
 10
0.107764
 20
0.413000
 30
0.000000
 41
0.058898
 42
0.015591
 43
1.000000
 50
0.000000
  0
INSERT
  8
31
  2
RECT
 10
0.107764
 20
0.363000
 30
0.000000
 41
0.058898
 42
0.015591
 43
1.000000
 50
0.000000
  0
INSERT
  8
31
  2
RECT
 10
0.107764
 20
0.313000
 30
0.000000
 41
0.058898
 42
0.015591
 43
1.000000
 50
0.000000
  0
INSERT
  8
31
  2
RECT
 10
0.107764
 20
0.263000
 30
0.000000
 41
0.058898
 42
0.015591
 43
1.000000
 50
0.000000
  0
INSERT
  8
31
  2
RECT
 10
0.107764
 20
0.213000
 30
0.000000
 41
0.058898
 42
0.015591
 43
1.000000
 50
0.000000
  0
INSERT
  8
31
  2
RECT
 10
0.107764
 20
0.163000
 30
0.000000
 41
0.058898
 42
0.015591
 43
1.000000
 50
0.000000
  0
INSERT
  8
31
  2
RECT
 10
0.328236
 20
0.163000
 30
0.000000
 41
0.058898
 42
0.015591
 43
1.000000
 50
0.000000
  0
INSERT
  8
31
  2
RECT
 10
0.328236
 20
0.213000
 30
0.000000
 41
0.058898
 42
0.015591
 43
1.000000
 50
0.000000
  0
INSERT
  8
31
  2
RECT
 10
0.328236
 20
0.263000
 30
0.000000
 41
0.058898
 42
0.015591
 43
1.000000
 50
0.000000
  0
INSERT
  8
31
  2
RECT
 10
0.328236
 20
0.313000
 30
0.000000
 41
0.058898
 42
0.015591
 43
1.000000
 50
0.000000
  0
INSERT
  8
31
  2
RECT
 10
0.328236
 20
0.363000
 30
0.000000
 41
0.058898
 42
0.015591
 43
1.000000
 50
0.000000
  0
INSERT
  8
31
  2
RECT
 10
0.328236
 20
0.413000
 30
0.000000
 41
0.058898
 42
0.015591
 43
1.000000
 50
0.000000
  0
INSERT
  8
31
  2
RECT
 10
0.328236
 20
0.463000
 30
0.000000
 41
0.058898
 42
0.015591
 43
1.000000
 50
0.000000
  0
INSERT
  8
31
  2
RECT
 10
1.362850
 20
0.277000
 30
0.000000
 41
0.013622
 42
0.049055
 43
1.000000
 50
90.000000
  0
INSERT
  8
31
  2
RECT
 10
1.362850
 20
0.327000
 30
0.000000
 41
0.013622
 42
0.049055
 43
1.000000
 50
90.000000
  0
INSERT
  8
31
  2
RECT
 10
1.362850
 20
0.377000
 30
0.000000
 41
0.013622
 42
0.049055
 43
1.000000
 50
90.000000
  0
INSERT
  8
31
  2
RECT
 10
1.362850
 20
0.427000
 30
0.000000
 41
0.013622
 42
0.049055
 43
1.000000
 50
90.000000
  0
INSERT
  8
31
  2
RECT
 10
1.362850
 20
0.477000
 30
0.000000
 41
0.013622
 42
0.049055
 43
1.000000
 50
90.000000
  0
INSERT
  8
31
  2
RECT
 10
1.362850
 20
0.527000
 30
0.000000
 41
0.013622
 42
0.049055
 43
1.000000
 50
90.000000
  0
INSERT
  8
31
  2
RECT
 10
1.362850
 20
0.577000
 30
0.000000
 41
0.013622
 42
0.049055
 43
1.000000
 50
90.000000
  0
INSERT
  8
31
  2
RECT
 10
1.362850
 20
0.627000
 30
0.000000
 41
0.013622
 42
0.049055
 43
1.000000
 50
90.000000
  0
INSERT
  8
31
  2
RECT
 10
1.362850
 20
0.677000
 30
0.000000
 41
0.013622
 42
0.049055
 43
1.000000
 50
90.000000
  0
INSERT
  8
31
  2
RECT
 10
1.362850
 20
0.727000
 30
0.000000
 41
0.013622
 42
0.049055
 43
1.000000
 50
90.000000
  0
INSERT
  8
31
  2
RECT
 10
0.969150
 20
0.727000
 30
0.000000
 41
0.013622
 42
0.049055
 43
1.000000
 50
90.000000
  0
INSERT
  8
31
  2
RECT
 10
0.969150
 20
0.677000
 30
0.000000
 41
0.013622
 42
0.049055
 43
1.000000
 50
90.000000
  0
INSERT
  8
31
  2
RECT
 10
0.969150
 20
0.627000
 30
0.000000
 41
0.013622
 42
0.049055
 43
1.000000
 50
90.000000
  0
INSERT
  8
31
  2
RECT
 10
0.969150
 20
0.577000
 30
0.000000
 41
0.013622
 42
0.049055
 43
1.000000
 50
90.000000
  0
INSERT
  8
31
  2
RECT
 10
0.969150
 20
0.527000
 30
0.000000
 41
0.013622
 42
0.049055
 43
1.000000
 50
90.000000
  0
INSERT
  8
31
  2
RECT
 10
0.969150
 20
0.477000
 30
0.000000
 41
0.013622
 42
0.049055
 43
1.000000
 50
90.000000
  0
INSERT
  8
31
  2
RECT
 10
0.969150
 20
0.427000
 30
0.000000
 41
0.013622
 42
0.049055
 43
1.000000
 50
90.000000
  0
INSERT
  8
31
  2
RECT
 10
0.969150
 20
0.377000
 30
0.000000
 41
0.013622
 42
0.049055
 43
1.000000
 50
90.000000
  0
INSERT
  8
31
  2
RECT
 10
0.969150
 20
0.327000
 30
0.000000
 41
0.013622
 42
0.049055
 43
1.000000
 50
90.000000
  0
INSERT
  8
31
  2
RECT
 10
0.969150
 20
0.277000
 30
0.000000
 41
0.013622
 42
0.049055
 43
1.000000
 50
90.000000
  0
ENDSEC
  0
EOF
