  0
SECTION
  2
HEADER
  9
$ACADVER
  1
AC1009
  9
$FILLMODE
 70
0
  9
$EXTMIN
 10
-0.412500
 20
-0.012000
 30
0.000000
  9
$EXTMAX
 10
2.072500
 20
1.132500
 30
0.000000
  0
ENDSEC
  0
SECTION
  2
TABLES
  0
TABLE
  2
LTYPE
 70
1
  0
LTYPE
  2
CONTINUOUS
 70
64
  3
Solid line
 72
65
 73
0
 40
0
  0
ENDTAB
  0
TABLE
  2
LAYER
 70
255
  0
LAYER
  2
20
 70
64
 62
178
  6
CONTINUOUS
  0
LAYER
  2
31
 70
64
 62
251
  6
CONTINUOUS
  0
ENDTAB
  0
ENDSEC
  0
SECTION
  2
BLOCKS
  0
BLOCK
  8
0
  2
RECT
 70
64
 10
0.000000
 20
0.000000
 30
0.000000
  3
RECT
  0
SOLID
  8
0
 10
-0.500000
 20
-0.500000
 30
0.000000
 11
0.500000
 21
-0.500000
 31
0.000000
 12
-0.500000
 22
0.500000
 32
0.000000
 13
0.500000
 23
0.500000
 33
0.000000
  0
ENDBLK
  8
0
  0
BLOCK
  8
0
  2
PIE
 70
64
 10
0.000000
 20
0.000000
 30
0.000000
  3
PIE
  0
CIRCLE
  8
0
 10
0.000000
 20
0.000000
 30
0.000000
 40
0.500000
  0
ENDBLK
  8
0
  0
BLOCK
  8
0
  2
OCTAGONP
 70
64
 10
0.000000
 20
0.000000
 30
0.000000
  3
OCTAGONP
  0
POLYLINE
  8
0
 66
1
 10
0.000000
 20
0.000000
 30
0.000000
 40
0.000000
 41
0.000000
 70
1
  0
VERTEX
  8
0
 10
-0.500000
 20
-0.207107
 30
0.000000
  0
VERTEX
  8
0
 10
-0.500000
 20
0.207107
 30
0.000000
  0
VERTEX
  8
0
 10
-0.207107
 20
0.500000
 30
0.000000
  0
VERTEX
  8
0
 10
0.207107
 20
0.500000
 30
0.000000
  0
VERTEX
  8
0
 10
0.500000
 20
0.207107
 30
0.000000
  0
VERTEX
  8
0
 10
0.500000
 20
-0.207107
 30
0.000000
  0
VERTEX
  8
0
 10
0.207107
 20
-0.500000
 30
0.000000
  0
VERTEX
  8
0
 10
-0.207107
 20
-0.500000
 30
0.000000
  0
SEQEND
  8
0
  0
ENDBLK
  8
0
  0
BLOCK
  8
0
  2
SQUAREP
 70
64
 10
0.000000
 20
0.000000
 30
0.000000
  3
SQUAREP
  0
SOLID
  8
0
 10
-0.500000
 20
-0.500000
 30
0.000000
 11
0.500000
 21
-0.500000
 31
0.000000
 12
-0.500000
 22
0.500000
 32
0.000000
 13
0.500000
 23
0.500000
 33
0.000000
  0
ENDBLK
  8
0
  0
BLOCK
  8
0
  2
ROUNDP
 70
64
 10
0.000000
 20
0.000000
 30
0.000000
  3
ROUNDP
  0
CIRCLE
  8
0
 10
0.000000
 20
0.000000
 30
0.000000
 40
0.500000
  0
ENDBLK
  8
0
  0
BLOCK
  8
0
  2
ANNULUSP
 70
64
 10
0.000000
 20
0.000000
 30
0.000000
  3
ANNULUSP
  0
CIRCLE
  8
0
 10
0.000000
 20
0.000000
 30
0.000000
 40
0.500000
  0
ENDBLK
  8
0
  0
BLOCK
  8
0
  2
THERMALP
 70
64
 10
0.000000
 20
0.000000
 30
0.000000
  3
THERMALP
  0
LINE
  8
0
 10
-0.237868
 20
0.450000
 30
0.000000
 11
0.237868
 21
0.450000
 31
0.000000
  0
LINE
  8
0
 10
0.450000
 20
0.237868
 30
0.000000
 11
0.450000
 21
-0.237868
 31
0.000000
  0
LINE
  8
0
 10
0.237868
 20
-0.450000
 30
0.000000
 11
-0.237868
 21
-0.450000
 31
0.000000
  0
LINE
  8
0
 10
-0.450000
 20
-0.237868
 30
0.000000
 11
-0.450000
 21
0.237868
 31
0.000000
  0
ENDBLK
  8
0
  0
BLOCK
  8
0
  2
OCTAGONV
 70
64
 10
0.000000
 20
0.000000
 30
0.000000
  3
OCTAGONV
  0
POLYLINE
  8
0
 66
1
 10
0.000000
 20
0.000000
 30
0.000000
 40
0.000000
 41
0.000000
 70
1
  0
VERTEX
  8
0
 10
-0.500000
 20
-0.207107
 30
0.000000
  0
VERTEX
  8
0
 10
-0.500000
 20
0.207107
 30
0.000000
  0
VERTEX
  8
0
 10
-0.207107
 20
0.500000
 30
0.000000
  0
VERTEX
  8
0
 10
0.207107
 20
0.500000
 30
0.000000
  0
VERTEX
  8
0
 10
0.500000
 20
0.207107
 30
0.000000
  0
VERTEX
  8
0
 10
0.500000
 20
-0.207107
 30
0.000000
  0
VERTEX
  8
0
 10
0.207107
 20
-0.500000
 30
0.000000
  0
VERTEX
  8
0
 10
-0.207107
 20
-0.500000
 30
0.000000
  0
SEQEND
  8
0
  0
ENDBLK
  8
0
  0
BLOCK
  8
0
  2
SQUAREV
 70
64
 10
0.000000
 20
0.000000
 30
0.000000
  3
SQUAREV
  0
SOLID
  8
0
 10
-0.500000
 20
-0.500000
 30
0.000000
 11
0.500000
 21
-0.500000
 31
0.000000
 12
-0.500000
 22
0.500000
 32
0.000000
 13
0.500000
 23
0.500000
 33
0.000000
  0
ENDBLK
  8
0
  0
BLOCK
  8
0
  2
ROUNDV
 70
64
 10
0.000000
 20
0.000000
 30
0.000000
  3
ROUNDV
  0
CIRCLE
  8
0
 10
0.000000
 20
0.000000
 30
0.000000
 40
0.500000
  0
ENDBLK
  8
0
  0
BLOCK
  8
0
  2
ANNULUSV
 70
64
 10
0.000000
 20
0.000000
 30
0.000000
  3
ANNULUSV
  0
CIRCLE
  8
0
 10
0.000000
 20
0.000000
 30
0.000000
 40
0.500000
  0
ENDBLK
  8
0
  0
BLOCK
  8
0
  2
THERMALV
 70
64
 10
0.000000
 20
0.000000
 30
0.000000
  3
THERMALV
  0
LINE
  8
0
 10
-0.237868
 20
0.450000
 30
0.000000
 11
0.237868
 21
0.450000
 31
0.000000
  0
LINE
  8
0
 10
0.450000
 20
0.237868
 30
0.000000
 11
0.450000
 21
-0.237868
 31
0.000000
  0
LINE
  8
0
 10
0.237868
 20
-0.450000
 30
0.000000
 11
-0.237868
 21
-0.450000
 31
0.000000
  0
LINE
  8
0
 10
-0.450000
 20
-0.237868
 30
0.000000
 11
-0.450000
 21
0.237868
 31
0.000000
  0
ENDBLK
  8
0
  0
ENDSEC
  0
SECTION
  2
ENTITIES
  0
LINE
  8
20
 10
0.000000
 20
0.000000
 30
0.000000
 11
1.850000
 21
0.000000
 31
0.000000
  0
LINE
  8
20
 10
1.850000
 20
0.000000
 30
0.000000
 11
1.850000
 21
1.050000
 31
0.000000
  0
LINE
  8
20
 10
1.850000
 20
1.050000
 30
0.000000
 11
0.000000
 21
1.050000
 31
0.000000
  0
LINE
  8
20
 10
0.000000
 20
1.050000
 30
0.000000
 11
0.000000
 21
0.000000
 31
0.000000
  0
CIRCLE
  8
20
 10
1.770000
 20
0.980000
 30
0.000000
 40
0.046875
  0
INSERT
  8
31
  2
RECT
 10
0.616535
 20
0.850000
 30
0.000000
 41
0.033307
 42
0.029370
 43
1.000000
 50
0.000000
  0
INSERT
  8
31
  2
RECT
 10
0.683465
 20
0.850000
 30
0.000000
 41
0.033307
 42
0.029370
 43
1.000000
 50
0.000000
  0
INSERT
  8
31
  2
RECT
 10
1.123740
 20
0.950000
 30
0.000000
 41
0.068740
 42
0.068740
 43
1.000000
 50
0.000000
  0
INSERT
  8
31
  2
RECT
 10
0.966260
 20
0.950000
 30
0.000000
 41
0.068740
 42
0.068740
 43
1.000000
 50
180.000000
  0
INSERT
  8
31
  2
RECT
 10
1.123740
 20
0.300000
 30
0.000000
 41
0.068740
 42
0.068740
 43
1.000000
 50
0.000000
  0
INSERT
  8
31
  2
RECT
 10
0.966260
 20
0.300000
 30
0.000000
 41
0.068740
 42
0.068740
 43
1.000000
 50
180.000000
  0
INSERT
  8
31
  2
RECT
 10
1.453740
 20
0.950000
 30
0.000000
 41
0.068740
 42
0.068740
 43
1.000000
 50
0.000000
  0
INSERT
  8
31
  2
RECT
 10
1.296260
 20
0.950000
 30
0.000000
 41
0.068740
 42
0.068740
 43
1.000000
 50
180.000000
  0
INSERT
  8
31
  2
RECT
 10
1.453740
 20
0.300000
 30
0.000000
 41
0.068740
 42
0.068740
 43
1.000000
 50
0.000000
  0
INSERT
  8
31
  2
RECT
 10
1.296260
 20
0.300000
 30
0.000000
 41
0.068740
 42
0.068740
 43
1.000000
 50
180.000000
  0
CIRCLE
  8
20
 10
1.770000
 20
0.100000
 30
0.000000
 40
0.046875
  0
INSERT
  8
31
  2
RECT
 10
0.221000
 20
0.957500
 30
0.000000
 41
0.037000
 42
0.039000
 43
1.000000
 50
180.000000
  0
INSERT
  8
31
  2
RECT
 10
0.139000
 20
0.957500
 30
0.000000
 41
0.037000
 42
0.039000
 43
1.000000
 50
180.000000
  0
INSERT
  8
31
  2
RECT
 10
0.927598
 20
0.090630
 30
0.000000
 41
0.021496
 42
0.025433
 43
1.000000
 50
0.000000
  0
INSERT
  8
31
  2
RECT
 10
1.002402
 20
0.090630
 30
0.000000
 41
0.021496
 42
0.025433
 43
1.000000
 50
0.000000
  0
INSERT
  8
31
  2
RECT
 10
0.965000
 20
0.173307
 30
0.000000
 41
0.021496
 42
0.025433
 43
1.000000
 50
0.000000
  0
INSERT
  8
31
  2
RECT
 10
1.092598
 20
0.090630
 30
0.000000
 41
0.021496
 42
0.025433
 43
1.000000
 50
0.000000
  0
INSERT
  8
31
  2
RECT
 10
1.167402
 20
0.090630
 30
0.000000
 41
0.021496
 42
0.025433
 43
1.000000
 50
0.000000
  0
INSERT
  8
31
  2
RECT
 10
1.130000
 20
0.173307
 30
0.000000
 41
0.021496
 42
0.025433
 43
1.000000
 50
0.000000
  0
INSERT
  8
31
  2
RECT
 10
1.262598
 20
0.090630
 30
0.000000
 41
0.021496
 42
0.025433
 43
1.000000
 50
0.000000
  0
INSERT
  8
31
  2
RECT
 10
1.337402
 20
0.090630
 30
0.000000
 41
0.021496
 42
0.025433
 43
1.000000
 50
0.000000
  0
INSERT
  8
31
  2
RECT
 10
1.300000
 20
0.173307
 30
0.000000
 41
0.021496
 42
0.025433
 43
1.000000
 50
0.000000
  0
INSERT
  8
31
  2
RECT
 10
1.427598
 20
0.090630
 30
0.000000
 41
0.021496
 42
0.025433
 43
1.000000
 50
0.000000
  0
INSERT
  8
31
  2
RECT
 10
1.502402
 20
0.090630
 30
0.000000
 41
0.021496
 42
0.025433
 43
1.000000
 50
0.000000
  0
INSERT
  8
31
  2
RECT
 10
1.465000
 20
0.173307
 30
0.000000
 41
0.021496
 42
0.025433
 43
1.000000
 50
0.000000
  0
INSERT
  8
31
  2
RECT
 10
0.338465
 20
0.850000
 30
0.000000
 41
0.029370
 42
0.033307
 43
1.000000
 50
180.000000
  0
INSERT
  8
31
  2
RECT
 10
0.271535
 20
0.850000
 30
0.000000
 41
0.029370
 42
0.033307
 43
1.000000
 50
180.000000
  0
INSERT
  8
31
  2
RECT
 10
0.482535
 20
0.140000
 30
0.000000
 41
0.029370
 42
0.033307
 43
1.000000
 50
0.000000
  0
INSERT
  8
31
  2
RECT
 10
0.549465
 20
0.140000
 30
0.000000
 41
0.029370
 42
0.033307
 43
1.000000
 50
0.000000
  0
INSERT
  8
31
  2
RECT
 10
0.482535
 20
0.065000
 30
0.000000
 41
0.029370
 42
0.033307
 43
1.000000
 50
0.000000
  0
INSERT
  8
31
  2
RECT
 10
0.549465
 20
0.065000
 30
0.000000
 41
0.029370
 42
0.033307
 43
1.000000
 50
0.000000
  0
INSERT
  8
31
  2
RECT
 10
0.722535
 20
0.140000
 30
0.000000
 41
0.029370
 42
0.033307
 43
1.000000
 50
0.000000
  0
INSERT
  8
31
  2
RECT
 10
0.789465
 20
0.140000
 30
0.000000
 41
0.029370
 42
0.033307
 43
1.000000
 50
0.000000
  0
INSERT
  8
31
  2
RECT
 10
0.722535
 20
0.065000
 30
0.000000
 41
0.029370
 42
0.033307
 43
1.000000
 50
0.000000
  0
INSERT
  8
31
  2
RECT
 10
0.789465
 20
0.065000
 30
0.000000
 41
0.029370
 42
0.033307
 43
1.000000
 50
0.000000
  0
INSERT
  8
31
  2
RECT
 10
0.302785
 20
0.957500
 30
0.000000
 41
0.029370
 42
0.033307
 43
1.000000
 50
0.000000
  0
INSERT
  8
31
  2
RECT
 10
0.369715
 20
0.957500
 30
0.000000
 41
0.029370
 42
0.033307
 43
1.000000
 50
0.000000
  0
INSERT
  8
31
  2
RECT
 10
0.075000
 20
0.300000
 30
0.000000
 41
0.140000
 42
0.070000
 43
1.000000
 50
180.000000
  0
INSERT
  8
31
  2
RECT
 10
0.075000
 20
0.400000
 30
0.000000
 41
0.140000
 42
0.070000
 43
1.000000
 50
180.000000
  0
INSERT
  8
31
  2
RECT
 10
0.075000
 20
0.500000
 30
0.000000
 41
0.140000
 42
0.070000
 43
1.000000
 50
180.000000
  0
INSERT
  8
31
  2
RECT
 10
0.075000
 20
0.600000
 30
0.000000
 41
0.140000
 42
0.070000
 43
1.000000
 50
180.000000
  0
INSERT
  8
31
  2
RECT
 10
0.075000
 20
0.700000
 30
0.000000
 41
0.140000
 42
0.070000
 43
1.000000
 50
180.000000
  0
INSERT
  8
31
  2
RECT
 10
0.846850
 20
0.325000
 30
0.000000
 41
0.013622
 42
0.049055
 43
1.000000
 50
90.000000
  0
INSERT
  8
31
  2
RECT
 10
0.846850
 20
0.375000
 30
0.000000
 41
0.013622
 42
0.049055
 43
1.000000
 50
90.000000
  0
INSERT
  8
31
  2
RECT
 10
0.846850
 20
0.425000
 30
0.000000
 41
0.013622
 42
0.049055
 43
1.000000
 50
90.000000
  0
INSERT
  8
31
  2
RECT
 10
0.846850
 20
0.475000
 30
0.000000
 41
0.013622
 42
0.049055
 43
1.000000
 50
90.000000
  0
INSERT
  8
31
  2
RECT
 10
0.846850
 20
0.525000
 30
0.000000
 41
0.013622
 42
0.049055
 43
1.000000
 50
90.000000
  0
INSERT
  8
31
  2
RECT
 10
0.846850
 20
0.575000
 30
0.000000
 41
0.013622
 42
0.049055
 43
1.000000
 50
90.000000
  0
INSERT
  8
31
  2
RECT
 10
0.846850
 20
0.625000
 30
0.000000
 41
0.013622
 42
0.049055
 43
1.000000
 50
90.000000
  0
INSERT
  8
31
  2
RECT
 10
0.846850
 20
0.675000
 30
0.000000
 41
0.013622
 42
0.049055
 43
1.000000
 50
90.000000
  0
INSERT
  8
31
  2
RECT
 10
0.846850
 20
0.725000
 30
0.000000
 41
0.013622
 42
0.049055
 43
1.000000
 50
90.000000
  0
INSERT
  8
31
  2
RECT
 10
0.846850
 20
0.775000
 30
0.000000
 41
0.013622
 42
0.049055
 43
1.000000
 50
90.000000
  0
INSERT
  8
31
  2
RECT
 10
0.453150
 20
0.775000
 30
0.000000
 41
0.013622
 42
0.049055
 43
1.000000
 50
90.000000
  0
INSERT
  8
31
  2
RECT
 10
0.453150
 20
0.725000
 30
0.000000
 41
0.013622
 42
0.049055
 43
1.000000
 50
90.000000
  0
INSERT
  8
31
  2
RECT
 10
0.453150
 20
0.675000
 30
0.000000
 41
0.013622
 42
0.049055
 43
1.000000
 50
90.000000
  0
INSERT
  8
31
  2
RECT
 10
0.453150
 20
0.625000
 30
0.000000
 41
0.013622
 42
0.049055
 43
1.000000
 50
90.000000
  0
INSERT
  8
31
  2
RECT
 10
0.453150
 20
0.575000
 30
0.000000
 41
0.013622
 42
0.049055
 43
1.000000
 50
90.000000
  0
INSERT
  8
31
  2
RECT
 10
0.453150
 20
0.525000
 30
0.000000
 41
0.013622
 42
0.049055
 43
1.000000
 50
90.000000
  0
INSERT
  8
31
  2
RECT
 10
0.453150
 20
0.475000
 30
0.000000
 41
0.013622
 42
0.049055
 43
1.000000
 50
90.000000
  0
INSERT
  8
31
  2
RECT
 10
0.453150
 20
0.425000
 30
0.000000
 41
0.013622
 42
0.049055
 43
1.000000
 50
90.000000
  0
INSERT
  8
31
  2
RECT
 10
0.453150
 20
0.375000
 30
0.000000
 41
0.013622
 42
0.049055
 43
1.000000
 50
90.000000
  0
INSERT
  8
31
  2
RECT
 10
0.453150
 20
0.325000
 30
0.000000
 41
0.013622
 42
0.049055
 43
1.000000
 50
90.000000
  0
ENDSEC
  0
EOF
