  0
SECTION
  2
HEADER
  9
$ACADVER
  1
AC1009
  9
$FILLMODE
 70
0
  9
$EXTMIN
 10
0.000000
 20
0.000000
 30
0.000000
  9
$EXTMAX
 10
1.255000
 20
1.575000
 30
0.000000
  0
ENDSEC
  0
SECTION
  2
TABLES
  0
TABLE
  2
LTYPE
 70
1
  0
LTYPE
  2
CONTINUOUS
 70
64
  3
Solid line
 72
65
 73
0
 40
0
  0
ENDTAB
  0
TABLE
  2
LAYER
 70
255
  0
LAYER
  2
20
 70
64
 62
178
  6
CONTINUOUS
  0
LAYER
  2
31
 70
64
 62
251
  6
CONTINUOUS
  0
ENDTAB
  0
ENDSEC
  0
SECTION
  2
BLOCKS
  0
BLOCK
  8
0
  2
RECT
 70
64
 10
0.000000
 20
0.000000
 30
0.000000
  3
RECT
  0
SOLID
  8
0
 10
-0.500000
 20
-0.500000
 30
0.000000
 11
0.500000
 21
-0.500000
 31
0.000000
 12
-0.500000
 22
0.500000
 32
0.000000
 13
0.500000
 23
0.500000
 33
0.000000
  0
ENDBLK
  8
0
  0
BLOCK
  8
0
  2
PIE
 70
64
 10
0.000000
 20
0.000000
 30
0.000000
  3
PIE
  0
CIRCLE
  8
0
 10
0.000000
 20
0.000000
 30
0.000000
 40
0.500000
  0
ENDBLK
  8
0
  0
BLOCK
  8
0
  2
OCTAGONP
 70
64
 10
0.000000
 20
0.000000
 30
0.000000
  3
OCTAGONP
  0
POLYLINE
  8
0
 66
1
 10
0.000000
 20
0.000000
 30
0.000000
 40
0.000000
 41
0.000000
 70
1
  0
VERTEX
  8
0
 10
-0.500000
 20
-0.207107
 30
0.000000
  0
VERTEX
  8
0
 10
-0.500000
 20
0.207107
 30
0.000000
  0
VERTEX
  8
0
 10
-0.207107
 20
0.500000
 30
0.000000
  0
VERTEX
  8
0
 10
0.207107
 20
0.500000
 30
0.000000
  0
VERTEX
  8
0
 10
0.500000
 20
0.207107
 30
0.000000
  0
VERTEX
  8
0
 10
0.500000
 20
-0.207107
 30
0.000000
  0
VERTEX
  8
0
 10
0.207107
 20
-0.500000
 30
0.000000
  0
VERTEX
  8
0
 10
-0.207107
 20
-0.500000
 30
0.000000
  0
SEQEND
  8
0
  0
ENDBLK
  8
0
  0
BLOCK
  8
0
  2
SQUAREP
 70
64
 10
0.000000
 20
0.000000
 30
0.000000
  3
SQUAREP
  0
SOLID
  8
0
 10
-0.500000
 20
-0.500000
 30
0.000000
 11
0.500000
 21
-0.500000
 31
0.000000
 12
-0.500000
 22
0.500000
 32
0.000000
 13
0.500000
 23
0.500000
 33
0.000000
  0
ENDBLK
  8
0
  0
BLOCK
  8
0
  2
ROUNDP
 70
64
 10
0.000000
 20
0.000000
 30
0.000000
  3
ROUNDP
  0
CIRCLE
  8
0
 10
0.000000
 20
0.000000
 30
0.000000
 40
0.500000
  0
ENDBLK
  8
0
  0
BLOCK
  8
0
  2
ANNULUSP
 70
64
 10
0.000000
 20
0.000000
 30
0.000000
  3
ANNULUSP
  0
CIRCLE
  8
0
 10
0.000000
 20
0.000000
 30
0.000000
 40
0.500000
  0
ENDBLK
  8
0
  0
BLOCK
  8
0
  2
THERMALP
 70
64
 10
0.000000
 20
0.000000
 30
0.000000
  3
THERMALP
  0
LINE
  8
0
 10
-0.237868
 20
0.450000
 30
0.000000
 11
0.237868
 21
0.450000
 31
0.000000
  0
LINE
  8
0
 10
0.450000
 20
0.237868
 30
0.000000
 11
0.450000
 21
-0.237868
 31
0.000000
  0
LINE
  8
0
 10
0.237868
 20
-0.450000
 30
0.000000
 11
-0.237868
 21
-0.450000
 31
0.000000
  0
LINE
  8
0
 10
-0.450000
 20
-0.237868
 30
0.000000
 11
-0.450000
 21
0.237868
 31
0.000000
  0
ENDBLK
  8
0
  0
BLOCK
  8
0
  2
OCTAGONV
 70
64
 10
0.000000
 20
0.000000
 30
0.000000
  3
OCTAGONV
  0
POLYLINE
  8
0
 66
1
 10
0.000000
 20
0.000000
 30
0.000000
 40
0.000000
 41
0.000000
 70
1
  0
VERTEX
  8
0
 10
-0.500000
 20
-0.207107
 30
0.000000
  0
VERTEX
  8
0
 10
-0.500000
 20
0.207107
 30
0.000000
  0
VERTEX
  8
0
 10
-0.207107
 20
0.500000
 30
0.000000
  0
VERTEX
  8
0
 10
0.207107
 20
0.500000
 30
0.000000
  0
VERTEX
  8
0
 10
0.500000
 20
0.207107
 30
0.000000
  0
VERTEX
  8
0
 10
0.500000
 20
-0.207107
 30
0.000000
  0
VERTEX
  8
0
 10
0.207107
 20
-0.500000
 30
0.000000
  0
VERTEX
  8
0
 10
-0.207107
 20
-0.500000
 30
0.000000
  0
SEQEND
  8
0
  0
ENDBLK
  8
0
  0
BLOCK
  8
0
  2
SQUAREV
 70
64
 10
0.000000
 20
0.000000
 30
0.000000
  3
SQUAREV
  0
SOLID
  8
0
 10
-0.500000
 20
-0.500000
 30
0.000000
 11
0.500000
 21
-0.500000
 31
0.000000
 12
-0.500000
 22
0.500000
 32
0.000000
 13
0.500000
 23
0.500000
 33
0.000000
  0
ENDBLK
  8
0
  0
BLOCK
  8
0
  2
ROUNDV
 70
64
 10
0.000000
 20
0.000000
 30
0.000000
  3
ROUNDV
  0
CIRCLE
  8
0
 10
0.000000
 20
0.000000
 30
0.000000
 40
0.500000
  0
ENDBLK
  8
0
  0
BLOCK
  8
0
  2
ANNULUSV
 70
64
 10
0.000000
 20
0.000000
 30
0.000000
  3
ANNULUSV
  0
CIRCLE
  8
0
 10
0.000000
 20
0.000000
 30
0.000000
 40
0.500000
  0
ENDBLK
  8
0
  0
BLOCK
  8
0
  2
THERMALV
 70
64
 10
0.000000
 20
0.000000
 30
0.000000
  3
THERMALV
  0
LINE
  8
0
 10
-0.237868
 20
0.450000
 30
0.000000
 11
0.237868
 21
0.450000
 31
0.000000
  0
LINE
  8
0
 10
0.450000
 20
0.237868
 30
0.000000
 11
0.450000
 21
-0.237868
 31
0.000000
  0
LINE
  8
0
 10
0.237868
 20
-0.450000
 30
0.000000
 11
-0.237868
 21
-0.450000
 31
0.000000
  0
LINE
  8
0
 10
-0.450000
 20
-0.237868
 30
0.000000
 11
-0.450000
 21
0.237868
 31
0.000000
  0
ENDBLK
  8
0
  0
ENDSEC
  0
SECTION
  2
ENTITIES
  0
LINE
  8
20
 10
1.255000
 20
0.000000
 30
0.000000
 11
1.255000
 21
1.575000
 31
0.000000
  0
LINE
  8
20
 10
1.255000
 20
1.575000
 30
0.000000
 11
0.000000
 21
1.575000
 31
0.000000
  0
LINE
  8
20
 10
0.000000
 20
1.575000
 30
0.000000
 11
0.000000
 21
0.000000
 31
0.000000
  0
LINE
  8
20
 10
1.255000
 20
0.000000
 30
0.000000
 11
0.000000
 21
0.000000
 31
0.000000
  0
INSERT
  8
31
  2
RECT
 10
1.051532
 20
0.882897
 30
0.000000
 41
0.033307
 42
0.029370
 43
1.000000
 50
270.000000
  0
INSERT
  8
31
  2
RECT
 10
1.051532
 20
0.815968
 30
0.000000
 41
0.033307
 42
0.029370
 43
1.000000
 50
270.000000
  0
INSERT
  8
31
  2
RECT
 10
0.118031
 20
0.976575
 30
0.000000
 41
0.052992
 42
0.060866
 43
1.000000
 50
90.000000
  0
INSERT
  8
31
  2
RECT
 10
0.118031
 20
1.086811
 30
0.000000
 41
0.052992
 42
0.060866
 43
1.000000
 50
90.000000
  0
INSERT
  8
31
  2
RECT
 10
0.959471
 20
1.041180
 30
0.000000
 41
0.052992
 42
0.060866
 43
1.000000
 50
180.000000
  0
INSERT
  8
31
  2
RECT
 10
0.849234
 20
1.041180
 30
0.000000
 41
0.052992
 42
0.060866
 43
1.000000
 50
180.000000
  0
INSERT
  8
31
  2
RECT
 10
0.930000
 20
1.418110
 30
0.000000
 41
0.068740
 42
0.108110
 43
1.000000
 50
90.000000
  0
INSERT
  8
31
  2
RECT
 10
0.930000
 20
1.181890
 30
0.000000
 41
0.068740
 42
0.108110
 43
1.000000
 50
90.000000
  0
INSERT
  8
31
  2
RECT
 10
0.693661
 20
0.685315
 30
0.000000
 41
0.033307
 42
0.029370
 43
1.000000
 50
180.000000
  0
INSERT
  8
31
  2
RECT
 10
0.626732
 20
0.685315
 30
0.000000
 41
0.033307
 42
0.029370
 43
1.000000
 50
180.000000
  0
INSERT
  8
31
  2
RECT
 10
0.565197
 20
0.683228
 30
0.000000
 41
0.014803
 42
0.022677
 43
1.000000
 50
180.000000
  0
INSERT
  8
31
  2
RECT
 10
0.474646
 20
0.683228
 30
0.000000
 41
0.014803
 42
0.022677
 43
1.000000
 50
180.000000
  0
INSERT
  8
31
  2
RECT
 10
0.558892
 20
0.304813
 30
0.000000
 41
0.037000
 42
0.039000
 43
1.000000
 50
180.000000
  0
INSERT
  8
31
  2
RECT
 10
0.476892
 20
0.304813
 30
0.000000
 41
0.037000
 42
0.039000
 43
1.000000
 50
180.000000
  0
INSERT
  8
31
  2
RECT
 10
0.552717
 20
0.419843
 30
0.000000
 41
0.029370
 42
0.033307
 43
1.000000
 50
180.000000
  0
INSERT
  8
31
  2
RECT
 10
0.485787
 20
0.419843
 30
0.000000
 41
0.029370
 42
0.033307
 43
1.000000
 50
180.000000
  0
INSERT
  8
31
  2
RECT
 10
0.485984
 20
0.570433
 30
0.000000
 41
0.029370
 42
0.033307
 43
1.000000
 50
0.000000
  0
INSERT
  8
31
  2
RECT
 10
0.552913
 20
0.570433
 30
0.000000
 41
0.029370
 42
0.033307
 43
1.000000
 50
0.000000
  0
INSERT
  8
31
  2
RECT
 10
0.726024
 20
0.419843
 30
0.000000
 41
0.029370
 42
0.033307
 43
1.000000
 50
180.000000
  0
INSERT
  8
31
  2
RECT
 10
0.659094
 20
0.419843
 30
0.000000
 41
0.029370
 42
0.033307
 43
1.000000
 50
180.000000
  0
INSERT
  8
31
  2
RECT
 10
0.659578
 20
0.306513
 30
0.000000
 41
0.029370
 42
0.033307
 43
1.000000
 50
0.000000
  0
INSERT
  8
31
  2
RECT
 10
0.726508
 20
0.306513
 30
0.000000
 41
0.029370
 42
0.033307
 43
1.000000
 50
0.000000
  0
INSERT
  8
31
  2
RECT
 10
0.698661
 20
0.569764
 30
0.000000
 41
0.029370
 42
0.033307
 43
1.000000
 50
180.000000
  0
INSERT
  8
31
  2
RECT
 10
0.631732
 20
0.569764
 30
0.000000
 41
0.029370
 42
0.033307
 43
1.000000
 50
180.000000
  0
INSERT
  8
31
  2
RECT
 10
0.889263
 20
0.814697
 30
0.000000
 41
0.029370
 42
0.033307
 43
1.000000
 50
90.000000
  0
INSERT
  8
31
  2
RECT
 10
0.889263
 20
0.881626
 30
0.000000
 41
0.029370
 42
0.033307
 43
1.000000
 50
90.000000
  0
INSERT
  8
31
  2
RECT
 10
0.288031
 20
0.838693
 30
0.000000
 41
0.023900
 42
0.084900
 43
1.000000
 50
0.000000
  0
INSERT
  8
31
  2
RECT
 10
0.338031
 20
0.838693
 30
0.000000
 41
0.023900
 42
0.084900
 43
1.000000
 50
0.000000
  0
INSERT
  8
31
  2
RECT
 10
0.388031
 20
0.838693
 30
0.000000
 41
0.023900
 42
0.084900
 43
1.000000
 50
0.000000
  0
INSERT
  8
31
  2
RECT
 10
0.438031
 20
0.838693
 30
0.000000
 41
0.023900
 42
0.084900
 43
1.000000
 50
0.000000
  0
INSERT
  8
31
  2
RECT
 10
0.488031
 20
0.838693
 30
0.000000
 41
0.023900
 42
0.084900
 43
1.000000
 50
0.000000
  0
INSERT
  8
31
  2
RECT
 10
0.538031
 20
0.838693
 30
0.000000
 41
0.023900
 42
0.084900
 43
1.000000
 50
0.000000
  0
INSERT
  8
31
  2
RECT
 10
0.588031
 20
0.838693
 30
0.000000
 41
0.023900
 42
0.084900
 43
1.000000
 50
0.000000
  0
INSERT
  8
31
  2
RECT
 10
0.638031
 20
0.838693
 30
0.000000
 41
0.023900
 42
0.084900
 43
1.000000
 50
0.000000
  0
INSERT
  8
31
  2
RECT
 10
0.688031
 20
0.838693
 30
0.000000
 41
0.023900
 42
0.084900
 43
1.000000
 50
0.000000
  0
INSERT
  8
31
  2
RECT
 10
0.738031
 20
0.838693
 30
0.000000
 41
0.023900
 42
0.084900
 43
1.000000
 50
0.000000
  0
INSERT
  8
31
  2
RECT
 10
0.788031
 20
0.838693
 30
0.000000
 41
0.023900
 42
0.084900
 43
1.000000
 50
0.000000
  0
INSERT
  8
31
  2
RECT
 10
0.538031
 20
1.216693
 30
0.000000
 41
0.516000
 42
0.349000
 43
1.000000
 50
90.000000
  0
CIRCLE
  8
20
 10
1.135000
 20
1.455000
 30
0.000000
 40
0.060000
  0
CIRCLE
  8
20
 10
0.120000
 20
0.820000
 30
0.000000
 40
0.060000
  0
CIRCLE
  8
20
 10
0.120000
 20
1.455000
 30
0.000000
 40
0.060000
  0
CIRCLE
  8
20
 10
0.625000
 20
0.125000
 30
0.000000
 40
0.060000
  0
ENDSEC
  0
EOF
